<svg width="63" height="62" viewBox="0 0 63 62" fill="none" xmlns="http://www.w3.org/2000/svg">
<g clip-path="url(#clip0_9_2225)">
<path fill-rule="evenodd" clip-rule="evenodd" d="M31.5145 0C48.7814 0.0286154 62.9758 14.0072 63 31C63 48.0977 48.8735 62 31.5145 62H31.4952C14.2186 62 0 48.0071 0 31.0048C0 22.7874 3.32446 14.8943 9.22708 9.08538C15.12 3.25262 23.1549 -0.0238462 31.5145 0.00476923V0Z" fill="#FFC627"/>
<path fill-rule="evenodd" clip-rule="evenodd" d="M31.5145 59.5343C47.4826 59.5343 60.48 46.748 60.48 31C60.48 15.2806 47.4874 2.47999 31.5145 2.47999C15.5125 2.46568 2.51999 15.2663 2.51999 30.9857C2.51999 46.7337 15.5125 59.5343 31.5145 59.5343Z" fill="#8B2332"/>
<path fill-rule="evenodd" clip-rule="evenodd" d="M4.66199 30.9856C4.66199 16.4299 16.7095 4.58789 31.5 4.58789C46.2178 4.58789 58.3283 16.5062 58.3283 30.9903C58.3283 45.4745 46.2178 57.3928 31.5 57.3928C16.7095 57.4071 4.66199 45.5508 4.66199 30.9808" fill="#0D2240"/>
<path fill-rule="evenodd" clip-rule="evenodd" d="M52.6341 19.9355L53.235 19.6112L51.3111 16.6686L50.778 17.0549C47.502 12.9772 41.6769 8.43688 36.1281 7.75488C40.3006 9.62919 44.9965 14.4223 47.8606 18.1089L44.8511 20.2646L45.2146 20.8083L31.6066 29.5026L17.9986 20.8083L18.3621 20.2646L15.3381 18.1089C18.2215 14.4175 22.8981 9.62919 27.09 7.75488C21.5605 8.43688 15.7354 12.9772 12.474 17.0406L11.907 16.6352L9.98306 19.5635L10.584 19.9069L10.5694 19.9403C8.17545 24.576 6.41145 31.7203 8.12699 36.9569C8.07852 32.4309 10.5549 26.2166 12.7744 22.0769L16.0214 23.8749L16.3509 23.3646L28.98 31.1766L12.3189 41.8406L12.285 41.8072L10.0509 42.3986L10.0848 42.4606C9.97337 42.866 10.1818 43.6243 10.6518 44.354C11.1268 45.098 11.7228 45.5797 12.1784 45.6703L12.2123 45.7323L13.6952 43.9629L13.6807 43.9343L46.8671 23.398L47.1967 23.9083L50.4581 22.1103C52.6777 26.25 55.1541 32.4786 55.1201 36.9903C56.8211 31.7346 55.0426 24.576 52.6486 19.9403" fill="#FFC627"/>
<path fill-rule="evenodd" clip-rule="evenodd" d="M50.9186 41.8023L50.8846 41.8357L35.5611 32.0397L32.8812 33.604L49.5277 43.9103L49.5132 43.9437L50.9912 45.713L51.0397 45.651C51.4807 45.5747 52.0816 45.0787 52.5662 44.3347C53.0218 43.605 53.2447 42.861 53.1332 42.4413L53.1672 42.3793L50.9137 41.807L50.9186 41.8023ZM34.2236 10.3826L33.075 11.8706L31.4855 8.11719V25.4295L36.8405 18.6715L42.2294 20.0498L34.2284 10.3778L34.2236 10.3826Z" fill="#FFC627"/>
<path fill-rule="evenodd" clip-rule="evenodd" d="M34.2235 14.4461V10.3827L33.075 11.8707L34.2235 14.4413V14.4461ZM31.4806 8.12207L21.7641 19.7924L26.0481 18.705L31.4806 25.4344V8.12207Z" fill="white"/>
<path fill-rule="evenodd" clip-rule="evenodd" d="M25.7815 51.77C27.1481 50.4728 28.917 49.6716 30.807 49.4903V46.9006H23.5475C23.688 48.732 24.4828 50.4537 25.7864 51.77M30.7925 54.1737V51.1071C29.3822 51.2788 28.0641 51.8749 27.0125 52.8145C28.1368 53.5728 29.4355 54.0402 30.7925 54.1785" fill="#FFC627"/>
<path fill-rule="evenodd" clip-rule="evenodd" d="M32.4111 38.2875V41.3398C33.8165 41.1776 35.1346 40.5815 36.1765 39.6324C35.0522 38.8836 33.7583 38.421 32.4111 38.2827M37.4172 40.6864C36.0554 41.9789 34.2914 42.7753 32.4062 42.9518V45.3078H39.6512C39.4332 43.5718 38.6481 41.9503 37.4123 40.6864M30.7828 41.3398V38.2875C29.4307 38.421 28.1368 38.8884 27.0173 39.6515C28.0641 40.5863 29.3774 41.1776 30.7828 41.3398Z" fill="white"/>
<path fill-rule="evenodd" clip-rule="evenodd" d="M32.4111 46.9053V49.495C34.2962 49.6667 36.0651 50.4679 37.422 51.7747C38.7353 50.4679 39.5349 48.7414 39.6755 46.9053H32.4159H32.4111Z" fill="#FFC627"/>
<path fill-rule="evenodd" clip-rule="evenodd" d="M23.5475 45.3077H30.7925V42.9517C28.9073 42.7704 27.1385 41.974 25.767 40.6863C24.5361 41.9501 23.7607 43.5717 23.5475 45.3077Z" fill="white"/>
<path fill-rule="evenodd" clip-rule="evenodd" d="M32.4111 54.1737C33.7631 54.0401 35.0571 53.5728 36.1765 52.8097C35.1346 51.8654 33.8165 51.2692 32.4111 51.1023V54.1689V54.1737Z" fill="#FFC627"/>
</g>
<defs>
<clipPath id="clip0_9_2225">
<rect width="63" height="62" fill="white"/>
</clipPath>
</defs>
</svg>
