<svg width="122" height="150" viewBox="0 0 122 150" fill="none" xmlns="http://www.w3.org/2000/svg">
<path d="M54.8641 1.15503V1.46382C55.0713 1.45667 55.1803 1.55906 55.1803 1.76144V9.33226C55.1781 9.52988 55.0736 9.62989 54.8641 9.62989L54.8603 9.92751H57.3268L57.3306 9.6336C57.0735 9.63122 56.9474 9.53568 56.9474 9.32853V3.7928L62.0331 9.09805L62.2972 9.48123L62.0852 9.63377V9.92768H64.7823V9.63377C64.5681 9.63377 64.4648 9.53481 64.4624 9.33243L64.4662 1.76161C64.4662 1.56161 64.5682 1.46398 64.7824 1.46398V1.15891H62.2637V1.46398C62.5542 1.46398 62.699 1.56161 62.699 1.76161V7.05924L57.9141 2.09266C57.6894 1.87605 57.5808 1.71816 57.5827 1.62768L57.7129 1.45655V1.15892L54.8641 1.15503ZM50.4779 1.23316L50.1877 1.29268L50.1022 1.60892C50.0236 1.69939 49.8657 1.75951 49.6371 1.80237L42.178 3.26445L42.2375 3.55463L42.4532 3.59183L42.5872 3.79645L44.0381 11.2221L43.9935 11.4639L43.7963 11.5718L43.8558 11.8694L51.4826 10.3854L51.8921 10.3407L52.1036 10.5862L52.3931 10.5304L51.9512 8.28709L51.6636 8.33909L51.5683 8.68139L51.1874 8.87491L45.7225 9.93893L45.2844 7.68441L48.4902 7.05564C48.7068 7.01754 48.8838 7.02156 49.0147 7.0668C49.1528 7.11204 49.2448 7.2622 49.29 7.51696L49.5877 7.45L49.0891 4.90157L48.7952 4.96109C48.8428 5.20871 48.8131 5.38237 48.7059 5.46333C48.5988 5.54904 48.4339 5.60515 48.2149 5.64562L45.0091 6.27802L44.6148 4.25036L49.9159 3.21624C50.1421 3.171 50.312 3.16832 50.4144 3.20879L50.6078 3.45434L50.9017 3.3911L50.4779 1.23316ZM77.1375 3.39453C76.6018 3.41358 76.1379 3.50257 75.7498 3.65496C75.3593 3.8121 75.0413 4.02877 74.7937 4.30973C74.5508 4.58831 74.3843 4.89264 74.2915 5.22122C74.1534 5.7117 74.1333 6.14282 74.2357 6.50473C74.338 6.8595 74.519 7.16547 74.7714 7.42738C75.0285 7.69167 75.346 7.91369 75.7126 8.09703C76.0817 8.28275 76.4683 8.44422 76.8659 8.59184C77.2612 8.73708 77.6521 8.87116 78.0378 8.99735C78.4259 9.12116 78.7691 9.25732 79.0572 9.39542C79.3477 9.53589 79.566 9.68634 79.7231 9.85301C79.8755 10.0244 79.9211 10.2351 79.8496 10.478C79.783 10.728 79.6237 10.8972 79.3809 10.9877C79.1356 11.0829 78.8611 11.1307 78.5587 11.1402C78.2587 11.1474 77.9597 11.1267 77.6621 11.0695C77.3692 11.0195 77.1311 10.9646 76.9478 10.917C76.7002 10.8432 76.4259 10.7386 76.133 10.5933C75.8354 10.4457 75.5667 10.2907 75.3071 10.1097C75.05 9.94065 74.8282 9.75731 74.6449 9.57397L74.3116 9.0753L74.3154 8.79255L74.1777 8.6735L72.7528 10.3737L72.9426 10.5634L73.1881 10.4927L73.5713 10.7271C73.7094 10.8533 73.899 11.0011 74.1442 11.1773C74.3919 11.3606 74.7112 11.5422 75.1041 11.7279C75.4969 11.9112 75.9952 12.0847 76.6071 12.2562C77.0452 12.3776 77.5294 12.4786 78.058 12.5501C78.5866 12.6239 79.0969 12.6185 79.5945 12.5352C80.0897 12.4542 80.5335 12.2831 80.9264 12.0069C81.3192 11.7379 81.5938 11.3228 81.7486 10.7681C81.8819 10.2847 81.8966 9.86432 81.7895 9.51431C81.6895 9.16193 81.5109 8.85598 81.2537 8.59167C81.0014 8.33214 80.6853 8.10505 80.3162 7.91457C79.9472 7.72647 79.5619 7.55995 79.1666 7.41233C78.769 7.27185 78.3781 7.13406 77.9947 7.0031C77.609 6.87215 77.2746 6.72795 76.9865 6.58271C76.7008 6.42795 76.4804 6.27467 76.328 6.08419C76.1757 5.90323 76.1376 5.69028 76.209 5.43313L76.5364 5.03133C76.7031 4.94561 76.9004 4.89041 77.1242 4.87136C77.348 4.85231 77.5915 4.85797 77.8534 4.89368C78.12 4.92701 78.3665 4.97687 78.5974 5.03877C78.9141 5.12687 79.2137 5.24323 79.5089 5.38847C79.8042 5.53371 80.0659 5.69219 80.3088 5.86839C80.5516 6.03268 80.7509 6.21066 80.9152 6.38924L81.2351 6.88405L81.2612 7.28211L81.4063 7.40116L83.073 5.69726L82.9167 5.51869L82.5707 5.52613L82.0796 5.25081C81.8967 5.10567 81.6643 4.94452 81.3881 4.76357C81.1062 4.57537 80.7767 4.39156 80.3805 4.18679C79.9843 3.9845 79.5062 3.80183 78.9366 3.63992C78.2719 3.45897 77.6747 3.38272 77.1375 3.39453ZM35.95 5.52639C35.3929 5.55734 34.83 5.68948 34.261 5.91329L29.1196 7.952L29.2349 8.23474C29.4658 8.14189 29.6261 8.18534 29.6999 8.36867L32.4962 15.4113C32.5676 15.597 32.491 15.7327 32.2506 15.828L32.3622 16.107L37.5075 14.0608C38.0718 13.8347 38.5694 13.5471 38.9956 13.1828C39.4218 12.8233 39.7455 12.404 39.974 11.9254C40.2026 11.4444 40.3153 10.9074 40.32 10.3145C40.3248 9.724 40.1859 9.08023 39.9145 8.3874C39.6407 7.69215 39.2972 7.1341 38.8877 6.69837C38.4758 6.27694 38.025 5.96621 37.5298 5.77573C37.0345 5.58287 36.5071 5.50266 35.9524 5.52647L35.95 5.52639ZM86.6844 5.78681L85.6836 7.9L85.9552 8.03021L86.2119 7.79955L86.517 7.85164L89.0022 9.03469L86.1598 15.0281L85.9812 15.1918L85.758 15.1732L85.6315 15.4374L87.9531 16.5423L88.0796 16.2707C87.8558 16.1707 87.793 16.0249 87.8787 15.8392L90.721 9.84209L93.2062 11.0251L93.4332 11.2223L93.4294 11.5646L93.6941 11.6947L94.6941 9.58532L94.4237 9.45885L94.1589 9.6859L93.8618 9.63752L87.1683 6.46412L86.9416 6.26678L86.9492 5.91706L86.6807 5.78696L86.6844 5.78681ZM36.0586 7.08512C36.2378 7.09792 36.4052 7.13349 36.5683 7.19301C36.8873 7.30968 37.178 7.52784 37.4351 7.82546C37.6946 8.13261 37.9277 8.54854 38.142 9.08665C38.3563 9.62952 38.4777 10.0905 38.4991 10.4929C38.5182 10.8882 38.4516 11.2423 38.2945 11.5495C38.1421 11.8543 37.9027 12.1171 37.5765 12.3456C37.2455 12.5718 36.8406 12.7839 36.3525 12.9744L33.9505 13.934L31.7696 8.44286L34.1734 7.49427C34.6591 7.30141 35.1036 7.17061 35.4941 7.11109C35.6929 7.08132 35.8794 7.07232 36.0586 7.08512ZM98.496 12.4572L98.3265 12.7066L98.4789 12.9298L98.4446 13.1902L98.1951 13.4022L97.7932 13.6218L91.6064 17.264L91.1797 17.476L90.7702 17.4686L90.6064 17.7105L92.5664 19.0423L92.734 18.7894L92.574 18.4545C92.6288 18.3759 92.7706 18.2729 92.9944 18.142L94.1514 17.4984L97.522 19.7678L97.3583 21.148C97.3344 21.3432 97.2862 21.488 97.2243 21.5833L97.0569 21.6503L96.8932 21.5982L96.7258 21.8437L99.1552 23.4844L99.3263 23.2426L99.1515 22.9189L99.1105 22.5766L100.033 15.0094L100.082 14.6188L100.186 14.3658L100.416 14.2282L100.666 14.2877L100.828 14.038L98.4942 12.4568L98.496 12.4572ZM21.2888 12.4908L18.8523 14.0013L19.0123 14.258C19.2933 14.0795 19.4927 14.0731 19.5927 14.2469L23.5884 20.6794C23.6908 20.846 23.6025 21.023 23.3168 21.2039L23.4731 21.4569L30.2218 17.2715L30.5864 17.0818L30.8691 17.2417L31.1258 17.0818L29.9242 15.1434L29.6675 15.3034L29.6972 15.6606L29.4153 15.9665L24.7048 18.8907L21.2114 13.2434C21.1066 13.0767 21.1852 12.9152 21.4495 12.7486L21.2888 12.4908ZM59.6038 12.5838C27.3251 12.5838 1.16456 38.7595 1.16456 71.0345C1.16456 103.302 27.3232 129.462 59.6038 129.462C91.8826 129.462 118.039 103.302 118.039 71.0345C118.039 38.7595 91.8845 12.5838 59.6038 12.5838ZM98.2922 15.0615L97.7151 18.4098L95.256 16.7543L98.2922 15.0615ZM105.253 16.7133L103.668 18.4321L103.895 18.633L104.211 18.4954L104.483 18.633L106.507 20.4969L102.009 25.378L101.786 25.4784L101.585 25.3928L101.384 25.6161L103.27 27.3609L103.475 27.134L103.408 26.6652L107.906 21.788L109.926 23.6518L110.086 23.916L109.97 24.2397L110.197 24.448L111.775 22.7255L111.555 22.5209L111.235 22.6622L110.967 22.5209L105.521 17.5036L105.365 17.247L105.476 16.9196L105.253 16.7112L105.253 16.7133ZM16.0245 18.1345C15.7102 18.1077 15.3938 18.1152 15.0795 18.1568C14.4438 18.2354 13.8298 18.4241 13.2417 18.7074C12.6464 19.0003 12.1231 19.3511 11.6754 19.7677C11.2207 20.1749 10.8227 20.6631 10.4775 21.2298C10.1346 21.7941 9.8925 22.3806 9.75203 23.0044C9.61631 23.6258 9.61125 24.2613 9.74458 24.9018C9.87315 25.5351 10.1965 26.1408 10.7156 26.7098C11.2299 27.2741 11.8055 27.6602 12.4269 27.8483C13.0508 28.0387 13.6811 28.0878 14.3169 28.0045C14.9502 27.9259 15.5551 27.7363 16.1361 27.4316C16.7147 27.1268 17.2327 26.7694 17.6875 26.3527C18.1375 25.9479 18.5394 25.4677 18.8966 24.9129C19.2513 24.3653 19.4988 23.7746 19.6369 23.1532C19.7774 22.5294 19.7814 21.9014 19.6481 21.2633C19.517 20.6214 19.1936 20.0175 18.677 19.4509C18.1627 18.8842 17.5896 18.5044 16.9657 18.3162C16.6537 18.2221 16.3388 18.1614 16.0245 18.1345ZM15.6338 19.8458C15.8397 19.866 16.0441 19.908 16.2477 19.9723C16.6477 20.1032 17.0048 20.3427 17.3191 20.6903C17.6358 21.0332 17.8388 21.4155 17.9292 21.825C18.0197 22.2393 18.0251 22.653 17.9441 23.0601C17.8608 23.4768 17.7056 23.8747 17.4865 24.2581C17.2627 24.6438 16.9949 24.9755 16.6829 25.2588C16.371 25.5469 16.0176 25.7861 15.6152 25.9694C15.2128 26.1551 14.8005 26.2654 14.3838 26.3154C13.9647 26.3535 13.5558 26.3151 13.1486 26.1889C12.7462 26.058 12.384 25.8212 12.0697 25.4783C11.7554 25.1259 11.5538 24.7457 11.4633 24.3362C11.3728 23.9243 11.3675 23.5079 11.4484 23.0936C11.5294 22.6793 11.6822 22.2827 11.906 21.8994C12.1275 21.5184 12.394 21.1833 12.7059 20.9024C13.0178 20.6119 13.3739 20.3812 13.7811 20.1955C14.1811 20.005 14.5897 19.8924 15.0088 19.8495C15.2195 19.8281 15.4279 19.8255 15.6338 19.8458ZM113.935 25.7238L113.704 25.9061L113.767 26.1107L113.648 26.3228L107.647 30.9434L107.417 31.003L107.231 30.8876L106.989 31.0737L111.732 37.2271L111.952 37.5694L111.829 37.8745L112.008 38.1126L113.819 36.7174L113.641 36.4756L113.291 36.5426L112.949 36.2933L109.548 31.8773L111.371 30.4821L113.366 33.0641L113.6 33.5328C113.614 33.6781 113.523 33.8285 113.321 33.9904L113.499 34.2211L115.564 32.6362L115.378 32.3944C115.178 32.554 115.014 32.6038 114.895 32.5395L114.504 32.1898L112.51 29.6004L114.147 28.343L117.443 32.6213L117.674 33.064L117.54 33.3468L117.722 33.5849L119.467 32.2418L119.281 32.0037L118.965 32.067L118.578 31.747L113.935 25.7238ZM5.22026 27.1933L5.0082 27.2826L5.00448 27.491L4.91892 27.7142L4.58038 27.9932C4.38751 28.1361 4.15612 28.3166 3.88468 28.5475C3.61325 28.7713 3.31726 29.0496 3.00297 29.3734C2.68868 29.6925 2.38704 30.0422 2.09893 30.4374C1.6394 31.0708 1.3013 31.7028 1.08701 32.3385C0.875101 32.9766 0.79489 33.5984 0.837748 34.1912C0.885368 34.7841 1.0559 35.348 1.35115 35.8765C1.64877 36.4027 2.07676 36.877 2.64582 37.2865C3.2125 37.7008 3.78424 37.9687 4.37949 38.0901C4.9676 38.2187 5.55079 38.2022 6.13176 38.0641C6.70796 37.9189 7.2678 37.6568 7.80591 37.2568C8.33687 36.8544 8.83926 36.3401 9.29403 35.7091C9.53213 35.3877 9.76115 35.0462 9.98972 34.7009C10.2183 34.3533 10.4173 33.979 10.5887 33.5886C10.7554 33.1957 10.8931 32.7884 10.9979 32.3646C11.1051 31.9384 11.1646 31.5003 11.1765 31.055L10.9607 30.8913L10.7263 31.0141L10.4957 30.9694L8.97406 29.8571L8.79177 29.6227C8.78939 29.5489 8.84192 29.4148 8.9443 29.2172L8.70249 29.0349L6.23958 32.4018L5.97544 32.6399L5.59597 32.5469L5.41739 32.7887L7.13617 34.0499L7.31846 33.8118L7.05804 33.4323L7.18453 33.0938L8.442 31.3676L9.60275 32.2121C9.48846 32.5764 9.32596 32.9856 9.11167 33.4547C8.89976 33.9309 8.60616 34.4197 8.22996 34.9316C7.9871 35.265 7.69646 35.5575 7.36312 35.817C7.03217 36.079 6.67368 36.2632 6.28796 36.3751C5.907 36.4799 5.49598 36.5007 5.06026 36.4197C4.6293 36.3483 4.19119 36.1459 3.75071 35.8245C3.30546 35.5031 2.97867 35.1414 2.78343 34.7605C2.58343 34.3724 2.47672 33.9737 2.4672 33.5737C2.45767 33.1737 2.52419 32.7737 2.67181 32.3832C2.81705 31.9856 3.01066 31.6191 3.2559 31.2857C3.45114 31.0167 3.67823 30.7448 3.933 30.471C4.19015 30.1995 4.45101 29.9628 4.71054 29.7604C4.97483 29.5628 5.2223 29.4196 5.45088 29.3363C5.68183 29.2482 5.86071 29.2464 5.99405 29.3511L6.13914 29.4962L6.41444 29.2804L5.22026 27.1933ZM112.331 105.732L112.234 105.78L111.907 105.911C111.84 106.273 111.803 106.425 111.732 106.506C111.718 106.542 111.478 106.698 111.107 106.908C109.936 107.534 109.04 108.09 108.369 108.604C107.709 109.109 107.083 109.732 106.498 110.468C105.198 112.063 104.541 113.59 104.541 115.051L104.563 115.438C104.651 116.631 105.199 117.641 106.185 118.429C106.776 118.908 107.416 119.203 108.097 119.315C108.3 119.343 108.497 119.363 108.711 119.363C109.245 119.363 109.751 119.258 110.244 119.025C110.718 118.815 111.144 118.558 111.52 118.258C111.884 117.961 112.46 117.43 113.239 116.64L114.418 115.468C115.194 114.692 115.766 114.208 116.085 114.024C116.299 113.896 116.502 113.846 116.688 113.846L117.249 114.065C117.466 114.249 117.636 114.496 117.722 114.832L117.778 115.341C117.778 115.527 117.76 115.713 117.714 115.918C117.545 116.616 117.166 117.337 116.587 118.061C116.042 118.73 115.347 119.338 114.519 119.888C113.683 120.454 112.975 120.778 112.394 120.874L112.115 120.903C111.863 120.903 111.668 120.834 111.502 120.691L111.394 120.602L110.958 120.743L110.854 120.788L112.733 124.475L113.161 124.293C113.23 123.95 113.259 123.78 113.287 123.761C113.292 123.758 113.534 123.606 113.92 123.411C115.832 122.527 117.413 121.328 118.63 119.821C119.323 118.975 119.856 118.094 120.244 117.202C120.629 116.301 120.829 115.487 120.829 114.723C120.829 114.457 120.807 114.198 120.747 113.946C120.545 112.912 120.038 112.05 119.215 111.39C118.698 110.971 118.122 110.685 117.488 110.549C117.186 110.473 116.898 110.449 116.603 110.449C116.272 110.449 115.955 110.493 115.636 110.572C115.071 110.743 114.518 111.008 113.965 111.375C113.427 111.744 112.795 112.283 112.083 112.99L110.892 114.188C110.111 114.992 109.562 115.489 109.274 115.687C108.993 115.877 108.731 115.966 108.5 115.966C108.302 115.966 108.11 115.904 107.92 115.746C107.698 115.554 107.544 115.305 107.492 114.95L107.462 114.642C107.462 114.38 107.519 114.095 107.615 113.804C107.841 113.257 108.184 112.682 108.653 112.108C109.715 110.798 110.978 109.935 112.44 109.504C112.652 109.44 112.845 109.403 113.002 109.403L113.333 109.493L113.448 109.615L113.891 109.493L113.988 109.452L112.332 105.735L112.331 105.732ZM8.87176 109.227L8.56661 109.57L8.51081 109.637L8.56289 109.715C8.75337 109.958 8.83819 110.198 8.83819 110.415C8.83819 110.641 8.74221 111.033 8.55173 111.564L4.49298 122.368C4.30012 122.883 4.13941 123.199 4.10608 123.235L3.70428 123.432L3.23553 123.272L3.14996 123.235L2.87094 123.555L2.79654 123.637L6.44994 126.911L6.76245 126.58L6.82569 126.517L6.77361 126.442C6.59503 126.173 6.52063 125.981 6.52063 125.817L6.62852 125.534C6.67376 125.492 6.92809 125.337 7.36143 125.151L15.1924 121.224L12.1939 129.249C12.0272 129.765 11.8872 130.083 11.8181 130.145L11.4461 130.335C11.3009 130.335 11.128 130.282 10.9327 130.156L10.8472 130.1L10.5644 130.432L10.4937 130.525L14.2029 133.839L14.5006 133.497L14.575 133.419L14.5117 133.356C14.3235 133.123 14.255 132.939 14.255 132.792L14.374 132.502C14.4573 132.406 14.7578 132.209 15.2483 131.966L25.5237 126.728C26.0642 126.456 26.4336 126.318 26.6026 126.296L26.6882 126.285C26.8453 126.285 27.0732 126.348 27.3541 126.493L27.4285 126.519L27.7187 126.211L27.7894 126.121L23.883 122.628L23.5742 122.966L23.5184 123.041L23.5742 123.123C23.7552 123.356 23.8347 123.549 23.8347 123.684L23.7454 123.945C23.6358 124.059 23.4055 124.218 23.046 124.399L16.1039 128.004L18.9314 120.545C19.0457 120.233 19.1397 120.043 19.1992 119.979L19.5452 119.823C19.6881 119.823 19.8637 119.866 20.0661 119.975L20.1331 120.016L20.4195 119.693L20.5051 119.607L16.3755 115.924L16.0741 116.259L16.0072 116.341L16.063 116.411C16.2273 116.626 16.2974 116.799 16.2974 116.932L16.1833 117.218C16.1475 117.273 15.947 117.404 15.6327 117.549L8.39671 121.124L11.28 113.717C11.3991 113.427 11.5145 113.224 11.6074 113.122L11.9162 112.98L12.3849 113.122L12.4705 113.166L12.7495 112.839L12.8239 112.761L8.86918 109.227L8.87176 109.227ZM102.106 117.539L101.838 117.55C101.25 117.583 100.644 117.758 100.041 118.063C99.4293 118.363 98.6982 118.86 97.8054 119.548L90.5024 125.184L90.7814 125.541L90.8223 125.604L90.9042 125.567L91.3469 125.463L91.4362 125.47L91.8045 125.746L99.3269 135.515L99.4943 135.906V135.928C99.4823 136.031 99.4134 136.197 99.2562 136.404L99.2116 136.479L99.4757 136.817L99.5464 136.907L103.326 133.99L103.044 133.625L102.991 133.551L102.913 133.592L102.471 133.7L102.396 133.692L102.032 133.432L99.1521 129.697L102.14 127.386L106.998 129.008C107.551 129.168 107.887 129.344 107.914 129.392L107.951 129.492L107.713 129.875L107.649 129.935L107.921 130.296L107.984 130.389L112.345 127.018L112.062 126.665L112.002 126.59L111.902 126.639C111.673 126.805 111.429 126.872 111.165 126.877H111.091C110.817 126.855 110.25 126.722 109.435 126.479L104.904 125.058C105.861 124.015 106.344 122.955 106.344 121.903C106.344 121.027 106.014 120.163 105.369 119.34C104.938 118.763 104.412 118.311 103.821 117.978C103.276 117.678 102.706 117.531 102.106 117.539ZM101.384 120.653C101.863 120.653 102.281 120.886 102.671 121.382C102.955 121.758 103.092 122.115 103.092 122.461L102.98 123.007C102.866 123.258 102.711 123.486 102.504 123.688C102.304 123.905 101.916 124.243 101.347 124.674L97.5413 127.598L95.3464 124.752L99.1522 121.832C99.7236 121.382 100.151 121.087 100.398 120.939C100.632 120.799 100.897 120.717 101.161 120.679L101.384 120.653ZM29.7238 125.805L29.5303 126.214L29.4968 126.285L29.5527 126.352C29.7479 126.543 29.8354 126.721 29.8354 126.895L29.7759 127.13C29.683 127.287 29.503 127.504 29.2029 127.732L19.4622 135.439C19.105 135.73 18.8473 135.901 18.6735 135.949L18.4095 135.985L18.0337 135.93L17.9371 135.907L17.7361 136.286L17.684 136.39L22.2192 138.619L22.4312 138.202L22.4684 138.124L22.3978 138.064C22.1335 137.852 22.0257 137.655 22.0257 137.495L22.0667 137.305C22.131 137.189 22.2716 137.022 22.5168 136.829L24.2951 135.423L30.0579 138.31V140.531C30.0579 140.847 30.0203 141.071 29.9798 141.171C29.875 141.359 29.7457 141.44 29.5147 141.45L29.1725 141.398L29.0943 141.368L28.8972 141.766L28.86 141.859L33.8749 144.329L34.0721 143.916L34.1056 143.823L34.0423 143.767C33.8066 143.598 33.6636 143.41 33.5922 143.206C33.516 142.989 33.4657 142.616 33.4657 142.09L33.4173 129.552C33.4173 129.264 33.4565 129.033 33.5327 128.883C33.616 128.721 33.7523 128.64 34.0237 128.626L34.2581 128.648L34.5409 128.28L34.5892 128.183L29.7269 125.806L29.7238 125.805ZM87.0468 127.226C85.7849 127.226 84.4512 127.529 83.0511 128.127C79.9225 129.505 78.1248 131.574 77.72 134.302C77.6557 134.691 77.627 135.074 77.627 135.448C77.627 136.491 77.8465 137.5 78.2631 138.495C78.656 139.426 79.216 140.232 79.9112 140.939C80.7065 141.728 81.62 142.311 82.6606 142.673C83.444 142.954 84.2679 143.101 85.1346 143.101C86.3727 143.101 87.6916 142.806 89.0893 142.208C92.2037 140.887 93.9945 138.808 94.4279 136.017C94.4922 135.594 94.5321 135.189 94.5321 134.793C94.5321 133.793 94.3188 132.834 93.9331 131.91C93.0259 129.794 91.5414 128.366 89.4985 127.647C88.7247 127.366 87.8945 127.226 87.0468 127.226ZM86.3059 130.148C86.7892 130.148 87.2772 130.227 87.7605 130.379C89.101 130.815 90.079 131.769 90.7219 133.255C90.9981 133.867 91.1253 134.497 91.1349 135.163V135.219C91.1349 135.955 90.998 136.638 90.6884 137.269C90.186 138.367 89.3036 139.179 88.0322 139.717C87.2845 140.032 86.571 140.193 85.878 140.193C85.378 140.193 84.8939 140.118 84.4011 139.952C83.051 139.492 82.0654 138.557 81.4583 137.143C81.1512 136.421 81.0119 135.729 81.0119 135.059C81.0119 134.378 81.1501 133.713 81.4621 133.065C81.9811 131.963 82.8612 131.157 84.1183 130.621C84.865 130.305 85.5954 130.148 86.3059 130.148ZM38.5182 130.212L38.4066 130.658C38.7043 130.901 38.8427 131.017 38.8903 131.119L38.9424 131.357L38.9275 131.562L36.4052 143.653L36.1968 144.036C36.0992 144.098 35.9382 144.16 35.6834 144.163L35.5048 144.591L35.4825 144.691L40.1478 145.684L40.2482 145.231C39.9696 144.995 39.8387 144.883 39.772 144.788L39.7162 144.527L39.7349 144.353L40.7096 139.717L44.4039 140.491L46.3274 145.231C46.5298 145.716 46.6383 146.039 46.6287 146.153V146.19C46.6073 146.274 46.5097 146.341 46.2121 146.343H46.1265L45.9368 146.775L45.9219 146.886L51.2978 147.998L51.3908 147.563L51.4169 147.459L51.3064 147.434C51.0088 147.349 50.78 147.209 50.6181 146.973C50.4372 146.737 50.1713 146.218 49.8332 145.444L47.9581 141.08H48.2371C50.6585 141.094 52.1662 139.95 52.6233 137.709C52.6947 137.348 52.7349 136.98 52.7349 136.634C52.7349 136.306 52.7038 135.979 52.6419 135.66C52.4871 134.967 52.1749 134.368 51.6821 133.878C51.2701 133.442 50.7481 133.107 50.1195 132.828C49.4886 132.569 48.6406 132.337 47.5524 132.099L38.518 130.213L38.5182 130.212ZM30.2741 130.591L30.1215 135.881L26.1594 133.924L30.2741 130.591ZM74.7645 131.283L70.0993 132.31L70.1848 132.764C70.5563 132.864 70.7257 132.918 70.821 132.987L71.0293 133.359L73.693 145.424L73.7117 145.629L73.6633 145.867C73.6038 145.964 73.4715 146.093 73.2429 146.205L73.2542 146.667L73.2876 146.774L77.9603 145.744L77.8487 145.301C77.5058 145.211 77.3338 145.158 77.2386 145.074C77.1386 145.008 77.0643 144.879 77.0191 144.684L74.3554 132.622L74.3331 132.418L74.3852 132.191C74.4471 132.091 74.5825 131.963 74.7944 131.856L74.7906 131.395L74.7645 131.283ZM64.1319 133.106C63.8486 133.106 63.5334 133.109 63.2167 133.128L54.1095 133.497L54.0127 133.943C54.3366 134.103 54.5037 134.19 54.5894 134.285C54.6632 134.357 54.7162 134.497 54.7233 134.702L55.2144 147.031V147.08L55.099 147.459C55.0371 147.54 54.8732 147.631 54.6303 147.719L54.5559 148.177L59.2398 148.103L59.3216 147.634C58.9907 147.491 58.8469 147.405 58.7636 147.321C58.6755 147.236 58.6169 147.099 58.6073 146.901L58.4288 142.191L62.2012 142.042L65.2259 146.157C65.5663 146.617 65.743 146.929 65.743 146.998V147.009C65.743 147.116 65.6465 147.224 65.2965 147.303L65.2258 147.746L70.6018 147.656L70.7059 147.199C70.2726 147.08 70.0196 146.984 69.7982 146.801C69.5863 146.624 69.1934 146.198 68.6672 145.51L65.7803 141.737C68.2375 141.221 69.5114 139.809 69.5044 137.578L69.4969 137.34C69.466 136.626 69.3115 135.957 69.0282 135.338C68.7067 134.703 68.2544 134.189 67.6591 133.839C67.1401 133.525 66.5546 133.315 65.8808 133.21C65.4022 133.141 64.8176 133.106 64.1319 133.106ZM54.5298 133.593L54.2136 133.605V133.601L54.5298 133.593ZM41.9775 133.627L46.6689 134.613C47.4046 134.748 47.8988 134.882 48.1607 134.97C48.4083 135.07 48.6424 135.209 48.8639 135.401C49.1924 135.663 49.3512 136.02 49.3512 136.491L49.314 136.986C49.145 137.705 48.8075 138.123 48.2574 138.285C48.0527 138.342 47.8376 138.389 47.6138 138.389L47.4427 138.385C47.1498 138.356 46.6407 138.277 45.936 138.125L41.2372 137.142L41.9775 133.627ZM63.9266 135.744C64.1766 135.744 64.3675 135.757 64.5032 135.773C64.7675 135.795 65.0409 135.879 65.2957 136C65.7885 136.243 66.0672 136.714 66.103 137.448V137.559C66.1007 138.24 65.8695 138.679 65.4147 138.958C65.1814 139.096 64.9134 139.191 64.6372 139.241C64.3514 139.296 63.8492 139.334 63.123 139.367L58.3275 139.557L58.1749 135.844L58.3535 135.837L62.9816 135.773C63.3459 135.757 63.6551 135.744 63.9266 135.744ZM65.344 147.623V147.634H65.3402L65.344 147.623Z" fill="#006BB6"/>
<path d="M99.1383 105.589C107.958 96.0131 113.351 83.2295 113.351 69.1816C113.351 39.4786 89.2786 15.4235 59.5828 15.4235C29.887 15.4235 5.81506 39.4786 5.81506 69.1816C5.81506 98.8798 29.887 122.945 59.5828 122.945C74.6807 122.945 88.3167 116.716 98.0811 106.697C98.405 106.518 98.8002 106.051 99.1383 105.589Z" fill="#FDB927"/>
<path d="M59.5823 18.7821C31.7608 18.7821 9.20984 41.3388 9.20984 69.1622C9.20984 71.6312 9.39526 74.0579 9.73812 76.4316C13.2883 72.8125 20.4435 64.3162 26.9484 49.4444C27.0293 45.092 27.0823 42.3573 27.0823 42.3573L28.3807 42.0448L28.4216 40.7501H30.5832C30.5832 40.7501 30.5978 42.1156 30.6241 44.4703C30.8407 44.7418 31.0994 45.0666 31.4351 45.4786C31.4018 44 31.383 43.1459 31.383 43.1459L32.8451 41.881L34.4076 42.5842C34.4076 42.5842 34.4763 45.0854 34.6048 49.1616C44.3883 60.0952 69.3636 84.3147 104.402 92.1606C107.948 85.2629 109.961 77.4498 109.961 69.162C109.961 41.3367 87.4097 18.782 59.5844 18.782L59.5823 18.7821ZM30.6293 45.2931C30.7412 55.1171 31.0771 79.0214 31.8533 97.9361C32.2319 97.8932 32.605 97.845 32.9954 97.8022C32.2788 79.8803 31.6539 54.7899 31.4515 46.1935C31.1753 45.8911 30.9055 45.6003 30.6293 45.2931ZM34.6176 49.6347C34.7152 52.7253 34.849 56.6652 35.0157 61.1081L46.0203 96.5031C47.1369 96.4055 48.2736 96.3119 49.4356 96.2166L34.8715 49.9033C34.7881 49.8128 34.7009 49.7252 34.6176 49.6347ZM26.8793 51.547C25.6031 54.4042 24.2258 57.2016 22.8019 59.873L16.5073 95.3061C17.1549 96.3728 17.852 97.4031 18.5757 98.4127L26.8793 51.547ZM36.6191 51.7441L50.5183 96.1317C51.5374 96.0507 52.5673 95.9711 53.6174 95.8973L40.9524 56.1784C39.5262 54.7594 38.0788 53.268 36.6191 51.7441ZM42.8172 58.0018L54.7147 95.8197C55.7695 95.7459 56.8396 95.6754 57.9253 95.6039L47.3784 62.3461C45.8808 60.958 44.3576 59.5016 42.8172 58.0018ZM26.7938 58.1841L19.4573 99.5278C20.2978 99.4063 21.2732 99.2648 22.3851 99.1148L26.3658 76.6782L26.5183 76.7042C26.5993 70.197 26.701 63.7343 26.7938 58.1841ZM21.1985 62.8047C20.0508 64.8547 18.9022 66.8035 17.7832 68.6344L13.9202 90.4501C14.4821 91.6548 15.0908 92.833 15.7432 93.9806L21.1985 62.8047ZM49.0047 63.8278L59.0236 95.5332C60.0212 95.4713 61.0341 95.4142 62.0557 95.3547L53.2288 67.5693C51.8431 66.3741 50.4335 65.1268 49.0024 63.8268L49.0047 63.8278ZM35.1875 65.5392C35.3232 69.0177 35.4811 72.7001 35.6525 76.4621L42.0738 96.8644C43.0072 96.7787 43.9633 96.686 44.9348 96.6002L35.1861 65.5406L35.1875 65.5392ZM54.7117 68.8465L63.1494 95.2908C64.2732 95.2313 65.4096 95.1721 66.5573 95.1197L59.4314 72.7231C57.8885 71.4921 56.3188 70.2084 54.7117 68.8465ZM16.3643 70.9189C15.5 72.288 14.6736 73.5611 13.8903 74.7397L11.6581 84.7057C12.1152 86.1176 12.6258 87.5078 13.202 88.865L16.3643 70.9189ZM60.9975 73.9584L67.6643 95.0712C68.7001 95.0283 69.7444 94.9791 70.7968 94.941L65.0786 77.053C63.749 76.0701 62.388 75.046 60.9975 73.9584ZM12.1356 77.3394C11.4737 78.3037 10.8811 79.1433 10.3573 79.8766C10.524 80.6433 10.7055 81.4061 10.9079 82.1609L12.1356 77.3394ZM66.6529 78.2063L71.8985 94.8994C72.9747 94.8589 74.0559 94.8248 75.1464 94.7915L70.8457 81.1788L70.9983 81.2272L70.8197 81.1081L70.8159 81.1007C69.4635 80.1888 68.0815 79.2324 66.6529 78.2063ZM35.8599 80.8589C36.1361 86.4853 36.4487 92.1418 36.8011 97.392C38.1464 97.2515 39.5351 97.1083 40.9827 96.9679L35.8599 80.8589ZM72.2073 82.0345L76.2438 94.7654C77.3723 94.7345 78.5087 94.7087 79.6516 94.6873L76.5935 84.8248C75.1863 83.9653 73.7239 83.0368 72.2073 82.0345ZM26.454 82.2801L23.4964 98.9657C24.3869 98.8491 25.3311 98.7247 26.3574 98.5937C26.3551 93.7984 26.3921 88.1446 26.454 82.2801ZM77.9712 85.6535L80.7614 94.6677C81.8162 94.6487 82.8755 94.634 83.9422 94.6268L81.8241 87.8705C80.5993 87.1943 79.3084 86.4516 77.9712 85.6535ZM83.1759 88.6074L85.0584 94.6119C86.1512 94.6072 87.2535 94.6081 88.3582 94.6081L87.0896 90.605C85.8658 90.0097 84.5616 89.3479 83.1759 88.6074ZM88.4029 91.2339L89.478 94.6083C91.9685 94.6203 94.4766 94.6543 97.0005 94.7162C95.2171 94.1352 92.2864 93.0554 88.4029 91.2339ZM75.9622 102.629C66.8468 102.645 56.1523 102.808 45.4111 103.299C73.9641 102.763 89.3187 103.554 95.8921 104.073C96.2802 103.666 96.6679 103.263 97.0417 102.849C92.6167 102.745 85.0769 102.613 75.9622 102.629ZM50.4227 104.884C45.7125 104.918 41.2806 104.991 37.3681 105.077C37.6776 108.834 38.009 112.159 38.3614 114.862C44.8115 117.864 51.9962 119.549 59.5828 119.549C72.7141 119.549 84.6709 114.52 93.6349 106.286C81.168 105.019 64.5525 104.781 50.4227 104.884ZM33.3166 105.174C32.9356 105.183 32.5523 105.192 32.1856 105.204C32.3071 107.513 32.4382 109.695 32.5763 111.688C32.9596 111.931 33.3391 112.177 33.7296 112.41C33.5915 110.465 33.4523 108.01 33.3166 105.174ZM26.4043 105.379C25.7471 105.4 25.1718 105.423 24.6409 105.442C25.2242 106.006 25.8208 106.551 26.4303 107.082C26.4183 106.551 26.4115 105.981 26.4043 105.379Z" fill="#006BB6"/>
</svg>
