<svg width="270" height="270" viewBox="0 0 270 270" fill="none" xmlns="http://www.w3.org/2000/svg">
<path d="M134.65 268.442C208.476 268.442 268.323 208.578 268.323 134.732C268.323 60.8859 208.476 1.02173 134.65 1.02173C60.8249 1.02173 0.977478 60.8859 0.977478 134.732C0.977478 208.578 60.8249 268.442 134.65 268.442Z" fill="#9EA2A2"/>
<path d="M135.325 263.53C206.548 263.53 264.286 205.781 264.286 134.545C264.286 63.3078 206.548 5.55908 135.325 5.55908C64.1024 5.55908 6.36488 63.3078 6.36488 134.545C6.36488 205.781 64.1024 263.53 135.325 263.53Z" fill="#0C2340"/>
<path d="M135.65 49.2584C129.105 49.22 122.647 49.9407 116.387 51.356C115.811 53.2174 115.03 56.8466 116.338 60.1469C117.127 62.1358 118.655 63.7486 120.809 65.0023C126.716 62.5973 133.129 60.1383 139.315 58.0687C147.127 55.2172 154.067 53.6471 159.461 52.815C159.316 52.7747 159.179 52.7225 159.035 52.6822C155.198 51.5657 151.349 50.7302 147.502 50.1627C143.536 49.5794 139.577 49.2814 135.65 49.2584ZM110.432 52.9323C98.2218 56.6356 86.9524 63.0261 77.5125 71.6332C77.9254 71.6332 78.3893 71.6468 78.825 71.6565C86.9157 71.1773 98.4309 71.508 105.012 71.7737C107.79 70.5254 111.17 69.0398 114.92 67.4495C113.287 65.9332 112.045 64.1597 111.24 62.1097C109.966 58.8563 110.016 55.5518 110.432 52.9323ZM171.181 57.2349L171.177 57.3345C170.942 57.3282 152.98 56.9165 130.748 67.6976C130.356 67.925 129.972 68.1703 129.594 68.4281C136.558 70.467 142.311 70.8842 146.443 71.1663C147.416 71.2338 148.281 71.2928 149.031 71.3636L149.648 71.4163C152.332 71.644 156.086 72.0708 160.508 72.8615C163.795 68.8336 167.766 66.3244 170.439 65.7307C173.592 66.9115 175.202 68.7529 176.349 71.3792C180.717 73.2111 183.642 76.4355 185.568 80.2891C195.675 84.6907 205.835 91.2066 213.601 100.858C205.463 82.0404 190.642 66.2498 171.181 57.2349ZM124.867 72.6059C123.028 74.6384 121.516 76.7845 120.379 78.5882C122.687 80.99 127.097 85.6062 129.283 88.0645C133.057 90.3356 136.842 92.7972 140.595 95.4277C146.572 88.6984 151.881 83.239 157.118 77.758C154.575 77.3952 151.94 77.0928 149.193 76.8576L148.511 76.801C147.804 76.7302 146.985 76.6776 146.07 76.6134C141.363 76.2953 133.883 75.7147 124.867 72.6059ZM77.325 77.1254C75.1277 77.1216 73.2637 77.2032 71.8505 77.3011C64.7661 85.0966 59.0544 94.3171 55.177 104.676C63.8614 95.6623 76.9254 86.0772 91.4364 88.9146C92.5834 86.8778 93.745 84.8387 94.8016 82.987C90.2693 80.0156 87.4386 77.8624 79.6294 77.161C78.8269 77.1384 78.0574 77.1266 77.325 77.1254ZM187.89 87.0217C190.482 98.6372 187.54 111.834 187.54 111.834C187.54 111.834 193.856 115.489 195.389 122.461C195.396 122.464 196.232 122.819 196.895 123.845C198.66 126.01 200.911 131.003 197.292 140.821C197.292 140.821 195.144 136.239 190.598 141.173C190.206 141.72 189.828 142.26 189.456 142.794C198.113 154.708 204.708 167.141 208.066 179.278C211.917 172.965 215.023 166.054 217.19 158.611C220.205 148.253 221.149 137.787 220.304 127.639C218.106 117.506 210.947 98.839 187.89 87.0217ZM108.523 89.008C106.186 90.1256 103.624 91.4266 101.154 92.8555C108.108 97.4172 113.283 105.131 117.22 114.191C122.749 112.272 126.566 112.233 126.566 112.233C130.279 107.51 133.707 103.367 136.925 99.624C133.209 97.0252 129.468 94.5944 125.738 92.3605C121.646 90.8878 111.874 89.4676 108.523 89.008ZM85.5374 93.8693C70.3239 94.3765 56.8791 110.252 51.4517 117.608C47.6579 136.07 50.1758 154.575 57.6665 170.698C61.6911 166.925 65.5626 163.021 69.2464 159.13C68.9577 146.876 70.602 135.061 74.1877 123.77C77.1961 114.305 81.2447 106.306 85.5548 99.6384C86.2094 98.3465 87.3032 96.3223 88.6016 93.9783C87.5735 93.8685 86.5516 93.8355 85.5374 93.8693ZM96.008 96.1525C94.7064 97.0958 93.5294 98.0626 92.5393 99.0353C82.5936 113.026 75.512 131.297 74.8271 153.107C85.4503 141.411 94.193 130.574 100.157 124.834C104.289 120.862 108.466 118.145 112.246 116.283C108.291 107.163 103.069 99.7125 96.008 96.1525ZM186.153 147.8C180.581 156.853 177.843 165.369 177.532 180.31C177.361 188.494 181.394 194.8 184.389 204.531C191.809 199.305 198.426 192.888 203.914 185.449C201.448 173.229 195.025 160.308 186.153 147.8Z" fill="#236192"/>
<path d="M170.2 69.4581C168.557 69.4109 166.447 70.8813 163.86 75.5947C169.381 69.6813 174.241 73.4913 174.241 73.4913C173.65 72.0875 172.312 69.5189 170.2 69.4581ZM118.468 70.6261L106.619 76.5732C106.619 76.5732 98.1375 75.8738 93.6789 75.7432C97.7449 78.366 101.274 81.3798 101.274 81.3798L96.0305 90.0789L107.214 83.997C107.214 83.997 114.272 85.1855 120.699 86.4969C117.026 82.3001 112.558 79.1963 112.558 79.1963L118.468 70.6261ZM123.238 121.809C116.78 125.036 107.067 134.718 107.067 134.718C111.749 131.532 121.48 130.095 121.48 130.095C121.682 126.103 123.238 121.809 123.238 121.809Z" fill="#78BE20"/>
<path d="M135.038 38.446C87.2623 38.446 46.3142 74.1904 39.7794 121.583C37.0661 141.263 40.4023 160.848 49.2206 178.186C50.324 177.268 51.4225 176.328 52.5096 175.376C44.4189 159.02 41.3896 140.631 43.9394 122.155C50.1851 76.8248 89.3487 42.6454 135.038 42.6454C139.248 42.6454 143.515 42.9379 147.721 43.5185C172.047 46.8722 193.633 59.5244 208.502 79.1504C223.371 98.7726 229.715 122.978 226.36 147.303C222.66 174.145 207.418 197.074 186.118 211.316C186.406 212.745 186.661 214.248 186.872 215.827C209.964 201.028 226.559 176.594 230.52 147.877C234.025 122.441 227.391 97.1318 211.844 76.6146C196.297 56.0962 173.73 42.8665 148.294 39.3615C143.899 38.7548 139.439 38.446 135.038 38.446ZM177.093 78.3516C177.285 78.9517 177.069 81.0615 176.898 82.7226C176.898 82.7226 176.883 82.6973 176.873 82.6875C173.018 83.3879 164.52 82.427 161.764 80.9806C151.315 92.1876 139.925 107.779 131.351 122.101C127.634 129.672 123.989 138.558 123.08 145.777C123.08 145.777 121.896 142.512 121.617 138.158C116.871 139.99 100.747 147.914 97.2946 172.216C97.2946 172.216 107.546 161.642 118.877 157.519C118.877 157.519 111.699 176.315 125.398 209.623C125.398 209.623 130.943 189.197 142.539 184.046C149.562 218.924 170.151 219.494 176.156 243.226C176.156 243.226 182.446 230.933 174.875 210.039C174.875 210.039 177.488 210.765 179.699 213.375C179.699 213.375 179.355 207.265 173.643 194.078C169.92 187.018 168.752 177.495 168.752 177.495C165.408 180.524 164.555 190.758 164.555 190.758C154.333 163.027 183.344 135.549 188.638 131.494C191.224 129.512 192.816 129.481 193.779 129.955C194.774 127.892 194.685 126.569 193.488 125.707C193.488 125.707 192.982 125.363 192.87 125.305C189.791 123.661 184.273 128.449 180.671 130.432C177.071 132.414 171.824 136.64 169.262 130.82C166.7 125.001 172.592 115.897 174.633 110.171C179.136 97.5047 179.301 90.0511 178.349 86.0174C182.512 90.7163 183.82 99.7259 183.82 99.7259C183.82 99.7259 185.367 82.8087 177.095 78.3538L177.093 78.3516ZM86.9049 174.951C86.9049 174.951 67.5651 189.124 47.788 190.257C47.788 190.257 67.3601 194.869 75.635 191.488C74.8399 190.968 73.9509 190.217 73.0687 189.093C73.0687 189.093 81.0625 183.947 86.861 175.055C86.8722 175.022 86.8918 174.985 86.9049 174.951Z" fill="#9EA2A2"/>
<path d="M145.25 14.5589L144.779 18.1057L149.295 18.7053L147.617 31.3638L151.256 31.8482L152.934 19.1859L157.449 19.7855L157.918 16.2407L145.25 14.5589ZM113.891 16.0061L113.367 16.094L108.801 33.6149L112.779 32.9275L115.053 24.33L120.053 31.6736L124.06 30.9822L113.891 16.0061ZM168.281 18.9474L163.633 34.6235L167.15 35.6664L171.799 19.9942L168.281 18.9474ZM97.4071 19.8107L85.5636 24.6036L86.9035 27.9181L91.1241 26.2111L95.9171 38.0469L99.3194 36.674L94.5285 24.8324L98.7491 23.1255L97.4071 19.8107ZM184.156 24.2637L176.511 38.9023L179.746 40.5937L183.267 33.8476L184.935 40.0956L185.357 40.3182L191.429 38.1074L187.906 44.8533L191.169 46.5585L198.812 31.9187L198.318 31.6609L187.55 35.5925L184.65 24.5946L184.628 24.5145L184.156 24.2637ZM74.2713 31.8456C69.6324 31.8456 65.8729 35.605 65.8729 40.244C65.8729 44.8831 69.6322 48.6404 74.2713 48.6404C78.9103 48.6404 82.6715 44.8831 82.6715 40.244C82.6715 35.605 78.9103 31.8456 74.2713 31.8456ZM74.2713 35.662C76.8038 35.662 78.8532 37.7114 78.8532 40.2439C78.8532 42.7731 76.8038 44.8278 74.2713 44.8278C71.7388 44.8278 69.6894 42.7731 69.6894 40.2439C69.6894 37.7114 71.7388 35.662 74.2713 35.662ZM209.757 40.0292L207.362 42.7849L205.729 44.6638L205.599 44.8142L203.337 47.4177L201.395 49.6559L198.999 52.4097L201.755 54.8042L204.145 56.8802C205.192 57.7897 206.419 58.2932 207.698 58.3334C209.211 58.3803 210.654 57.7467 211.653 56.5932C212.529 55.5867 212.947 54.3141 212.86 53.0092C213.783 52.7609 214.631 52.2355 215.302 51.4644C216.331 50.2804 216.751 48.8225 216.483 47.3707C216.265 46.1899 215.614 45.1197 214.548 44.195L212.513 42.4235L209.757 40.0292ZM210.116 45.1774L212.155 46.9489C213.011 47.6929 213.139 48.3879 212.546 49.0719C211.817 49.9106 210.905 49.428 210.268 48.8746L208.352 47.2106L210.116 45.1774ZM54.706 47.1677L54.3837 47.1739C52.556 47.2284 50.8322 48.1248 49.2626 49.836C48.2725 50.9187 47.668 52.1974 47.5537 53.4414C47.4164 54.8978 47.9542 56.224 49.1044 57.2774C50.8852 58.908 52.9787 59.0177 55.5047 57.6094L57.2624 56.6367C58.1741 56.1237 58.7639 55.9291 59.2506 56.3789C59.8345 56.9083 59.6936 57.6596 58.8385 58.6094C58.8323 58.6194 58.8241 58.6303 58.8131 58.6368C57.6803 59.872 56.3988 59.9649 55.5339 59.9278L55.2214 59.9141L54.823 63.9902L55.1687 64.0078C56.5269 64.0808 59.1869 63.7875 61.7096 61.0274C61.7336 61.0001 61.756 60.9752 61.78 60.9512C63.0609 59.5255 63.7443 58.1143 63.8151 56.756C63.8892 55.3433 63.3024 54.0619 62.0748 52.9377C60.2536 51.2713 58.271 51.2372 55.4499 52.8166L53.4812 53.9162C52.7569 54.3258 52.3374 54.3423 51.9344 53.971C51.4617 53.5375 51.5492 52.871 52.1668 52.1859C52.1705 52.1821 52.1705 52.1796 52.173 52.1759C52.8811 51.4047 53.6586 51.0079 54.6281 50.9317L54.9543 50.9084L54.706 47.1677ZM206.104 49.8141L208.354 51.7692C209.279 52.5708 209.497 53.5265 208.91 54.2008C208.323 54.8717 207.376 54.8444 206.551 54.1265L204.16 52.0464L206.104 49.8141ZM227.301 56.978L214.481 67.1264L221.377 75.841L224.239 73.5755L219.621 67.7396L221.768 66.0423L225.744 71.0657L228.608 68.8022L224.629 63.7789L226.742 62.105L231.359 67.9409L234.199 65.693L227.301 56.978ZM38.2537 62.4759L32.0898 71.7199L45.6908 80.79L51.8567 71.546L48.8217 69.5187L44.6909 75.712L42.4135 74.1963L45.9701 68.8624L42.933 66.8371L39.3783 72.169L37.1342 70.6749L41.263 64.4816L38.2537 62.4759ZM240.763 76.3582L226.101 83.5845L227.72 86.8775L234.507 83.5338L229.87 91.2388L231.804 95.1586C231.804 95.1586 235.158 89.5117 235.395 89.1393C236.798 90.6227 239.101 90.823 241.141 89.8208C244.2 88.3111 245.164 85.2818 243.464 81.8366L240.763 76.3582ZM239.157 81.2429L240.193 83.3463C240.934 84.8528 240.585 85.8965 239.253 86.5532C237.905 87.2177 236.843 86.8683 236.101 85.3618L235.064 83.2584L239.157 81.2429ZM25.6359 83.5845L24.2374 87.0084L32.1358 90.2348L20.6204 95.4867L20.3977 96.0376L35.6587 102.276L37.0415 98.893L29.1061 95.6528L40.6743 90.3794L40.8969 89.8247L25.6359 83.5845ZM249.957 96.4031L235.336 106.114L235.473 106.68L245.317 108.967L237.59 115.455L237.727 116.026L255.167 117.998L254.257 114.235L245.864 113.245L252.768 107.456L252.635 106.901L243.837 104.833L250.866 100.179L249.957 96.4031ZM16.7736 109.733L16.2052 113.383L24.6328 114.7L14.6369 122.465L14.547 123.057L30.8355 125.606L31.4019 121.993L22.9353 120.668L32.9722 112.874L33.066 112.282L16.7736 109.733ZM188.083 117.315C188.888 118.56 188.916 120.279 188.822 121.379C189.902 121.113 190.71 121.073 191.31 121.114C191.132 120.618 190.796 119.875 190.193 119.141C189.334 118.098 188.083 117.315 188.083 117.315ZM179.552 118.961C180.451 121.621 180.26 124.314 180.042 125.807C181.301 124.941 182.443 124.227 183.486 123.643C183.295 123.191 183.003 122.542 182.56 121.758C181.729 120.265 179.552 118.961 179.552 118.961ZM247.627 126.951C242.988 126.951 239.229 130.713 239.229 135.352C239.229 139.991 242.988 143.746 247.627 143.746C252.266 143.746 256.028 139.991 256.028 135.352C256.028 130.713 252.266 126.951 247.627 126.951ZM247.627 130.77C250.16 130.77 252.211 132.819 252.211 135.352C252.211 137.881 250.16 139.934 247.627 139.934C245.095 139.934 243.045 137.881 243.045 135.352C243.045 132.819 245.095 130.77 247.627 130.77ZM30.6309 135.584L14.2874 135.975L14.3752 139.645L30.7162 139.254L30.6309 135.584ZM31.3594 149.046L15.2034 152.46L15.3205 153.007L25.2012 158.816L18.5587 168.05L18.5098 168.116L18.6212 168.64L34.7772 165.228L34.0233 161.655L26.58 163.228L30.3436 157.97L30.242 157.501L24.6737 154.22L32.1208 152.648L31.3594 149.046ZM238.281 152.359L235.805 162.974L239.427 163.82L241.072 156.779L253.369 159.648L254.205 156.072L238.281 152.359ZM250.113 172.796L232.026 173.614L231.828 174.109L244.359 187.177L245.859 183.429L239.729 176.986L248.6 176.574L250.113 172.796ZM225.817 186.615L219.876 196.007L222.958 197.956L226.938 191.667L229.251 193.128L225.827 198.546L228.909 200.497L232.338 195.081L234.616 196.521L230.637 202.812L233.692 204.745L239.633 195.353L225.817 186.615ZM217.538 204.023C217.246 204.023 214.625 204.044 212.837 204.914C211.898 205.369 211.081 205.95 210.413 206.621C209.558 207.479 208.954 208.488 208.669 209.562C208.196 211.359 208.716 213.24 210.024 214.478C211.281 215.662 213.046 216.038 214.751 215.482C215.314 215.298 215.972 214.975 216.733 214.599C217.628 214.16 218.98 213.465 219.604 213.429C221.11 213.341 221.073 215.508 219.147 216.45C218.433 216.796 217.208 217.153 216.571 217.234L217.032 220.913C217.284 220.883 219.51 220.583 221.092 219.607C223.799 217.936 224.327 215.803 224.397 214.679C224.468 213.619 224.025 212.055 222.881 210.954C221.915 210.025 220.613 209.596 219.217 209.74C217.935 209.874 216.428 210.617 215.096 211.271C214.513 211.556 213.912 211.852 213.596 211.956C213.185 212.09 212.837 212.032 212.569 211.781C212.318 211.543 212.104 211.085 212.255 210.511C212.483 209.656 213.305 208.809 214.456 208.249C215.227 207.874 216.753 207.732 217.532 207.732L217.538 204.023Z" fill="white"/>
</svg>
