<svg width="247" height="228" viewBox="0 0 247 228" fill="none" xmlns="http://www.w3.org/2000/svg">
<g clip-path="url(#clip0_106_21)">
<path d="M39.96 95.28L46.92 91.92L17.4 31.32L24.36 27.84L21 21L0 31.2L3.36 38.16L10.32 34.68L39.96 95.28ZM55.44 87.72L62.88 85.32L52.44 53.28L59.88 50.88L70.32 82.92L77.76 80.52L54.6 9L47.16 11.4L57.6 43.44L50.16 45.84L39.6 13.8L32.16 16.2L55.44 87.72ZM94.56 1.44L86.88 2.64L97.44 69.12L89.76 70.32L79.2 3.84L71.52 5.04L81.6 68.28C82.0774 71.3353 83.7489 74.0758 86.2469 75.8987C88.7449 77.7215 91.8647 78.4774 94.92 78C97.9753 77.5226 100.716 75.8511 102.539 73.3531C104.362 70.8551 105.117 67.7353 104.64 64.68L94.56 1.44ZM111 75.12L118.8 75.2401L119.16 53.5201C119.4 46.9201 118.92 33.4801 118.56 27.2401H118.8C120.84 44.0401 124.56 59.6401 126.96 75.4801L134.4 75.6001L135.72 0.48L127.92 0.24L127.56 22.08C127.32 28.68 127.8 42 128.16 48.36H127.92C125.88 31.56 122.16 15.96 119.76 0.12L112.32 0L111 75.12ZM140.16 75.6L155.52 78C156.522 78.1733 157.548 78.1457 158.538 77.9189C159.529 77.692 160.465 77.2704 161.291 76.6786C162.117 76.0867 162.818 75.3365 163.352 74.4715C163.885 73.6065 164.242 72.644 164.4 71.64L173.76 12.84C174.063 10.7916 173.556 8.70589 172.346 7.0255C171.136 5.34512 169.319 4.20242 167.28 3.84L151.8 1.44L140.16 75.6ZM158.4 10.44L166.08 11.64L156.72 70.44L149.04 69.24L158.4 10.44ZM213.12 16.44L198.36 11.64C197.384 11.2968 196.349 11.1559 195.317 11.2258C194.285 11.2956 193.278 11.5748 192.357 12.0463C191.437 12.5179 190.622 13.1719 189.962 13.9685C189.302 14.7651 188.812 15.6877 188.52 16.68L170.16 73.2C169.817 74.1757 169.676 75.2111 169.746 76.2431C169.816 77.2751 170.095 78.282 170.566 79.2026C171.038 80.1232 171.692 80.9382 172.488 81.5979C173.285 82.2576 174.208 82.7483 175.2 83.04L189.96 87.84L192.36 80.4L177.48 75.6L185.52 51L196.56 54.6L198.96 47.28L187.92 43.68L195.96 19.08L210.72 23.88L213.12 16.44ZM193.32 89.4L226.32 21.72L240.36 28.56C241.292 28.9976 242.127 29.6177 242.815 30.3836C243.503 31.1495 244.031 32.0457 244.366 33.0191C244.702 33.9926 244.839 35.0235 244.769 36.0508C244.699 37.0781 244.424 38.0809 243.96 39L231.84 63.96C230.28 67.2 227.52 68.52 224.52 67.08L216.12 100.44L209.16 97.08L217.44 63.48L215.16 62.4L200.4 92.76L193.32 89.4ZM229.92 32.28L218.52 55.56L225.6 59.04L237 35.64L229.92 32.28Z" fill="#002D62"/>
<path d="M13.8 227.16C28.937 213.805 45.1523 201.723 62.28 191.04C65.64 189.36 69 187.68 72.36 186C73.68 185.4 76.44 184.08 79.8 182.4C82.2 185.04 84.48 187.56 87 189.96C61.44 201.84 36.96 214.32 13.8 227.16ZM196.08 136.08C212.722 132.353 229.603 129.787 246.6 128.4C228.48 133.92 210 140.04 191.4 146.88C193.08 143.4 194.52 139.8 196.08 136.08Z" fill="#007AC1"/>
<path d="M1.20001 176.64C18.8241 165.582 37.3262 155.99 56.52 147.96C57.12 149.28 57.84 150.6 58.56 151.92C57.48 154.08 56.4 156.36 55.32 158.52C36.72 164.28 18.6 170.28 1.20001 176.64ZM203.16 114.84C217.6 114.252 232.062 114.453 246.48 115.44C231.48 117.6 216.24 120 200.76 122.88C201.6 120.24 202.44 117.6 203.16 114.84Z" fill="#F05133"/>
<path d="M123.84 90.96C152.04 90.96 174.12 97.56 199.2 110.04C186.96 156 164.52 187.08 123.84 212.16C108.6 202.68 95.52 192.12 84.72 180.12C89.52 177.84 94.92 175.2 99.72 173.04C101.76 173.16 103.56 173.28 105.36 173.28C105.37 175.516 104.509 177.668 102.96 179.28C103.8 180.24 104.52 181.08 105.36 181.92C107.52 180 108.84 177.24 108.96 173.28C113.723 173.275 118.471 172.752 123.12 171.72C123 179.04 121.92 184.32 119.88 186.48C119.864 186.48 119.848 186.482 119.834 186.488C119.819 186.494 119.806 186.503 119.794 186.514C119.783 186.526 119.774 186.539 119.768 186.554C119.763 186.568 119.76 186.584 119.76 186.6C119.313 187.075 118.832 187.516 118.32 187.92C120.36 187.56 122.4 187.08 124.2 186.6C126.72 181.44 126.72 172.44 126.72 170.88C131.4 169.68 135.48 168.48 139.2 167.28C139.32 171.48 141.12 175.44 144.36 177C145.8 175.92 147.12 174.84 148.56 173.76C147.72 173.88 142.68 174.24 142.8 166.08C153.6 161.88 160.68 157.08 166.92 149.64C168.575 145.894 169.861 141.996 170.76 138C163.32 149.76 156.6 156.6 143.16 162C143.653 159.107 144.375 156.258 145.32 153.48C149.28 151.8 153.36 149.88 155.76 148.8L161.64 142.68C163.2 137.04 164.52 131.4 165.96 125.64L161.4 127.08L166.8 121.44C168 117 169.08 112.56 170.16 108.12C167.52 108.48 164.76 108.96 162.12 109.32C162.6 107.04 162.84 104.88 163.08 102.72C161.76 102.48 160.44 102 159.12 101.88C158.823 104.629 158.342 107.355 157.68 110.04L157.32 110.16C154.654 110.559 152.134 111.633 150 113.28L150.72 111.12C146.4 111.84 142.08 112.68 137.76 113.52L133.44 118.08L133.56 117.6L135 114C130.8 114.96 126.48 115.8 122.16 116.76C121.32 111 120.36 105.84 119.64 101.64L116.04 102C116.76 106.32 117.72 111.6 118.68 117.48L115.68 118.2L111.84 122.28C109.2 119.4 103.68 121.2 100.2 122.04C96.48 123 92.76 124.08 89.04 125.04C87.94 125.288 86.8576 125.609 85.8 126C82.9184 122.005 80.3507 117.792 78.12 113.4L77.76 112.56C76.68 113.04 75.6 113.4 74.4 114L74.88 114.96C77.015 119.291 79.4614 123.462 82.2 127.44C78.0527 129.244 74.332 131.902 71.28 135.24C71.28 135.24 66 140.64 65.4 141.36C64.0941 142.892 62.9293 144.538 61.92 146.28C56.2312 134.709 51.8056 122.559 48.72 110.04C73.56 97.56 95.64 90.96 123.84 90.96ZM126.6 160.68C129.24 159.6 131.76 158.4 134.4 157.32L135.6 156C136.195 156.1 136.798 156.14 137.4 156.12C138.63 155.925 139.836 155.603 141 155.16C140.222 157.871 139.66 160.64 139.32 163.44C135.72 164.76 131.52 166.08 126.84 167.28C126.72 165 126.72 162.96 126.6 160.68ZM108.6 168.84L111.12 167.64L117.36 162.6L118.8 158.88C119.64 160.68 120.12 161.4 121.08 163.2L123.12 162.24V168C118.403 169.126 113.569 169.69 108.72 169.68L108.6 168.84Z" fill="white"/>
<path d="M139.08 100.44C144.974 100.394 150.866 100.715 156.72 101.4C161.138 102.28 165.505 103.401 169.8 104.76C171.501 110.69 172.349 116.831 172.32 123C172.315 128.086 171.752 133.157 170.64 138.12C163.2 149.88 156.36 156.6 143.04 162C143.533 159.107 144.255 156.258 145.2 153.48C149.16 151.8 153.12 149.88 155.64 148.92L161.52 142.8C162.96 137.04 164.4 131.4 165.84 125.76L161.28 127.2L166.68 121.56C167.76 117.12 168.96 112.68 170.04 108.24C167.4 108.6 164.64 109.08 162 109.44C162.36 107.16 162.72 105 162.96 102.84C161.64 102.48 160.32 102.12 159 101.88C158.703 104.669 158.222 107.435 157.56 110.16L157.2 110.28C154.468 110.57 151.881 111.655 149.76 113.4L150.6 111.24C146.16 111.96 141.96 112.8 137.52 113.64L133.32 118.08L133.44 117.72L134.88 114.12C130.56 115.08 126.36 115.92 122.04 116.88C121.2 111 120.24 105.84 119.52 101.64C126.006 100.807 132.541 100.406 139.08 100.44ZM166.8 149.76C162.637 159.085 156.399 167.335 148.56 173.88C147.72 174 142.56 174.36 142.68 166.2C153.48 162 160.56 157.08 166.8 149.76ZM144.24 177.12C138.167 181.457 131.386 184.705 124.2 186.72C126.6 181.56 126.72 172.56 126.72 171C131.28 169.8 135.36 168.6 139.2 167.4C139.32 171.6 141 175.68 144.24 177.12ZM118.32 188.04C116.28 188.4 114.12 188.64 112.08 188.88C109.8 186.6 107.52 184.2 105.36 181.92C107.52 180 108.84 177.24 108.96 173.28C113.723 173.276 118.471 172.753 123.12 171.72C123 179.04 121.92 184.32 119.88 186.48C119.864 186.48 119.848 186.483 119.834 186.488C119.819 186.494 119.806 186.503 119.794 186.514C119.783 186.526 119.774 186.539 119.768 186.554C119.763 186.568 119.76 186.584 119.76 186.6C119.16 187.2 118.68 187.68 118.32 188.04ZM102.96 179.28C101.4 177.48 99.84 175.56 98.4 173.64L99.72 173.04C101.76 173.16 103.56 173.28 105.36 173.28C105.315 175.505 104.462 177.638 102.96 179.28ZM74.4 132C72.3312 126.856 70.5288 121.609 69 116.28C70.68 115.44 72.36 114.72 74.16 114L74.52 114.96C76.6963 119.294 79.1827 123.465 81.96 127.44C79.2304 128.582 76.6832 130.118 74.4 132ZM77.4 112.56C89.7106 107.456 102.61 103.908 115.8 102C116.52 106.32 117.48 111.6 118.32 117.48L115.32 118.2L111.6 122.28C108.84 119.4 103.32 121.2 99.96 122.04C96.24 123 92.52 124.08 88.8 125.04C87.7 125.288 86.6176 125.609 85.56 126C82.7173 122.002 80.1897 117.79 78 113.4L77.4 112.56ZM126.6 160.68C129.24 159.6 131.76 158.4 134.4 157.32L135.6 156C136.195 156.1 136.798 156.14 137.4 156.12C138.627 155.91 139.832 155.589 141 155.16C140.164 157.857 139.601 160.631 139.32 163.44C135.6 164.76 131.52 166.08 126.72 167.28C126.72 165 126.72 162.96 126.6 160.68ZM108.6 168.84L111.12 167.64L117.36 162.6L118.8 158.88C119.64 160.68 120.12 161.4 121.08 163.2L123.12 162.36V168.12C118.393 169.187 113.566 169.75 108.72 169.8L108.6 168.84Z" fill="#F05133"/>
<path d="M125.16 204.48C113.274 196.499 102.534 186.93 93.24 176.04L98.4 173.64C99.96 175.56 101.52 177.48 103.08 179.28C103.816 180.216 104.618 181.098 105.48 181.92C112.339 189.497 119.937 196.371 128.16 202.44C127.198 203.174 126.196 203.855 125.16 204.48ZM68.52 137.64C65.0116 129.908 62.0836 121.926 59.76 113.76C80.2613 103.982 102.576 98.5876 125.28 97.9199C135.845 98.0097 146.375 99.1351 156.72 101.28C150.86 100.658 144.973 100.337 139.08 100.32C132.501 100.29 125.927 100.691 119.4 101.52C118.2 101.64 117 101.88 115.8 102C102.615 103.867 89.7151 107.374 77.4 112.44C76.32 112.92 75.12 113.4 74.04 113.88C72.36 114.6 70.68 115.44 69 116.28C70.4527 121.618 72.2157 126.867 74.28 132C73.2 132.96 72 134.04 70.92 135.12L68.52 137.64Z" fill="#FDBB30"/>
<path d="M42.6 107.28C69.6 93.48 93.24 85.8 123.96 85.8C154.56 85.8 178.32 93.48 205.32 107.28C192.72 157.8 168.72 191.4 123.84 218.28C106.92 208.08 92.16 196.2 79.92 182.4C76.56 184.08 73.8 185.4 72.36 186.12C68.16 188.28 63.96 190.32 59.76 192.48C54.96 194.88 49.68 198.6 44.16 197.16C38.16 194.52 42.12 187.2 43.92 183.12C48.6 172.68 53.52 162.24 58.56 151.92C52.2619 140.138 47.503 127.595 44.4 114.6L42.6 107.28ZM123.84 90.96C95.64 90.96 73.56 97.56 48.48 110.04C51.4916 122.526 55.8784 134.641 61.56 146.16C62.6118 144.417 63.8165 142.77 65.16 141.24C65.76 140.64 70.92 135.12 70.92 135.12C74.0251 131.789 77.7832 129.134 81.96 127.32C79.1569 123.361 76.6693 119.189 74.52 114.84L74.16 113.88C75.24 113.4 76.32 112.92 77.52 112.44L77.88 113.28C80.0691 117.708 82.5966 121.961 85.44 126C86.52 125.64 87.6 125.28 88.8 124.92C92.52 123.96 96.12 123 99.96 122.04C103.32 121.08 108.84 119.28 111.48 122.16L115.32 118.08L118.32 117.48C117.36 111.48 116.52 106.2 115.68 102C116.88 101.88 118.08 101.64 119.28 101.52C120 105.72 120.96 111 121.8 116.64C126.12 115.8 130.32 114.84 134.64 114L133.2 117.6L133.08 117.96L137.4 113.4C141.72 112.68 145.92 111.84 150.36 111L149.64 113.28C151.751 111.572 154.276 110.454 156.96 110.04H157.32C158.017 107.316 158.538 104.551 158.88 101.76C160.2 102 161.52 102.36 162.72 102.6C162.585 104.823 162.264 107.031 161.76 109.2C164.52 108.84 167.16 108.48 169.92 108C168.72 112.44 167.64 117 166.56 121.44L161.16 127.08L165.72 125.64C164.16 131.28 162.72 136.92 161.4 142.68L155.52 148.8C153 149.88 148.92 151.8 145.08 153.36C144.149 156.142 143.427 158.99 142.92 161.88C156.24 156.48 163.08 149.64 170.52 138C169.562 141.994 168.236 145.891 166.56 149.64C160.32 156.96 153.36 161.88 142.44 165.96C142.32 174.24 147.6 173.88 148.32 173.64C146.984 174.852 145.538 175.937 144 176.88C140.76 175.44 139.08 171.36 138.96 167.16C135.24 168.48 131.16 169.56 126.48 170.76C126.36 172.32 126.36 181.32 123.96 186.48C122.024 187.021 120.061 187.462 118.08 187.8C118.55 187.391 118.991 186.95 119.4 186.48L119.52 186.36C121.68 184.2 122.64 178.92 122.88 171.6C118.223 172.601 113.482 173.164 108.72 173.28C108.6 177.24 107.28 180 105.12 181.8C104.28 180.96 103.56 180.12 102.72 179.28C104.163 177.611 104.971 175.486 105 173.28C103.32 173.16 101.4 173.04 99.48 172.92C94.68 175.2 89.16 177.84 84.36 180C95.8366 192.506 109.052 203.296 123.6 212.04C164.28 186.96 186.6 156 198.84 109.92C174.12 97.56 152.04 90.96 123.84 90.96ZM126.6 160.68C126.72 162.96 126.72 165 126.72 167.16C131.52 165.96 135.6 164.76 139.32 163.44C139.611 160.593 140.174 157.78 141 155.04C139.832 155.469 138.627 155.79 137.4 156C136.806 156.121 136.194 156.121 135.6 156L134.4 157.2C131.76 158.4 129.24 159.6 126.6 160.68ZM108.6 168.84L108.72 169.68C113.569 169.69 118.403 169.126 123.12 168V162.24L121.08 163.2C120.12 161.4 119.76 160.68 118.8 158.88L117.36 162.6L111.12 167.64L108.6 168.84Z" fill="#002D62"/>
<path d="M89.16 127.08C82.8 128.88 77.16 131.52 72.6 136.56C70.1199 139.569 68.0238 142.874 66.36 146.4C61.32 156.84 56.4 167.28 51.72 177.72C50.52 180.48 46.8 187.08 50.76 188.88C55.2 189.96 60.72 186.24 64.56 184.32C68.76 182.16 73.08 180 77.28 177.96C84.48 174.36 90.96 170.04 95.4 163.08C97.0101 160.041 98.4523 156.917 99.72 153.72C102.48 146.88 105.24 140.16 108.12 133.44C109.2 130.8 111.12 127.68 110.52 124.92C109.32 121.2 102.96 123.48 100.32 124.2C96.6 125.16 92.88 126.12 89.16 127.08ZM81.12 165.84C77.76 167.4 74.52 168.84 71.16 170.4C75.96 159.24 81 148.08 86.28 136.92C89.16 136.08 92.16 135 95.16 134.16C90.24 144.72 85.56 155.28 81.12 165.84ZM138.6 115.44C133.92 121.56 129.36 127.68 124.8 133.8C126.96 128.28 129.12 122.64 131.28 117C126.48 117.96 121.56 119.04 116.88 120.12C115.56 123 114.36 125.88 113.16 128.88C114.144 128.545 115.145 128.264 116.16 128.04C112.44 137.16 108.72 146.28 105.12 155.52C103.56 159.24 102.12 163.08 100.68 166.8C105.48 164.52 110.4 162.24 115.2 160.08C117.36 153.96 119.52 147.96 121.8 141.84C123.84 146.04 125.88 150.12 127.92 154.2C131.04 152.88 134.16 151.44 137.28 150.12C135.36 145.8 133.44 141.48 131.52 137.16C135 131.88 138.48 126.6 141.96 121.44C142.92 121.2 144 121.08 144.96 120.84C145.8 118.56 146.52 116.28 147.24 114C144.36 114.48 141.48 114.96 138.6 115.44ZM157.32 112.32C154.725 112.668 152.297 113.799 150.36 115.56C148.905 117.27 147.841 119.277 147.24 121.44C145.2 127.92 143.16 134.4 141 140.88C140.16 143.4 138.84 148.08 142.92 147.84C144.337 147.541 145.709 147.057 147 146.4C151.2 144.6 155.4 142.92 159.6 141.24C160.56 137.16 161.64 133.08 162.72 129C160.56 129.6 158.4 130.32 156.12 131.04C155.52 132.96 155.04 134.76 154.56 136.68C153 137.16 151.44 137.76 150 138.24C151.92 131.64 153.72 125.16 155.76 118.56C157.08 118.2 158.4 117.96 159.72 117.6C159.471 118.779 159.151 119.941 158.76 121.08C160.8 120.6 162.72 120.12 164.76 119.64C165.48 116.76 166.2 113.76 166.92 110.76C163.8 111.24 160.56 111.84 157.32 112.32Z" fill="white"/>
<path d="M174.84 106.2C176.76 106.92 178.68 107.52 180.6 108.24C185.16 110.04 189.24 111.72 192.72 113.4C182.585 148.796 160.652 179.664 130.56 200.88L128.16 202.56C123.218 198.872 118.49 194.906 114 190.68L118.2 190.08C135.854 187.086 151.607 177.228 162.017 162.658C172.426 148.089 176.648 129.992 173.76 112.32C173.64 111.84 173.52 111.36 173.4 110.88L173.28 110.4L173.16 110.28L172.68 108.6L172.56 108.36L172.44 107.88L172.32 107.76V107.52C172.192 106.821 171.991 106.137 171.72 105.48C172.772 105.667 173.813 105.907 174.84 106.2Z" fill="#007AC1"/>
</g>
<defs>
<clipPath id="clip0_106_21">
<rect width="246.6" height="227.16" fill="white"/>
</clipPath>
</defs>
</svg>
