<svg width="259" height="263" viewBox="0 0 259 263" fill="none" xmlns="http://www.w3.org/2000/svg">
<g clip-path="url(#clip0_108_8)">
<path d="M258.097 0.720119C257.885 0.485595 257.626 0.299746 257.336 0.17543C257.046 0.0511133 256.732 -0.00870292 256.417 0.000119095H94.2966C74.9766 0.000119095 63.0966 8.40012 59.0166 24.7201L0.0965806 259.68C0.00418045 260.006 -0.0114004 260.349 0.0510606 260.682C0.113522 261.016 0.252325 261.33 0.456581 261.6C0.652158 261.861 0.905798 262.073 1.1974 262.218C1.489 262.364 1.81056 262.44 2.13658 262.44H178.777C188.857 262.44 198.937 254.28 201.217 244.44L258.457 2.64012C258.549 2.31403 258.565 1.97096 258.502 1.63784C258.44 1.30471 258.301 0.990592 258.097 0.720119Z" fill="#63727A"/>
<path d="M2.1366 260.28H178.777C187.897 260.28 197.137 252.84 199.177 243.96L256.417 2.04004H94.2966C79.2966 2.16004 65.6166 7.08004 61.0566 25.32L2.1366 260.28Z" fill="black"/>
<path d="M38.4966 164.76H191.737C199.417 164.76 206.977 158.64 208.777 151.08L240.937 11.8801H100.537C83.3766 11.8801 75.6966 17.2801 72.2166 31.5601L38.4966 164.76ZM191.737 166.68H36.0966L70.2966 31.0801C74.7366 13.5601 85.5366 10.0801 100.537 10.0801H243.337L210.577 151.56C208.657 159.84 200.257 166.68 191.737 166.68Z" fill="#63727A"/>
<path d="M61.537 242.64L65.857 248.52H98.137L111.217 196.68H98.017L86.737 241.2H74.977L86.257 196.68H69.577L68.497 197.52L71.857 202.08L61.537 242.64Z" fill="white"/>
<path d="M62.617 214.8L65.737 202.32L61.417 196.44H35.017L27.817 202.32L23.377 219.72L45.697 229.08L42.697 241.2H31.057L32.377 235.56L20.737 230.16L17.617 242.64L21.817 248.52H48.337L55.537 242.64L59.977 225.12L37.657 215.76L40.657 203.76H52.297L50.857 209.52L62.617 214.8Z" fill="white"/>
<path d="M153.817 202.32L149.497 196.44H117.337L104.257 248.28H117.457L128.617 203.76H140.377L129.217 248.28H145.777L146.857 247.32L143.617 242.88L153.817 202.32Z" fill="white"/>
<path d="M194.737 214.8L197.857 202.32L193.537 196.44H167.137L159.937 202.32L155.497 219.72L177.817 229.08L174.817 241.2H163.057L164.497 235.56L152.857 230.16L149.737 242.64L153.937 248.52H180.457L187.657 242.64L192.097 225.12L169.777 215.76L172.777 203.76H184.417L182.977 209.52L194.737 214.8Z" fill="white"/>
<path d="M20.737 230.16L25.537 237.36L24.457 241.56L26.857 244.8H45.577L49.297 241.92L55.537 242.64L48.337 248.52H21.817L17.617 242.64L20.737 230.16Z" fill="#BEC0C2"/>
<path d="M42.697 241.2L49.297 241.92L53.017 227.16L30.457 217.68L34.177 203.04L27.817 202.32L23.377 219.72L45.697 229.08L42.697 241.2Z" fill="#BEC0C2"/>
<path d="M56.377 200.04H38.137L34.177 203.04L40.657 203.76H52.297L50.857 209.52L57.817 207.36L58.897 203.4L56.377 200.04Z" fill="#BEC0C2"/>
<path d="M152.857 230.16L157.657 237.36L156.577 241.56L158.977 244.8H177.697L181.417 241.92L187.657 242.64L180.457 248.52H153.937L149.737 242.64L152.857 230.16Z" fill="#BEC0C2"/>
<path d="M174.817 241.2L181.417 241.92L185.137 227.16L162.577 217.68L166.297 203.04L159.937 202.32L155.497 219.72L177.817 229.08L174.817 241.2Z" fill="#BEC0C2"/>
<path d="M188.497 200.04H170.137L166.297 203.04L172.777 203.76H184.417L182.977 209.52L189.937 207.36L190.897 203.4L188.497 200.04Z" fill="#BEC0C2"/>
<path d="M68.497 197.52L78.817 200.04L68.377 241.56L70.777 244.8H92.377L98.137 248.52H65.857L61.537 242.64L71.857 202.08L68.497 197.52Z" fill="#BEC0C2"/>
<path d="M98.017 196.68L103.657 200.04L92.377 244.8L86.737 241.2L98.017 196.68Z" fill="#BEC0C2"/>
<path d="M123.097 200.04L117.337 196.44L104.257 248.28H117.457L111.697 244.8L123.097 200.04Z" fill="#BEC0C2"/>
<path d="M136.537 244.8L146.977 203.4L144.577 200.04H123.097L128.617 203.76H140.377L129.217 248.28H145.777L146.857 247.32L136.537 244.8Z" fill="#BEC0C2"/>
<path d="M41.1366 180.84L37.6566 181.8L38.7366 177.24H41.9766L41.1366 180.84ZM34.8966 174.6L34.5366 174.84L35.6166 176.28L32.2566 189.96H36.9366L37.1766 189.6L36.0966 188.28L36.9366 184.68L44.1366 182.4L45.5766 176.4L44.1366 174.6L34.8966 174.6Z" fill="white"/>
<path d="M73.057 174.6H69.577L68.257 180.12L64.897 180.96L66.457 174.6H61.897L61.537 174.84L62.617 176.28L59.257 189.96H62.737L64.177 183.84L67.537 183.12L65.857 189.96H70.417L70.777 189.6L69.697 188.28L73.057 174.6Z" fill="white"/>
<path d="M93.5766 187.44H90.3366L92.8566 177.12H96.0966L93.5766 187.44ZM92.0166 174.6L89.7366 176.4L86.8566 188.04L88.2966 189.96H94.5366L96.8166 188.04L99.6966 176.4L98.2566 174.6H92.0166Z" fill="white"/>
<path d="M152.737 176.4L151.297 174.6H143.017L139.297 189.96H142.777L145.897 177.12H149.137L146.017 189.96H150.577L150.937 189.6L149.857 188.28L152.737 176.4Z" fill="white"/>
<path d="M174.097 174.6H169.417L169.057 174.84L170.257 176.28L166.897 189.96H171.457L171.817 189.6L170.737 188.28L174.097 174.6Z" fill="white"/>
<path d="M198.697 188.4L196.897 182.4L203.017 174.6H199.657L196.177 179.28L194.977 174.6H190.417L190.057 174.84L191.857 176.28L193.657 182.52L187.897 189.96H191.137L194.497 185.4L195.697 189.96H200.257L200.617 189.6L198.697 188.4Z" fill="white"/>
<path d="M121.537 187.44H117.577L118.537 183.48H121.777L122.377 180.96H119.137L120.097 177.12H123.817L124.777 178.44L125.137 178.2L125.977 174.6H116.137L115.777 174.84L116.857 176.28L113.497 189.96H122.497L123.337 186.36L123.097 186.12L121.537 187.44Z" fill="white"/>
<path d="M42.697 162.24L130.177 114.36L70.777 162.24L142.897 120.84L141.697 129.24L153.697 122.52L180.817 148.2L195.217 104.76L216.097 103.44L205.537 77.1599L224.377 62.3999L199.897 52.7999L206.137 26.5199L185.377 35.9999L174.577 13.4399L157.897 29.9999L127.897 16.5599L123.817 43.3199L97.057 49.1999L112.897 58.6799L96.937 66.7199L110.497 67.9199L54.817 111.12L110.857 81.3599L50.857 127.08L114.697 93.8399L46.417 145.08L121.657 105L42.697 162.24Z" fill="#F9A01B"/>
<path d="M202.777 77.5199C202.409 86.1179 199.502 94.4141 194.423 101.361C189.343 108.307 182.319 113.593 174.237 116.55C166.155 119.506 157.378 120.001 149.015 117.973C140.652 115.944 133.077 111.482 127.249 105.151C121.42 98.8195 117.598 90.9028 116.266 82.4008C114.934 73.8987 116.152 65.1927 119.765 57.3822C123.379 49.5718 129.226 43.0074 136.568 38.5183C143.91 34.0291 152.418 31.8165 161.017 32.1599C172.569 32.6378 183.459 37.6851 191.29 46.1916C199.122 54.6982 203.254 65.9672 202.777 77.5199Z" fill="#E56020"/>
<path d="M164.617 113.28C156.218 112.946 148.096 110.187 141.231 105.338C134.366 100.488 129.052 93.7546 125.93 85.9506C122.809 78.1465 122.013 69.6057 123.64 61.3594C125.266 53.1131 129.245 45.5141 135.097 39.48C127.46 44.5887 121.633 51.979 118.446 60.5962C115.26 69.2133 114.876 78.6169 117.351 87.4649C119.826 96.3128 125.032 104.153 132.227 109.866C139.422 115.58 148.238 118.874 157.417 119.28C163.554 119.522 169.673 118.471 175.379 116.198C181.084 113.924 186.248 110.477 190.537 106.08C182.902 111.219 173.808 113.745 164.617 113.28Z" fill="#B95915"/>
<path d="M202.777 76.2C202.858 74.6792 202.818 73.1543 202.657 71.64C199.996 69.7228 196.906 68.4868 193.657 68.04C192.937 68.04 192.337 67.92 191.617 67.92C191.219 65.0307 190.577 62.1805 189.697 59.4C190.13 59.4942 190.573 59.5345 191.017 59.52C194.137 59.76 197.137 60.12 200.137 60.6C199.73 59.4501 199.249 58.3278 198.697 57.24C195.457 56.76 191.977 56.4 188.497 56.16C187.421 53.3282 186.095 50.5975 184.537 48C186.693 47.6118 188.692 46.6122 190.297 45.12C189.457 44.28 188.617 43.56 187.777 42.72C186.306 44.0249 184.455 44.8239 182.497 45C182.137 44.52 181.777 44.04 181.537 43.68C178.628 39.9262 175.192 36.6121 171.337 33.84C167.982 32.8444 164.514 32.2798 161.017 32.1599H160.537C167.298 34.8948 173.247 39.3151 177.817 44.9999C172.723 44.2893 167.703 43.1247 162.817 41.5199C161.257 41.0399 159.817 40.6799 158.377 40.1999C151.682 38.2386 144.703 37.427 137.737 37.7999C133.961 39.9652 130.524 42.6742 127.537 45.8399C133.057 43.5599 144.097 39.7199 157.537 43.4399C158.977 43.7999 160.417 44.1599 161.977 44.6399C167.857 46.4399 174.577 48.3599 180.337 48.3599C181.884 50.774 183.248 53.3012 184.417 55.9199C183.299 55.8221 182.178 55.7821 181.057 55.7999C152.977 55.3199 129.097 63.5999 115.777 77.0399C115.812 79.6604 116.094 82.2719 116.617 84.8399C120.337 79.4399 125.977 74.5199 133.177 70.4399C146.617 62.8799 164.617 58.9199 183.697 59.1599C184.417 59.1599 185.017 59.2799 185.737 59.2799C186.695 62.0541 187.418 64.9042 187.897 67.7999C175.537 68.3999 167.617 75.9599 158.377 84.2399C150.217 91.5599 140.137 98.8799 125.497 103.32C126.893 104.996 128.417 106.561 130.057 108C143.857 102.48 152.977 93.8399 160.777 86.8799C169.657 78.9599 177.217 71.3999 188.257 71.0399C188.617 74.1495 188.617 77.2903 188.257 80.3999C186.817 97.4399 176.857 111.96 163.417 119.16C166.808 118.823 170.15 118.099 173.377 117C174.457 116.04 175.537 115.08 176.497 114.12C185.479 105.208 190.971 93.373 191.977 80.7599C192.337 77.57 192.337 74.3498 191.977 71.1599C192.577 71.2799 193.177 71.2799 193.657 71.4C197.134 71.9772 200.332 73.6605 202.777 76.2Z" fill="black"/>
</g>
<defs>
<clipPath id="clip0_108_8">
<rect width="258.553" height="262.44" fill="white"/>
</clipPath>
</defs>
</svg>
