<svg width="269" height="229" viewBox="0 0 269 229" fill="none" xmlns="http://www.w3.org/2000/svg">
<g clip-path="url(#clip0_106_31)">
<path d="M178.387 31.2033C176.689 28.6194 174.707 26.2337 172.479 24.0908C171.538 23.1344 170.542 22.2342 169.496 21.3949L190.948 0H128.599L104.508 24.0908L104.451 24.1482C102.279 26.3432 100.302 28.723 98.5428 31.2607C96.814 33.8486 95.3351 36.5951 94.1262 39.463C91.6277 45.3805 90.3405 51.7387 90.3405 58.162C90.3405 64.5854 91.6277 70.9436 94.1262 76.8611C95.3232 79.7166 96.8027 82.4452 98.5429 85.0061C100.241 87.5901 102.222 89.9758 104.451 92.1186C105.376 93.109 106.372 94.0292 107.434 94.8719L86.0386 116.267H148.388L172.536 92.0613C176.919 87.7144 180.407 82.5502 182.803 76.8611C185.302 70.9436 186.589 64.5854 186.589 58.1621C186.589 51.7388 185.302 45.3805 182.803 39.463C181.641 36.5552 180.159 33.7851 178.387 31.2033Z" fill="black"/>
<path d="M169.725 26.9012C168.808 25.9261 167.775 25.0083 166.8 24.1479L140.644 50.4184C141.983 50.8009 143.205 51.5106 144.201 52.4833C145.69 54.0098 146.524 56.0579 146.524 58.1906C146.524 60.3232 145.69 62.3714 144.201 63.8978L95.6749 112.424H101.411L147.011 66.7657C149.273 64.5034 150.553 61.4416 150.575 58.2427C150.596 55.0438 149.357 51.9651 147.126 49.6727L149.937 46.8621C151.424 48.3545 152.603 50.1252 153.407 52.0733C154.21 54.0213 154.622 56.1085 154.619 58.2157C154.615 60.3229 154.197 62.4088 153.388 64.3544C152.578 66.2999 151.393 68.0669 149.901 69.5546L149.879 69.5763L107.089 112.424H112.768L152.747 72.4443C156.503 68.6661 158.616 63.5583 158.627 58.231C158.637 52.9037 156.545 47.7874 152.805 43.9942L155.615 41.1836C160.133 45.7093 162.669 51.8446 162.663 58.2396C162.658 64.6346 160.112 70.7655 155.586 75.2837L155.558 75.3122L118.446 112.424H124.125L158.426 78.1228C163.708 72.8497 166.682 65.6951 166.693 58.231C166.703 50.7669 163.751 43.6039 158.483 38.3156L161.351 35.4476C167.369 41.5056 170.736 49.704 170.715 58.2428C170.693 66.7817 167.284 74.963 161.236 80.9907L129.804 112.423H135.54L164.104 83.8013C170.897 77.0311 174.722 67.84 174.737 58.2498C174.753 48.6596 170.958 39.456 164.188 32.6636L164.162 32.637L167.03 29.769C170.759 33.5122 173.715 37.9534 175.727 42.839C177.74 47.7246 178.77 52.9589 178.76 58.2428C178.749 63.5268 177.697 68.7568 175.665 73.6343C173.633 78.5117 170.659 82.941 166.915 86.6692L141.218 112.424H146.897L169.783 89.5372C178.055 81.2095 182.692 69.9451 182.681 58.2074C182.671 46.4696 178.013 35.2138 169.725 26.9012Z" fill="white"/>
<path d="M107.376 89.4228C108.295 90.3802 109.272 91.2805 110.301 92.1187L136.457 65.9629C135.108 65.6069 133.879 64.8935 132.901 63.898C131.387 62.3862 130.536 60.335 130.535 58.1957C130.534 56.0564 131.382 54.0042 132.894 52.4905L132.901 52.4835L181.427 3.90042H175.748L130.033 49.6156C127.766 51.8786 126.487 54.9471 126.477 58.1503C126.466 61.3534 127.724 64.4304 129.976 66.7086L127.108 69.5192C124.111 66.517 122.429 62.4472 122.433 58.2051C122.436 53.963 124.125 49.8961 127.127 46.8991C127.159 46.8676 127.191 46.8362 127.222 46.805L170.07 3.90042H164.391L124.354 43.937C120.586 47.7084 118.464 52.8187 118.454 58.1502C118.443 63.4817 120.544 68.6005 124.297 72.3871L121.429 75.1977C116.931 70.6535 114.413 64.5151 114.424 58.1216C114.435 51.728 116.974 45.5981 121.486 41.0691L158.712 3.90039H153.034L118.676 38.2585C113.393 43.5316 110.42 50.6861 110.409 58.1502C110.398 65.6143 113.351 72.7774 118.619 78.0657L115.751 80.9337C109.738 74.8765 106.369 66.6849 106.379 58.1503C106.39 49.6157 109.78 41.4326 115.808 35.3906L147.298 3.90042H141.62L112.997 32.5799C106.205 39.3539 102.379 48.5459 102.357 58.1384C102.336 67.7308 106.121 76.9399 112.883 83.7442L110.072 86.6122C102.534 79.0618 98.3045 68.8262 98.3134 58.1572C98.3223 47.4882 102.569 37.2597 110.12 29.7218L110.129 29.712L135.941 3.90042H130.262L107.261 26.9014C98.9858 35.2073 94.3486 46.4605 94.37 58.1854C94.3914 69.9103 99.0703 81.1471 107.376 89.4228Z" fill="#CF0A2C"/>
<path d="M60.342 213.892H57.302V210.795H66.823V213.892H63.726V228.92H60.342V213.892Z" fill="black"/>
<path d="M71.1826 210.794H78.6966L80.9336 213.031V219.341L79.0407 221.119L81.0483 228.863H77.6642L75.7713 221.463H74.5094V228.92H71.1252V210.794H71.1826ZM76.8038 218.939L77.4921 218.136V214.179L76.8038 213.376H74.5668V218.939L76.8038 218.939Z" fill="black"/>
<path d="M87.7594 210.794H92.6349L95.3881 228.92H92.0613L91.6024 224.733H88.6771L88.1609 228.92H84.9488L87.7594 210.794ZM88.9639 221.922H91.1435L90.0537 212.917L88.9639 221.922Z" fill="black"/>
<path d="M99.231 226.339H101.239V213.376H99.231V210.795H106.63V213.376H104.68V226.339H106.63V228.92H99.231V226.339Z" fill="black"/>
<path d="M111.334 210.795H114.775V225.937H118.619V228.92H111.334V210.795Z" fill="black"/>
<path d="M130.262 210.794H137.662L139.841 213.031V217.85L138.063 219.628L139.841 221.406V226.683L137.662 228.862H130.262V210.794ZM135.597 218.366L136.457 217.505V214.293L135.712 213.605H133.647V218.423H135.597V218.366ZM135.712 226.224L136.457 225.536V221.807L135.597 221.004H133.589V226.167H135.712L135.712 226.224Z" fill="black"/>
<path d="M144.889 210.795H148.216V225.937H152.174V228.92H144.889V210.795Z" fill="black"/>
<path d="M158.598 210.794H163.531L166.284 228.92H162.957L162.441 224.733H159.573L159.057 228.92H155.845L158.598 210.794ZM159.917 221.922H162.097L160.95 212.917L159.917 221.922Z" fill="black"/>
<path d="M170.127 226.454L174.773 213.892H170.242V210.795H178.444V213.204L173.855 225.823H178.444V228.92H170.127V226.454Z" fill="black"/>
<path d="M183.147 210.795H191.12V213.777H186.589V218.194H190.719V221.177H186.589V225.937H191.178V228.92H183.147V210.795Z" fill="black"/>
<path d="M196.111 210.794H203.625L205.862 213.031V219.341L204.083 221.119L206.034 228.92H202.65L200.814 221.521H199.495V228.92H196.111V210.794ZM201.732 218.939L202.42 218.136V214.179L201.732 213.376H199.495V218.939L201.732 218.939Z" fill="black"/>
<path d="M210.336 226.74V223.471H213.662V225.364L214.466 226.167H215.67L216.358 225.364V221.922L215.785 221.349H212.229L210.393 219.398V213.032L212.573 210.795H217.563L219.743 213.032V216.244H216.358V214.351L215.67 213.605H214.523L213.72 214.351V217.735L214.351 218.251H217.907L219.743 220.144V226.74L217.563 228.92H212.515L210.336 226.74Z" fill="black"/>
<path d="M36.5951 141.333C36.5951 130.836 30.9165 127.337 19.8462 127.337H0L8.66122 135.998V199.265H19.3874V167.718H19.961C30.8019 167.718 36.423 164.391 36.7099 154.41V141.333H36.5951ZM19.3874 135.998H21.7964C24.2629 135.998 25.8689 136.801 25.8689 139.554V155.156C25.8689 157.795 25.1233 159.114 21.3376 159.114H19.5021V135.998H19.3874Z" fill="black"/>
<path d="M51.9099 140.357C51.9099 136.744 53.0571 135.941 55.2368 135.941C57.3591 135.941 58.4489 136.744 58.4489 140.357V186.187C58.4489 189.858 57.3017 190.604 55.2368 190.604C53.0571 190.604 51.9099 189.858 51.9099 186.187V140.357ZM55.1221 199.208C61.7757 199.208 69.1177 196.512 69.1177 187.162V139.44C69.1177 130.033 61.7183 127.337 55.1221 127.337C48.5831 127.337 41.1838 130.033 41.1838 139.44V187.162C41.1838 196.512 48.5831 199.208 55.1221 199.208Z" fill="black"/>
<path d="M183.09 140.013H183.721L185.786 167.66H180.681L183.09 140.013ZM179.649 176.264H186.704L188.998 199.208H199.782L191.637 127.337H175.519L167.374 199.208H177.067L179.649 176.264Z" fill="black"/>
<path d="M257.829 185.27C257.829 189.916 256.51 190.604 253.756 190.604H251.175V135.998H253.756C256.452 135.998 257.829 136.744 257.829 141.333V185.27ZM268.498 186.187V143.627C268.498 130.951 264.024 127.337 253.412 127.337H240.449V199.208H255.649C264.081 199.208 268.498 193.013 268.498 186.187Z" fill="black"/>
<path d="M84.3752 135.941H86.9563C89.3654 135.941 91.0288 136.744 91.0288 139.497V154.353C91.0288 156.992 90.2258 158.999 86.4401 158.999H84.3752L84.3752 135.941ZM84.5473 167.603C89.5375 167.374 91.1435 169.094 91.1435 173.396V199.208H101.526C101.526 199.208 101.755 191.464 101.526 170.7C101.468 164.219 97.3957 163.244 97.3957 163.244C102.099 161.236 101.526 158.884 101.526 153.55L101.468 139.612C101.468 130.32 96.4206 127.337 87.8167 127.337H73.649V199.208H84.4899V167.603L84.5473 167.603Z" fill="black"/>
<path d="M162.842 190.604H149.191V127.337H138.407V199.208H162.842V190.604Z" fill="black"/>
<path d="M113.915 135.998V199.208H124.641V135.998H133.876V127.337H98.658L107.376 135.998H113.915Z" fill="black"/>
<path d="M214.064 159.343L226.167 199.208H235.918V127.337H226.224V167.661L214.064 127.337H204.37V199.208H214.064V159.343Z" fill="black"/>
</g>
<defs>
<clipPath id="clip0_106_31">
<rect width="268.498" height="228.92" fill="white"/>
</clipPath>
</defs>
</svg>
