<svg width="386" height="174" viewBox="0 0 386 174" fill="none" xmlns="http://www.w3.org/2000/svg">
<g clip-path="url(#clip0_106_76)">
<path d="M146.778 111.267H155.186L152.655 117.634L146.778 111.267ZM136.737 139.839L123.349 159.676L145.308 152.492L154.206 173.88L160.9 150.859L185.635 157.227L169.635 138.696L188.819 122.777L171.676 123.839L183.023 111.104H205.146L230.452 66.2867V36.7354H212.493L203.921 52.0009L202.289 63.5112L189.39 86.4504H177.554L189.146 65.9603V36.817H170.533L162.206 52.0009L160.737 63.5929L140.492 99.7567L143.594 107.757L139.675 103.512L141.308 125.308L117.716 126.369L136.737 139.839Z" fill="white"/>
<path d="M40.8985 86.4502C33.6331 88.3278 26.2045 90.3687 19.0207 92.3279C18.2043 92.5728 17.4697 92.8993 16.7349 93.0626V74.7766C17.8778 74.45 18.8574 74.1235 20.0003 73.8786C25.9595 72.0826 31.9188 70.5316 37.8781 68.9806C38.8577 68.654 40.0005 68.4908 40.9802 68.1642V78.1236C46.6129 76.6542 52.164 75.348 57.7151 74.1235V61.9601C55.7559 59.1029 53.8783 56.1641 51.8375 53.062C50.4497 53.3886 48.9803 53.7967 47.5925 54.1233H47.3476C35.4291 56.9804 23.5922 60.1641 11.8369 63.756C11.3939 63.8663 10.9577 64.0026 10.5308 64.1642C9.03891 64.5522 7.56762 65.0154 6.12254 65.552C4.08169 69.7153 2.12248 73.8786 0.2449 77.8787V102.45C3.18372 104.491 6.12253 106.532 9.14298 108.655C11.592 107.92 13.9594 107.104 16.4084 106.451C23.9187 104.165 31.429 102.206 38.8577 100.246C39.674 100.083 40.4904 99.8382 41.3067 99.6749V118.696C40.3271 118.94 39.1842 119.185 38.2046 119.512C32.0004 121.063 25.7962 122.696 19.6737 124.573C18.6125 124.818 17.5512 125.145 16.49 125.471V115.512C11.0205 117.145 5.46944 118.859 0 120.573V132.818C1.95921 135.594 3.83679 138.369 5.796 141.145C7.18377 140.737 8.65318 140.247 10.1226 139.839C10.6011 139.665 11.0924 139.529 11.592 139.431C23.5105 135.757 35.5107 132.492 47.6741 129.635C49.2251 129.226 50.613 128.9 52.164 128.573C54.2048 124.655 56.0824 120.655 58.1233 116.818V91.5115C55.1844 89.2258 52.164 86.7768 49.2252 84.491C46.2047 85.144 43.5108 85.8788 40.8985 86.4502Z" fill="black"/>
<path d="M385.393 107.43C382.454 103.512 379.516 99.5117 376.577 95.5933C373.964 94.777 371.271 93.9607 368.658 93.1443C361.393 91.0218 354.127 88.981 346.78 87.1851C345.964 87.0218 345.229 86.7769 344.413 86.6136V68.1644C345.474 68.4909 346.535 68.6542 347.597 68.9807C353.556 70.5317 359.597 72.0828 365.556 73.8787C366.536 74.1236 367.679 74.4501 368.658 74.7767V84.6544C374.209 86.2871 379.679 88.0014 385.148 89.7157V77.5522C383.271 73.5522 381.311 69.5521 379.434 65.5521C377.964 65.1439 376.577 64.6541 375.107 64.2459C375.026 64.2459 375.026 64.2459 374.944 64.1643C363.189 60.4908 351.352 57.2254 339.433 54.4499C339.008 54.3028 338.571 54.1935 338.127 54.1233C336.576 53.7152 335.107 53.3886 333.556 52.9805C331.515 56.0009 329.474 59.103 327.515 62.1235V86.6952C330.535 90.3688 333.474 94.0422 336.494 97.7158C338.943 98.3689 341.474 98.9403 343.841 99.5117C351.352 101.471 358.862 103.512 366.372 105.634C367.189 105.798 367.923 106.124 368.658 106.287V125.308C367.679 125.063 366.536 124.737 365.556 124.41C359.352 122.614 353.148 120.981 347.025 119.349C345.964 119.104 344.903 118.859 343.841 118.532V108.573C338.29 107.104 332.739 105.798 327.188 104.573V116.818C329.066 120.655 331.025 124.573 333.066 128.41C334.454 128.655 336.005 129.063 337.392 129.39C337.882 129.471 338.29 129.635 338.78 129.716C350.944 132.655 363.025 135.839 374.944 139.594C376.495 140.002 377.883 140.492 379.271 140.9C381.23 138.125 385.066 132.329 385.066 132.329C385.393 132.655 385.393 115.838 385.393 107.43Z" fill="black"/>
<path d="M117.145 57.4703V78.7768C115.757 79.0217 114.614 79.1033 113.226 79.2666C105.961 80.2462 98.6953 81.3074 91.5115 82.4503V57.2254C98.7769 56.0009 105.961 55.0213 113.226 54.1234C114.614 53.8785 115.757 53.7968 117.145 53.6336V57.4703ZM123.104 40.9803C122.532 41.0619 122.206 41.0619 121.634 41.1436C105.879 42.9395 90.2054 45.3886 74.6133 48.3274V123.839C80.1644 122.696 85.8787 121.716 91.5115 120.818V94.4504C101.552 92.8994 111.675 91.43 121.634 90.2054C122.206 90.1238 122.532 90.1238 123.104 90.0422C124.573 89.7973 126.124 89.7156 127.594 89.5524C129.716 85.5523 131.92 81.7155 134.124 77.7971V50.6947C132.002 47.2661 129.879 43.6742 127.594 40.2456C126.124 40.5721 124.573 40.7354 123.104 40.9803Z" fill="black"/>
<path d="M289.718 78.6952C282.371 77.5524 274.943 76.4911 267.596 75.6748V53.3887C275.106 54.2867 282.453 55.3479 289.963 56.5724C291.188 56.7357 292.494 56.9806 293.718 57.1439V79.4299C292.412 79.1034 291.024 78.9401 289.718 78.6952ZM304.576 87.1852C306.616 86.3688 308.576 85.7157 310.617 84.8994V58.7766C307.025 54.6132 303.514 50.4499 299.923 46.2866C283.596 43.511 267.187 41.2253 250.697 39.7559V115.267C256.33 115.757 262.044 116.328 267.677 117.063V87.5117C272.004 88.0015 276.412 88.6545 280.739 89.226C282.126 89.3892 283.677 89.6341 285.065 89.7974C288.004 90.2056 290.861 90.777 293.8 91.1035V120.655C294.127 120.655 294.371 120.818 294.698 120.818C300.086 121.716 305.31 122.614 310.698 123.594V91.5117C308.576 90.1239 306.616 88.7362 304.576 87.1852Z" fill="black"/>
<path d="M71.1847 21.1431C68.7357 21.5512 66.4499 22.0411 64.0825 22.5308C63.8005 22.5746 63.5258 22.657 63.2662 22.7757V16.7348C63.5927 16.6532 64.0009 16.6532 64.2458 16.5716C66.205 16.1634 68.1642 15.8369 70.1234 15.4287C70.45 15.3471 70.8581 15.3471 71.1847 15.2654V18.4491C72.9806 18.2042 74.7766 17.7961 76.6541 17.4695V13.5511C76.0011 12.4899 75.4296 11.5919 74.6949 10.6123C74.2379 10.7069 73.7736 10.7615 73.3071 10.7756H73.2255C69.3071 11.5103 65.4703 12.245 61.6335 13.0613C61.4992 13.0965 61.3629 13.1238 61.2253 13.143C60.7355 13.2246 60.2457 13.3062 59.8375 13.3879C59.2661 14.7756 58.5314 15.9185 57.8783 17.3063V25.3064C58.9396 26.0411 59.8375 26.7758 60.8172 27.5921L63.2662 27.1023C65.7152 26.6125 68.1642 26.2043 70.5316 25.6329C70.8581 25.6329 71.103 25.5513 71.3479 25.5513V31.6738C71.103 31.7555 70.6948 31.7555 70.3683 31.8371C68.3275 32.2453 66.2866 32.6534 64.2458 32.98C64.0009 33.0616 63.5927 33.0616 63.2662 33.1432V29.9595C61.4702 30.3677 59.5926 30.6126 57.8783 31.0208V35.0208C58.5314 36.0004 59.1028 36.8984 59.8375 37.878C60.3273 37.7964 60.7355 37.7147 61.2253 37.6331C61.4702 37.6331 61.5519 37.5515 61.7151 37.5515C65.7152 36.7351 69.552 36.0005 73.4704 35.2657C73.9602 35.1841 74.5316 35.1024 74.9398 35.0208C75.5112 33.7963 76.2459 32.5718 76.8174 31.2657V23.0207C75.8378 22.2043 74.9398 21.388 73.8786 20.6533C72.9806 20.8165 72.0826 20.8982 71.1847 21.1431Z" fill="black"/>
<path d="M90.7768 22.6124C91.838 18.6123 92.8176 14.5306 93.7156 10.3673C94.7768 14.1224 95.6748 17.9592 96.6544 21.7144C94.7768 22.0409 92.736 22.3675 90.7768 22.6124ZM89.9604 7.99991C87.7563 16.4898 85.5522 24.9797 83.1848 33.4697C84.8992 33.1431 86.6135 32.8166 88.4094 32.6533C88.8992 30.6941 89.3074 28.8165 89.7972 27.0206C92.4095 26.6124 95.0217 26.2042 97.7973 25.7961C98.2871 27.5104 98.6953 29.3063 99.1851 31.0206C100.981 30.6941 102.94 30.5308 104.736 30.2043C102.532 22.3675 100.328 14.5306 97.9605 6.77539C95.2666 7.18356 92.6544 7.59178 89.9604 7.99991Z" fill="black"/>
<path d="M125.471 19.592C122.696 14.449 119.757 9.38773 116.9 4.2448C115.022 4.4081 113.063 4.65297 111.104 4.89787V29.388C112.736 29.2247 114.369 28.9798 116.002 28.8166V12.4082C118.859 17.5511 121.634 22.7757 124.491 27.9186C126.451 27.6737 128.328 27.5104 130.369 27.2655V2.77539C128.736 3.02029 127.104 3.10193 125.471 3.34683L125.471 19.592Z" fill="black"/>
<path d="M155.594 15.837C156.574 11.9186 157.553 7.83692 158.614 3.9185C159.594 7.75529 160.492 11.6737 161.553 15.5921C159.512 15.6737 157.553 15.7553 155.594 15.837ZM154.778 1.06131C152.492 9.38799 150.206 17.7146 148.002 25.9596C149.716 25.878 151.431 25.7963 153.227 25.6331C153.716 23.8371 154.125 21.9596 154.614 20.082C157.308 19.9187 160.002 19.8371 162.615 19.6738C163.186 21.5514 163.594 23.3473 164.084 25.1433C165.961 25.0616 167.839 24.98 169.717 24.98C167.513 16.8983 165.145 8.89815 162.941 0.816406C160.084 0.816406 157.39 0.898046 154.778 1.06131Z" fill="black"/>
<path d="M192.003 16.2451C189.146 10.7757 186.207 5.46946 183.349 0.08163C181.472 0.08163 179.513 0.16326 177.635 0.16326V24.6534C179.268 24.6534 180.819 24.5718 182.452 24.5718V8.0817C185.309 13.5512 188.166 18.8574 190.941 24.3268H196.819V0H192.003L192.003 16.2451Z" fill="black"/>
<path d="M204.819 4.49008C207.105 4.49008 209.309 4.65338 211.513 4.73498V24.7352C213.309 24.8985 215.187 24.8985 216.983 24.9801V4.89822C219.187 5.06149 221.473 5.14312 223.677 5.22476V0.898217C217.391 0.571657 211.105 0.408387 204.819 0.245117V4.49008Z" fill="black"/>
<path d="M273.636 21.2249C270.779 15.4289 268.004 9.71456 265.065 3.91861C263.106 3.67371 261.228 3.51044 259.269 3.34717V27.8373C260.902 28.0006 262.534 28.0822 264.167 28.3271V11.9187C266.942 17.7147 269.8 23.429 272.657 29.3067C274.534 29.5516 276.494 29.7965 278.371 30.0414V5.55124C276.82 5.30634 275.187 5.14307 273.555 4.89817V21.2249H273.636Z" fill="black"/>
<path d="M286.371 10.3674C287.841 10.6123 289.147 10.7756 290.535 11.0205V27.9187C289.147 27.6738 287.841 27.5105 286.371 27.2656V31.0208C290.943 31.6738 295.514 32.3269 300.086 33.1432V29.3881C298.616 29.2249 297.31 28.98 295.923 28.7351V11.8369C297.31 12.0001 298.616 12.245 300.086 12.4899V8.73479C295.514 8.08172 290.943 7.34701 286.371 6.6123V10.3674Z" fill="black"/>
<path d="M245.799 7.67365V22.531C245.31 22.531 244.901 22.4494 244.412 22.4494C242.452 22.2045 240.575 22.1228 238.616 22.0412C238.126 22.0412 237.718 21.9596 237.228 21.9596V5.6328C237.718 5.6328 238.126 5.71443 238.616 5.71443C240.575 5.8777 242.452 6.04096 244.412 6.1226C244.901 6.1226 245.31 6.20423 245.799 6.20423V7.67365ZM249.146 2.36745C248.657 2.36745 248.167 2.28582 247.677 2.28582C243.677 1.95929 239.84 1.71438 235.922 1.38782H235.432C234.86 1.38782 234.371 1.30615 233.881 1.30615C233.146 2.36739 232.493 3.5919 231.758 4.73477V21.9596C232.493 23.1024 233.146 24.4902 233.881 25.6331C234.371 25.6331 234.86 25.7964 235.432 25.7964H235.922C239.84 26.0413 243.677 26.2862 247.677 26.6944C248.167 26.6944 248.657 26.776 249.146 26.776C249.881 25.6331 250.616 24.4902 251.269 23.3474V6.1226C250.616 4.89809 249.881 3.6736 249.146 2.36745Z" fill="black"/>
<path d="M322.045 18.2045V33.0619C321.555 32.9802 321.147 32.817 320.576 32.7353C318.698 32.3272 316.739 32.0823 314.862 31.6741C314.381 31.5265 313.89 31.4173 313.392 31.3476V15.0208C313.873 15.1684 314.364 15.2776 314.862 15.3473C316.739 15.7555 318.698 16.082 320.576 16.4902C321.147 16.5719 321.555 16.6535 322.045 16.7351V18.2045ZM327.351 17.3882C326.698 16.082 325.964 14.6126 325.392 13.3065C324.821 13.2249 324.331 13.1432 323.841 13.0616C320.004 12.2452 316.168 11.5106 312.168 10.7758C312.004 10.7758 311.841 10.6942 311.678 10.6942C311.18 10.6244 310.689 10.5152 310.208 10.3677C309.47 11.4186 308.789 12.5087 308.168 13.633V30.8578C308.902 32.1639 309.555 33.4701 310.208 34.7762C310.698 34.8578 311.188 35.0211 311.678 35.1027C311.843 35.1158 312.007 35.1431 312.168 35.1844C316.086 35.9191 320.004 36.5721 323.841 37.3885C324.347 37.5444 324.866 37.6537 325.392 37.715C326.045 36.5721 326.78 35.5925 327.351 34.4497V17.3882Z" fill="black"/>
<path d="M163.431 64.6538L143.512 100.083L146.859 108.328H159.186L153.553 122.614L143.022 111.185L144.247 128.002L125.879 128.818L140.492 139.022L130.124 154.451L146.859 149.063L153.716 165.635L159.023 147.512L177.635 152.247L165.553 138.369L180.329 126.124L165.064 127.104L181.635 108.328H203.431L227.513 65.6338V39.6738H213.962L206.125 53.4698L204.819 64.6538L190.86 89.5518H172.574L186.207 65.4698V39.7558H172.084L164.574 53.4698L163.431 64.6538Z" fill="black"/>
<path d="M222.452 43.5112H216.085L211.187 52.0822H217.799L222.452 43.5112Z" fill="#C4CED4"/>
<path d="M181.227 43.5112H174.451L169.635 52.0822H176.819L181.227 43.5112Z" fill="#C4CED4"/>
<path d="M168.411 98.2048L154.206 130.614L147.839 123.757L148.492 132.41L138.941 132.818L146.533 138.206L141.226 146.206L149.88 143.349L153.472 151.92L156.165 142.533L165.88 145.063L159.594 137.798L167.268 131.43L156.492 132.165H155.757L178.125 98.3688H197.554L214.779 67.5928H208.085L193.635 92.9808H158.859L173.39 67.5928H166.615L149.063 98.3688H168.411V98.2048Z" fill="#C4CED4"/>
<path d="M175.023 55.5928H168.737L167.921 63.0208H174.37L175.023 55.5928Z" fill="#C4CED4"/>
<path d="M216.411 55.5928H210.207L209.391 63.0208H215.758L216.411 55.5928Z" fill="#C4CED4"/>
<path d="M151.186 140.247C151.926 140.265 152.642 139.988 153.178 139.478C153.714 138.968 154.025 138.265 154.043 137.526C154.044 137.48 154.044 137.435 154.043 137.389C154.045 137.017 153.974 136.647 153.834 136.302C153.693 135.956 153.486 135.642 153.224 135.377C152.962 135.111 152.65 134.9 152.307 134.755C151.963 134.61 151.594 134.535 151.221 134.532C151.21 134.532 151.198 134.532 151.186 134.532C150.442 134.554 149.737 134.864 149.218 135.398C148.7 135.931 148.41 136.646 148.41 137.389C148.41 138.133 148.7 138.848 149.218 139.381C149.737 139.915 150.442 140.225 151.186 140.247Z" fill="black"/>
</g>
<defs>
<clipPath id="clip0_106_76">
<rect width="385.393" height="173.88" fill="white"/>
</clipPath>
</defs>
</svg>
