<svg width="281" height="122" viewBox="0 0 281 122" fill="none" xmlns="http://www.w3.org/2000/svg">
<g clip-path="url(#clip0_106_55)">
<path d="M237 107.16L266.16 40.44H131.04L125.4 53.28L121.44 40.44H94.44C94.44 40.44 76.56 81.12 71.4 92.88C71.923 90.474 72.2044 88.0219 72.24 85.56V84.6C74.16 80.04 90 43.8 93.24 36.48H167.4L183.36 0H95.28L66.36 66.24C62.9895 60.974 58.3063 56.676 52.771 53.7687C47.2358 50.8614 41.0392 49.4449 34.7905 49.6586C28.5419 49.8722 22.4565 51.7085 17.1327 54.9871C11.8089 58.2656 7.43021 62.8734 4.42715 68.3572C1.42408 73.8411 -0.0999025 80.0122 0.00507935 86.2636C0.110061 92.515 1.84039 98.6314 5.0259 104.011C8.2114 109.391 12.7424 113.849 18.1732 116.947C23.6041 120.045 29.7477 121.676 36 121.68C41.7509 121.686 47.4198 120.316 52.534 117.686C57.6482 115.056 62.0595 111.241 65.4 106.56L59.28 120.72H74.04L82.8 100.8H99.36L105.36 120.72H261L266.88 107.16H237ZM88.56 87.12L92.52 78.12L95.16 87.12H88.56ZM140.28 102.72L125.52 53.88H161.76C150.96 78.24 144.36 93.36 140.28 102.72ZM196.2 107.16H179.16L202.32 54H219.48C207 82.44 200.04 98.28 196.2 107.16Z" fill="white"/>
<path d="M2.15997 87.2402C2.58122 95.8153 6.22406 103.915 12.36 109.92C15.6535 107.096 18.3325 103.626 20.2314 99.7249C22.1303 95.8238 23.2087 91.5747 23.4 87.2402H2.15997Z" fill="#0D2240"/>
<path d="M26.4 87.2402C26.1794 91.9351 25.0258 96.539 23.0067 100.783C20.9876 105.027 18.1434 108.827 14.64 111.96C20.3051 116.538 27.2842 119.187 34.56 119.52V87.2402H26.4Z" fill="#FFA400"/>
<path d="M2.15997 84.2402H23.4C23.2366 79.8483 22.1724 75.5368 20.2732 71.5734C18.3741 67.61 15.6806 64.0792 12.36 61.2002C6.14806 67.2997 2.49959 75.541 2.15997 84.2402Z" fill="#0D2240"/>
<path d="M14.64 59.2801C18.1994 62.4181 21.079 66.2513 23.1014 70.5439C25.1239 74.8364 26.2464 79.4974 26.4 84.2401H34.44V51.6001C27.2052 52.0536 20.2884 54.7365 14.64 59.2801Z" fill="#FFA400"/>
<path d="M69.84 87.2402H48.6C48.7912 91.5747 49.8696 95.8238 51.7685 99.7249C53.6674 103.626 56.3465 107.096 59.64 109.92C65.7303 103.884 69.3647 95.8022 69.84 87.2402Z" fill="#0D2240"/>
<path d="M45.6 87.2402H37.44V119.4C44.7384 119.178 51.7518 116.516 57.36 111.84C53.8274 108.757 50.962 104.985 48.9398 100.755C46.9175 96.5244 45.781 91.9255 45.6 87.2402Z" fill="#2B5134"/>
<path d="M57.36 59.2801C51.6776 54.7154 44.716 52.0314 37.44 51.6001V84.2401H45.6C45.7536 79.4974 46.8761 74.8364 48.8986 70.5439C50.921 66.2513 53.8006 62.4181 57.36 59.2801Z" fill="#2B5134"/>
<path d="M96.6 2.16016L66.6 71.0402C64.7817 67.4025 62.3913 64.0802 59.52 61.2002C56.2094 64.0877 53.5228 67.6203 51.6245 71.5819C49.7262 75.5435 48.6562 79.8508 48.48 84.2402H69.84L91.56 34.3202H155.16L169.2 2.16016H96.6Z" fill="#0D2240"/>
<path d="M165.84 34.3202L179.88 2.16016H173.88L159.84 34.3202H165.84Z" fill="#2B5134"/>
<path d="M106.92 118.56H132.24L109.44 42.6001H95.76L62.4 118.56H72.48C72.48 118.56 76.2 110.04 81.24 98.6401H100.92L106.92 118.56ZM85.32 89.2801C87.84 83.6401 90.36 77.6401 92.88 72.0001L98.16 89.2801H85.32Z" fill="#0D2240"/>
<path d="M134.52 110.88L138 102.84L119.76 42.6001H113.76L134.52 110.88Z" fill="#2B5134"/>
<path d="M222.96 109.2L252.24 42.6001H209.64L205.56 51.8401H222.84C213.96 72.0001 193.56 118.44 193.56 118.44H259.56L263.64 109.2H222.96Z" fill="#0D2240"/>
<path d="M177.72 105L204.96 42.6001H198.96L171.72 105H177.72Z" fill="#2B5134"/>
<path d="M235.56 105L262.8 42.6001H256.8L229.56 105H235.56Z" fill="#2B5134"/>
<path d="M194.4 42.6001H132.36L128.28 51.8401H165C156.12 72.0001 135.72 118.44 135.72 118.44H189.24L193.2 109.2H165.24L194.4 42.6001Z" fill="#0D2240"/>
<path d="M191.16 29.4002H183.36L195.36 2.16016H189.48L177 30.2402C176.04 32.4002 177 34.2002 179.28 34.2002H190.8C192.021 34.095 193.193 33.6749 194.203 32.9807C195.213 32.2866 196.025 31.3423 196.56 30.2402L209.04 2.16016H203.28L191.16 29.4002Z" fill="#0D2240"/>
<path d="M234.48 2.16016H214.2L212.04 7.08016H219.96L207.96 34.3202H213.72L225.72 7.08016H232.32L234.48 2.16016Z" fill="#0D2240"/>
<path d="M242.64 10.2002L239.16 24.2402H233.64L242.64 10.2002ZM249.12 2.16016H243.36L221.64 34.3202H227.04L230.28 29.4002H237.96L236.88 34.3202H242.64L249.12 2.16016Z" fill="#0D2240"/>
<path d="M275.04 2.16016L269.04 15.7202H261.24L267.24 2.16016H261.36L247.2 34.3202H252.96L258.96 20.6402H266.88L260.88 34.3202H266.64L280.8 2.16016H275.04Z" fill="#0D2240"/>
</g>
<defs>
<clipPath id="clip0_106_55">
<rect width="280.8" height="121.68" fill="white"/>
</clipPath>
</defs>
</svg>
