<svg width="359" height="351" viewBox="0 0 359 351" fill="none" xmlns="http://www.w3.org/2000/svg">
<path d="M323.2 207.4C310.5 198.4 295.2 196.4 280.4 194.4C252.1 190.7 229.8 187.8 226.6 141.5C221.9 74.2001 220.3 58.7001 203.3 46.4001C202.7 41.7001 199.3 14.8001 199.3 14.8001C198.2 5.7001 189.8 -0.799905 180.7 0.400095L129 6.9001C124.6 7.4001 120.7 9.7001 117.9 13.2001C116.1 15.6001 114.9 18.3001 114.6 21.2001C107.4 20.8001 100.4 25.1001 97.9 32.2001C97.9 32.2001 89 57.3001 87.3 62.0001C77 66.6001 68.7 81.2001 59.5 110.6L54.3 127.6C44.2 161 36.1 187.4 21 203.7C8 217.6 1 232.8 1 246.7C1 250.9 1.6 255 2.9 258.8C6.8 270.4 18.4 285.5 52 291.6C70.4 294.8 91.8 308 112.4 320.8C126.6 329.6 141.8 339 155.5 344.7C164.3 348.4 179.4 354.9 221.5 344.3C223.7 343.8 228.3 341.9 229.8 334.6C230.1 333.1 230.3 331.3 230.3 329.4C230.3 315.2 220.4 290.5 193.6 267.6C212.7 269.5 234.2 274.1 250 279.6C276.2 288.8 325.4 295.1 353.7 274.6C356 273.1 358.6 269.7 358.8 263.5C358.8 250.6 348 224.9 323.2 207.4Z" fill="white"/>
<path d="M319.6 212.5C285.7 188.4 225.8 219.4 220.3 141.9C215.4 71.4999 213.6 60.6999 197.4 49.8999L193 15.4999C192.3 9.89989 187.1 5.79989 181.5 6.59989L129.8 13.0999C124.8 13.6999 121.1 17.7999 120.8 22.5999C122.6 23.2999 125.9 24.3999 129.9 25.7999L129.5 22.4999C129.4 21.5999 130 20.7999 130.9 20.6999C131.8 20.5999 132.6 21.1999 132.7 22.0999L133.3 26.9999C135.5 27.7999 137.9 28.5999 140.3 29.4999L139.3 21.7999C139.2 20.5999 140 19.5999 141.1 19.4999C142.2 19.3999 143.3 20.1999 143.4 21.2999L144.6 31.0999C146.7 31.7999 148.7 32.5999 150.7 33.2999L149.2 21.0999C149 19.6999 150 18.3999 151.4 18.2999C152.8 18.0999 154.1 19.0999 154.3 20.4999L156.1 35.1999C158.1 35.8999 160 36.5999 161.6 37.1999L159.4 19.8999C159.2 18.4999 160.2 17.1999 161.6 17.0999C163 16.8999 164.3 17.8999 164.4 19.2999L166.9 39.1999C167.6 39.4999 168.1 39.5999 168.1 39.5999C170 40.2999 171.7 41.2999 173.1 42.4999L170.1 18.1999C170 17.0999 170.8 15.9999 171.9 15.8999C173 15.7999 174.1 16.5999 174.2 17.6999L178.2 49.9999C178.8 51.6999 179.1 53.4999 179.1 55.2999C179.1 57.0999 178.8 58.9999 178.1 60.8999C178.1 60.8999 169.1 86.2999 167.4 90.8999C169.4 94.8999 170.3 98.9999 170.3 103.3C170.3 116 162.8 129.7 155.9 142.3C153 147.6 150.2 152.7 148.1 157.4C137.5 183.3 132.4 199.3 132.4 210.2C132.4 216 133.8 220.3 136.7 224C136.8 217.1 138.1 211.8 138.8 209.2C145.6 211.4 165.8 217.7 175.9 219.9C175.9 219.9 175.1 240.7 177.6 255.6C178.8 256.5 179.8 257.4 180.5 258C181.8 258.9 183.1 259.8 184.4 260.8C207.2 262.1 234.3 267.8 251.8 273.9C279 283.4 324.9 287.9 349.9 269.6C357.2 265.1 348.3 232.9 319.6 212.5ZM187.3 53.7999C186.4 53.8999 185.6 53.2999 185.5 52.3999L181 16.1999C180.9 15.2999 181.5 14.4999 182.4 14.3999C183.3 14.2999 184.1 14.8999 184.2 15.7999L188.7 51.9999C188.8 52.7999 188.2 53.6999 187.3 53.7999ZM343.4 263C334.7 268.8 323 271.7 310.6 272.6C307.9 272.7 306.2 271.7 305.6 269.6L296.6 245.2C295.7 243.2 295.6 241.3 298.4 239.9C298.4 239.9 316.8 231.9 318.9 230.8C321 229.7 323.5 227.7 326 230.2C338.3 243.2 343.4 257.4 343.4 262.9C343.5 262.8 343.4 262.9 343.4 263Z" fill="#C62033"/>
<path d="M177.8 263.4C175.3 261.4 160.7 248.8 140 234.8C119.3 220.8 124.1 199.9 142.7 154.5C151.8 134 172.6 108.4 160.8 91.0998L172.4 58.3998C174.3 52.9998 171.5 47.0998 166.1 45.1998L117 27.7998C111.6 25.8998 105.7 28.6998 103.8 34.0998L92.3 66.8998C83.3 68.8998 75.1 82.0998 65.6 112.4C52.7 153.8 44.4 187.7 25.7 207.9C-1.00001 236.6 -4.00001 275.1 53.1 285.4C85.9 291.1 124.6 325 157.4 338.7C165.3 342 178.1 348.7 220 338.2C229.1 336.4 225.6 296.6 177.8 263.4ZM49.8 275.4C32 271.3 20.9 264 17.5 253.9C14.1 243.6 18.6 230.1 29.6 217C42.1 221.8 52.6 227.6 60.4 232.9C54.9 244.6 51.1 259.3 49.8 275.4ZM163.5 52.6998C164.3 52.9998 164.8 53.8998 164.5 54.7998L152.2 89.0998C151.9 89.8998 151 90.3998 150.1 90.0998C149.3 89.7998 148.8 88.8998 149.1 87.9998L161.4 53.6998C161.7 52.7998 162.6 52.3998 163.5 52.6998ZM153.7 49.1998C154.8 49.5998 155.4 50.7998 155 51.8998L143 85.2998C142.6 86.3998 141.4 86.9998 140.3 86.5998C139.2 86.1998 138.7 84.9998 139 83.8998L151 50.3998C151.4 49.3998 152.6 48.7998 153.7 49.1998ZM143.9 45.6998C145.2 46.1998 145.9 47.5998 145.4 48.9998L133.7 81.5998C133.2 82.8998 131.8 83.5998 130.4 83.1998C129.1 82.6998 128.4 81.2998 128.9 79.8998L140.5 47.2998C141.1 45.8998 142.6 45.1998 143.9 45.6998ZM101.3 72.5998C100.5 72.2998 100 71.3998 100.3 70.4998L112.5 36.1998C112.8 35.3998 113.7 34.8998 114.6 35.1998C115.4 35.4998 115.9 36.3998 115.6 37.2998L103.3 71.5998C103 72.4998 102.1 72.8998 101.3 72.5998ZM111.1 76.0998C110 75.6998 109.4 74.4998 109.8 73.3998L121.7 39.9998C122.1 38.8998 123.3 38.2998 124.4 38.6998C125.5 39.0998 126 40.2998 125.7 41.3998L113.7 74.8998C113.3 75.8998 112.1 76.4998 111.1 76.0998ZM120.8 79.5998C119.5 79.0998 118.8 77.6998 119.3 76.2998L130.9 43.6998C131.4 42.3998 132.8 41.6998 134.2 42.1998C135.5 42.6998 136.2 44.0998 135.7 45.4998L124.1 78.0998C123.6 79.3998 122.2 80.0998 120.8 79.5998ZM214.9 330C199.4 333.7 188.6 334.8 180.7 334.7C177.9 335.1 175.6 333.7 175.1 330.4L172.2 304.9C172.3 302.3 173.1 300.1 176.3 300C183.9 300.1 193 299.3 195.8 298.4C200 297 201.1 297.5 201.6 298.2C211.9 312 215 323.8 215 329.3C215 329.6 214.9 329.8 214.9 330Z" fill="#C62033"/>
<path d="M307.7 291H309.2V295.3H310.2V291H311.8V290.2H307.7V291Z" fill="#C62033"/>
<path d="M315.6 293.8L314.2 290.2H312.8V295.3H313.7V291.3H313.8L315.3 295.3H316L317.5 291.3V295.3H318.4V290.2H317L315.6 293.8Z" fill="#C62033"/>
</svg>
