<svg width="201" height="201" viewBox="0 0 201 201" fill="none" xmlns="http://www.w3.org/2000/svg">
<path d="M1.46133 100.491C1.46133 155.048 45.8729 199.436 100.465 199.436C155.056 199.436 199.468 155.048 199.468 100.491C199.468 45.9351 155.056 1.55225 100.465 1.55225C45.8729 1.55225 1.46133 45.934 1.46133 100.491Z" fill="#C4CED4"/>
<path d="M6.47198 100.49C6.47198 48.6364 48.632 6.45508 100.461 6.45508C152.293 6.45508 194.461 48.6364 194.461 100.49C194.461 152.347 152.293 194.532 100.461 194.532C48.632 194.532 6.47198 152.348 6.47198 100.49Z" fill="white"/>
<path d="M100.462 11.5776C51.4124 11.5776 11.5019 51.4551 11.5019 100.495C11.5019 149.529 51.4124 189.423 100.462 189.423C149.511 189.423 189.419 149.529 189.419 100.495C189.419 51.4551 149.511 11.5776 100.462 11.5776Z" fill="#005C5C"/>
<path d="M100.462 186.621C52.9924 186.621 14.3654 147.99 14.3654 100.499C14.3654 53.0151 52.9924 14.3774 100.462 14.3774C147.933 14.3774 186.558 53.014 186.558 100.499C186.558 147.99 147.933 186.621 100.462 186.621Z" fill="#002C56"/>
<path d="M105.331 21.5725L96.636 21.5829L96.6235 24.1816L99.3408 24.1711L99.2637 41.1221L102.616 41.1409L102.687 24.1813L105.317 24.173L105.331 21.5725ZM125.644 25.4913L124.688 27.9171L127.149 28.8791L120.928 44.6605L124.043 45.8974L130.273 30.1064L132.647 31.0788L133.598 28.6613L125.644 25.4913ZM74.8335 25.762L69.5426 27.7921L74.617 46.9254L77.6259 45.7261L76.5077 41.6907L79.2792 40.5704L81.2469 44.281L84.2599 43.0795L74.8335 25.762ZM73.8694 30.3117L78.0047 38.2679L75.833 39.1611L73.426 30.5366L73.8694 30.3117ZM49.0869 40.5499L43.9209 45.4744L57.4849 59.5714L62.6572 54.6553L60.8727 52.7875L58.1033 55.3903L53.3517 50.4429L56.1085 47.8443L54.322 45.9891L51.563 48.5856L48.1065 44.9916L50.8633 42.3951L49.0869 40.5499ZM152.19 40.6187L139.104 55.1613L144.339 59.9255L146.055 58.0161L143.327 55.4925L154.677 42.8634L152.193 40.6182L152.19 40.6187ZM100.751 48.6368C94.0309 48.6368 87.3764 49.9805 81.1677 52.5913C74.959 55.202 69.3176 59.0287 64.5658 63.8527C59.8139 68.6768 56.0446 74.4037 53.4731 80.7065C50.9015 87.0094 49.5781 93.7647 49.5784 100.587C49.5779 107.409 50.9013 114.164 53.4728 120.467C56.0442 126.77 59.8135 132.497 64.5654 137.322C69.3173 142.146 74.9587 145.972 81.1674 148.583C87.3762 151.194 94.0308 152.538 100.751 152.538C107.472 152.538 114.126 151.194 120.335 148.583C126.544 145.972 132.185 142.146 136.937 137.322C141.689 132.497 145.458 126.77 148.03 120.467C150.601 114.164 151.924 107.409 151.924 100.587C151.924 93.7647 150.601 87.0094 148.029 80.7065C145.458 74.4037 141.688 68.6768 136.937 63.8527C132.185 59.0287 126.543 55.202 120.335 52.5913C114.126 49.9805 107.471 48.6368 100.751 48.6368ZM170.277 63.0206L152.778 71.7556L155.993 78.0772L158.292 76.9216L156.576 73.6088L162.716 70.5416L164.445 73.8566L166.748 72.7051L165.028 69.3881L169.486 67.158L171.21 70.473L173.492 69.3381L170.277 63.0206ZM31.428 64.2168C30.3782 64.1653 29.759 64.8553 28.921 66.6363C28.8843 66.7308 28.1818 68.409 28.1297 68.5228C26.7522 71.5846 27.0647 72.2948 30.0995 73.6492L32.6443 74.7921C33.9022 75.3593 35.0614 75.0646 36.2383 74.2215L38.2643 72.7744C38.9202 72.3056 39.5884 71.2285 40.1632 71.4793L43.9446 73.1785C44.3015 73.3463 44.5042 73.5074 44.5505 73.6907C44.5736 73.7814 43.9 75.441 43.8634 75.5356C43.6955 75.9137 43.3718 75.9273 42.8701 75.6938L39.2242 74.0925L37.8437 77.1847L41.0586 78.5922C44.0723 79.9428 44.8185 79.7496 46.2038 76.6704C46.2598 76.5643 46.9465 74.8916 46.9909 74.7798C48.2547 71.8704 47.8397 71.2875 44.8878 69.9698L41.1778 68.295C40.0179 67.7705 39.0541 67.5999 37.8292 68.5029L35.4347 71.0018C34.8173 71.461 34.3921 71.8697 33.821 71.6286L31.0474 70.3792C30.5669 70.165 30.3396 69.9479 30.4998 69.6025C30.5345 69.5253 31.2326 67.8868 31.2827 67.8347C31.4621 67.661 31.7033 67.6806 32.1239 67.8639L34.8204 69.0965L36.178 66.0752L33.925 65.0341C32.845 64.5436 32.0593 64.2462 31.4292 64.2153L31.428 64.2168ZM158.742 118.497C157.691 118.483 157.102 119.189 156.341 121.002C156.298 121.106 155.644 122.891 155.6 123.003C154.34 126.14 154.68 126.816 157.765 128.057L160.353 129.11C161.634 129.627 162.629 129.739 163.762 128.846L165.723 127.326C166.364 126.832 167.176 125.181 167.751 125.421L171.599 126.968C171.962 127.116 172.182 127.265 172.228 127.463C172.251 127.548 171.632 129.304 171.595 129.408C171.439 129.786 171.119 129.808 170.602 129.604L167.349 128.263L166.077 131.393L168.913 132.559C171.975 133.803 172.708 133.575 173.977 130.449C174.016 130.337 174.68 128.558 174.714 128.446C175.86 125.502 175.418 124.926 172.422 123.707L168.64 122.193C167.462 121.715 166.32 122.125 165.128 123.068L162.837 125.673C162.23 126.144 161.979 126.133 161.392 125.894L158.585 124.757C158.086 124.552 157.856 124.358 158.002 124.003C158.039 123.92 158.691 122.173 158.735 122.125C158.905 121.945 159.171 121.955 159.572 122.125L162.233 123.235L163.481 120.149L161.269 119.216C160.17 118.773 159.372 118.506 158.742 118.497ZM43.7095 119.855L25.9685 128.123L27.2366 130.832L37.6707 125.837L37.7498 126.018L28.3152 133.154L29.0482 134.755L40.4085 131.767L40.6605 132.315L30.1327 137.085L31.3946 139.784L49.1334 131.528L47.3053 127.63L37.9561 129.727L37.8874 129.581L45.3543 123.399L43.7095 119.855ZM148.637 137.179C147.751 137.26 146.899 137.89 145.864 139.086L142.39 143.105L157.187 155.9L159.377 153.366L153.237 148.063C153.441 147.766 154.773 146.323 154.976 146.255C155.196 146.188 155.445 146.288 155.744 146.541L161.22 151.292L163.396 148.762L158.365 144.423C157.144 143.37 156.272 142.989 155.1 143.599C155.525 142.153 154.874 141.398 153.537 140.242L151.611 138.572C150.441 137.568 149.523 137.098 148.637 137.179ZM148.35 140.4C148.607 140.37 148.859 140.588 149.289 140.964L152.129 143.424C152.573 143.8 152.721 144.057 152.596 144.352C152.516 144.51 151.234 145.947 151.028 146.149L146.515 142.237C146.676 142.03 147.958 140.609 148.083 140.517C148.177 140.448 148.264 140.41 148.35 140.4ZM57.0149 141.287L41.4978 153.57L43.7882 155.848L47.051 153.22L49.1374 155.323L46.5242 158.609L48.825 160.899L60.9306 145.338L57.0139 141.286L57.0149 141.287ZM56.0529 145.933L56.3882 146.268L50.7391 153.243L49.1024 151.592L56.0529 145.933ZM134.295 149.985L128.167 153.547L137.96 170.476L144.086 166.934L142.795 164.694L139.563 166.582L136.13 160.637L139.359 158.759L138.074 156.525L134.843 158.403L132.348 154.078L135.576 152.206L134.295 149.985ZM71.5476 153.056L63.3498 170.819L66.3961 172.225L69.7943 164.852C70.1281 164.966 71.9854 165.868 72.0973 166.032C72.2246 166.239 72.2011 166.489 72.039 166.867L69.0052 173.443L72.0202 174.838L74.8021 168.793C75.4774 167.327 75.6019 166.374 74.6855 165.424C76.1981 165.438 76.7391 164.6 77.4819 162.996L78.5459 160.683C79.8385 157.889 79.7723 156.868 76.9092 155.552L71.5476 153.056ZM73.5195 156.775C73.7684 156.879 75.5784 157.741 75.7058 157.841C76.0628 158.121 75.9248 158.419 75.6142 159.113L74.0338 162.52C73.7927 163.054 73.5986 163.274 73.2572 163.221C73.0951 163.204 71.2621 162.346 71.0208 162.205L73.5195 156.775ZM116.634 158.097L113.798 158.67L115.745 168.235L115.605 168.254L110.712 159.284L107.784 159.873L111.599 179.054L114.458 178.49L112.436 168.675L112.571 168.643L117.539 177.872L120.45 177.301L116.634 158.097ZM91.8351 159.643L89.5547 179.067L92.8779 179.457L95.1663 160.033L91.8348 159.644L91.8351 159.643Z" fill="white"/>
<path d="M119.031 77.8252C118.892 77.9255 118.768 78.0418 118.768 78.0418L118.596 78.1917L120.143 78.7851C119.778 78.4552 119.407 78.1358 119.031 77.8252ZM81.696 78.0105C81.5571 78.1263 81.4249 78.2488 81.2879 78.3645L80.9027 79.7721L80.5612 79.4868C80.5149 79.4752 80.2452 79.5427 79.9095 79.643C79.5313 79.9999 79.1775 80.3799 78.8226 80.7715C79.3261 80.6558 80.7249 80.2282 80.9777 80.151C81.1263 80.3189 81.3442 80.4967 81.3442 80.4967C81.5718 80.4369 82.1208 78.477 82.1208 78.477C82.0861 78.3728 81.8233 78.1321 81.696 78.0105ZM117.531 79.1411C117.382 79.1643 116.933 79.5534 116.933 79.5534L116.762 79.7054L118.961 80.5612L118.61 80.864C118.567 81.0183 119.182 82.6589 119.182 82.6589C119.402 82.7168 119.903 82.2924 119.903 82.2924C119.928 82.1631 119.467 80.8832 119.353 80.5746C119.54 80.4473 119.79 80.231 119.79 80.231C119.753 79.9937 117.533 79.142 117.533 79.142L117.531 79.1411ZM83.3549 79.1433L83.307 79.314L82.7968 81.1672L82.3117 80.8736C82.1901 80.8601 79.8629 81.5691 79.8629 81.5691C79.8301 81.8199 80.448 82.1896 80.448 82.1896C80.5599 82.2012 82.6249 81.571 82.8738 81.4899C83.061 81.6617 83.3923 81.8564 83.3923 81.8564C83.5968 81.7676 84.1482 79.7242 84.1482 79.7242C84.0864 79.566 83.5172 79.2328 83.5172 79.2328L83.3605 79.1443L83.3549 79.1433ZM120.587 79.212L120.437 79.3556C120.395 79.4965 121.01 81.1359 121.01 81.1359C121.23 81.1938 121.733 80.7757 121.733 80.7757C121.744 80.7217 121.677 80.4828 121.585 80.2031C121.263 79.8655 120.931 79.5322 120.587 79.212ZM115.661 80.3759C115.524 80.3759 114.949 80.7153 114.949 80.7153L114.728 80.8465L116.887 81.9334L116.498 82.1645C116.421 82.3034 116.623 84.0239 116.623 84.0239C116.833 84.1358 117.452 83.7699 117.452 83.7699C117.517 83.6541 117.368 82.257 117.335 81.9792C117.553 81.8789 117.837 81.7064 117.837 81.7064C117.837 81.6755 117.805 81.6382 117.749 81.5919L117.76 81.5814L117.727 81.5669C117.298 81.1906 115.661 80.3759 115.661 80.3759ZM85.4646 80.4613L85.4312 80.655L85.121 82.5102L84.5817 82.2478C84.4659 82.2362 82.1976 83.0807 82.1976 83.0807C82.188 83.3335 82.8535 83.6658 82.8535 83.6658C82.9692 83.668 85.0533 82.8969 85.2231 82.8371C85.4315 82.9876 85.7978 83.1599 85.7978 83.1599C86.0023 83.0595 86.3558 80.9985 86.3558 80.9985C86.2748 80.85 85.6354 80.5425 85.6354 80.5425L85.4646 80.4613ZM113.612 81.4295C113.475 81.4221 112.856 81.7315 112.856 81.7315L112.616 81.8439L114.728 83.062L114.301 83.289C114.222 83.4125 114.276 85.1568 114.276 85.1568C114.484 85.2784 115.148 84.9361 115.148 84.9361C115.216 84.8242 115.17 83.4256 115.159 83.1266C115.398 83.0456 115.719 82.8871 115.719 82.8871C115.719 82.8621 115.688 82.8225 115.638 82.7684L115.653 82.7622L115.607 82.7393C115.18 82.3264 113.612 81.4295 113.612 81.4295ZM87.9603 81.7065L87.9499 81.8939L87.7895 83.7574L87.2065 83.5242C87.0907 83.5242 84.8932 84.4591 84.8932 84.4591C84.8932 84.4996 84.9127 84.5454 84.9494 84.5841C85.1192 84.8098 85.6115 85.0172 85.6115 85.0172C85.7157 85.0172 87.7561 84.1477 87.9124 84.0802C88.1323 84.2268 88.5225 84.3758 88.5225 84.3758C88.727 84.2698 88.8994 82.1895 88.8994 82.1895C88.8067 82.0544 88.1456 81.7793 88.1456 81.7793L87.9603 81.7065ZM111.452 82.3853C111.315 82.3698 110.636 82.6352 110.636 82.6352L110.386 82.7393L112.422 84.0656L111.942 84.2628C111.85 84.367 111.568 86.139 111.568 86.139C111.759 86.2875 112.484 86.0036 112.484 86.0036C112.573 85.9033 112.814 84.4125 112.861 84.1712C113.102 84.1018 113.454 83.9672 113.454 83.9672C113.456 83.9402 113.425 83.8941 113.377 83.8401L113.4 83.8276L113.344 83.8006C112.941 83.3684 111.455 82.3867 111.455 82.3867L111.452 82.3853ZM90.2258 82.6685L90.2403 82.8829L90.4569 84.7278L89.8031 84.5508C89.6892 84.5682 87.7 85.7252 87.7 85.7252C87.7076 85.7734 87.7423 85.8052 87.777 85.8419C87.9757 86.0464 88.537 86.1979 88.537 86.1979C88.6373 86.1844 90.5003 85.107 90.6275 85.0298C90.8784 85.1398 91.3376 85.2692 91.3376 85.2692C91.5132 85.1188 91.2772 83.0456 91.2772 83.0475C91.1769 82.9221 90.4235 82.7247 90.4235 82.7247L90.2258 82.6685ZM109.341 83.9199C109.445 84.5102 109.55 85.0654 109.643 85.594C109.676 85.4435 109.686 85.3117 109.699 85.2441C109.959 85.2113 110.43 85.0838 110.43 85.0838C110.439 85.0626 110.416 85.0148 110.376 84.9589L110.395 84.9484L110.361 84.9255C110.188 84.6844 109.733 84.271 109.341 83.9199ZM100.591 86.3831C100.591 86.3831 100.594 86.3839 100.594 86.3914C100.594 86.3839 100.591 86.3852 100.591 86.3831ZM109.847 114.085C109.833 114.208 109.81 114.323 109.787 114.441C109.935 114.344 110.03 114.276 110.03 114.276C110.026 114.232 109.993 114.194 109.949 114.162C109.916 114.131 109.889 114.108 109.847 114.085ZM112.583 114.782C112.479 114.792 110.575 115.894 110.486 115.946C110.243 115.834 109.774 115.711 109.774 115.711C109.593 115.857 109.843 117.942 109.843 117.933C109.947 118.054 110.692 118.253 110.692 118.253L110.896 118.309L110.649 116.246L111.313 116.427C111.425 116.415 113.418 115.251 113.418 115.251C113.408 115.214 113.384 115.171 113.347 115.134H113.341C113.142 114.931 112.583 114.782 112.583 114.782ZM89.3249 114.805C89.0368 114.822 88.6232 114.98 88.6232 114.98C88.546 115.076 88.3057 116.557 88.2671 116.806C88.0183 116.876 87.6633 117.014 87.6633 117.014C87.6614 117.037 87.7674 117.183 87.7674 117.183C88.1784 117.613 89.658 118.595 89.658 118.595C89.7834 118.604 90.4701 118.341 90.4701 118.341L90.7221 118.241L88.696 116.91L89.1854 116.729C89.2683 116.621 89.5518 114.847 89.5518 114.847C89.5036 114.81 89.421 114.8 89.3249 114.805ZM91.3739 115.734C91.1192 115.778 90.6867 115.894 90.6867 115.894C90.6771 115.925 90.6966 115.969 90.7429 116.025L90.7242 116.027L90.7554 116.063C90.904 116.256 91.2508 116.581 91.5904 116.889C91.5209 116.488 91.4433 116.108 91.3739 115.734ZM86.6097 115.811C86.3354 115.857 85.9704 116.048 85.9704 116.048C85.899 116.156 85.9337 117.562 85.9433 117.851C85.706 117.938 85.3957 118.08 85.3957 118.08C85.3957 118.115 85.5102 118.241 85.5102 118.241C85.9366 118.652 87.4946 119.557 87.4946 119.557C87.6316 119.557 88.2588 119.249 88.2588 119.249L88.4982 119.136L86.3785 117.916L86.8137 117.691C86.8831 117.564 86.8366 115.825 86.8366 115.825C86.7821 115.796 86.7011 115.795 86.6097 115.811ZM115.503 115.969C115.391 115.969 113.328 116.852 113.202 116.9C112.977 116.761 112.575 116.6 112.575 116.6C112.377 116.704 112.207 118.786 112.207 118.786C112.298 118.925 112.973 119.201 112.973 119.201L113.154 119.28L113.325 117.21L113.9 117.458C114.017 117.458 116.217 116.521 116.217 116.521C116.217 116.477 116.194 116.432 116.159 116.392H116.167L116.157 116.385C115.985 116.169 115.503 115.969 115.503 115.969ZM84.2738 116.944C84.0085 117.003 83.6575 117.21 83.6575 117.21C83.5977 117.322 83.7476 118.717 83.7804 119.005C83.5604 119.107 83.2785 119.274 83.2785 119.274C83.2805 119.293 83.3115 119.338 83.3598 119.384L83.3556 119.386L83.3723 119.397C83.7832 119.763 85.4524 120.611 85.4524 120.611C85.5913 120.601 86.1625 120.259 86.1625 120.259L86.3811 120.128L84.2177 119.041L84.6154 118.805V118.803C84.6848 118.672 84.4946 116.946 84.4946 116.946C84.4416 116.92 84.3623 116.924 84.2738 116.944ZM118.26 117.32C118.148 117.309 116.019 118.089 115.884 118.139C115.676 117.988 115.312 117.816 115.312 117.816C115.113 117.916 114.768 119.979 114.768 119.979C114.842 120.128 115.47 120.429 115.47 120.429L115.643 120.519L115.984 118.47L116.532 118.734C116.646 118.746 118.908 117.908 118.908 117.908C118.931 117.653 118.26 117.32 118.26 117.32ZM81.9359 118.318C81.7082 118.264 81.2175 118.688 81.2175 118.688C81.1847 118.814 81.6532 120.096 81.7651 120.404C81.5818 120.528 81.3299 120.758 81.3299 120.758C81.3647 120.986 83.5871 121.839 83.5871 121.839C83.7357 121.812 84.1847 121.414 84.1847 121.414L84.3534 121.273L82.1524 120.423L82.5105 120.117C82.5549 119.966 81.9359 118.318 81.9359 118.318ZM120.667 118.803C120.553 118.778 118.504 119.399 118.244 119.486C118.055 119.318 117.717 119.122 117.717 119.122C117.507 119.212 116.957 121.258 116.957 121.258C117.024 121.414 117.598 121.745 117.598 121.745L117.761 121.837L118.308 119.819L118.804 120.106C118.918 120.118 121.252 119.409 121.252 119.409C121.276 119.16 120.667 118.803 120.667 118.803ZM80.1054 119.84C79.8777 119.786 79.3849 120.204 79.3849 120.204C79.3714 120.274 79.4742 120.621 79.6015 120.989C79.887 121.275 80.174 121.551 80.4614 121.831L80.6736 121.649C80.716 121.493 80.101 119.848 80.101 119.848L80.1054 119.84ZM122.018 120.277C121.399 120.449 120.349 120.759 120.129 120.819C119.981 120.658 119.773 120.475 119.773 120.475C119.534 120.545 118.995 122.501 118.995 122.501C119.018 122.58 119.178 122.74 119.309 122.868C119.508 122.705 119.695 122.535 119.89 122.366L120.211 121.216L120.55 121.491C120.577 121.501 120.715 121.469 120.91 121.42C121.287 121.048 121.655 120.669 122.018 120.277ZM80.7589 122.118C81.1718 122.486 81.595 122.846 82.0291 123.201C82.1911 123.085 82.3518 122.945 82.3518 122.945L82.5225 122.786L80.7589 122.118Z" fill="#D50032"/>
<path d="M100.468 41.9361L100.47 100.465C99.7024 99.5108 93.1843 92.7933 90.6896 90.4895C90.6414 90.5011 90.5747 90.5007 90.5168 90.5103C88.7187 90.6647 81.5384 91.5434 72.2385 92.7029C71.8488 92.7569 71.4469 92.8032 71.0475 92.8611C64.5862 93.6734 57.2095 94.6146 49.9611 95.5639C48.9868 95.6777 48.019 95.8088 47.0542 95.9304C30.7568 98.0584 15.8271 100.067 14.3591 100.428C14.28 100.445 14.2322 100.467 14.2342 100.482L100.468 100.468C99.6983 101.43 93.1834 108.152 90.6896 110.444C90.6414 110.444 90.5747 110.43 90.5168 110.421C90.7329 112.63 92.2204 120.359 93.9858 129.029C94.063 129.417 94.1359 129.793 94.2169 130.187C95.7295 137.603 97.4114 145.553 98.65 151.212C98.8757 152.232 99.0792 153.182 99.2663 154.029C99.9531 157.098 100.41 159.009 100.468 158.999L100.478 100.491H100.455C100.457 100.486 100.468 100.475 100.474 100.466C100.478 100.463 100.489 100.453 100.491 100.447C101.361 99.3914 107.753 92.7662 110.213 90.4896C110.271 90.4896 110.35 90.5021 110.431 90.5021C110.213 88.2911 108.744 80.5626 106.996 71.9061C106.915 71.526 106.837 71.1463 106.758 70.7546C105.263 63.3538 103.592 55.4369 102.346 49.7695C102.126 48.7508 101.91 47.8068 101.717 46.9502C101.019 43.8459 100.547 41.913 100.468 41.9361ZM67.0734 62.2965L80.4497 77.643C82.4293 75.9008 84.6413 74.411 87.0338 73.2245C82.7043 70.589 67.0734 62.2965 67.0734 62.2965ZM133.875 62.334L120.268 77.4385C122.249 79.1421 124.002 81.0904 125.492 83.2417C127.653 77.9958 133.325 63.8851 133.875 62.334ZM186.889 100.456C186.943 100.477 186.978 100.487 186.991 100.491C187.012 100.487 187.031 100.483 187.031 100.483C187.002 100.477 186.955 100.467 186.889 100.456ZM100.491 100.491C101.329 101.508 107.776 108.154 110.257 110.444C110.303 110.444 110.364 110.431 110.419 110.431C112.192 110.269 119.38 109.389 128.709 108.216C129.101 108.164 129.499 108.116 129.903 108.062C136.356 107.248 143.712 106.306 150.962 105.357C151.933 105.232 152.898 105.114 153.859 104.991C169.432 102.963 183.806 101.04 186.552 100.581C186.725 100.546 186.856 100.525 186.935 100.501L100.491 100.491ZM75.3868 117.602C73.2684 122.751 67.9465 136.018 67.2037 138.251L80.6237 123.453C78.6403 121.739 76.8763 119.776 75.3868 117.602ZM120.705 123.12C118.735 124.883 116.539 126.374 114.166 127.576C118.494 130.254 133.627 138.855 133.627 138.855L120.705 123.12ZM67.4497 138.329C67.3224 138.389 67.2142 138.444 67.1332 138.479C67.1197 138.538 67.109 138.583 67.1186 138.583C67.1186 138.583 67.2336 138.493 67.4497 138.329Z" fill="#C4CED4"/>
<path d="M153.853 95.9275C153.783 95.1114 153.693 94.2856 153.589 93.4734C153.585 93.4425 153.579 93.4174 153.577 93.3905C153.473 92.5821 153.345 91.7911 153.208 91.002C153.199 90.9672 153.187 90.9306 153.185 90.8882C153.039 90.1068 152.879 89.3274 152.705 88.5497C152.697 88.515 152.686 88.4803 152.684 88.4475C152.502 87.67 152.304 86.8906 152.089 86.1227C152.088 86.1111 152.078 86.0977 152.076 86.0765C149.419 76.5919 144.21 68.1553 137.234 61.5679C137.226 61.5679 137.224 61.5582 137.212 61.5562C136.639 61.0179 136.063 60.4893 135.468 59.9741C135.449 59.9625 135.434 59.9432 135.414 59.9413C134.82 59.4223 134.222 58.9226 133.605 58.4402C133.591 58.4306 133.58 58.4171 133.562 58.4074C124.753 51.4695 113.723 47.24 101.722 46.9554C101.915 47.812 102.131 48.7555 102.351 49.7741C114.398 50.2179 125.381 54.883 133.868 62.336C133.855 62.3244 118.773 70.4759 113.986 73.2731C111.727 72.1387 109.3 71.2916 106.763 70.7592C106.842 71.1509 106.919 71.5309 107 71.911C111.488 72.9394 115.59 75.0019 119.033 77.8303C119.41 78.1409 119.782 78.4592 120.145 78.7891C120.297 78.928 120.446 79.0747 120.594 79.2174C120.938 79.5377 121.268 79.8715 121.59 80.2072C124.92 83.6703 127.395 87.9534 128.705 92.7072C119.46 91.5477 112.302 90.6795 110.434 90.5058C110.353 90.5058 110.274 90.4942 110.216 90.4942C107.756 92.7707 101.365 99.3961 100.494 100.451C100.493 100.457 100.483 100.469 100.479 100.471C100.473 100.48 100.462 100.492 100.46 100.496H100.483L100.471 159.004C100.527 159.014 100.984 157.102 101.664 154.033C113.687 153.768 124.738 149.529 133.561 142.584C133.571 142.572 133.59 142.568 133.602 142.555C134.221 142.069 134.819 141.563 135.421 141.054C135.433 141.046 135.446 141.032 135.46 141.023C136.056 140.506 136.648 139.969 137.221 139.431C137.223 139.429 137.225 139.419 137.233 139.419C144.804 132.273 150.29 122.952 152.697 112.461C152.704 112.447 152.704 112.426 152.706 112.417C152.888 111.626 153.05 110.833 153.196 110.03C153.2 110.001 153.21 109.978 153.21 109.953C153.349 109.152 153.474 108.346 153.586 107.537C153.588 107.516 153.59 107.491 153.596 107.477C153.702 106.646 153.792 105.822 153.862 104.994C152.901 105.118 151.936 105.236 150.966 105.361C148.564 130.487 127.794 150.309 102.289 151.215C103.529 145.556 105.202 137.607 106.715 130.192C109.344 129.638 111.845 128.76 114.17 127.579C116.541 126.377 118.738 124.886 120.706 123.124L133.628 138.858C133.81 138.788 127.889 122.813 125.701 117.408C127.601 114.593 129.037 111.445 129.907 108.066C129.504 108.12 129.104 108.168 128.713 108.221C127.462 112.782 125.138 116.903 122.024 120.282C121.661 120.672 121.29 121.052 120.914 121.427C120.58 121.751 120.239 122.071 119.896 122.37C119.701 122.542 119.514 122.711 119.315 122.874C115.805 125.839 111.582 127.992 106.951 129.045C108.718 120.361 110.206 112.621 110.42 110.436C110.366 110.436 110.306 110.447 110.26 110.447C107.779 108.157 101.329 101.512 100.494 100.496L186.935 100.505H187.026C187.026 100.505 187.014 100.503 186.993 100.496C186.98 100.491 186.945 100.48 186.891 100.459C186.81 100.447 186.694 100.424 186.553 100.401C183.843 99.8976 169.457 97.9643 153.851 95.9347V95.9273L153.853 95.9275ZM129.904 92.8656C128.999 89.3754 127.49 86.1342 125.497 83.2479C124.008 81.0949 122.254 79.1481 120.273 77.4445L133.709 62.5095L133.868 62.336C143.326 70.6167 149.683 82.3529 150.965 95.5587C143.716 94.6172 136.354 93.6779 129.904 92.8656ZM47.0575 104.97C47.1269 105.805 47.2176 106.633 47.3218 107.457C47.3218 107.47 47.3237 107.491 47.3334 107.507C47.4376 108.327 47.563 109.128 47.7019 109.944C47.7095 109.957 47.7115 109.978 47.7134 110C47.8601 110.812 48.0221 111.607 48.2054 112.406C48.2054 112.415 48.2054 112.419 48.215 112.427C50.6113 122.938 56.1079 132.272 63.6905 139.42C64.2713 139.97 64.8578 140.507 65.4616 141.024C65.4712 141.033 65.4848 141.037 65.4964 141.047C66.0945 141.562 66.7003 142.069 67.3215 142.556C67.3331 142.569 67.3408 142.573 67.3524 142.583C76.1829 149.53 87.2458 153.77 99.2736 154.034C99.0864 153.187 98.8819 152.237 98.6542 151.217C86.5231 150.792 75.4623 146.075 66.9399 138.553C66.9515 138.562 67.0113 138.541 67.1367 138.483C67.2177 138.446 67.3277 138.392 67.455 138.333C70.0905 137.028 82.2546 130.312 86.8911 127.639C89.189 128.781 91.645 129.645 94.2226 130.193C94.1415 129.801 94.0701 129.423 93.993 129.035C89.5362 128.026 85.4634 126.001 82.0345 123.207C81.6004 122.852 81.1779 122.493 80.765 122.125C80.6628 122.024 80.5663 121.934 80.466 121.839C80.1785 121.557 79.893 121.283 79.6094 120.996C76.1482 117.481 73.5822 113.095 72.2412 108.212C81.5406 109.393 88.7221 110.275 90.5216 110.429C90.5795 110.437 90.647 110.448 90.6933 110.448C93.188 108.156 99.7071 101.431 100.475 100.472L14.2403 100.487C14.2403 100.493 14.2925 100.505 14.3657 100.518C15.8282 100.829 30.7517 102.831 47.0577 104.963V104.971L47.0575 104.97ZM71.0426 108.063C71.9417 111.52 73.4234 114.74 75.3913 117.605C76.8808 119.779 78.6442 121.742 80.6275 123.457L67.2074 138.256L66.9392 138.551C57.528 130.249 51.2079 118.531 49.9552 105.34C57.2056 106.29 64.5799 107.241 71.0426 108.063ZM100.472 41.9409C100.414 41.9356 99.9572 43.8626 99.2704 46.9552H99.2588C88.1032 47.206 77.778 50.8737 69.3004 56.9453C69.2888 56.9569 69.2868 56.9569 69.2772 56.9646C68.6367 57.4219 68.0077 57.8907 67.3884 58.3846C67.3749 58.3942 67.3517 58.4077 67.3324 58.4289C66.7228 58.9112 66.1189 59.4032 65.5304 59.9106C65.5092 59.9299 65.4957 59.9415 65.4764 59.9627C64.8822 60.4682 64.2937 60.9968 63.7227 61.5429C63.7207 61.5429 63.7111 61.545 63.7092 61.5471C56.725 68.1416 51.5002 76.5728 48.8456 86.077C48.8379 86.0983 48.834 86.1021 48.834 86.1214C48.616 86.8854 48.4211 87.6688 48.2398 88.4482C48.2282 88.4791 48.2186 88.5156 48.2147 88.5504C48.0333 89.3183 47.8751 90.1073 47.7343 90.8869C47.7247 90.9312 47.7227 90.9679 47.7111 91.0026C47.5742 91.7917 47.4487 92.5905 47.3426 93.3911C47.335 93.4181 47.333 93.4528 47.333 93.476C47.2231 94.2882 47.1305 95.112 47.0629 95.9359C47.061 95.9359 47.061 95.938 47.061 95.938C48.0237 95.8145 48.9942 95.6853 49.9685 95.5695C51.2418 82.3424 57.6105 70.6036 67.0794 62.3136C66.9984 62.5991 73.1838 77.8179 75.4392 83.2721C73.4539 86.1545 71.9549 89.3881 71.0519 92.8667C71.4513 92.8107 71.8545 92.7625 72.2442 92.7084C73.4809 88.2093 75.7671 84.1326 78.8271 80.7756C79.1821 80.3858 79.539 80.0077 79.9152 79.6488C80.3609 79.2031 80.822 78.7825 81.2927 78.3697C81.4297 78.2559 81.5628 78.1305 81.7018 78.0166C85.1977 75.0802 89.3882 72.9541 93.9918 71.9084C92.2283 80.5673 90.7389 88.2997 90.5209 90.5172C90.5787 90.5076 90.6463 90.5076 90.6945 90.496C93.1892 92.8015 99.709 99.5188 100.475 100.472L100.472 41.9426V41.9409ZM94.2214 70.7512C91.6997 71.2895 89.2862 72.1172 87.0385 73.2285C84.6462 74.4151 82.4351 75.9045 80.4537 77.6467L67.0817 62.3023C75.5881 54.855 86.5838 50.1978 98.651 49.7713C97.4105 55.432 95.7339 63.3439 94.2214 70.7512Z" fill="#005C5C"/>
</svg>
