<svg width="200" height="200" viewBox="0 0 200 200" fill="none" xmlns="http://www.w3.org/2000/svg">
<path d="M100.459 199.271C155.135 199.271 199.459 154.947 199.459 100.27C199.459 45.5933 155.135 1.26904 100.459 1.26904C45.7828 1.26904 1.45898 45.5933 1.45898 100.27C1.45898 154.947 45.7828 199.271 100.459 199.271Z" fill="#003278"/>
<path d="M100.18 34.1821C83.0619 34.1827 66.6452 41.0599 54.5411 53.3009C42.437 65.5419 35.637 82.144 35.637 99.4551C35.6365 116.767 42.4362 133.369 54.5404 145.611C66.6445 157.852 83.0616 164.73 100.18 164.73C117.009 164.716 133.167 158.055 145.21 146.167C157.254 134.279 164.229 118.104 164.65 101.09H194.18V98.1821H164.68C164.351 81.1001 157.411 64.8297 145.352 52.8638C133.293 40.898 117.075 34.1908 100.18 34.1821ZM35.637 99.4551V98.1821H5.81799L5.81839 101.09H35.6374L35.637 99.4551Z" fill="white"/>
<path d="M100.098 5.41016C48.542 5.41016 6.53199 46.9172 5.64099 98.2622V98.2661L35.697 98.2924C36.125 82.3075 42.3844 66.4475 54.586 54.2425C59.8577 48.9688 65.835 44.864 72.187 41.7935C72.0901 41.8039 72.0151 41.8077 71.9747 41.8077L74.2612 40.7686C74.2976 40.7766 74.3482 40.7666 74.3866 40.7686C75.4244 40.3163 76.4683 39.8846 77.5263 39.4889C77.498 39.4809 77.4535 39.4687 77.4373 39.4687C78.0995 39.2203 78.7563 38.9832 79.4206 38.7611C79.4549 38.7671 79.4914 38.7833 79.5217 38.7874C80.5514 38.4401 81.5751 38.0733 82.6209 37.7745C82.6088 37.7745 82.5885 37.7705 82.5764 37.7705C83.3477 37.5504 84.1098 37.3437 84.8831 37.1519C84.9295 37.1579 84.962 37.1823 85.0064 37.1923C86.234 36.8914 87.4644 36.5855 88.704 36.3593C88.6939 36.3553 88.6838 36.3491 88.6737 36.3491C89.2451 36.2441 89.8106 36.1307 90.3861 36.0418C90.4224 36.062 90.4488 36.0843 90.4872 36.1004C91.2706 35.9853 92.057 35.8536 92.8465 35.7608C92.8243 35.7528 92.7838 35.7385 92.7697 35.7325C93.1694 35.6881 93.5809 35.6354 93.9807 35.5991C112.623 33.7557 131.912 39.9643 146.189 54.2451C152.981 61.0331 157.864 68.9841 160.992 77.4341C161.054 77.5108 161.129 77.5938 161.188 77.6665C161.573 78.7346 161.944 79.8089 162.277 80.9032C162.237 80.8083 162.191 80.7313 162.146 80.6404C162.358 81.3249 162.504 82.0241 162.692 82.7126L162.839 82.8804C163.029 83.5628 163.204 84.254 163.365 84.9425C163.321 84.8718 163.28 84.8333 163.234 84.7666C164.292 89.1661 164.936 93.6457 165.069 98.1457H194.541C194.554 98.7312 194.578 99.3169 194.586 99.9065C194.586 99.9105 194.592 99.9106 194.592 99.9126C194.592 47.8066 152.204 5.41156 100.099 5.41156L100.098 5.41016ZM65.62 63.4522V87.3932H73.0578L73.1427 86.4167L72.9971 86.8979C72.9971 76.6859 78.2547 72.1359 90.0501 72.1359H91.9242V91.4978C91.9242 94.8171 89.5202 96.7049 87.7939 97.6942C89.5363 98.5887 91.9242 100.341 91.9242 103.656V124.392C91.9242 127.082 90.0764 128.692 86.963 128.692H83.1461V138.012H113.973V128.692H110.36C106.926 128.692 105.191 127.31 105.191 124.584V103.656C105.191 100.371 107.981 98.5686 109.922 97.662C108.006 96.5899 105.191 94.5547 105.191 91.4978V72.1768L106.105 72.1829H106.889C118.321 72.1829 124.876 77.3499 124.876 86.3689C124.876 86.3689 124.87 86.881 124.868 87.3938H130.419V63.4529L65.62 63.4522Z" fill="#C0111F"/>
<path d="M97.096 12.0701L91.4676 12.0863L93.2628 14.1383C93.2628 14.1403 96.391 18.9004 96.9281 19.7141C96.7747 19.9685 96.1599 20.9615 96.1599 20.9615C96.1599 20.9615 97.0578 21.8271 97.3305 22.0916C97.0236 22.5035 92.9758 27.8534 92.9758 27.8534C92.9677 27.8534 91.4232 29.313 91.4232 29.313L90.8369 29.871L96.2247 29.8103C96.2247 29.8103 95.9032 28.411 95.8527 28.1788C96.0142 27.9728 98.9363 24.1913 99.3846 23.6098C99.8066 24.2316 102.524 28.2819 102.534 28.2981C102.532 28.3001 102.532 28.3061 102.532 28.3264C102.532 28.5283 102.654 29.6082 102.654 29.6082L102.688 29.8871L108.711 29.8812L106.515 27.7241C106.515 27.7161 103.156 22.7374 102.597 21.9016C102.755 21.6513 103.363 20.6887 103.363 20.6887C103.363 20.6887 102.585 19.817 102.346 19.5544C102.629 19.1668 106.41 14.1041 106.41 14.1041L108.159 12.0865L102.733 12.0703L102.921 12.5089C102.921 12.5089 103.353 13.5141 103.464 13.7746C103.273 14.031 100.613 17.5579 100.167 18.1515C99.7491 17.5134 97.2558 13.6875 97.2437 13.6714C97.2477 13.6714 97.2477 13.6634 97.2477 13.6411C97.2477 13.4352 97.1305 12.3534 97.1305 12.3534L97.096 12.0701ZM66.492 18.3049L66.211 18.4585L55.446 24.1192L57.3848 25.3221C57.3848 25.4089 59.4574 29.4128 59.7764 30.0367C59.6896 30.2628 58.9718 32.1332 58.9718 32.1332C58.9718 32.1332 60.9655 32.7075 61.1936 32.7741C61.3147 33.0144 63.6196 37.6888 63.6297 37.707C63.5994 37.709 63.5872 39.2516 63.5872 39.2516L63.5851 39.7793L74.4921 34.0479L72.8424 30.7383C72.8424 30.7383 71.029 33.1705 71.029 33.1786C71.0108 33.1523 67.5346 34.9925 66.8037 35.3781C66.5513 34.8855 64.3996 30.6792 64.1573 30.2027C64.6197 29.9624 67.1332 28.644 67.1413 28.642C67.1413 28.6602 68.696 28.4539 68.696 28.4539L69.1327 28.3973L67.5255 25.1566C67.5255 25.1566 66.0739 26.6991 66.0699 26.7012C66.0618 26.6891 63.7825 27.8783 63.1183 28.2195C62.876 27.7592 61.2075 24.5374 60.9652 24.0751C61.4578 23.8147 65.3745 21.7825 65.3805 21.7785C65.3845 21.8088 67.7661 21.7623 67.7661 21.7623L68.2715 21.7522L66.492 18.3049ZM137.208 19.8939L137.05 20.0414C137.05 20.0414 131.551 25.1219 131.533 25.136C131.525 25.0936 129.447 25.413 129.447 25.413L129.178 25.4555C129.178 25.4555 129.188 27.3259 129.192 27.5702C128.99 27.7499 124.854 31.47 124.854 31.47C124.896 31.4356 123.368 32.3879 123.368 32.3879L122.88 32.6952L127.219 34.733C127.219 34.733 127.269 32.982 127.28 32.7659C127.429 32.6144 129.029 31.0188 129.289 30.7563C129.649 30.9238 134.186 33.0673 134.556 33.2409C134.513 33.6063 134.267 35.7966 134.244 36.0146C134.081 36.1519 132.744 37.2883 132.744 37.2883L138.466 39.967C138.466 39.967 138.017 37.5814 138.017 37.5774C138.031 37.5774 138.789 32.0965 138.801 32.0117C138.85 32.0561 140.4 30.6632 140.4 30.6632L140.621 30.4691C140.621 30.4691 139.046 28.4636 139.038 28.4595C139.11 28.4535 139.442 21.1835 139.442 21.1835L139.456 20.9732L137.208 19.8939ZM135.395 24.9784C135.253 26.1979 134.816 29.9991 134.742 30.6674C134.15 30.3908 131.755 29.2559 131.137 28.9672C131.656 28.4806 134.502 25.8184 135.395 24.9784ZM38.0186 38.0664L37.8286 38.3009L28.6684 49.2299L31.5715 51.6236C31.5715 51.6236 32.275 48.8316 32.2791 48.8236C32.2953 48.8377 33.6241 47.2581 34.0784 46.719C34.4882 47.0602 37.38 49.4383 37.5516 49.5756C37.5779 49.8017 37.7942 51.6963 37.7942 51.6963C37.7942 51.6963 39.7009 51.6114 39.917 51.6013C40.0946 51.7507 44.1282 55.1392 44.1282 55.1392C44.1282 55.2038 44.8216 56.6999 44.8216 56.6999L45.0319 57.1568L48.9418 52.4786C48.9418 52.4786 46.6937 52.1329 46.6836 52.1309C46.6836 52.0703 42.5431 48.5848 42.4805 48.5263C42.4845 48.5263 42.4866 48.5141 42.4866 48.4899C42.4866 48.2153 42.2096 46.6724 42.2096 46.6724L42.159 46.3833C42.159 46.3833 40.2967 46.5814 40.0726 46.5996C39.8869 46.4461 37.0092 44.0276 36.6074 43.6884C36.9204 43.2987 38.3177 41.6162 38.3218 41.6061C38.336 41.6284 40.5558 40.6377 40.5558 40.6377L41.033 40.4234L38.0186 38.0664ZM163.859 41.1575C163.33 41.1675 162.792 41.2758 162.257 41.5052C161.815 41.691 161.206 42.0275 160.832 42.5686C160.38 43.2329 160.08 44.1245 159.989 45.0795L159.949 45.7466C159.949 45.7143 159.916 46.05 159.91 46.0883C159.858 46.058 158.944 46.9334 158.944 46.9334L158.764 47.1032C158.764 47.1032 159.894 49.1532 159.894 49.1653V49.23C159.894 49.6197 159.993 51.559 159.993 51.559C159.969 52.4353 159.57 53.3243 159.061 53.6474C158.407 54.0694 157.566 54.189 156.748 53.981C155.973 53.7892 154.863 53.2127 153.977 51.5873C152.981 49.437 153.597 47.846 154.284 46.895L154.518 46.5756L152.852 45.8477L152.699 46.0338C151.746 47.2028 151.451 49.8783 152.8 52.5435C153.987 54.8836 155.554 56.4137 157.331 56.9649C158.706 57.397 160.146 57.243 161.501 56.5101C162.149 56.1709 162.717 55.533 162.965 55.0909C163.46 54.2529 163.592 53.2427 163.594 52.9257L163.62 51.3872C163.62 51.3589 163.567 50.7501 163.551 50.5401C163.713 50.3745 164.633 49.4363 164.633 49.4363C164.633 49.4363 163.594 47.6632 163.567 47.6127C163.574 47.6087 163.578 47.5621 163.578 47.4995C163.578 47.4126 163.574 47.2002 163.574 47.1436C163.574 45.7747 163.941 44.8588 164.621 44.5661C165.443 44.2026 167.317 44.2489 168.125 45.9914C168.809 47.4754 168.945 48.4492 168.628 49.594L168.555 49.8669L170.136 50.4855L170.245 50.1661C170.78 48.4822 169.913 46.2911 169.352 45.1321C168.285 42.9585 166.151 41.1159 163.859 41.1575ZM23.5586 68.3935L21.2438 75.528H13.7434L19.8125 79.9353L17.4957 87.0718L23.5587 82.6584L29.6359 87.0718L27.313 79.9353L33.378 75.528H25.8776L23.5586 68.3935ZM176.009 68.3935L173.692 75.526H166.185L172.254 79.9393L169.938 87.0718L176.009 82.6605L182.078 87.0718L179.755 79.9393L185.832 75.526H178.324L176.009 68.3935ZM31.4586 114.782L31.1089 115.118C31.1089 115.118 29.8534 116.327 29.8453 116.335C29.8231 116.321 28.3189 116.865 28.3189 116.865C28.3189 116.865 25.2965 117.95 25.2702 117.96C25.2702 117.888 23.4487 117.121 23.4487 117.121L23.1656 117.006C23.1656 117.006 22.2638 118.996 22.1628 119.222C21.9367 119.307 17.1086 121.072 17.0985 121.074C17.0905 121.056 15.4488 120.963 15.4488 120.963L14.9717 120.932L17.0156 126.64C17.0156 126.64 18.6148 124.962 18.6208 124.956C18.643 124.976 22.7101 123.461 23.8347 123.043C23.8771 123.168 24.132 123.876 24.2107 124.115C23.9745 124.375 18.4085 130.517 18.4085 130.517L20.032 135.143C20.032 135.143 21.4714 132.943 21.5118 132.889C21.6067 132.786 26.2208 127.953 26.56 127.596C27.9915 129.245 29.993 129.997 31.687 129.391C32.8136 128.971 33.5899 128.18 34.0401 127.024C34.6539 125.429 34.5364 123.167 33.7308 120.969L31.4586 114.782ZM170.489 117.603L170.074 117.817C168.883 118.441 167.835 119.961 167.123 122.093C166.168 124.964 166.736 128.634 169.676 129.793C170.136 129.969 170.827 130.185 171.493 130.052C172.305 129.891 173.154 129.451 173.895 128.841C173.904 128.833 174.385 128.394 174.385 128.394C174.37 128.409 174.577 128.243 174.599 128.225C174.615 128.279 175.939 128.301 175.939 128.301L176.182 128.303C176.182 128.303 176.833 125.995 176.833 125.987C176.859 125.995 178.416 124.24 178.416 124.24C179.011 123.676 179.85 123.346 180.387 123.474C181.289 123.732 181.916 124.275 182.287 124.998C182.754 125.909 182.808 127.052 182.445 128.307C181.684 130.423 180.201 131.092 179.089 131.271L178.699 131.336L178.662 131.734L179.289 133.327L179.617 133.297C180.931 133.166 183.227 131.603 184.2 128.52C184.953 126.176 184.967 124.068 184.244 122.443C183.596 120.987 182.362 119.923 180.761 119.451C180.054 119.232 179.202 119.279 178.666 119.414H178.662C177.768 119.66 176.974 120.237 176.645 120.542C176.633 120.548 175.555 121.612 175.555 121.612C175.527 121.638 175.177 122.061 175.052 122.214C174.828 122.218 173.469 122.236 173.469 122.236C173.469 122.236 172.959 124.268 172.935 124.357C172.909 124.359 172.741 124.541 172.741 124.541C171.519 125.831 170.707 125.837 170.335 125.724C169.546 125.417 168.201 124.203 168.849 122.414C169.378 120.93 169.94 120.171 170.915 119.624L171.162 119.487L171.176 119.151L170.489 117.603ZM31.1186 120.445C31.264 120.829 31.5755 121.717 31.5755 121.717C31.7249 122.121 31.7959 122.5 31.7959 122.847C31.7959 123.134 31.7473 123.399 31.6523 123.645C31.4161 124.269 30.8912 124.746 30.1401 125.026C29.3204 125.319 28.4511 125.27 27.7768 124.899C27.258 124.624 26.8749 124.178 26.6608 123.603C26.6608 123.603 26.2947 122.618 26.119 122.131C26.6319 121.956 30.6239 120.615 31.1186 120.445ZM159.199 143.555C158.912 143.541 158.613 143.557 158.307 143.604C156.617 143.85 154.704 145.062 153.196 146.846L148.931 151.866C148.931 151.866 151.122 152.517 151.132 152.517V152.519C151.132 152.566 154.705 155.683 154.743 155.718C154.732 155.718 154.727 155.756 154.727 155.825C154.727 156.237 154.897 157.717 154.897 157.717L154.933 158.02C154.933 158.02 157.119 157.832 157.351 157.808C157.551 157.976 161.457 161.332 161.457 161.332C161.457 161.388 162.16 162.828 162.16 162.828L162.369 163.252L166.325 158.669L164.095 158.095C164.095 158.069 160.772 155.245 159.852 154.472C160.009 154.291 160.456 153.783 160.604 153.613C160.953 153.696 169.008 155.552 169.008 155.552L172.228 151.858C172.228 151.858 169.598 151.674 169.562 151.672C169.513 151.662 162.997 149.994 162.474 149.861C162.72 149.17 162.904 148.473 162.904 147.817C162.904 146.486 162.428 145.287 161.517 144.497C160.831 143.91 160.06 143.597 159.199 143.555ZM46.8586 145.255L46.5675 145.354C46.5675 145.354 39.8777 147.689 39.8535 147.696C39.8514 147.653 37.8541 147.164 37.8541 147.164L37.5994 147.101C37.5994 147.101 36.8047 148.79 36.7038 148.996C36.4494 149.08 31.1038 150.878 31.1038 150.878C31.1038 150.878 31.1402 150.892 31.1442 150.896C30.8918 150.908 30.4292 150.975 29.4217 151.128C29.4177 151.128 28.6231 151.26 28.6231 151.26L32.0438 155.186C32.0438 155.186 32.8425 153.498 32.9313 153.302C33.1231 153.225 35.0808 152.444 35.3977 152.319C35.6481 152.604 38.7924 156.171 39.0367 156.454C38.8631 156.752 37.8458 158.536 37.755 158.704C37.541 158.768 35.7414 159.314 35.7414 159.314L40.1992 164.411C40.1992 164.411 40.7714 161.807 40.7754 161.797C40.7835 161.843 41.9298 159.925 41.9298 159.925C41.9298 159.925 43.7412 156.916 43.7554 156.894C43.7756 156.949 45.5365 156.257 45.5365 156.257L45.775 156.168C45.775 156.168 45.4152 153.74 45.4111 153.732C45.4657 153.74 48.5184 147.453 48.5184 147.453L48.6094 147.265L46.8586 145.255ZM157.039 147.336C157.536 147.38 158.024 147.603 158.48 147.995C159.144 148.566 159.525 149.35 159.542 150.122V150.168C159.542 150.737 159.339 151.277 158.953 151.727C158.953 151.729 158.284 152.534 157.95 152.936C157.536 152.558 154.418 149.729 154.034 149.38C154.291 149.075 154.912 148.357 154.912 148.357C155.413 147.771 155.966 147.427 156.539 147.35C156.706 147.325 156.873 147.321 157.039 147.336ZM42.8486 149.598C42.2631 150.614 40.6688 153.385 40.3498 153.943C39.9339 153.472 38.4731 151.809 38.039 151.31C38.6851 151.084 41.7421 149.994 42.8486 149.598ZM76.4686 159.34C75.8568 159.468 75.3013 159.508 74.7198 159.474C75.9413 160.003 77.1798 160.467 78.4235 160.917C77.7714 160.54 77.1713 160.108 76.4686 159.34ZM63.9116 160.086L63.946 160.626C63.946 160.626 64.0835 162.66 64.0835 162.672C64.0552 162.632 62.8886 165.015 62.8886 165.015C62.8886 165.015 62.1546 166.512 62.0557 166.72C61.8377 166.8 59.9592 167.518 59.9592 167.518C59.9592 167.518 60.5637 169.809 60.5718 169.829C60.4991 169.817 58.9767 172.896 58.9767 172.896C58.9767 172.896 58.0912 174.685 58.0811 174.701C58.0589 174.675 56.6922 175.68 56.6922 175.68L56.2757 175.987L61.2571 178.458C61.2571 178.458 60.9599 175.943 60.9539 175.937C60.9963 175.937 64.1132 169.664 65.2439 167.397C65.5326 169.069 67.7164 181.686 67.7164 181.686L69.7623 182.719C69.7623 182.719 73.0839 175.93 73.096 175.896C73.1283 175.957 74.8124 175.174 74.8124 175.174L75.0489 175.063C75.0489 175.063 74.5334 172.973 74.5293 172.948C74.602 172.948 75.8616 170.36 75.8616 170.36C75.8616 170.36 76.6926 168.656 76.6986 168.646C76.7329 168.652 78.0349 167.625 78.0349 167.625L78.4231 167.318L73.6054 164.878C73.6054 164.878 73.8237 167.346 73.8237 167.35C73.7874 167.324 71.5372 171.907 71.5372 171.907C71.5372 171.907 70.8877 173.242 70.4455 174.143C70.1528 172.526 68.2803 162.227 68.2803 162.227L63.9116 160.086ZM136.464 161.293L136.039 161.479L124.798 166.362L126.773 167.809C126.773 167.892 128.599 172.15 128.759 172.528C128.66 172.75 127.788 174.612 127.788 174.612C127.788 174.612 129.774 175.344 130.002 175.427C130.095 175.659 132.009 180.348 132.013 180.364C131.987 180.368 131.852 182.074 131.852 182.074L131.809 182.598L143.312 177.586L141.83 174.111C141.83 174.111 139.734 176.531 139.724 176.541C139.712 176.513 137.051 177.677 137.051 177.677C137.051 177.677 136.013 178.132 135.61 178.312C135.484 178.009 133.624 173.572 133.414 173.062C133.882 172.858 136.281 171.826 136.287 171.824C136.291 171.835 138.03 171.735 138.03 171.735L138.474 171.715L136.944 168.028L135.272 169.578C135.268 169.566 132.492 170.767 132.492 170.767C132.492 170.767 132.454 170.783 132.442 170.787C132.234 170.307 130.814 167.014 130.61 166.532C131.046 166.346 134.718 164.769 134.856 164.704C135.025 164.718 137.973 164.88 137.973 164.88L136.463 161.29L136.464 161.293ZM102.892 170.268C98.5082 170.225 94.5161 172.915 93.1815 176.806C93.1775 176.824 92.9672 177.612 92.9571 177.631C92.945 177.598 91.6915 178.9 91.6915 178.9L91.5096 179.096L92.8985 180.922C93.6475 185.311 97.8741 188.639 102.689 188.681C106.073 188.715 107.06 188.225 108.215 187.65L108.886 187.314C108.886 187.314 108.914 181.154 108.914 181.126C108.959 181.126 109.798 179.634 109.798 179.634L110.06 179.171L103.666 179.125C103.666 179.125 104.752 181.213 104.762 181.233C104.727 181.233 104.719 182.802 104.719 182.802L104.711 185.867C104.36 185.97 103.951 186.299 102.712 186.287C99.6668 186.265 97.8752 183.534 97.4492 180.845C97.4754 180.825 98.8178 179.488 98.8178 179.488L99.02 179.284C99.02 179.284 97.7805 177.816 97.6109 177.612C97.625 177.55 97.7039 177.079 97.7039 177.079C98.3258 174.926 100.023 172.613 102.904 172.682C104.977 172.726 106.524 173.233 107.256 174.107C107.252 174.103 107.511 174.424 107.511 174.424L108.049 175.085L108.15 171.788L107.94 171.648C106.454 170.639 105.173 170.29 102.892 170.268Z" fill="white"/>
<path d="M94.199 35.5701C94.1243 35.5781 94.0554 35.5882 93.9807 35.5964C93.5809 35.6327 93.1694 35.6854 92.7697 35.7299C92.7858 35.7359 92.8243 35.7501 92.8465 35.7582C93.3452 35.95 94.8159 36.5349 95.0259 36.8903L95.7759 36.7771C95.7759 36.7771 94.8552 36.0325 94.199 35.5701ZM90.3861 36.0412C89.8086 36.13 89.2451 36.2415 88.6758 36.3465C88.6859 36.3465 88.696 36.3525 88.7061 36.3567C89.756 36.6393 90.7332 37.2549 91.7912 37.7719L92.8121 37.6808C92.8121 37.6808 91.8601 36.8671 90.4872 36.0979C90.4489 36.0818 90.4204 36.0593 90.3861 36.0412ZM84.8831 37.1491C84.1078 37.3409 83.3476 37.5497 82.5764 37.7677C82.5885 37.7677 82.6108 37.7717 82.6209 37.7717C83.1297 37.8565 84.1174 38.0634 84.4889 38.4874C85.6398 38.2815 86.4367 38.8599 87.1676 39.2354L88.8901 38.6835C88.8901 38.6835 86.6551 37.5817 85.8353 37.5635C85.486 37.3959 85.2648 37.2622 85.0064 37.1895C84.964 37.1791 84.9275 37.1551 84.8831 37.1491ZM79.4205 38.7583C78.7562 38.9824 78.0995 39.2175 77.4372 39.4659C77.4534 39.4659 77.4979 39.48 77.5262 39.4861C77.8452 39.5608 78.9178 39.8284 79.467 40.3008C80.6704 40.0969 81.8557 40.6917 82.7179 41.2409L84.4565 40.6283C84.2646 40.3093 82.0208 39.3344 80.7649 39.3102C80.3469 38.9811 79.9112 38.8694 79.5216 38.7846C79.4913 38.7806 79.4548 38.7644 79.4205 38.7583ZM75.3711 40.7375C75.0382 40.7203 74.6823 40.7779 74.3865 40.7658C74.3482 40.7638 74.2975 40.7738 74.2612 40.7658L71.9747 41.8049C72.0171 41.8049 72.0921 41.7989 72.187 41.7887C72.823 41.722 74.492 41.5022 74.704 41.9848C75.9982 41.8576 77.3919 42.6466 78.2338 43.1816L80.0816 42.7045C79.0842 41.806 77.264 41.0994 76.2182 41.1559C76.0143 40.847 75.704 40.7546 75.3711 40.7375ZM70.1046 43.4001L67.8808 44.605C68.1655 44.6231 70.0443 44.6603 70.2906 45.2115C71.5747 45.1025 72.9926 45.5498 73.8124 46.0626L75.4277 44.8334C74.1597 44.151 72.1775 43.7701 71.1458 43.8205C70.6249 43.6408 70.7003 43.4748 70.1046 43.4001ZM64.5167 46.8632L62.9742 48.1692C63.7091 48.3994 63.9573 49.0171 64.4076 49.6511C65.9138 49.3684 68.1283 48.7723 70.2887 49.2569L71.9121 47.8175C69.4731 47.3874 66.8865 47.5086 65.5721 47.8539C65.2571 47.3653 64.5167 46.8632 64.5167 46.8632ZM59.9113 51.6526L58.6296 52.8312C59.3706 53.0573 59.6046 53.8974 60.067 54.5153C61.3128 53.8975 64.0634 53.4564 66.8376 53.834L68.271 51.9862C64.0633 51.6874 62.3296 52.2195 61.0213 52.8575C60.571 52.0963 59.9113 51.6526 59.9113 51.6526ZM55.967 56.5451L54.9541 58.1443C55.8808 58.6531 55.7937 59.255 56.2399 59.885C57.4978 59.255 60.0584 58.0559 62.8447 58.4415L64.27 56.5997C59.9109 56.6946 57.5111 57.0741 57.1941 58.0856C56.756 57.3224 55.967 56.5451 55.967 56.5451ZM52.5079 61.3142L51.7477 63.1236C52.4221 63.6304 52.836 64.8732 53.3024 65.5051C54.5502 64.859 56.1626 63.6315 58.9368 64.0353L60.2509 61.8903C56.7155 61.8903 54.4382 62.6113 54.1192 63.631C53.6791 62.575 52.5079 61.3142 52.5079 61.3142ZM132.158 61.8196V89.1326H123.238L128.4 94.017H136.832V66.189L132.158 61.8196ZM49.7099 66.3866L48.9578 68.4002C49.8947 68.909 50.0461 70.1498 50.5003 70.7635C51.7481 70.1416 53.6274 68.9849 56.4299 69.3584L57.5823 67.2336C54.1822 67.2336 51.8282 67.9668 51.5254 68.9844C50.9662 67.5872 49.7099 66.3866 49.7099 66.3866ZM46.9483 72.6073L46.3276 74.6937C47.2544 75.2166 47.6888 76.4554 48.139 77.0934C49.3928 76.4554 50.9285 75.42 53.7148 75.8036L54.6084 73.79C50.3724 74.0505 49.2708 74.4079 48.9578 75.4134C48.3238 74.1636 46.9483 72.6073 46.9483 72.6073ZM90.0503 73.8789C79.1733 73.8789 74.7343 77.6494 74.7243 87.0019L74.7122 89.1327H63.9652L68.8657 93.7259H79.0857L79.0958 92.0095C79.0958 82.4331 80.0309 76.3965 90.1888 75.3855V73.8793H90.0513L90.0503 73.8789ZM106.929 73.9294V91.4974C106.929 94.7945 112.23 96.9095 112.289 96.9317L114.47 97.7849C113.109 96.7269 111.836 95.2796 111.836 93.4584V75.6775L112.677 75.728C115.94 76.0086 118.289 76.8719 119.961 78.1338C117.254 75.4283 112.886 73.9476 106.929 73.9294ZM160.109 76.4949L159.851 77.3763C160.68 78.2789 161.481 79.2401 162.145 80.6393C162.19 80.7302 162.236 80.8073 162.277 80.9022C161.943 79.8079 161.572 78.7316 161.189 77.6635C161.13 77.5928 161.053 77.5077 160.989 77.433C160.763 77.1685 160.495 76.8765 160.109 76.4949ZM44.3993 78.5105L43.9828 80.5989C44.9237 81.1158 45.342 82.3545 45.8043 82.9905C47.046 82.3545 49.1316 81.2119 51.9118 81.5834L52.6093 79.5071C48.5227 79.7534 46.7339 80.1533 46.4108 81.175C45.9585 80.4158 44.3993 78.5105 44.3993 78.5105ZM159.039 79.0341L158.722 79.9762C159.901 80.9898 160.694 81.8305 161.439 83.6234L161.884 82.7015C161.125 81.1549 160.727 80.7422 159.039 79.0341ZM157.772 81.7856L157.189 82.7237C158.778 84.1411 159.479 84.924 160.218 86.9955L160.59 86.205L160.545 86.3263C161.438 87.0653 162.449 88.2451 163.056 91.5018L163.517 89.654C163.338 87.3079 161.156 84.704 160.843 85.5116L160.709 85.8795C159.96 84.3733 159.468 83.3362 157.772 81.7856ZM162.209 82.1677L161.771 83.1624C162.253 83.5076 162.736 84.0185 163.232 84.7656C163.279 84.8323 163.319 84.8668 163.364 84.9374C163.204 84.251 163.028 83.5598 162.838 82.8773L162.69 82.7095L162.209 82.1677ZM156.021 84.6685L155.23 85.7198C156.426 86.4588 157.668 88.2452 158.427 90.0502L158.815 89.4114C159.473 89.9807 160.652 90.8425 161.423 95.3026L162.019 93.7499C161.363 89.5079 159.385 87.9106 159.225 88.8596L158.948 89.2012L159.161 88.8596C158.399 87.3332 157.477 85.676 156.021 84.6685ZM42.5309 84.6968L42.0942 86.9247C43.0189 87.7828 43.7101 89.3758 44.1624 90.0199C45.4142 89.3819 47.3744 87.6369 50.1385 88.0326L50.5732 86.1686C46.529 86.4755 45.8836 86.9242 44.8984 88.1296C44.4562 87.3623 42.5309 84.6968 42.5309 84.6968ZM153.631 87.8324L152.636 88.8857C153.832 89.6186 155.639 91.5829 156.395 93.392L157.108 92.3205C156.355 90.786 155.091 88.8439 153.631 87.8324ZM150.519 91.1399L149.379 92.0638C150.211 92.613 153.096 95.0421 153.845 96.8532L154.717 95.6503C153.961 94.1138 152.036 92.1656 150.519 91.1399ZM40.7295 91.6049L40.406 93.762C42.0495 95.1753 42.7295 96.5304 43.208 97.12C43.7471 96.0438 45.7913 95.036 48.5877 95.2682L48.9355 93.2364C45.6182 93.4302 44.1254 93.9755 43.6872 94.9286C43.2026 94.1694 40.7295 91.6049 40.7295 91.6049ZM157.619 91.712C157.567 91.72 157.516 91.7441 157.472 91.7849L156.964 92.6642C158.388 94.4874 158.934 96.5393 159.097 99.2892L160.106 97.7427C160.076 95.0529 158.413 91.5962 157.619 91.712ZM155.723 94.4697L154.712 95.7858C155.373 97.9906 155.781 101.742 155.42 103.915L156.728 102.195C156.948 99.7313 156.178 96.6644 155.723 94.4697ZM146.886 94.6011L145.681 95.6705C146.885 96.3873 149.368 98.6893 150.111 100.494L151.102 99.4449C150.344 97.9165 148.35 95.6066 146.886 94.6011ZM114.612 97.9025L112.207 98.5797C112.154 98.5938 106.934 100.107 106.934 103.652V124.582C106.934 126.001 107.514 126.948 110.363 126.948H111.837C111.839 126.814 111.849 126.674 111.839 126.531V120.195C113.317 121.493 114.869 122.557 116.046 122.69L116.559 122.387C116.58 124.937 116.364 126.446 116.972 128.227L115.716 127.059V139.751H81.5133L86.8869 144.833H89.2139C89.5612 145.395 89.9606 145.83 90.4512 145.967L91.5631 144.833H119.858V130.916L117.812 129.016L119.444 128.333C118.226 127.057 118.277 123.3 118.403 121.267L117.836 121.6C115.569 121.225 113.114 118.96 111.98 117.422L111.838 117.48V105.617C111.838 101.341 117.764 99.6997 117.764 99.6997C117.764 99.6997 116.153 99.0614 114.612 97.9025ZM143.471 97.9731L142.262 99.0427C143.47 99.7635 145.949 102.067 146.696 103.868L147.496 103.013C147.737 105.888 147.72 109.119 147.391 110.627L148.877 109.44C149.12 106.848 148.96 103.849 148.495 101.657L147.448 102.423C146.582 100.917 144.814 98.9018 143.471 97.9731ZM152.3 98.3997L151.174 99.5177C151.548 100.483 151.837 101.658 151.544 107.481L152.965 106.157C153.006 101.79 152.771 100.597 152.3 98.3997ZM39.6201 98.9274L39.4766 101.002C40.2963 101.371 41.8102 103.908 42.2645 104.529C42.3715 104.414 42.5054 104.034 42.784 103.692C43.2807 103.095 44.7126 102.243 47.7897 102.372L47.9656 100.47C44.4161 100.512 43.281 101.378 42.9801 101.727C42.6974 101.976 42.5878 102.447 42.5111 102.712C41.9639 101.264 39.6201 98.9274 39.6201 98.9274ZM139.473 101.23L138.222 102.166C138.749 102.314 140.161 103.725 142.166 106.707L143.365 105.718C143.53 109.029 143.793 112.167 143.434 113.682L144.877 112.558C145.168 110.139 145.093 107.326 144.746 104.756L143.403 105.625C141.653 103.055 140.485 101.905 139.472 101.215L139.473 101.23ZM134.172 105.286L132.466 106.325C133.237 106.904 136.72 110.927 138.347 110.319C138.347 110.319 137.611 115.294 137.743 117.868L139.611 116.672C139.55 115.319 139.639 109.61 139.977 108.28C140.045 108.207 138.927 109.361 138.466 109.038C137.733 108.527 136.48 107.817 134.172 105.286ZM39.1333 105.443L39.1778 107.732C40.0964 108.283 41.5296 109.73 41.9515 110.378C42.5269 109.409 43.18 108.908 47.3292 109.784L47.3514 107.803C42.4572 107.564 42.5275 108.008 42.372 108.634C41.952 107.856 39.1333 105.443 39.1333 105.443ZM127.82 108.646L125.497 109.913C126.842 111.302 131.248 114.802 132.151 114.83L132.274 114.735C132.29 117.683 131.92 119.214 133.048 121.473L135.155 120.594C133.941 119.332 133.997 115.563 134.116 113.532L134.043 113.405C133.292 113.667 132.338 113.44 131.486 112.713C130.638 111.988 127.82 108.646 127.82 108.646ZM39.1313 112.224L39.2546 114.274C40.3408 114.53 41.6711 115.201 42.1335 115.829C43.3793 115.191 45.1507 115.248 47.3575 116.427L47.2989 114.393C44.6257 113.194 43.2482 113.407 42.2669 113.989C41.8166 113.208 39.1313 112.224 39.1313 112.224ZM119.751 113.605L117.635 114.48C119.553 116.481 122.095 118.675 123.817 118.871L124.334 118.574C124.361 121.58 123.972 123.104 125.105 125.391L127.221 124.51C126.002 123.244 126.055 119.473 126.176 117.448L125.618 117.778C123.341 117.412 120.892 115.149 119.751 113.605ZM39.6023 117.691L40.13 119.969C41.3455 120.282 42.1381 120.857 42.5944 121.493C42.8346 120.855 43.6106 121.207 44.6262 121.657C45.5206 122.071 46.1883 122.545 47.222 123.111L47.1694 121.061C44.9121 119.611 42.7071 118.507 42.3881 119.514C41.9479 118.753 39.6023 117.691 39.6023 117.691ZM40.6495 122.937L40.9325 125.001C41.9158 125.405 42.6717 125.964 43.1341 126.653C44.1981 126.519 45.1406 126.932 47.4261 128.569L47.2563 126.63C44.9223 124.676 43.784 124.789 42.9521 124.789C42.4978 123.957 40.6495 122.937 40.6495 122.937ZM81.4045 138.48L80.7394 139.195C80.9433 139.292 81.1743 139.398 81.4045 139.499V138.48ZM78.3477 142.461L77.4218 143.851C79.6852 145.041 81.8963 145.129 83.8851 145.129L84.0023 144.961C84.8301 146.791 85.6303 148.688 87.6373 149.445L88.7755 148.125C87.3016 147.532 85.3665 145.008 85.0071 143.492L84.8818 143.675C82.6265 144.104 79.9569 142.935 78.3477 142.461ZM75.6508 146.496L74.8199 147.966C77.0812 148.664 79.0485 148.778 81.5662 148.495L81.6956 148.265C82.6062 149.941 82.8409 150.937 85.1992 152.322L86.3414 151.004C84.8574 150.407 83.0557 148.014 82.6983 146.496L82.4516 146.888C80.1115 147.49 77.268 146.968 75.6508 146.496ZM73.6049 150.703L72.9276 152.245C75.3787 153.085 77.6544 153.26 79.3121 152.915C80.1561 154.308 81.0736 155.625 83.0967 156.38L83.8367 155.062C82.1649 154.373 80.6033 153.488 80.0562 151.441C77.702 152.036 75.2282 151.175 73.6049 150.703ZM72.2928 154.257L71.846 155.628C74.1134 156.801 76.2958 156.622 77.9494 156.267C78.86 157.561 79.626 158.287 81.639 159.038L82.3607 157.995C80.2145 157.735 79.3734 156.637 78.4043 155.187C76.0662 155.783 73.902 154.733 72.2928 154.257Z" fill="#003278"/>
</svg>
