<svg width="28" height="28" viewBox="0 0 28 28" fill="none" xmlns="http://www.w3.org/2000/svg">
<g clip-path="url(#clip0_2_47)">
<path d="M27.7535 3.74431C27.5946 2.97715 27.1469 2.20819 26.3788 1.44098C25.6951 0.757275 25.015 0.328361 24.3304 0.129627C23.819 -0.020217 23.312 -0.0332326 22.8499 0.0550877C22.1526 0.187431 21.5632 0.527096 21.0562 0.909306C20.5501 1.29294 20.1177 1.72809 19.7471 2.09821C18.4317 3.4141 16.7206 5.12429 14.7475 7.09785C14.2001 7.64697 13.6582 8.36978 13.1018 9.1867C12.2683 10.411 11.4096 11.8467 10.5652 13.1657C9.72447 14.4833 8.88731 15.687 8.16948 16.4017L3.39324 21.178C2.55521 20.7966 1.53409 20.9428 0.845024 21.6311C-0.0405857 22.5172 -0.0405857 23.9577 0.845024 24.8438L2.97603 26.9744C3.86164 27.86 5.30266 27.86 6.18827 26.9739C6.87651 26.2857 7.02274 25.2642 6.64141 24.4265L11.4176 19.6503C11.894 19.173 12.5886 18.6382 13.388 18.089C14.5877 17.2644 16.0215 16.4025 17.3495 15.5574C18.6801 14.7089 19.8987 13.8902 20.7215 13.0719C22.6946 11.0983 24.4048 9.38762 25.7212 8.07222C26.0496 7.74246 26.43 7.36429 26.78 6.92865C27.0429 6.602 27.2887 6.24178 27.479 5.83758C27.7642 5.23514 27.9141 4.51059 27.7535 3.74431ZM5.21384 25.9996C4.86483 26.3481 4.29859 26.3481 3.95045 26L1.81945 23.8689C1.47125 23.5203 1.47125 22.9545 1.81945 22.606C2.16846 22.257 2.73464 22.257 3.08371 22.6056L5.21384 24.7362C5.56286 25.0847 5.56286 25.6505 5.21384 25.9996ZM5.7728 23.3458L4.47354 22.0465L5.03616 21.484L6.89264 22.226L5.7728 23.3458ZM7.5997 21.5194L5.74322 20.7769L6.82264 19.697L8.67912 20.4395L7.5997 21.5194ZM9.38617 19.7325L7.52964 18.9904L9.07926 17.4408L10.3785 18.7405L9.38617 19.7325ZM26.4093 4.71424C26.3357 5.11357 26.1186 5.52542 25.8109 5.93142C25.5039 6.33699 25.1164 6.72866 24.7458 7.09785C23.4304 8.41325 21.7202 10.1239 19.7461 12.0975C19.3083 12.5363 18.6389 13.0464 17.8574 13.5785C16.6819 14.3784 15.2526 15.2348 13.9102 16.0936C12.8551 16.7701 11.8582 17.4426 11.0569 18.1192L9.69937 16.7616C10.0888 16.3 10.4755 15.7786 10.8659 15.2124C11.7254 13.9612 12.5922 12.517 13.424 11.2096C14.253 9.90409 15.0597 8.73044 15.7219 8.07277C17.6951 6.09921 19.4061 4.38858 20.7216 3.07313C21.05 2.7438 21.3945 2.40058 21.7534 2.11347C22.0217 1.89767 22.2954 1.71507 22.5664 1.58814C22.9773 1.39876 23.3587 1.3275 23.7956 1.41544C24.2326 1.50562 24.7656 1.77791 25.4044 2.41545C25.9706 2.98169 26.2487 3.46841 26.3663 3.87353C26.4542 4.17902 26.4587 4.446 26.4093 4.71424Z" fill="white"/>
<path d="M24.7404 19.409C24.5744 19.1591 24.3833 18.9214 24.1724 18.697L24.1697 18.6943L24.1078 18.632C23.032 17.5256 21.5954 16.9692 20.1633 16.9692C19.6367 16.9692 19.1117 17.0442 18.6012 17.1949C18.1616 17.3232 17.73 17.5108 17.3262 17.7548L17.3298 17.753L17.3245 17.7561C16.9898 17.9562 16.6703 18.1976 16.3751 18.4753C15.2275 19.5587 14.6478 21.024 14.6478 22.4866C14.6478 23.4803 14.9143 24.4772 15.4553 25.3574C15.5944 25.5884 15.7542 25.8096 15.9327 26.0219C15.9327 26.0223 15.9336 26.0228 15.9336 26.0232C15.9345 26.0236 15.9345 26.0236 15.9345 26.0246C16.0045 26.1089 16.0781 26.1923 16.1544 26.2731C17.2383 27.4198 18.7026 28.0004 20.1651 27.9999C20.9718 27.9999 21.7803 27.8227 22.5286 27.4664C23.0383 27.226 23.5192 26.9008 23.9508 26.4934C24.2128 26.2466 24.4453 25.9806 24.6453 25.697C25.3308 24.7442 25.6781 23.6185 25.6781 22.491V22.4866V22.4856V22.4829V22.4739C25.6781 21.4062 25.3659 20.3348 24.7386 19.407L24.7404 19.409ZM16.5734 24.7832L16.5483 24.8038C16.1041 24.1165 15.8691 23.3166 15.8672 22.4866C15.8691 21.4417 16.2432 20.4422 16.9242 19.6637C16.9108 19.7884 16.9045 19.9141 16.9045 20.0428C16.9045 20.3919 16.9538 20.7508 17.0499 21.1101C17.1863 21.6049 17.2598 22.1618 17.2589 22.6781C17.2598 23.0186 17.2284 23.3434 17.1629 23.6445C17.0642 24.1026 16.8848 24.4731 16.6407 24.7208L16.5734 24.7832ZM20.1652 26.7801C18.9745 26.7801 17.8691 26.3063 17.0517 25.4463L17.0831 25.4207C17.2006 25.3224 17.3101 25.2067 17.4087 25.077C17.6393 24.776 17.8143 24.3987 17.9274 23.9563C18.0243 23.5728 18.0736 23.143 18.0736 22.6777C18.0736 22.0819 17.992 21.4655 17.8367 20.8948C17.7587 20.6073 17.7191 20.321 17.7191 20.0429C17.7191 19.6674 17.7891 19.2905 17.9282 18.9231C17.9453 18.8746 17.9659 18.8275 17.965 18.7969C18.629 18.399 19.3898 18.189 20.1633 18.189C21.3558 18.189 22.4649 18.6668 23.285 19.534C23.3738 19.6287 23.4563 19.7256 23.5354 19.8247L23.5004 19.8804C23.2851 20.1958 22.9423 20.4556 22.4811 20.6547C21.6439 21.0137 20.9548 21.6031 20.4873 22.3587C20.0719 23.0285 19.8431 23.8163 19.8431 24.5768C19.8431 25.2915 20.0369 25.9227 20.403 26.4018C20.499 26.5293 20.6076 26.6432 20.7242 26.7406L20.7269 26.7428C20.5421 26.7675 20.3528 26.7801 20.1652 26.7801ZM23.1137 25.6069C22.761 25.9398 22.3546 26.209 21.9382 26.4015C21.8727 26.3952 21.8099 26.3858 21.7489 26.3692C21.6592 26.3485 21.5739 26.318 21.4887 26.275C21.2348 26.1489 21.0311 25.9353 20.8848 25.6402C20.7367 25.3435 20.6587 24.9757 20.6587 24.5769C20.6587 23.9658 20.8435 23.3301 21.1791 22.7873C21.5613 22.1736 22.1231 21.6948 22.8023 21.4028C23.293 21.1946 23.6932 20.9151 23.9912 20.5741L24.0038 20.5594C24.3017 21.1489 24.4587 21.8129 24.4587 22.4832C24.4587 23.6778 23.9813 24.7873 23.1137 25.6069Z" fill="white"/>
<path d="M15.4562 25.3592C15.4562 25.3588 15.4562 25.3584 15.4554 25.3574V25.3579L15.4562 25.3592Z" fill="white"/>
<path d="M24.6453 25.6976V25.697L24.6435 25.6999L24.6453 25.6976Z" fill="white"/>
</g>
<defs>
<clipPath id="clip0_2_47">
<rect width="28" height="28" fill="white"/>
</clipPath>
</defs>
</svg>
