<svg width="55" height="53" viewBox="0 0 55 53" fill="none" xmlns="http://www.w3.org/2000/svg">
<path d="M1.70898 40.0469H3.24023L6.11816 47.7236L8.98926 40.0469H10.5205L6.71973 50H5.50293L1.70898 40.0469ZM1.01172 40.0469H2.46777L2.7207 46.6914V50H1.01172V40.0469ZM9.76172 40.0469H11.2246V50H9.50879V46.6914L9.76172 40.0469ZM17.2676 48.5166V44.9893C17.2676 44.7249 17.2197 44.4971 17.124 44.3057C17.0283 44.1143 16.8825 43.9661 16.6865 43.8613C16.4951 43.7565 16.2536 43.7041 15.9619 43.7041C15.693 43.7041 15.4606 43.7497 15.2646 43.8408C15.0687 43.932 14.916 44.055 14.8066 44.21C14.6973 44.3649 14.6426 44.5404 14.6426 44.7363H13.002C13.002 44.4447 13.0726 44.1621 13.2139 43.8887C13.3551 43.6152 13.5602 43.3714 13.8291 43.1572C14.098 42.943 14.4193 42.7744 14.793 42.6514C15.1667 42.5283 15.5859 42.4668 16.0508 42.4668C16.6068 42.4668 17.099 42.5602 17.5273 42.7471C17.9603 42.9339 18.2998 43.2165 18.5459 43.5947C18.7965 43.9684 18.9219 44.4378 18.9219 45.0029V48.291C18.9219 48.6283 18.9447 48.9313 18.9902 49.2002C19.0404 49.4645 19.111 49.6947 19.2021 49.8906V50H17.5137C17.4362 49.8223 17.3747 49.5967 17.3291 49.3232C17.2881 49.0452 17.2676 48.7764 17.2676 48.5166ZM17.5068 45.502L17.5205 46.5205H16.3379C16.0326 46.5205 15.7637 46.5501 15.5312 46.6094C15.2988 46.6641 15.1051 46.7461 14.9502 46.8555C14.7952 46.9648 14.679 47.097 14.6016 47.252C14.5241 47.4069 14.4854 47.5824 14.4854 47.7783C14.4854 47.9743 14.5309 48.1543 14.6221 48.3184C14.7132 48.4779 14.8454 48.6032 15.0186 48.6943C15.1963 48.7855 15.4105 48.8311 15.6611 48.8311C15.9984 48.8311 16.2923 48.7627 16.543 48.626C16.7982 48.4847 16.9987 48.3138 17.1445 48.1133C17.2904 47.9082 17.3678 47.7145 17.377 47.5322L17.9102 48.2637C17.8555 48.4505 17.762 48.651 17.6299 48.8652C17.4977 49.0794 17.3245 49.2845 17.1104 49.4805C16.9007 49.6719 16.6478 49.8291 16.3516 49.9521C16.0599 50.0752 15.7227 50.1367 15.3398 50.1367C14.8568 50.1367 14.4261 50.041 14.0479 49.8496C13.6696 49.6536 13.3734 49.3916 13.1592 49.0635C12.945 48.7308 12.8379 48.3548 12.8379 47.9355C12.8379 47.5436 12.9108 47.1973 13.0566 46.8965C13.207 46.5911 13.4258 46.3359 13.7129 46.1309C14.0046 45.9258 14.36 45.7708 14.7793 45.666C15.1986 45.5566 15.6771 45.502 16.2148 45.502H17.5068ZM24.0352 42.6035V43.8066H19.8652V42.6035H24.0352ZM21.0684 40.792H22.7158V47.9561C22.7158 48.1839 22.7477 48.3594 22.8115 48.4824C22.8799 48.6009 22.9733 48.6807 23.0918 48.7217C23.2103 48.7627 23.3493 48.7832 23.5088 48.7832C23.6227 48.7832 23.7321 48.7764 23.8369 48.7627C23.9417 48.749 24.026 48.7354 24.0898 48.7217L24.0967 49.9795C23.96 50.0205 23.8005 50.057 23.6182 50.0889C23.4404 50.1208 23.2354 50.1367 23.0029 50.1367C22.6247 50.1367 22.2897 50.0706 21.998 49.9385C21.7064 49.8018 21.4785 49.5807 21.3145 49.2754C21.1504 48.9701 21.0684 48.5645 21.0684 48.0586V40.792ZM28.3281 48.8242C28.597 48.8242 28.8385 48.7718 29.0527 48.667C29.2715 48.5576 29.4469 48.4072 29.5791 48.2158C29.7158 48.0244 29.791 47.8034 29.8047 47.5527H31.3564C31.3473 48.0312 31.2061 48.4665 30.9326 48.8584C30.6592 49.2503 30.2969 49.5625 29.8457 49.7949C29.3945 50.0228 28.8955 50.1367 28.3486 50.1367C27.7835 50.1367 27.2913 50.041 26.8721 49.8496C26.4528 49.6536 26.1042 49.3848 25.8262 49.043C25.5482 48.7012 25.3385 48.307 25.1973 47.8604C25.0605 47.4137 24.9922 46.9352 24.9922 46.4248V46.1855C24.9922 45.6751 25.0605 45.1966 25.1973 44.75C25.3385 44.2988 25.5482 43.9023 25.8262 43.5605C26.1042 43.2188 26.4528 42.9521 26.8721 42.7607C27.2913 42.5648 27.7812 42.4668 28.3418 42.4668C28.9342 42.4668 29.4538 42.5853 29.9004 42.8223C30.347 43.0547 30.6979 43.3805 30.9531 43.7998C31.2129 44.2145 31.3473 44.6976 31.3564 45.249H29.8047C29.791 44.9756 29.7227 44.7295 29.5996 44.5107C29.4811 44.2874 29.3125 44.1097 29.0938 43.9775C28.8796 43.8454 28.6221 43.7793 28.3213 43.7793C27.9886 43.7793 27.7129 43.8477 27.4941 43.9844C27.2754 44.1165 27.1045 44.2988 26.9814 44.5312C26.8584 44.7591 26.7695 45.0166 26.7148 45.3037C26.6647 45.5863 26.6396 45.8802 26.6396 46.1855V46.4248C26.6396 46.7301 26.6647 47.0264 26.7148 47.3135C26.765 47.6006 26.8516 47.8581 26.9746 48.0859C27.1022 48.3092 27.2754 48.4893 27.4941 48.626C27.7129 48.7581 27.9909 48.8242 28.3281 48.8242ZM34.248 39.5V50H32.6074V39.5H34.248ZM33.9609 46.0283L33.4277 46.0215C33.4323 45.5111 33.5029 45.0394 33.6396 44.6064C33.7809 44.1735 33.9769 43.7975 34.2275 43.4785C34.4827 43.1549 34.7881 42.9066 35.1436 42.7334C35.499 42.5557 35.8932 42.4668 36.3262 42.4668C36.6908 42.4668 37.0189 42.5169 37.3105 42.6172C37.6068 42.7174 37.862 42.8792 38.0762 43.1025C38.2904 43.3213 38.4521 43.6084 38.5615 43.9639C38.6755 44.3148 38.7324 44.7432 38.7324 45.249V50H37.0781V45.2354C37.0781 44.8799 37.0257 44.5973 36.9209 44.3877C36.8206 44.1781 36.6725 44.0277 36.4766 43.9365C36.2806 43.8408 36.0413 43.793 35.7588 43.793C35.4626 43.793 35.2005 43.8522 34.9727 43.9707C34.7493 44.0892 34.5625 44.251 34.4121 44.4561C34.2617 44.6611 34.1478 44.8981 34.0703 45.167C33.9974 45.4359 33.9609 45.723 33.9609 46.0283ZM43.6611 50.1367C43.1143 50.1367 42.6198 50.0479 42.1777 49.8701C41.7402 49.6878 41.3665 49.4349 41.0566 49.1113C40.7513 48.7878 40.5166 48.4072 40.3525 47.9697C40.1885 47.5322 40.1064 47.0605 40.1064 46.5547V46.2812C40.1064 45.7025 40.1908 45.1784 40.3594 44.709C40.528 44.2396 40.7627 43.8385 41.0635 43.5059C41.3643 43.1686 41.7197 42.9111 42.1299 42.7334C42.54 42.5557 42.9844 42.4668 43.4629 42.4668C43.9915 42.4668 44.4541 42.5557 44.8506 42.7334C45.2471 42.9111 45.5752 43.1618 45.835 43.4854C46.0993 43.8044 46.2952 44.1849 46.4229 44.627C46.555 45.069 46.6211 45.5566 46.6211 46.0898V46.7939H40.9062V45.6113H44.9941V45.4814C44.985 45.1852 44.9258 44.9072 44.8164 44.6475C44.7116 44.3877 44.5498 44.1781 44.3311 44.0186C44.1123 43.859 43.8206 43.7793 43.4561 43.7793C43.1826 43.7793 42.9388 43.8385 42.7246 43.957C42.515 44.071 42.3395 44.2373 42.1982 44.4561C42.057 44.6748 41.9476 44.9391 41.8701 45.249C41.7972 45.5544 41.7607 45.8984 41.7607 46.2812V46.5547C41.7607 46.8783 41.804 47.179 41.8906 47.457C41.9818 47.7305 42.1139 47.9697 42.2871 48.1748C42.4603 48.3799 42.6699 48.5417 42.916 48.6602C43.1621 48.7741 43.4424 48.8311 43.7568 48.8311C44.1533 48.8311 44.5065 48.7513 44.8164 48.5918C45.1263 48.4323 45.3952 48.2067 45.623 47.915L46.4912 48.7559C46.3317 48.9883 46.1243 49.2116 45.8691 49.4258C45.6139 49.6354 45.3018 49.8063 44.9326 49.9385C44.568 50.0706 44.1442 50.1367 43.6611 50.1367ZM52.0557 47.9971C52.0557 47.833 52.0146 47.6849 51.9326 47.5527C51.8506 47.416 51.6934 47.293 51.4609 47.1836C51.2331 47.0742 50.8958 46.974 50.4492 46.8828C50.0573 46.7962 49.6973 46.6937 49.3691 46.5752C49.0456 46.4521 48.7676 46.304 48.5352 46.1309C48.3027 45.9577 48.1227 45.7526 47.9951 45.5156C47.8675 45.2786 47.8037 45.0052 47.8037 44.6953C47.8037 44.3945 47.8698 44.1097 48.002 43.8408C48.1341 43.5719 48.3232 43.335 48.5693 43.1299C48.8154 42.9248 49.1139 42.763 49.4648 42.6445C49.8203 42.526 50.2168 42.4668 50.6543 42.4668C51.2741 42.4668 51.805 42.5716 52.2471 42.7812C52.6937 42.9863 53.0355 43.2666 53.2725 43.6221C53.5094 43.973 53.6279 44.3695 53.6279 44.8115H51.9805C51.9805 44.6156 51.9303 44.4333 51.8301 44.2646C51.7344 44.0915 51.5885 43.9525 51.3926 43.8477C51.1966 43.7383 50.9505 43.6836 50.6543 43.6836C50.3717 43.6836 50.137 43.7292 49.9502 43.8203C49.7679 43.9069 49.6312 44.0208 49.54 44.1621C49.4535 44.3034 49.4102 44.4583 49.4102 44.627C49.4102 44.75 49.4329 44.8617 49.4785 44.9619C49.5286 45.0576 49.6107 45.1465 49.7246 45.2285C49.8385 45.306 49.9935 45.3789 50.1895 45.4473C50.39 45.5156 50.6406 45.5817 50.9414 45.6455C51.5065 45.764 51.9919 45.9167 52.3975 46.1035C52.8076 46.2858 53.1221 46.5228 53.3408 46.8145C53.5596 47.1016 53.6689 47.4661 53.6689 47.9082C53.6689 48.2363 53.5983 48.5371 53.457 48.8105C53.3203 49.0794 53.1198 49.3141 52.8555 49.5146C52.5911 49.7106 52.2744 49.8633 51.9053 49.9727C51.5407 50.082 51.1305 50.1367 50.6748 50.1367C50.0049 50.1367 49.4375 50.0182 48.9727 49.7812C48.5078 49.5397 48.1546 49.2321 47.9131 48.8584C47.6761 48.4801 47.5576 48.0882 47.5576 47.6826H49.1504C49.1686 47.988 49.2529 48.2318 49.4033 48.4141C49.5583 48.5918 49.7497 48.7217 49.9775 48.8037C50.21 48.8812 50.4492 48.9199 50.6953 48.9199C50.9915 48.9199 51.2399 48.8812 51.4404 48.8037C51.641 48.7217 51.7936 48.6123 51.8984 48.4756C52.0033 48.3343 52.0557 48.1748 52.0557 47.9971Z" fill="#374DF5"/>
<path d="M27 1.25C18.854 1.25 12.25 7.854 12.25 16C12.25 24.146 18.854 30.75 27 30.75C35.146 30.75 41.75 24.146 41.75 16C41.74 7.858 35.141 1.26 27 1.25ZM27 29.25C19.682 29.25 13.75 23.318 13.75 16C13.75 8.682 19.682 2.75 27 2.75C34.318 2.75 40.25 8.682 40.25 16C40.242 23.314 34.313 29.242 27 29.25ZM27.75 15.689V6C27.75 5.586 27.414 5.25 27 5.25C26.586 5.25 26.25 5.586 26.25 6V16C26.25 16.207 26.334 16.395 26.47 16.53L30.469 20.531C30.605 20.667 30.793 20.751 31 20.751C31.415 20.751 31.751 20.415 31.751 20C31.751 19.793 31.667 19.605 31.531 19.469L27.75 15.689Z" fill="#374DF5"/>
</svg>
