<svg width="41" height="27" viewBox="0 0 41 27" fill="none" xmlns="http://www.w3.org/2000/svg">
<path d="M37.655 0H3.34498C1.50089 0 0 1.83364 0 4.09907V22.8953C0 25.1607 1.50089 27 3.34498 27H37.6504C39.4991 27 40.9954 25.1607 40.9954 22.8953V4.09907C41 1.83364 39.5037 0 37.655 0Z" fill="white"/>
<path d="M39.2291 2.16442C38.8081 1.64853 38.2453 1.36255 37.6504 1.36255H28.0594L33.5779 12.6448L34.0812 12.7233L34.3741 13.2392V13.727L34.731 13.8055L35.0468 14.3439V14.8093L35.4037 14.8878C35.4037 14.8878 35.7606 15.3532 35.7606 15.3756C35.7606 15.3476 35.7606 16.4298 35.7606 16.4298C35.7606 16.4298 36.5385 17.3046 37.234 17.6411C37.7191 17.871 37.7786 18.8242 38.0531 19.3401C38.4329 20.0579 38.9363 20.3719 38.831 20.7812C38.5794 21.8859 37.655 23.742 36.7948 23.8485C36.7948 23.8485 34.6532 23.8485 33.3903 23.8485V25.6317H37.6459C38.8768 25.6317 39.8789 24.4037 39.8789 22.8953V4.099C39.8835 3.37003 39.6501 2.68591 39.2291 2.16442Z" fill="#FA012D"/>
<path d="M24.7922 1.36816H3.34955C2.75469 1.36816 2.19185 1.65415 1.77087 2.17003C1.34989 2.68592 1.11652 3.37564 1.11652 4.10461V22.9009C1.11652 23.6298 1.34989 24.3196 1.77087 24.8355C2.19185 25.3513 2.75469 25.6373 3.34955 25.6373H17.2786C16.9262 24.9252 16.5373 24.1121 16.4137 23.8654H14.7527C14.7481 18.8186 16.1575 16.0093 17.8185 15.471C18.0473 15.4205 17.9421 14.0298 17.6492 13.6149C17.6492 13.6149 16.8484 13.6429 16.6837 13.5925C16.4732 13.514 16.6196 13.256 16.6196 13.256L17.3975 11.1925L17.2923 10.6261L14.4141 10.6317C14.3729 10.6317 16.7889 8.5962 16.7889 8.5962C16.9125 3.24106 21.3877 2.82611 24.1012 5.03545C25.6982 6.3476 25.8263 8.92144 25.7028 10.727C25.6799 10.828 25.2818 10.7551 25.2818 10.7551C25.2818 10.7551 25.0118 12.7121 25.7257 12.7121H28.8785C30.1597 12.6616 31.3998 13.7158 31.3998 13.7158L31.7155 12.3756L24.7922 1.36816ZM5.72902 21.7626C4.88248 21.7626 4.19609 20.9214 4.19609 19.8841C4.19609 18.8467 4.88248 18.0055 5.72902 18.0055C6.57556 18.0055 7.26194 18.8467 7.26194 19.8841C7.25736 20.9214 6.57556 21.7626 5.72902 21.7626Z" fill="#092668"/>
</svg>
