<svg width="28" height="28" viewBox="0 0 28 28" fill="none" xmlns="http://www.w3.org/2000/svg">
<g clip-path="url(#clip0_2_42)">
<path d="M4.71723 24.4808L4.66342 24.4325C4.66205 24.432 4.66112 24.4311 4.66025 24.4302L4.71723 24.4808Z" fill="white"/>
<path d="M28 14C28 13.0056 27.8951 12.0344 27.6947 11.098L27.6951 11.1016C26.5831 5.80738 22.4879 1.62241 17.2438 0.379641L17.2602 0.383742L17.247 0.380133C16.2034 0.129445 15.1129 0 14 0C12.6369 0 11.3148 0.194578 10.0625 0.565578L10.0853 0.558742L10.0665 0.564211C7.75873 1.23506 5.70385 2.48604 4.05595 4.14395C1.54623 6.67188 -0.000437407 10.1591 9.27906e-08 14C9.27906e-08 14.4562 0.0200157 14.9119 0.0651329 15.3668V15.3649C0.415133 18.9552 2.12138 22.1512 4.65932 24.4294L4.66342 24.4326C7.13989 26.6492 10.4147 28.0004 14 28C15.9127 28 17.7447 27.6154 19.4113 26.9145L19.4104 26.9149C22.2865 25.7086 24.6695 23.5758 26.1898 20.8852C26.1894 20.8856 26.1894 20.8866 26.1889 20.887L26.2062 20.8564L26.1902 20.8842C27.3447 18.8489 28.0004 16.4956 28 14ZM11.0961 3.52188C11.2086 3.00048 11.3281 2.53017 11.4334 2.14014C12.26 1.96055 13.1177 1.86665 14 1.86665C14.7278 1.86665 15.4424 1.93047 16.1342 2.05401C15.3462 2.78179 14.5592 3.64766 13.583 4.42608C12.7868 5.06045 11.8686 5.63467 10.7283 6.03892C10.7834 5.1853 10.9279 4.30161 11.0961 3.52188ZM10.6982 7.12764C12.6829 6.50781 14.0934 5.41313 15.2108 4.37046C15.8233 3.79892 16.3542 3.24477 16.8501 2.78994C17.0274 2.62637 17.1992 2.48238 17.3683 2.34883C20.9717 3.38559 23.887 6.05478 25.2628 9.50381C24.5232 9.20894 23.696 8.96241 22.7987 8.76827C21.2551 8.4356 19.5124 8.25557 17.6986 8.25513C15.5676 8.25557 13.3387 8.5044 11.2246 9.05587L11.2232 9.0563C11.0811 9.09371 10.943 9.1356 10.803 9.17569C10.7943 9.10552 10.7843 9.0335 10.777 8.96558C10.7123 8.37681 10.6977 7.7852 10.6977 7.18966C10.6977 7.16909 10.6982 7.14809 10.6982 7.12764ZM5.38076 5.45962C6.74018 4.09106 8.41734 3.05205 10.2913 2.45361C10.2252 2.71797 10.1577 3.00234 10.0925 3.30537C9.89428 4.22548 9.72387 5.29145 9.68734 6.33555C9.681 6.33642 9.67323 6.33872 9.66689 6.33965L9.66416 6.34014C9.28227 6.4021 8.90903 6.43169 8.54623 6.43169C7.34081 6.43081 6.25209 6.09995 5.33247 5.5107C5.34888 5.49429 5.36441 5.47608 5.38076 5.45962ZM1.86665 14C1.86709 11.0646 2.90298 8.38272 4.63427 6.28545C5.74853 7.03921 7.09155 7.45943 8.54623 7.4585C8.91538 7.4585 9.29272 7.42662 9.67416 7.37242C9.6769 7.92706 9.69243 8.49483 9.7562 9.07681C9.77123 9.21309 9.78901 9.34795 9.80678 9.48194C8.09003 10.0625 6.35644 10.928 4.82606 12.0226C3.70863 12.8233 2.70145 13.7471 1.89301 14.7738C1.87709 14.5187 1.86665 14.2616 1.86665 14ZM5.2331 22.3836C3.64946 20.7256 2.52973 18.6243 2.08223 16.2836C2.87383 15.0104 4.04868 13.8404 5.42363 12.8575C6.80996 11.8653 8.39273 11.0633 9.95542 10.5159C10.1463 11.7422 10.4039 12.929 10.7174 14.0697C8.57637 15.348 7.30078 17.2274 6.48047 19.0057C6.04614 19.945 5.73218 20.8587 5.47329 21.648C5.38759 21.9105 5.30873 22.1525 5.2331 22.3836ZM14 26.1334C10.9552 26.1329 8.18623 25.0146 6.05254 23.1656C6.17832 22.8024 6.30547 22.4032 6.44859 21.9675C6.83052 20.8013 7.31948 19.4191 8.10791 18.1216C8.80381 16.9773 9.7248 15.9036 11.0141 15.0801C12.4301 19.5845 14.7488 23.2928 17.5657 25.6001C16.4386 25.9469 15.2409 26.1334 14 26.1334ZM24.5656 19.9655L24.5497 19.9938L24.5647 19.9668C23.2499 22.2942 21.1854 24.1432 18.7004 25.1877C15.8493 23.0768 13.3856 19.3083 11.9437 14.6143C12.3881 14.4425 12.8475 14.2939 13.3337 14.1891C13.8509 14.0774 14.3655 14.0265 14.8772 14.0265C17.114 14.0228 19.3265 15.0163 21.2834 16.2112C22.2619 16.8073 23.1747 17.4499 23.9978 18.0328C24.397 18.3148 24.7734 18.5819 25.1293 18.8249C24.9594 19.2154 24.7743 19.5973 24.5656 19.9655ZM25.5112 17.8409C25.2214 17.6399 24.917 17.4257 24.5912 17.1947C23.3534 16.3192 21.875 15.2779 20.2344 14.4489C18.5942 13.6213 16.7836 13.0006 14.8773 12.9997C14.2967 12.9997 13.7084 13.0575 13.1169 13.1856C12.6133 13.294 12.1315 13.4486 11.6608 13.6249C11.3654 12.5261 11.1248 11.3823 10.9471 10.202C11.1258 10.1495 11.304 10.0967 11.4849 10.0488L11.4835 10.0492C13.5001 9.52284 15.648 9.28178 17.6987 9.28178C19.4442 9.28178 21.1199 9.45629 22.5823 9.77216C23.8023 10.0347 24.871 10.3992 25.7059 10.8289C25.7642 11.0458 25.8221 11.2637 25.8686 11.4852L25.869 11.4884V11.4889C26.0422 12.2973 26.1334 13.1368 26.1334 13.9999C26.1329 15.3435 25.9145 16.6341 25.5112 17.8409Z" fill="white"/>
</g>
<defs>
<clipPath id="clip0_2_42">
<rect width="28" height="28" fill="white"/>
</clipPath>
</defs>
</svg>
