<svg viewBox="0 0 25 25" fill="none" xmlns="http://www.w3.org/2000/svg">
<path fill-rule="evenodd" clip-rule="evenodd" d="M7.29167 1.82291C7.72314 1.82291 8.07292 2.17269 8.07292 2.60416V3.39866C8.76253 3.3854 9.52229 3.3854 10.3579 3.38541H14.6421C15.4777 3.3854 16.2375 3.3854 16.9271 3.39866V2.60416C16.9271 2.17269 17.2769 1.82291 17.7083 1.82291C18.1398 1.82291 18.4896 2.17269 18.4896 2.60416V3.46571C18.7603 3.48635 19.0168 3.5123 19.2594 3.54492C20.4806 3.70911 21.4692 4.05507 22.2487 4.83461C23.0282 5.61417 23.3742 6.60265 23.5384 7.82393C23.5908 8.21423 23.626 8.64019 23.6497 9.10423C23.6809 9.18859 23.6979 9.27979 23.6979 9.37499C23.6979 9.4472 23.6881 9.51711 23.6698 9.58349C23.6979 10.4188 23.6979 11.3675 23.6979 12.4412V14.6421C23.6979 16.5564 23.6979 18.0727 23.5384 19.2594C23.3742 20.4806 23.0282 21.4692 22.2487 22.2487C21.4692 23.0282 20.4806 23.3742 19.2594 23.5384C18.0727 23.6979 16.5565 23.6979 14.6421 23.6979H10.3579C8.44357 23.6979 6.92728 23.6979 5.7406 23.5384C4.51933 23.3742 3.53084 23.0282 2.75129 22.2487C1.97175 21.4692 1.62579 20.4806 1.4616 19.2594C1.30205 18.0727 1.30206 16.5564 1.30208 14.6421V12.4412C1.30207 11.3674 1.30206 10.4188 1.33022 9.5835C1.31189 9.51712 1.30208 9.4472 1.30208 9.37499C1.30208 9.2798 1.3191 9.18858 1.35028 9.10422C1.37391 8.64018 1.40913 8.21422 1.4616 7.82393C1.62579 6.60266 1.97175 5.61417 2.75129 4.83461C3.53084 4.05507 4.51933 3.70911 5.7406 3.54492C5.98323 3.5123 6.23965 3.48635 6.51042 3.46571V2.60416C6.51042 2.17269 6.8602 1.82291 7.29167 1.82291ZM2.87822 10.1562C2.86492 10.8361 2.86458 11.6104 2.86458 12.5V14.5833C2.86458 16.5696 2.86624 17.9807 3.01017 19.0512C3.15106 20.0992 3.4153 20.703 3.85615 21.1438C4.29699 21.5847 4.90079 21.8489 5.9488 21.9898C7.01928 22.1337 8.4304 22.1354 10.4167 22.1354H14.5833C16.5696 22.1354 17.9807 22.1337 19.0512 21.9898C20.0992 21.8489 20.703 21.5847 21.1439 21.1438C21.5847 20.703 21.849 20.0992 21.9898 19.0512C22.1337 17.9807 22.1354 16.5696 22.1354 14.5833V12.5C22.1354 11.6104 22.1351 10.8361 22.1218 10.1562H2.87822ZM22.0503 8.59374H2.94967C2.96635 8.39646 2.9863 8.2096 3.01017 8.03212C3.15106 6.98411 3.4153 6.38031 3.85615 5.93947C4.29699 5.49863 4.90079 5.23439 5.9488 5.09349C7.01928 4.94956 8.4304 4.94791 10.4167 4.94791H14.5833C16.5696 4.94791 17.9807 4.94956 19.0512 5.09349C20.0992 5.23439 20.703 5.49863 21.1439 5.93947C21.5847 6.38031 21.849 6.98411 21.9898 8.03212C22.0136 8.2096 22.0336 8.39646 22.0503 8.59374Z" fill="white"/>
</svg>
