<svg width="54" height="53" viewBox="0 0 54 53" fill="none" xmlns="http://www.w3.org/2000/svg">
<g clip-path="url(#clip0_260_417)">
<path d="M41.3557 1.86546H35.4362V0.798079C35.4362 0.418526 35.1477 0.11084 34.7919 0.11084H19.2082C18.8523 0.11084 18.5639 0.418526 18.5639 0.798079V1.86552H12.6443C12.2885 1.86552 12 2.17321 12 2.55276V10.0397C12 11.1111 12.3911 12.1183 13.1014 12.8759C13.8116 13.6335 14.7559 14.0507 15.7602 14.0507H18.7418C19.2059 16.421 20.6526 18.2944 22.3853 19.7378C23.6351 20.7789 24.2115 22.5238 24.2115 24.209C24.2115 26.117 23.3894 27.8682 21.9568 29.0128C21.3229 29.5179 20.7589 30.1144 20.2802 30.7861C20.1321 30.994 20.1072 31.2734 20.2159 31.5074C20.3247 31.7413 20.5484 31.8893 20.7932 31.8893H33.2068C33.4516 31.8893 33.6753 31.7413 33.784 31.5074C33.8928 31.2735 33.8679 30.994 33.7198 30.7862C33.232 30.1017 32.6552 29.4951 32.0053 28.9832C30.6029 27.8369 29.7987 26.1009 29.7987 24.2196C29.7987 22.4247 30.3205 20.7746 31.5345 19.7939C33.3133 18.3569 34.7874 16.4556 35.2582 14.0509H38.2398C40.3131 14.0509 42 12.2515 42 10.0398V2.5527C42 2.17321 41.7115 1.86546 41.3557 1.86546ZM34.1476 1.48532V4.21136H19.8524V1.48532H34.1476ZM15.7602 12.6762C15.1001 12.6762 14.4793 12.4019 14.0125 11.904C13.5457 11.406 13.2886 10.7439 13.2886 10.0397V3.23994H18.5639V12.2086C18.5639 12.3654 18.5677 12.5213 18.5752 12.6762H15.7602ZM31.2269 30.0783C31.2299 30.0807 31.2329 30.0832 31.2359 30.0856C31.408 30.2209 31.574 30.3641 31.7336 30.5146H22.2662C22.4149 30.3744 22.5691 30.2404 22.7287 30.1134C24.49 28.7061 25.5001 26.5541 25.5001 24.209C25.5001 23.0338 25.2391 21.8995 24.7529 20.8825C25.4687 21.0937 26.2221 21.2072 27 21.2072C27.7571 21.2072 28.491 21.0996 29.1896 20.8992C28.741 21.8775 28.5102 22.9934 28.5102 24.2194C28.5101 26.5343 29.5003 28.6698 31.2269 30.0783ZM27 19.8327C23.0588 19.8327 19.8524 16.4125 19.8524 12.2086V5.58584H34.1476V12.2086C34.1476 16.4125 30.9412 19.8327 27 19.8327ZM40.7114 10.0396C40.7114 11.4934 39.6026 12.6762 38.2398 12.6762H35.4249C35.4324 12.5213 35.4362 12.3654 35.4362 12.2086V3.23994H40.7114V10.0396Z" fill="#374DF5"/>
</g>
<path d="M7.24609 48.6396V50H2.24902V48.6396H7.24609ZM2.72754 40.0469V50H1.01172V40.0469H2.72754ZM11.6689 50.1367C11.1221 50.1367 10.6276 50.0479 10.1855 49.8701C9.74805 49.6878 9.37435 49.4349 9.06445 49.1113C8.75911 48.7878 8.52441 48.4072 8.36035 47.9697C8.19629 47.5322 8.11426 47.0605 8.11426 46.5547V46.2812C8.11426 45.7025 8.19857 45.1784 8.36719 44.709C8.53581 44.2396 8.77051 43.8385 9.07129 43.5059C9.37207 43.1686 9.72754 42.9111 10.1377 42.7334C10.5479 42.5557 10.9922 42.4668 11.4707 42.4668C11.9993 42.4668 12.4619 42.5557 12.8584 42.7334C13.2549 42.9111 13.583 43.1618 13.8428 43.4854C14.1071 43.8044 14.3031 44.1849 14.4307 44.627C14.5628 45.069 14.6289 45.5566 14.6289 46.0898V46.7939H8.91406V45.6113H13.002V45.4814C12.9928 45.1852 12.9336 44.9072 12.8242 44.6475C12.7194 44.3877 12.5576 44.1781 12.3389 44.0186C12.1201 43.859 11.8285 43.7793 11.4639 43.7793C11.1904 43.7793 10.9466 43.8385 10.7324 43.957C10.5228 44.071 10.3473 44.2373 10.2061 44.4561C10.0648 44.6748 9.9554 44.9391 9.87793 45.249C9.80501 45.5544 9.76855 45.8984 9.76855 46.2812V46.5547C9.76855 46.8783 9.81185 47.179 9.89844 47.457C9.98958 47.7305 10.1217 47.9697 10.2949 48.1748C10.4681 48.3799 10.6777 48.5417 10.9238 48.6602C11.1699 48.7741 11.4502 48.8311 11.7646 48.8311C12.1611 48.8311 12.5143 48.7513 12.8242 48.5918C13.1341 48.4323 13.403 48.2067 13.6309 47.915L14.499 48.7559C14.3395 48.9883 14.1322 49.2116 13.877 49.4258C13.6217 49.6354 13.3096 49.8063 12.9404 49.9385C12.5758 50.0706 12.152 50.1367 11.6689 50.1367ZM20.084 48.5166V44.9893C20.084 44.7249 20.0361 44.4971 19.9404 44.3057C19.8447 44.1143 19.6989 43.9661 19.5029 43.8613C19.3115 43.7565 19.07 43.7041 18.7783 43.7041C18.5094 43.7041 18.277 43.7497 18.0811 43.8408C17.8851 43.932 17.7324 44.055 17.623 44.21C17.5137 44.3649 17.459 44.5404 17.459 44.7363H15.8184C15.8184 44.4447 15.889 44.1621 16.0303 43.8887C16.1715 43.6152 16.3766 43.3714 16.6455 43.1572C16.9144 42.943 17.2357 42.7744 17.6094 42.6514C17.9831 42.5283 18.4023 42.4668 18.8672 42.4668C19.4232 42.4668 19.9154 42.5602 20.3438 42.7471C20.7767 42.9339 21.1162 43.2165 21.3623 43.5947C21.613 43.9684 21.7383 44.4378 21.7383 45.0029V48.291C21.7383 48.6283 21.7611 48.9313 21.8066 49.2002C21.8568 49.4645 21.9274 49.6947 22.0186 49.8906V50H20.3301C20.2526 49.8223 20.1911 49.5967 20.1455 49.3232C20.1045 49.0452 20.084 48.7764 20.084 48.5166ZM20.3232 45.502L20.3369 46.5205H19.1543C18.849 46.5205 18.5801 46.5501 18.3477 46.6094C18.1152 46.6641 17.9215 46.7461 17.7666 46.8555C17.6117 46.9648 17.4954 47.097 17.418 47.252C17.3405 47.4069 17.3018 47.5824 17.3018 47.7783C17.3018 47.9743 17.3473 48.1543 17.4385 48.3184C17.5296 48.4779 17.6618 48.6032 17.835 48.6943C18.0127 48.7855 18.2269 48.8311 18.4775 48.8311C18.8148 48.8311 19.1087 48.7627 19.3594 48.626C19.6146 48.4847 19.8151 48.3138 19.9609 48.1133C20.1068 47.9082 20.1842 47.7145 20.1934 47.5322L20.7266 48.2637C20.6719 48.4505 20.5785 48.651 20.4463 48.8652C20.3141 49.0794 20.141 49.2845 19.9268 49.4805C19.7171 49.6719 19.4642 49.8291 19.168 49.9521C18.8763 50.0752 18.5391 50.1367 18.1562 50.1367C17.6732 50.1367 17.2425 50.041 16.8643 49.8496C16.486 49.6536 16.1898 49.3916 15.9756 49.0635C15.7614 48.7308 15.6543 48.3548 15.6543 47.9355C15.6543 47.5436 15.7272 47.1973 15.873 46.8965C16.0234 46.5911 16.2422 46.3359 16.5293 46.1309C16.821 45.9258 17.1764 45.7708 17.5957 45.666C18.015 45.5566 18.4935 45.502 19.0312 45.502H20.3232ZM28.1982 42.6035H29.6953V49.7949C29.6953 50.4603 29.554 51.0254 29.2715 51.4902C28.9889 51.9551 28.5947 52.3083 28.0889 52.5498C27.583 52.7959 26.9974 52.9189 26.332 52.9189C26.0495 52.9189 25.735 52.8779 25.3887 52.7959C25.0469 52.7139 24.7142 52.5817 24.3906 52.3994C24.0716 52.2217 23.805 51.987 23.5908 51.6953L24.3633 50.7246C24.6276 51.0391 24.9193 51.2692 25.2383 51.415C25.5573 51.5609 25.8923 51.6338 26.2432 51.6338C26.6214 51.6338 26.9427 51.5632 27.207 51.4219C27.4759 51.2852 27.6833 51.0824 27.8291 50.8135C27.9749 50.5446 28.0479 50.2165 28.0479 49.8291V44.2783L28.1982 42.6035ZM23.1738 46.3838V46.2402C23.1738 45.6797 23.2422 45.1693 23.3789 44.709C23.5156 44.2441 23.7116 43.8454 23.9668 43.5127C24.222 43.1755 24.5319 42.918 24.8965 42.7402C25.2611 42.5579 25.6735 42.4668 26.1338 42.4668C26.6123 42.4668 27.0202 42.5534 27.3574 42.7266C27.6992 42.8997 27.984 43.1481 28.2119 43.4717C28.4398 43.7907 28.6175 44.1735 28.7451 44.6201C28.8773 45.0622 28.9753 45.5544 29.0391 46.0967V46.5547C28.9798 47.0833 28.8796 47.5664 28.7383 48.0039C28.597 48.4414 28.4102 48.8197 28.1777 49.1387C27.9453 49.4577 27.6582 49.7038 27.3164 49.877C26.9792 50.0501 26.5804 50.1367 26.1201 50.1367C25.6689 50.1367 25.2611 50.0433 24.8965 49.8564C24.5365 49.6696 24.2266 49.4076 23.9668 49.0703C23.7116 48.7331 23.5156 48.3366 23.3789 47.8809C23.2422 47.4206 23.1738 46.9215 23.1738 46.3838ZM24.8213 46.2402V46.3838C24.8213 46.721 24.8532 47.0355 24.917 47.3271C24.9854 47.6188 25.0879 47.8763 25.2246 48.0996C25.3659 48.3184 25.5436 48.4915 25.7578 48.6191C25.9766 48.7422 26.234 48.8037 26.5303 48.8037C26.9176 48.8037 27.2344 48.7217 27.4805 48.5576C27.7311 48.3936 27.9225 48.1725 28.0547 47.8945C28.1914 47.612 28.2871 47.2975 28.3418 46.9512V45.7139C28.3145 45.445 28.2575 45.1943 28.1709 44.9619C28.0889 44.7295 27.9772 44.5267 27.8359 44.3535C27.6947 44.1758 27.5169 44.0391 27.3027 43.9434C27.0885 43.8431 26.8356 43.793 26.5439 43.793C26.2477 43.793 25.9902 43.8568 25.7715 43.9844C25.5527 44.112 25.3727 44.2874 25.2314 44.5107C25.0947 44.734 24.9922 44.9938 24.9238 45.29C24.8555 45.5863 24.8213 45.903 24.8213 46.2402ZM35.8545 48.2568V42.6035H37.5088V50H35.9502L35.8545 48.2568ZM36.0869 46.7188L36.6406 46.7051C36.6406 47.2018 36.5859 47.6598 36.4766 48.0791C36.3672 48.4938 36.1986 48.8561 35.9707 49.166C35.7428 49.4714 35.4512 49.7106 35.0957 49.8838C34.7402 50.0524 34.3141 50.1367 33.8174 50.1367C33.4574 50.1367 33.127 50.0843 32.8262 49.9795C32.5254 49.8747 32.2656 49.7129 32.0469 49.4941C31.8327 49.2754 31.6663 48.9906 31.5479 48.6396C31.4294 48.2887 31.3701 47.8695 31.3701 47.3818V42.6035H33.0176V47.3955C33.0176 47.6644 33.0495 47.89 33.1133 48.0723C33.1771 48.25 33.2637 48.3936 33.373 48.5029C33.4824 48.6123 33.61 48.6898 33.7559 48.7354C33.9017 48.7809 34.0566 48.8037 34.2207 48.8037C34.6901 48.8037 35.0592 48.7126 35.3281 48.5303C35.6016 48.3434 35.7952 48.0928 35.9092 47.7783C36.0277 47.4639 36.0869 47.1107 36.0869 46.7188ZM42.458 50.1367C41.9111 50.1367 41.4167 50.0479 40.9746 49.8701C40.5371 49.6878 40.1634 49.4349 39.8535 49.1113C39.5482 48.7878 39.3135 48.4072 39.1494 47.9697C38.9854 47.5322 38.9033 47.0605 38.9033 46.5547V46.2812C38.9033 45.7025 38.9876 45.1784 39.1562 44.709C39.3249 44.2396 39.5596 43.8385 39.8604 43.5059C40.1611 43.1686 40.5166 42.9111 40.9268 42.7334C41.3369 42.5557 41.7812 42.4668 42.2598 42.4668C42.7884 42.4668 43.251 42.5557 43.6475 42.7334C44.0439 42.9111 44.3721 43.1618 44.6318 43.4854C44.8962 43.8044 45.0921 44.1849 45.2197 44.627C45.3519 45.069 45.418 45.5566 45.418 46.0898V46.7939H39.7031V45.6113H43.791V45.4814C43.7819 45.1852 43.7227 44.9072 43.6133 44.6475C43.5085 44.3877 43.3467 44.1781 43.1279 44.0186C42.9092 43.859 42.6175 43.7793 42.2529 43.7793C41.9795 43.7793 41.7357 43.8385 41.5215 43.957C41.3118 44.071 41.1364 44.2373 40.9951 44.4561C40.8538 44.6748 40.7445 44.9391 40.667 45.249C40.5941 45.5544 40.5576 45.8984 40.5576 46.2812V46.5547C40.5576 46.8783 40.6009 47.179 40.6875 47.457C40.7786 47.7305 40.9108 47.9697 41.084 48.1748C41.2572 48.3799 41.4668 48.5417 41.7129 48.6602C41.959 48.7741 42.2393 48.8311 42.5537 48.8311C42.9502 48.8311 43.3034 48.7513 43.6133 48.5918C43.9232 48.4323 44.1921 48.2067 44.4199 47.915L45.2881 48.7559C45.1286 48.9883 44.9212 49.2116 44.666 49.4258C44.4108 49.6354 44.0986 49.8063 43.7295 49.9385C43.3649 50.0706 42.9411 50.1367 42.458 50.1367ZM50.8525 47.9971C50.8525 47.833 50.8115 47.6849 50.7295 47.5527C50.6475 47.416 50.4902 47.293 50.2578 47.1836C50.0299 47.0742 49.6927 46.974 49.2461 46.8828C48.8542 46.7962 48.4941 46.6937 48.166 46.5752C47.8424 46.4521 47.5645 46.304 47.332 46.1309C47.0996 45.9577 46.9196 45.7526 46.792 45.5156C46.6644 45.2786 46.6006 45.0052 46.6006 44.6953C46.6006 44.3945 46.6667 44.1097 46.7988 43.8408C46.931 43.5719 47.1201 43.335 47.3662 43.1299C47.6123 42.9248 47.9108 42.763 48.2617 42.6445C48.6172 42.526 49.0137 42.4668 49.4512 42.4668C50.071 42.4668 50.6019 42.5716 51.0439 42.7812C51.4906 42.9863 51.8324 43.2666 52.0693 43.6221C52.3063 43.973 52.4248 44.3695 52.4248 44.8115H50.7773C50.7773 44.6156 50.7272 44.4333 50.627 44.2646C50.5312 44.0915 50.3854 43.9525 50.1895 43.8477C49.9935 43.7383 49.7474 43.6836 49.4512 43.6836C49.1686 43.6836 48.9339 43.7292 48.7471 43.8203C48.5648 43.9069 48.4281 44.0208 48.3369 44.1621C48.2503 44.3034 48.207 44.4583 48.207 44.627C48.207 44.75 48.2298 44.8617 48.2754 44.9619C48.3255 45.0576 48.4076 45.1465 48.5215 45.2285C48.6354 45.306 48.7904 45.3789 48.9863 45.4473C49.1868 45.5156 49.4375 45.5817 49.7383 45.6455C50.3034 45.764 50.7887 45.9167 51.1943 46.1035C51.6045 46.2858 51.9189 46.5228 52.1377 46.8145C52.3564 47.1016 52.4658 47.4661 52.4658 47.9082C52.4658 48.2363 52.3952 48.5371 52.2539 48.8105C52.1172 49.0794 51.9167 49.3141 51.6523 49.5146C51.388 49.7106 51.0713 49.8633 50.7021 49.9727C50.3376 50.082 49.9274 50.1367 49.4717 50.1367C48.8018 50.1367 48.2344 50.0182 47.7695 49.7812C47.3047 49.5397 46.9515 49.2321 46.71 48.8584C46.473 48.4801 46.3545 48.0882 46.3545 47.6826H47.9473C47.9655 47.988 48.0498 48.2318 48.2002 48.4141C48.3551 48.5918 48.5465 48.7217 48.7744 48.8037C49.0068 48.8812 49.2461 48.9199 49.4922 48.9199C49.7884 48.9199 50.0368 48.8812 50.2373 48.8037C50.4378 48.7217 50.5905 48.6123 50.6953 48.4756C50.8001 48.3343 50.8525 48.1748 50.8525 47.9971Z" fill="#374DF5"/>
<defs>
<clipPath id="clip0_260_417">
<rect width="30" height="32" fill="white" transform="translate(12)"/>
</clipPath>
</defs>
</svg>
