<svg width="19" height="36" viewBox="0 0 19 36" fill="none" xmlns="http://www.w3.org/2000/svg">
<g clip-path="url(#clip0_3_82)">
<path d="M18.9946 3.64941C18.9675 1.67144 16.9934 0.00886142 14.6191 0.00435579C11.2063 -0.000149845 7.78819 -0.000149845 4.37543 0.00435579C2.02815 0.0133671 -3.00065e-05 1.68045 -3.00065e-05 3.64941C-3.00065e-05 13.2149 -0.00543849 22.7848 -3.00065e-05 32.3503C0.00537848 34.2832 1.90376 35.9097 4.20236 36.0044H14.7922C17.0962 35.9052 18.9946 34.2832 18.9946 32.3503C19 22.7803 18.9946 13.2149 18.9946 3.64941ZM14.4731 35.1438C11.0982 35.1438 7.7341 35.1483 4.35921 35.1438C3.07199 35.1393 1.84967 34.4364 1.33587 33.4542C1.12493 33.0622 1.0384 32.6251 1.0384 32.1926C1.0384 22.8299 1.0384 13.4672 1.0384 4.10448C1.00595 3.5593 1.06544 2.98708 1.37372 2.48696C1.91457 1.51374 3.15312 0.860426 4.43493 0.864932C6.37116 0.869437 8.29658 0.837898 10.2328 0.882954H10.2166C9.75687 1.00461 9.29174 1.22989 9.10245 1.62188C8.92397 2.03189 8.91315 2.47795 8.8807 2.91049C8.6914 2.92851 8.4318 2.94203 8.4318 3.1583C8.4318 3.46018 8.39394 3.87019 8.7563 4.0414C8.65895 4.46944 8.74549 4.96055 8.4318 5.33001C8.08024 5.58233 7.56103 5.49672 7.13376 5.54628L7.02018 5.65442C6.56046 5.68596 6.08992 5.71299 5.63561 5.79409C5.21916 5.8797 4.84056 6.08696 4.56473 6.3618C4.12123 6.80336 3.79132 7.317 3.47222 7.83064C3.11526 8.39835 2.94218 9.03815 2.57982 9.60586C2.0606 10.4935 1.54139 11.3856 1.27096 12.3498C1.21147 12.5255 1.30882 12.6922 1.36832 12.8544C1.46026 13.0707 1.50353 13.2915 1.6117 13.5032C2.08764 13.6159 2.57982 13.6069 3.06658 13.5933C3.06658 13.706 3.06658 13.8231 3.06117 13.9358C2.85024 14.1836 2.5041 14.3593 2.40674 14.6702C2.22286 15.2244 2.10387 15.8011 2.04979 16.3778C2.10928 17.8286 3.43977 18.928 3.82918 20.2977L4.71617 20.4104C5.42468 21.5638 6.3333 22.6226 7.24193 23.6679C7.62593 24.0599 7.95585 24.4925 8.4372 24.8079C8.86447 25.1097 9.22143 25.4657 9.63248 25.7811C10.5195 26.4795 11.4551 27.1463 12.5152 27.6509C12.6829 27.9483 12.8451 28.2502 12.9587 28.5656C12.8451 28.7278 12.7369 28.917 12.8613 29.1017C13.1804 29.737 13.7321 30.3002 13.9052 30.9896C13.9106 31.1473 13.7429 31.296 13.8349 31.4537C13.9106 31.5753 14.0188 31.6744 14.1215 31.7781C14.1215 32.6657 13.8132 33.5353 13.9106 34.4229C13.9376 34.7338 14.2243 34.9545 14.4785 35.1483C14.4785 35.1438 14.4785 35.1438 14.4731 35.1438ZM17.8588 32.9766C17.5721 34.0805 16.3931 34.9636 15.0626 35.1213C15.425 34.9095 15.7387 34.6256 15.836 34.2517C15.9929 33.5668 15.6629 32.909 15.4033 32.2737C15.2789 32.0664 15.452 31.8321 15.333 31.6294C15.095 31.2149 15.0518 30.7508 14.9652 30.3047C14.8679 29.728 15.1762 29.1918 15.2357 28.6286C15.2411 28.097 14.7489 27.7095 14.446 27.2815C14.3054 26.9841 14.3162 26.6552 14.2297 26.3488C13.9755 25.281 13.9322 24.132 13.2345 23.1768C12.7207 22.5055 12.261 21.7711 12.2123 20.9601C12.1042 19.7255 11.8337 18.5045 11.4227 17.315L11.6282 17.1438L10.6493 14.2467C10.5411 13.9268 10.3194 13.6114 9.91913 13.4762C9.92454 13.323 9.91913 13.1653 9.99485 13.0211L10.8223 11.2549C10.8764 11.1558 10.9305 11.0522 11.0387 10.9801C11.4119 10.7233 11.8337 10.525 12.2664 10.3448C12.4719 11.327 12.6829 12.3047 12.9425 13.2734L13.1642 13.8006C13.5807 14.526 14.0404 15.2334 14.3919 15.9813C12.8073 16.2697 11.7256 17.743 12.1582 19.0542C12.499 20.4014 14.327 21.3115 15.9009 20.9015C16.0199 20.8744 16.1335 20.8429 16.2471 20.8069C17.0205 20.5545 17.6424 20.0139 17.967 19.3741C17.9778 23.4111 17.9724 27.4437 17.9724 31.4807C17.9669 31.9808 18.021 32.49 17.8588 32.9766ZM17.9724 17.5313C17.7831 17.2429 17.5829 16.9591 17.4369 16.6572C17.4315 16.6572 17.4261 16.6527 17.4207 16.6527C17.5667 16.9591 17.7668 17.2429 17.9561 17.5223C17.7668 17.2384 17.5667 16.9545 17.4207 16.6482C17.2206 16.5581 16.988 16.4905 16.8636 16.3193C16.7014 16.112 16.3606 16.1165 16.1118 16.0129C15.9117 15.4001 15.9442 14.7513 15.6521 14.1611C15.4304 13.6114 14.9761 13.1383 14.8787 12.557C14.7868 12.0029 14.6353 11.4532 14.5163 10.9035C14.538 9.93928 14.4893 8.91199 13.8944 8.05592C13.4725 7.44316 12.7045 7.10974 12.0393 6.72225L12.0014 6.56005C11.6282 6.34378 11.2226 6.17707 10.8169 6.01036C10.8494 5.88421 10.8007 5.70398 10.9684 5.63189C11.3956 5.38408 11.5849 4.96506 11.8337 4.60461C12.1582 4.51449 12.261 4.21712 12.4341 4.00085C12.5747 3.83865 12.5747 3.61787 12.4178 3.46468C12.6937 2.98708 12.9371 2.42388 12.7153 1.89672C12.6558 1.70748 12.4882 1.56781 12.2718 1.49572C12.0555 1.18483 11.6877 1.0001 11.3037 0.869437C12.3205 0.846909 13.3427 0.869437 14.3649 0.860426C15.2303 0.846909 16.1118 1.07219 16.7663 1.55429C17.5451 2.09947 17.9724 2.94653 17.9778 3.78909C17.9724 8.37132 17.9832 12.949 17.9724 17.5313ZM4.992 28.1465C5.26783 28.1465 5.54907 28.1465 5.82491 28.1465C5.82491 29.8902 5.82491 31.6294 5.82491 33.3731C5.43009 33.3731 5.03527 33.3731 4.64045 33.3731C4.44574 32.3593 4.25645 31.3455 4.06174 30.3318C3.98602 29.9713 3.93194 29.6109 3.85081 29.2504C3.90489 29.8091 3.92653 30.3723 3.94816 30.931C3.98602 31.742 3.96439 32.5575 3.9698 33.3731C3.68856 33.3731 3.41272 33.3731 3.13148 33.3731C3.13689 31.6294 3.13689 29.8857 3.13689 28.142C3.56957 28.142 3.99684 28.142 4.42952 28.142C4.69453 29.4712 4.95414 30.7958 5.21916 32.125C5.24079 32.2196 5.2462 32.3188 5.28406 32.4134C5.27865 32.3773 5.26783 32.3458 5.26242 32.3097C5.15425 31.3636 5.0569 30.4174 5.00822 29.4667C4.98118 29.0296 4.99741 28.5881 4.992 28.1465ZM9.5838 28.142C9.35665 29.8857 9.12408 31.6249 8.89692 33.3686C9.22143 33.3686 9.54594 33.3686 9.86504 33.3686C9.89209 33.0261 9.91913 32.7288 9.94617 32.3863C10.1409 32.3863 10.3356 32.3863 10.5303 32.3863C10.5627 32.7288 10.5898 33.0261 10.6222 33.3686C10.9576 33.3686 11.2983 33.3686 11.6336 33.3686C11.4065 31.6249 11.1793 29.8857 10.9576 28.142C10.4924 28.142 10.0381 28.142 9.5838 28.142ZM9.99485 31.7871C10.0868 30.7508 10.1409 29.6109 10.2166 28.5701C10.2274 28.6331 10.2382 28.7007 10.2382 28.7638C10.3085 29.737 10.4005 30.8139 10.4762 31.7871C10.3194 31.7871 10.1571 31.7871 9.99485 31.7871ZM8.76171 31.9358C8.7509 31.6789 8.79957 31.4176 8.68059 31.1698C8.61028 31.0166 8.46966 30.886 8.29117 30.7958C8.62109 30.6472 8.74008 30.3498 8.7563 30.0795C8.76712 29.7686 8.7563 29.4622 8.76171 29.1513C8.7563 28.881 8.68059 28.5971 8.42639 28.3898C8.19923 28.2096 7.8585 28.1375 7.53399 28.1375C7.12294 28.142 6.7119 28.142 6.30085 28.142C6.30085 29.8857 6.30085 31.6249 6.30085 33.3686C6.70108 33.3686 7.10131 33.3686 7.50694 33.3686C7.79359 33.3686 8.09647 33.3145 8.32363 33.1748C8.51833 33.0577 8.63732 32.891 8.70222 32.7198C8.79416 32.4629 8.7563 32.2016 8.76171 31.9358ZM7.799 32.3863C7.79359 32.481 7.77737 32.5891 7.6692 32.6522C7.55021 32.7198 7.39337 32.7017 7.25275 32.7062C7.25815 32.1701 7.25815 31.6384 7.25815 31.1022C7.39337 31.1022 7.55021 31.0932 7.6692 31.1563C7.77737 31.2194 7.799 31.3275 7.799 31.4176C7.799 31.742 7.799 32.0619 7.799 32.3863ZM7.799 30.2056C7.79359 30.3002 7.78278 30.4129 7.67461 30.4759C7.55562 30.539 7.39877 30.5255 7.25815 30.53C7.25815 29.9533 7.25815 29.3766 7.25815 28.8044C7.39337 28.8044 7.5448 28.7908 7.66379 28.8539C7.77196 28.9125 7.79359 29.0251 7.799 29.1152C7.799 29.4802 7.799 29.8407 7.799 30.2056Z" fill="white"/>
<path d="M17.9724 17.5313C17.7831 17.243 17.583 16.9591 17.437 16.6573C17.2368 16.5671 17.0043 16.495 16.8799 16.3283C16.7176 16.1166 16.3769 16.1256 16.1281 16.022C15.9334 15.4137 15.9658 14.7604 15.6684 14.1701C15.4466 13.625 14.9923 13.1519 14.895 12.5706C14.803 12.0165 14.6516 11.4668 14.5272 10.9171C14.5488 9.94837 14.5001 8.92559 13.9052 8.06952C13.4888 7.45675 12.7208 7.12333 12.0501 6.73585C12.0393 6.6953 12.0231 6.6142 12.0122 6.57365C11.6391 6.35738 11.2334 6.19067 10.8278 6.02396C10.8602 5.8933 10.8062 5.71758 10.9792 5.64549C11.4065 5.40218 11.6012 4.98316 11.8446 4.6182C12.1745 4.5326 12.2719 4.23072 12.4449 4.01445C12.5855 3.85225 12.5855 3.63147 12.4287 3.47828C12.7045 3.00068 12.9479 2.43748 12.7262 1.91032C12.6667 1.72108 12.4936 1.5724 12.2773 1.50031C12.0609 1.18491 11.6931 1.00018 11.3037 0.869517C12.3205 0.846989 13.3427 0.869517 14.3649 0.860506C15.2303 0.846989 16.1119 1.07227 16.7663 1.55437C17.5451 2.09955 17.9724 2.94661 17.9778 3.78917C17.9724 8.37139 17.9832 12.9491 17.9724 17.5313ZM17.9724 31.4808C17.9724 27.4437 17.9778 23.4112 17.967 19.3741C17.5992 20.1041 16.842 20.7033 15.9118 20.8971C14.3379 21.3071 12.5098 20.3969 12.1691 19.0497C11.7364 17.7386 12.8181 16.2653 14.4028 15.9769C14.0512 15.229 13.5915 14.5171 13.1751 13.7962C13.0777 13.6295 13.0074 13.4492 12.9533 13.269C12.6937 12.3003 12.4774 11.3226 12.2773 10.3404C11.85 10.5296 11.4227 10.7323 11.0495 10.9892C10.9414 11.0568 10.8873 11.1649 10.8332 11.264C10.5465 11.8497 10.2761 12.44 10.0057 13.0302C9.92998 13.1744 9.93539 13.3321 9.92998 13.4853C10.3194 13.6069 10.5411 13.9223 10.6493 14.2422C10.9954 15.2064 11.3145 16.1706 11.6282 17.1394C11.5579 17.1979 11.493 17.252 11.4227 17.3106C11.8338 18.5001 12.1096 19.7211 12.2124 20.9556C12.261 21.7666 12.7208 22.5056 13.2346 23.1724C13.9323 24.1276 13.9755 25.2765 14.2297 26.3444C14.3217 26.6507 14.3054 26.9797 14.4461 27.277C14.7489 27.7051 15.2411 28.0925 15.2357 28.6242C15.1762 29.1874 14.8679 29.7236 14.9653 30.3003C15.0518 30.7464 15.0951 31.2104 15.3331 31.625C15.452 31.8277 15.279 32.062 15.4034 32.2693C15.663 32.9046 15.9929 33.5624 15.836 34.2472C15.7387 34.6212 15.4196 34.9096 15.0518 35.1213C16.3877 34.9681 17.5722 34.085 17.8588 32.9767C18.0211 32.49 17.967 31.9809 17.9724 31.4808Z" fill="#C8202E"/>
<path fill-rule="evenodd" clip-rule="evenodd" d="M7.79903 29.1153C7.79903 29.4802 7.79903 29.8407 7.79903 30.2056C7.79362 30.3003 7.7828 30.4129 7.67463 30.476C7.55565 30.5391 7.3988 30.5255 7.25818 30.5301C7.25818 29.9533 7.25818 29.3766 7.25818 28.8044C7.39339 28.8044 7.54483 28.7909 7.66382 28.854C7.77199 28.9125 7.79362 29.0252 7.79903 29.1153ZM7.66923 31.1563C7.55024 31.0933 7.39339 31.1023 7.25818 31.1023C7.25818 31.6384 7.25818 32.1701 7.25277 32.7063C7.39339 32.7018 7.55024 32.7198 7.66923 32.6522C7.7774 32.5891 7.79362 32.481 7.79903 32.3864C7.79903 32.062 7.79903 31.7421 7.79903 31.4177C7.79903 31.3275 7.7774 31.2239 7.66923 31.1563ZM10.2166 28.5701C10.1409 29.6109 10.0868 30.7508 9.99487 31.7871C10.1571 31.7871 10.3194 31.7871 10.4762 31.7871C10.4005 30.8139 10.3086 29.7371 10.2383 28.7638C10.2383 28.7008 10.2274 28.6332 10.2166 28.5701ZM14.4947 35.1438C11.1144 35.1438 7.73954 35.1483 4.35924 35.1438C3.07202 35.1393 1.8497 34.4364 1.33589 33.4542C1.12496 33.0622 1.03843 32.6252 1.03843 32.1926C1.03843 22.8299 1.03843 13.4672 1.03843 4.10452C1.00598 3.55933 1.06547 2.98712 1.37375 2.48699C1.9146 1.51378 3.15314 0.860461 4.43495 0.864967C6.37119 0.869472 8.30202 0.837933 10.2383 0.882989C9.77853 1.00464 9.31341 1.22992 9.12411 1.62191C8.94022 2.03193 8.9294 2.47798 8.90236 2.91052C8.71306 2.92855 8.44805 2.94657 8.45346 3.15833C8.44805 3.46021 8.41019 3.87022 8.77256 4.04144C8.6752 4.46947 8.76715 4.96059 8.45346 5.33005C8.10191 5.58236 7.58269 5.49676 7.15542 5.54632C7.12838 5.57335 7.07429 5.62742 7.04184 5.65445C6.57671 5.68599 6.11158 5.71753 5.65727 5.79413C5.24082 5.87974 4.86222 6.087 4.58639 6.35733C4.13749 6.79888 3.80757 7.31253 3.48847 7.82617C3.13151 8.39838 2.95844 9.03368 2.59607 9.60139C2.07686 10.4845 1.55764 11.3811 1.28722 12.3453C1.22772 12.5165 1.31967 12.6877 1.38457 12.8499C1.47651 13.0617 1.52519 13.287 1.62795 13.4988C2.09849 13.6159 2.59607 13.6024 3.08283 13.5889C3.08283 13.7015 3.08283 13.8142 3.07743 13.9313C2.86649 14.1791 2.52035 14.3548 2.423 14.6657C2.23911 15.2244 2.12012 15.8011 2.06604 16.3779C2.12012 17.8287 3.45602 18.928 3.84543 20.2978C4.1429 20.3383 4.43495 20.3879 4.73242 20.4104C5.44093 21.5638 6.34956 22.6227 7.25818 23.668C7.64218 24.06 7.9721 24.4925 8.45346 24.8079C8.88073 25.1098 9.23769 25.4657 9.64873 25.7811C10.5357 26.475 11.4714 27.1418 12.5315 27.6464C12.6991 27.9438 12.8614 28.2457 12.9749 28.5566C12.8614 28.7188 12.7532 28.908 12.8776 29.0928C13.2021 29.7326 13.7484 30.2913 13.9214 30.9851C13.9322 31.1428 13.7592 31.296 13.8511 31.4492C13.9268 31.5709 14.035 31.67 14.1378 31.7736C14.1378 32.6567 13.8295 33.5308 13.9268 34.4184C13.9485 34.7293 14.2351 34.9501 14.4947 35.1438ZM5.82493 28.1466C5.5491 28.1466 5.26786 28.1466 4.99203 28.1466C4.99744 28.5881 4.98121 29.0297 5.00825 29.4712C5.05693 30.4219 5.15428 31.3681 5.26245 32.3143C5.26786 32.3503 5.27868 32.3819 5.28409 32.4179C5.24623 32.3233 5.24082 32.2242 5.21918 32.1296C4.95417 30.8004 4.69456 29.4757 4.42955 28.1466C3.99687 28.1466 3.5696 28.1466 3.13692 28.1466C3.13692 29.8857 3.13692 31.6294 3.13151 33.3731C3.41275 33.3731 3.68858 33.3731 3.96982 33.3731C3.96442 32.5576 3.98605 31.7421 3.94819 30.9311C3.92656 30.3724 3.90492 29.8092 3.85084 29.2505C3.93196 29.6109 3.98605 29.9714 4.06177 30.3318C4.25647 31.3456 4.44577 32.3593 4.64048 33.3731C5.0353 33.3731 5.43011 33.3731 5.82493 33.3731C5.82493 31.6294 5.82493 29.8903 5.82493 28.1466ZM8.76174 31.9358C8.75092 31.679 8.7996 31.4177 8.68061 31.1699C8.6103 31.0167 8.46968 30.886 8.2912 30.7959C8.62112 30.6472 8.74011 30.3498 8.75633 30.0795C8.76715 29.7686 8.75633 29.4622 8.76174 29.1513C8.75633 28.881 8.68061 28.5971 8.42641 28.3899C8.19926 28.2097 7.85852 28.1376 7.53401 28.1376C7.12297 28.1421 6.71193 28.1421 6.30088 28.1421C6.30088 29.8857 6.30088 31.6249 6.30088 33.3686C6.70111 33.3686 7.10134 33.3686 7.50697 33.3686C7.79362 33.3686 8.0965 33.3145 8.32365 33.1749C8.51836 33.0577 8.63734 32.891 8.70225 32.7198C8.79419 32.463 8.75633 32.2016 8.76174 31.9358ZM11.6336 33.3686C11.4065 31.6249 11.1793 29.8857 10.9576 28.1421C10.4925 28.1421 10.0381 28.1421 9.58383 28.1421C9.35667 29.8857 9.12411 31.6249 8.89695 33.3686C9.22146 33.3686 9.54597 33.3686 9.86507 33.3686C9.89211 33.0262 9.91916 32.7288 9.9462 32.3864C10.1409 32.3864 10.3356 32.3864 10.5303 32.3864C10.5628 32.7288 10.5898 33.0262 10.6223 33.3686C10.9576 33.3686 11.2983 33.3686 11.6336 33.3686Z" fill="#1C4588"/>
</g>
<defs>
<clipPath id="clip0_3_82">
<rect width="19" height="36" fill="white"/>
</clipPath>
</defs>
</svg>
