<svg width="38" height="37" viewBox="0 0 38 37" fill="none" xmlns="http://www.w3.org/2000/svg">
<path fill-rule="evenodd" clip-rule="evenodd" d="M15.8333 7.70833C11.4611 7.70833 7.91667 11.1595 7.91667 15.4167C7.91667 19.6738 11.4611 23.125 15.8333 23.125C18.0199 23.125 19.9969 22.264 21.4312 20.8672C22.8657 19.4706 23.75 17.5457 23.75 15.4167C23.75 11.1595 20.2055 7.70833 15.8333 7.70833ZM4.75 15.4167C4.75 9.4566 9.71218 4.625 15.8333 4.625C21.9545 4.625 26.9167 9.4566 26.9167 15.4167C26.9167 17.84 26.0949 20.0785 24.71 21.8795L32.7862 29.7432C33.4045 30.3452 33.4045 31.3214 32.7862 31.9234C32.1679 32.5255 31.1654 32.5255 30.5471 31.9234L22.4708 24.0597C20.6212 25.4082 18.3222 26.2083 15.8333 26.2083C9.71218 26.2083 4.75 21.3767 4.75 15.4167Z" fill="black"/>
</svg>
