<svg width="25" height="24" viewBox="0 0 25 24" fill="none" xmlns="http://www.w3.org/2000/svg">
<path fill-rule="evenodd" clip-rule="evenodd" d="M10.4167 5C7.54019 5 5.20833 7.23858 5.20833 10C5.20833 12.7614 7.54019 15 10.4167 15C11.8552 15 13.1558 14.4415 14.0995 13.5355C15.0432 12.6296 15.625 11.381 15.625 10C15.625 7.23858 13.2931 5 10.4167 5ZM3.125 10C3.125 6.13401 6.38959 3 10.4167 3C14.4437 3 17.7083 6.13401 17.7083 10C17.7083 11.5719 17.1677 13.0239 16.2566 14.1921L21.5699 19.2929C21.9767 19.6834 21.9767 20.3166 21.5699 20.7071C21.1631 21.0976 20.5035 21.0976 20.0968 20.7071L14.7834 15.6063C13.5666 16.481 12.0541 17 10.4167 17C6.38959 17 3.125 13.866 3.125 10Z" fill="white"/>
</svg>
