<svg width="184" height="158" viewBox="0 0 184 158" fill="none" xmlns="http://www.w3.org/2000/svg">
<path d="M147.884 0.855957L99.3804 0.891157L0.865723 156.759H78.5987L67.4578 133.335L91.4655 93.0309C92.0925 95.5167 93.3489 100.439 93.5378 101.191C92.31 103.321 73.743 135.445 73.743 135.445L102.393 111.765C102.849 112.324 122.685 136.376 122.685 136.376C122.685 136.376 113.357 105.232 112.73 103.114C113.205 102.354 116.317 97.3806 118.293 94.2196L126.781 133.426L109.816 156.762H182.739L147.88 0.863857L147.884 0.855957ZM107.624 65.9161H112.152L117.718 91.6037H92.3182L107.624 65.9161Z" fill="#E3D4AD"/>
<path d="M104.554 3.81292L106.636 6.99838H142.755L174.746 150.606H122.774L134.383 134.906L117.717 60.3537L103.938 60.3498L59.4739 133.484L67.7726 150.548H16.2813L11.2248 153.68H73.326L63.498 133.419L105.667 63.0975H114.851L130.773 134.126L116.468 153.701L178.774 153.686L145.455 3.83772L104.565 3.81152L104.554 3.81292ZM101.214 4.17422L6.47565 153.622L52.912 124.393L58.293 120.983L48.7171 98.209L79.2207 79.0902L68.7358 60.2955L98.2394 46.0537L88.7225 29.2859L111.434 19.191L103.134 6.99518L101.214 4.16932V4.17422Z" fill="black"/>
<path d="M106.634 7.00059L115.535 20.6664L93.0939 30.7623L102.76 47.498L73.2721 61.6069L83.1392 79.8976L52.6276 99.1244L62.0259 122.185L16.2785 150.55H67.7698L59.473 133.486L103.937 60.3519L117.716 60.3558L134.384 134.908L122.773 150.609H174.745L142.754 7.00049H106.635L106.634 7.00059ZM95.1774 94.7674C95.1774 94.7674 96.6116 100.41 96.9372 101.668C96.0651 103.173 85.3084 121.778 85.3084 121.778C85.3084 121.778 100.642 109.103 102.816 107.31C104.319 109.128 115.152 122.264 115.152 122.264C115.152 122.264 109.793 104.356 109.281 102.65C110.075 101.378 114.212 94.767 114.212 94.767L95.1774 94.7674Z" fill="#A71930"/>
</svg>
