<svg width="150" height="140" viewBox="0 0 150 140" fill="none" xmlns="http://www.w3.org/2000/svg">
<path d="M6.02628 64.0036C14.3213 20.4277 48.407 4.73106 75.0846 4.53393C95.3153 4.38268 135.776 16.6147 144.128 64.0135C144.109 64.0135 75.0698 132.96 75.0698 132.96C75.0698 132.921 6.25321 64.2205 6.02628 64.0036ZM75.06 0.98556C46.4609 1.1932 9.91849 18.0212 1.02906 64.7281L1.01918 64.8267L75.06 138.746L149.012 64.9006C140.113 13.9223 96.7409 0.81307 75.06 0.98556Z" fill="white"/>
<path d="M75.0849 4.53617C48.4072 4.73438 14.319 20.4299 6.02649 64.0059C6.25322 64.223 75.0701 132.923 75.0701 132.963C75.0701 132.963 144.114 64.0157 144.119 64.0157C135.777 16.6095 95.3155 4.37846 75.0849 4.53617Z" fill="#E81828"/>
<path d="M136.645 62.658C132.876 37.8145 110.011 11.246 75.0945 10.9355H75.085H75.0756C40.0926 11.2559 17.097 37.8145 13.2245 62.658L13.1579 63.0522L75.0879 124.685L136.712 63.0522L136.646 62.6558L136.645 62.658Z" fill="white"/>
<path d="M75.0945 12.5298C41.1706 12.8413 18.8375 38.4378 14.8861 62.5076C15.483 63.1039 73.9796 121.317 75.0846 122.411C76.1896 121.317 134.405 63.1039 134.992 62.5076C131.139 38.4398 108.945 12.8452 75.0945 12.5298Z" fill="#284898"/>
<path d="M93.5734 20.5996C93.5073 20.609 88.3009 22.5719 88.3009 22.5719L74.9431 22.5623H62.1131C62.1131 22.5434 56.9837 20.6083 56.9837 20.6083C56.9081 20.5989 50.1908 20.6275 50.1908 20.6275H50.0868L47.8197 24.29C47.8197 24.29 47.7907 38.862 47.7907 39.2395H47.5075C46.6738 38.3524 45.6068 37.5974 44.3409 37.0124C38.7572 34.4453 30.8687 35.6153 26.7589 39.6264C24.0948 42.2313 22.7914 45.4029 23.2826 48.1208C23.5755 49.7913 24.5573 51.1125 25.965 51.7448C27.8827 52.6037 29.3375 52.245 30.2255 51.792C30.8302 51.4805 31.3216 51.0468 31.7373 50.5561V62.0326C30.2635 63.7503 29.395 65.5243 29.395 67.1004C29.395 67.5817 29.4607 68.0542 29.6118 68.4884C30.0653 69.8758 31.2179 70.8288 32.7673 71.0931C34.5056 71.4045 36.3956 70.8573 37.841 69.6492C39.2391 68.4694 40.0416 66.7892 40.0416 65.0338V56.0771C42.9797 54.9634 45.7862 53.6043 47.6375 51.3769V67.3554C47.6281 67.4781 47.6086 67.6012 47.6086 67.7145C47.6086 68.8282 48.1095 69.8 49.0259 70.4135C50.2068 71.2252 51.9452 71.2817 53.2489 70.555C54.3731 69.9226 55.0063 68.8373 55.0063 67.5538C55.0063 67.4877 55.0061 67.4214 54.9967 67.3459C54.9967 67.3459 55.0063 60.1914 55.0063 59.8233C55.0347 59.8044 55.0628 59.7952 55.0911 59.7857L55.1104 59.8425V66.9117C55.1387 68.7993 56.2153 70.2245 58.0009 70.838C57.9725 70.9795 57.9348 71.1307 57.9065 71.2817H34.4397L34.354 71.2913C32.6346 71.5178 31.4635 72.7918 31.4635 74.4341C31.4635 74.4907 31.4731 74.5469 31.4731 74.6035C31.5582 76.2835 32.8618 77.596 34.5245 77.6433H55.6579C53.5983 81.4468 51.6243 83.4379 50.1032 84.948C48.2704 86.7506 47.0133 87.9967 47.0133 91.064C47.0133 91.3282 47.0233 91.5924 47.0422 91.885L47.0518 92.0641H71.5767C71.6144 91.0259 71.4825 90.2329 71.3502 89.5345C71.3502 89.5345 71.1797 87.7324 71.1797 87.7229C71.227 87.1 70.9442 86.7033 70.5852 86.2031C70.2735 85.7689 69.9141 85.2782 69.7913 84.5609L69.4223 84.0325C69.4223 84.0325 68.9126 83.0224 68.9126 83.0035C68.9409 82.6543 68.7896 82.4185 68.5156 82.041C68.5156 82.041 67.9202 80.8701 67.9202 80.8512C67.7785 80.0301 67.9679 79.502 68.1379 79.0301C68.2797 78.6148 68.4114 78.2657 68.3075 77.6806V77.643H69.1679C69.1962 77.794 69.2151 77.945 69.2151 78.0771C69.2151 78.5868 69.073 78.9735 68.9502 79.3227C68.8368 79.6436 68.7334 79.927 68.7334 80.3045C68.7334 80.4178 68.7424 80.5402 68.7613 80.6818L69.2151 81.5404C69.4796 81.9085 69.7816 82.3144 69.7816 82.8996C69.7816 82.9562 69.7815 83.0133 69.772 83.0699L70.0466 83.428C70.0466 83.428 70.6505 84.4383 70.6411 84.4194C70.7356 84.9291 71.0005 85.3061 71.2934 85.7025C71.6807 86.2405 72.1251 86.854 72.0401 87.7884L72.2 89.3833C72.3417 90.1195 72.4835 90.9598 72.4457 92.064H72.5122V93.2249C72.2666 93.4231 70.9056 94.5372 70.7827 96.3021C70.7827 96.3776 70.774 96.4626 70.774 96.5476C70.774 97.7368 71.3787 98.9258 72.569 100.077L72.5122 102.748V102.947H77.982V99.9358C79.1157 98.9164 79.7201 97.7367 79.7201 96.5476C79.7201 96.4626 79.7199 96.387 79.7105 96.3021C79.5877 94.5372 78.2371 93.423 77.982 93.2248V92.064H103.442L103.452 91.8849C103.471 91.5924 103.48 91.3187 103.48 91.0639C103.48 87.9965 102.224 86.7505 100.391 84.9479C98.8792 83.4378 96.9044 81.456 94.845 77.6432H108.978C110.216 79.2382 111.841 80.106 113.589 79.9928C115.336 79.8701 116.867 78.7943 117.576 77.1898L117.632 77.0676L117.66 76.9443C118.152 74.9057 117.576 73.6316 117.009 72.9238C115.762 71.3853 113.683 71.2628 112.842 71.2816H105.832C106.503 71.1778 107.155 71.0078 107.788 70.7436C108.979 70.2622 109.97 69.5162 110.858 68.6856C114.221 71.6397 116.914 71.5368 118.586 70.9139C121.08 69.9796 122.724 67.2893 122.988 65.2223C123.055 64.7315 123.092 64.2692 123.092 63.8256C123.092 59.1632 119.512 56.5583 116.329 54.2366C116.329 54.2366 115.96 53.9724 115.724 53.8025C115.582 53.576 114.609 51.9525 114.609 51.9525L109.847 55.3503L109.894 56.1521C109.913 56.4164 109.923 56.6711 109.923 56.926C109.923 58.7947 109.45 60.3803 108.581 61.6261C109.309 60.3237 109.574 59.1348 109.574 58.2004C109.574 57.3321 109.385 56.6622 109.243 56.2753C108.251 53.6232 105.332 52.0092 102.299 52.4434C101.251 52.5944 98.5952 53.3393 96.7811 56.5294C96.3654 54.8022 95.6011 51.6595 95.5632 51.4991C95.6672 51.3953 97.1598 49.8943 98.1801 48.8655L104.934 48.8472V39.239H102.696V24.3926C102.667 24.2887 100.457 20.7214 100.457 20.7214L100.4 20.627L93.5793 20.5991L93.5734 20.5996ZM59.2509 38.9663H67.3945V40.8635C63.5589 41.0051 60.2711 44.9313 59.8646 49.971L59.7702 52.9155C59.5151 52.7173 59.2508 52.5469 58.9579 52.4053C57.607 51.773 56.1989 51.9238 55.0558 52.2542V48.8756L57.2198 48.8852C57.2198 48.8852 59.1848 39.2778 59.2509 38.9663ZM83.0965 38.9663H91.2401C91.259 39.089 91.5702 40.6177 91.9386 42.4393C91.589 43.2981 90.4741 46.082 90.0395 47.1674C88.8681 43.5526 86.167 40.9769 83.0967 40.8636L83.0965 38.9663ZM94.7258 56.3509C95.3304 56.8039 95.8877 57.2382 96.2751 57.5214C95.8311 58.5123 95.462 59.6919 95.2258 61.0982V58.2664C95.1597 57.5019 94.9809 56.87 94.7258 56.3509ZM98.4198 69.7342C100.016 70.5553 101.556 71.0743 103.039 71.2819H94.2722C95.5193 71.2253 96.6999 70.8575 97.6541 70.329C97.9942 70.1402 98.1648 69.9323 98.4198 69.7342Z" fill="white"/>
<path d="M37.4348 36.9781C33.7118 37.0453 29.9602 38.3123 27.6515 40.5598C25.2991 42.8627 24.137 45.6088 24.5433 47.902C24.77 49.1573 25.4596 50.1104 26.4799 50.5634C27.6891 51.1109 28.7562 51.1401 29.6537 50.6587C31.477 49.6772 31.9404 46.9581 31.9593 46.8355L31.9776 46.6843H31.8273C31.3644 46.6938 30.7972 46.6001 30.6933 46.0904C30.6744 46.0338 30.674 45.9678 30.674 45.9018C30.674 45.0052 31.7989 43.561 33.3294 42.8437V62.4751C31.7234 64.1268 30.8349 65.882 30.8349 67.3071C30.8349 67.6375 30.8724 67.9394 30.9669 68.2225C31.2503 69.0814 31.969 69.6478 32.9893 69.8271C34.3497 70.0631 35.9173 69.6009 37.0793 68.6287C38.2036 67.6849 38.8271 66.4108 38.8271 65.0423V55.1039C42.5588 53.8108 46.0452 52.2626 47.6327 49.0253C48.105 48.0438 48.4264 46.9402 48.5114 45.6188C48.568 44.7222 48.4733 43.8822 48.256 43.0989C47.8402 41.5711 46.9147 40.2774 45.5448 39.2582C45.0249 38.862 44.4393 38.5032 43.7871 38.2016C41.8918 37.3308 39.669 36.9385 37.4348 36.9789L37.4348 36.9781ZM40.0421 41.7976C42.4111 41.7897 43.748 42.9816 44.0049 45.3264C44.2694 47.8086 42.6254 49.6957 39.7251 50.2431L38.9408 50.3943V41.8526L39.5545 41.815C39.7216 41.8038 39.8841 41.7982 40.0421 41.7976ZM51.3956 42.7133C50.9244 42.7263 50.4469 42.8649 50.0313 43.1291C49.2188 43.6482 48.8216 44.5266 48.9445 45.5365V67.3664C48.8311 68.1969 49.1152 68.9055 49.7576 69.3396C50.5417 69.8681 51.7318 69.9055 52.6009 69.4147C53.3472 68.9994 53.735 68.2915 53.6877 67.4232V59.6276C53.5933 59.1746 54.1597 58.6266 54.8304 58.485C55.1233 58.419 56.1246 58.3247 56.4269 59.6555L56.4173 66.9144C56.4457 68.3301 57.2486 69.3206 58.694 69.6981C60.6024 70.1983 63.1446 69.4999 63.9759 68.2918C65.119 69.4244 66.3566 70.0096 67.6603 69.9907C69.7576 69.9718 71.2496 68.5187 71.5047 68.2639C72.5061 69.3021 73.6588 69.8867 74.953 69.9339C77.5699 70.0472 79.7813 68.1412 80.0834 67.877C84.3158 72.1713 89.3981 68.4431 89.7666 68.16C92.0812 70.595 95.0198 70.3026 97.0128 69.1889C97.5608 68.8869 98.0231 68.4905 98.1459 68.1696C101.538 70.1516 104.618 70.6418 107.291 69.547C112.317 67.4706 114.291 60.5903 114.509 59.8067C116.54 60.3635 117.456 62.1565 117.608 63.5722C117.626 63.7232 117.627 63.8744 117.627 64.016C117.627 64.9409 117.306 65.6585 116.758 65.9228C116.087 66.2437 115.123 65.8194 114.055 64.734C113.035 65.0172 111.666 67.3858 111.609 67.4802C114.566 70.2456 116.776 70.1885 118.117 69.6883C120.262 68.8955 121.5 66.4986 121.689 65.0545C121.745 64.6298 121.774 64.2237 121.774 63.8273C121.774 59.835 118.741 57.6265 115.547 55.3048L114.707 54.6917C114.707 54.6728 114.291 53.9746 114.291 53.9746L114.216 53.8513L111.259 55.9565C111.542 61.5723 108.642 63.9127 106.885 64.8185C105.194 65.6963 103.569 65.7618 103.153 65.422C103.059 65.3465 103.068 65.2804 103.077 65.2238C107.158 62.6471 109.02 59.4478 108.009 56.7486C107.225 54.6533 104.91 53.3981 102.483 53.7473C101.169 53.9361 96.8233 55.1726 96.2565 63.1574C96.3887 64.6109 95.8124 65.2719 95.2834 65.404C94.7449 65.5362 94.1785 65.1776 93.9046 64.5358L93.9133 58.2685C93.7432 56.3148 92.6666 55.7202 91.703 55.7957C90.6071 55.8995 89.5116 56.9192 89.6344 58.2877V63.289C89.4927 64.3649 88.8121 65.2337 87.8201 65.5923C86.9132 65.9132 85.9309 65.7436 85.2602 65.1207C84.6933 64.6016 83.8525 63.2897 84.6271 60.4205C86.6772 56.4471 87.4332 53.1247 87.4521 50.5294C87.4615 49.3969 87.3289 48.4146 87.0927 47.584C86.9321 47.0272 86.7429 46.5179 86.4973 46.1026C85.8644 45.0267 84.9767 44.4222 83.9942 44.3845C82.9266 44.375 81.7265 44.46 80.9235 45.3095C80.2339 46.0457 79.9414 47.2636 80.0737 48.9152V62.5622C79.7242 64.4026 78.9589 65.0449 78.3732 65.2525C77.6929 65.4885 76.8798 65.2623 76.1523 64.6394C76.1523 64.6205 76.0492 64.4315 76.0492 64.4315C75.8225 63.9784 75.5954 63.5347 75.5954 62.5814C75.5954 62.0718 75.6614 61.4018 75.8314 60.5052C77.7303 56.2486 78.7132 52.4642 78.7132 49.6137C78.7132 48.047 78.4197 46.7627 77.8057 45.8472C77.1443 44.8562 76.1241 44.3558 74.8487 44.3841C73.7339 44.4124 72.9122 44.7147 72.3359 45.3187C71.5896 46.1115 71.2592 47.3859 71.3348 49.2074V63.6853C71.3348 64.4309 71.0603 64.9973 70.5313 65.2899C70.04 65.5636 69.4069 65.5349 68.9251 65.2235C68.4527 64.9215 68.2169 64.412 68.2642 63.7796V58.39C68.302 57.2575 67.8867 56.3521 67.1215 55.9086C66.4885 55.5405 65.6947 55.5593 65.0712 55.9557C64.3248 56.4182 63.9377 57.3243 64.0133 58.4285V64.2232C63.985 65.1009 63.2384 65.5163 62.5016 65.5352C61.6986 65.5541 60.839 65.1102 60.7634 64.2136V57.9655C60.4895 55.672 59.6866 54.1996 58.3923 53.5955C56.5406 52.7178 54.3386 53.8604 53.7435 54.2096V45.5447C53.7624 45.4126 53.7724 45.2718 53.7724 45.1491C53.7724 44.2053 53.4033 43.4689 52.7231 43.0536C52.331 42.8129 51.8666 42.6998 51.3954 42.7128L51.3956 42.7133ZM74.7286 47.554C74.816 47.5588 74.9017 47.5838 74.982 47.631C75.6244 48.0274 75.8694 49.8026 75.9166 50.7747C75.6898 54.3801 75.2558 56.116 74.5378 56.22L74.3866 56.2489V47.6406L74.4617 47.6031C74.5515 47.5654 74.6412 47.5493 74.7286 47.554ZM83.4686 47.554C83.5548 47.5588 83.6407 47.5838 83.721 47.631C84.3634 48.0274 84.6178 49.8024 84.6556 50.7651C84.4383 54.3327 83.9846 56.1163 83.2855 56.2198L83.1351 56.2486V47.6404L83.2103 47.6029C83.2953 47.5651 83.3824 47.5493 83.4686 47.554ZM104.07 57.0178C104.283 57.032 104.467 57.0831 104.609 57.1728C104.609 57.1822 104.77 57.6079 104.77 57.6079C104.779 57.6834 104.778 57.7772 104.778 57.8716C104.778 58.6361 104.458 59.7315 103.797 60.5148C102.965 61.468 101.605 62.2514 100.745 62.2609L100.207 62.0809C100.084 62.0054 100.027 61.9018 99.9984 61.7508C99.8756 61.109 100.31 59.7592 101.208 58.6927L101.227 58.6648C101.633 57.9381 102.474 57.3146 103.362 57.0881C103.617 57.0268 103.858 57.0037 104.07 57.0178ZM34.5283 72.7144C32.1665 73.0165 32.5346 76.1586 34.5563 76.2153H109.663C111.817 79.6885 115.265 78.877 116.267 76.6118C117.107 73.1292 114.179 72.6767 112.875 72.7144H34.5277H34.5283Z" fill="#E81828"/>
<path d="M92.1773 45.2334C92.1301 45.2334 92.0825 45.2613 92.0636 45.3085L90.7783 48.9797L87.9726 48.9046C87.9254 48.9046 87.878 48.9325 87.8686 48.9797C87.8591 48.9891 87.8599 49.0087 87.8599 49.0182C87.8599 49.0559 87.8691 49.084 87.8975 49.1029C87.8975 49.1029 90.4104 51.3208 90.4199 51.3302C90.3443 51.3302 89.2955 54.7463 89.2955 54.7463C89.2861 54.7558 89.2859 54.7754 89.2859 54.7848C89.2859 54.8226 89.3048 54.8508 89.3331 54.8791C89.3803 54.9075 89.4369 54.9075 89.4747 54.8791C89.4747 54.8791 92.2334 52.7459 92.2428 52.7365C92.2428 52.8403 94.879 54.8791 94.879 54.8791C94.9262 54.9075 94.9828 54.9075 95.0206 54.8791C95.049 54.8508 95.0678 54.8226 95.0678 54.7848C95.0678 54.7754 95.0676 54.7558 95.0582 54.7463C95.0582 54.7463 93.9723 51.2164 93.9723 51.207C94.0195 51.2542 96.4562 49.1029 96.4562 49.1029C96.494 49.0746 96.5041 49.0269 96.4851 48.9797C96.4757 48.9325 96.4283 48.9046 96.3811 48.9046H93.4714V48.895C93.4714 48.6873 92.2901 45.3085 92.2901 45.3085C92.2712 45.2613 92.2246 45.2334 92.1773 45.2334ZM66.2524 45.2421C66.2052 45.2421 66.1578 45.2709 66.1484 45.3181L64.8544 48.9893L62.0487 48.9132C62.0015 48.9132 61.9636 48.9419 61.9447 48.9797C61.9353 48.9985 61.9351 49.008 61.9351 49.0268C61.9351 49.0551 61.9538 49.0927 61.9726 49.1115C61.9726 49.1115 64.4856 51.3303 64.4951 51.3303C64.429 51.3397 63.3707 54.756 63.3707 54.756C63.3707 54.7655 63.362 54.7744 63.362 54.7839C63.362 54.8217 63.3808 54.8595 63.4092 54.8879C63.4564 54.9162 63.5131 54.9065 63.5508 54.8783C63.5508 54.8783 66.3095 52.746 66.319 52.7366C66.319 52.8404 68.9637 54.8783 68.9637 54.8783C69.0015 54.9066 69.0485 54.9162 69.0957 54.8879C69.1241 54.8595 69.1439 54.8217 69.1439 54.7839V54.756C69.1439 54.756 68.0475 51.2261 68.0475 51.2167C68.0853 51.245 69.3045 50.1973 70.013 49.5649C70.3154 49.3101 70.5323 49.1116 70.5323 49.1116C70.5701 49.0833 70.5888 49.0269 70.5699 48.9797C70.551 48.942 70.5035 48.9133 70.4562 48.9133H70.0217H69.4927C68.6519 48.9133 67.5559 48.9141 67.5465 48.9046C67.5465 48.6875 66.3662 45.3182 66.3662 45.3182C66.3473 45.271 66.2997 45.2421 66.2524 45.2421Z" fill="#284898"/>
</svg>
