<svg width="87" height="120" viewBox="0 0 87 120" fill="none" xmlns="http://www.w3.org/2000/svg">
<path d="M80.0052 39.8281C80.0052 33.7136 80.864 27.0787 84.6973 20.4839C74.5787 17.9735 66.776 8.43746 64.2505 -6.25849e-06C60.0521 4.10413 55.9375 5.05733 49.4265 5.05733L5.92136 4.99479L0 19.8027C3.57864 21.3437 5.92136 24.7401 5.92136 28.812V96.6401C5.92136 100.714 3.57864 104.104 0 105.645L5.92136 120H22.5307L28.4588 105.645C24.8803 104.167 22.5307 100.651 22.5307 96.6401V69.9016L49.4265 69.9172C55.9375 69.9172 60.0521 71.5213 64.2505 75.6197C66.9896 67.188 75.2292 60.8959 85.3495 58.3855C81.5104 51.7921 80.0052 45.9375 80.0052 39.8281ZM57.0469 55.1828H22.6145V19.2921H57.0469C62.5 19.2921 65.912 22.7292 65.912 27.2864V47.7864C65.912 52.5683 63.2136 55.1828 57.0469 55.1828Z" fill="#FDB827"/>
<path d="M29.7599 119.625V115.964H31.1093V115.161H27.5052V115.964H28.8495V119.625H29.7599Z" fill="#FDB827"/>
<path d="M37.2078 119.625V115.161H35.6401L34.5625 118.079H34.536L33.5 115.161H31.9265V119.625H32.8385V116.079H32.8546L34.1041 119.625H34.9838L36.276 116.079H36.2973V119.625H37.2078Z" fill="#FDB827"/>
</svg>
