<svg width="148" height="197" viewBox="0 0 148 197" fill="none" xmlns="http://www.w3.org/2000/svg">
<path d="M32.841 1.29004C14.255 1.29004 0.987045 14.864 1.07104 32.623V67.684C1.07104 79.699 11.172 91.574 25.348 91.574H82.025C85.9319 91.574 86.9832 95.139 86.9832 96.5068C86.9832 96.9929 86.9362 127.348 86.9362 127.348C86.9594 135.432 82.2257 141.792 73.8192 141.792H65.5628V99.2628H45.7948V99.2954H45.7876L45.7985 141.792H24.9935C21.4615 141.672 20.8454 138.34 20.8454 136.838C20.8454 135.794 20.8237 122.473 20.8237 117.682C20.8237 112.588 27.0833 110.933 28.6063 110.547C28.8007 110.498 28.9332 110.39 28.9101 110.163C28.8938 109.981 28.771 109.899 28.6461 109.899H1.07806C1.07806 119.951 1.07407 139.402 1.07407 139.427C1.01157 149.872 9.62666 161.563 22.1761 161.563H44.4501H45.8063C45.8063 162.184 45.8027 182.374 45.8027 182.886C45.7448 184.655 45.447 186.202 44.9817 187.57C43.1579 192.389 38.6831 194.75 36.6603 195.189C36.1442 195.301 36.1414 195.892 36.5627 195.978C36.5788 195.984 36.5853 196 36.6061 196H102.726L103.305 195.996C131.38 195.996 147.071 182.339 147.071 154.671V81.5896C147.071 53.6626 131.317 40.4126 103.536 40.4126C103.536 40.4126 37.2417 40.4307 36.6607 40.4307C36.1353 40.4307 36.096 41.2597 36.6607 41.3384C37.1838 41.4101 45.7886 42.1181 45.7886 50.0106L45.7922 71.8326C39.6032 71.8326 26.0732 71.8558 25.4712 71.8326C22.136 71.7932 21 69.4018 20.8241 67.5363C20.8287 62.4073 20.8301 36.3683 20.835 36.0263C21.0317 26.1317 26.3834 21.0793 35.688 21.0793L80.662 21.0576C83.2635 21.0576 85.5153 22.3293 85.5153 25.5094C85.5153 28.7081 82.1297 29.6296 81.5372 29.9142C81.2803 30.0623 81.2249 30.4603 81.5119 30.4603H106.646L106.635 22.1714C106.434 16.0865 102.401 1.29739 83.519 1.29739L32.842 1.29037L32.841 1.29004ZM65.563 58.806H105.29C118.656 58.806 127.296 68.4104 127.296 80.83V157.864C127.296 170.707 117.197 177.577 104.444 177.577C92.749 177.577 72.435 177.592 65.564 177.599V161.564H76.023C94.609 161.564 106.777 148.113 106.777 130.455C106.777 130.455 106.773 96.1557 106.773 94.0767C106.773 86.4804 100.56 71.8317 82.4994 71.8317H65.5634L65.563 58.806Z" fill="#002D62"/>
</svg>
