<svg width="13" height="15" viewBox="0 0 13 15" fill="none" xmlns="http://www.w3.org/2000/svg">
<g clip-path="url(#clip0_6_1400)">
<path fill-rule="evenodd" clip-rule="evenodd" d="M6.5001 0C4.28135 0 2.48272 2.07535 2.48272 4.63542V5.20834C2.48272 6.58369 2.32087 7.80294 2.07422 8.65669C1.94996 9.08687 1.81393 9.38987 1.68918 9.5725C1.59682 9.70775 1.54171 9.73506 1.52907 9.73962C1.23256 9.74319 0.993134 10.0216 0.993134 10.3646V10.4948C0.993134 10.84 1.23564 11.1198 1.5348 11.1198H11.4653C11.7645 11.1198 12.007 10.84 12.007 10.4948V10.3646C12.007 10.0216 11.7676 9.74319 11.4711 9.73962C11.4585 9.73506 11.4033 9.70775 11.311 9.5725C11.1862 9.38987 11.0502 9.08687 10.9259 8.65669C10.6793 7.80294 10.5174 6.58369 10.5174 5.20834V4.63542C10.5174 2.07535 8.71882 0 6.5001 0ZM1.52773 9.74006L1.52626 9.74044L1.52687 9.74031L1.52773 9.74006ZM3.56605 4.63542C3.56605 2.7657 4.87966 1.25 6.5001 1.25C8.12049 1.25 9.43409 2.7657 9.43409 4.63542V5.20834C9.43409 6.68069 9.60569 8.03956 9.89819 9.052C9.98317 9.34612 10.0817 9.62287 10.1952 9.86981H2.80495C2.91846 9.62287 3.01699 9.34612 3.10196 9.052C3.39444 8.03956 3.56605 6.68069 3.56605 5.20834V4.63542Z" fill="#374DF5"/>
<path d="M5.44597 12.441C5.26813 12.1634 4.92895 12.1048 4.68841 12.31C4.44787 12.5152 4.39706 12.9066 4.57492 13.1841C5.02564 13.8875 5.70657 14.375 6.50005 14.375C7.29354 14.375 7.97442 13.8875 8.42514 13.1841C8.60302 12.9066 8.55221 12.5152 8.31166 12.31C8.0711 12.1048 7.73197 12.1634 7.55408 12.441C7.2663 12.89 6.88588 13.125 6.50005 13.125C6.11417 13.125 5.73376 12.89 5.44597 12.441Z" fill="#374DF5"/>
</g>
<defs>
<clipPath id="clip0_6_1400">
<rect width="13" height="15" fill="white"/>
</clipPath>
</defs>
</svg>
