<svg width="13" height="15" viewBox="0 0 13 15" fill="none" xmlns="http://www.w3.org/2000/svg">
<g clip-path="url(#clip0_3_26)">
<path d="M11.375 10.3125C11.0029 10.3125 10.5625 9.80437 10.5625 9.375V4.6875C10.5625 2.10305 8.73986 0 6.5 0C4.26014 0 2.4375 2.10305 2.4375 4.6875V9.375C2.4375 9.79523 1.9892 10.3125 1.625 10.3125C1.17589 10.3125 0.8125 10.7318 0.8125 11.25C0.8125 11.7682 1.17589 12.1875 1.625 12.1875H11.375C11.8241 12.1875 12.1875 11.7682 12.1875 11.25C12.1875 10.7318 11.8241 10.3125 11.375 10.3125Z" fill="#374DF5"/>
<path d="M6.5 15C7.39741 15 8.125 14.1605 8.125 13.125H4.875C4.875 14.1605 5.60259 15 6.5 15Z" fill="#374DF5"/>
</g>
<defs>
<clipPath id="clip0_3_26">
<rect width="13" height="15" fill="white"/>
</clipPath>
</defs>
</svg>
