<?xml version="1.0" encoding="utf-8"?>
<!-- Uploaded to: SVG Repo, www.svgrepo.com, Generator: SVG Repo Mixer Tools -->
<svg fill="#000000" version="1.1" id="Layer_1" xmlns="http://www.w3.org/2000/svg" xmlns:xlink="http://www.w3.org/1999/xlink" 
	 width="800px" height="800px" viewBox="0 0 222 260" enable-background="new 0 0 222 260" xml:space="preserve">
<path d="M128.154,116.506l-1.596-3.07l-4.494,4.347l2.186,2.75L128.154,116.506z M114.746,217.752l-0.515-4.003l-5.01,2.185
	l1.203,5.919l2.407,1.448L114.746,217.752z M31.942,136.151l6.606-2.505l4.813,0.737l2.947-5.28l0.687-8.447l-6.434-2.382
	l-0.957-2.21l4.96-3.389l-4.076-1.744l-3.143,6.115l-4.961-1.915l-2.676,6.507l2.75,2.603l-3.978,4.838l-3.143,0.589l0.712,4.715
	L31.942,136.151z M127.589,112.307l3.512,6.753l4.494-1.547l1.056-4.715l4.714-0.418l2.505-6.826l0.246-11.837l3.978-3.683
	l2.676-6.63l-6.311-4.838l-1.497-6.237l0.613-5.599l3.119-7.391l6.409-6.385l1.646-4.739l-1.449-2.702l3.438-8.521l4.592-0.565
	l4.199,1.769l-0.835,4.984l-5.624,13.015l-3.585,5.501l3.414,10.682l0.024,4.224l9.626,3.462l13.58-7.146l8.226-21.045l-6.974-4.518
	l-9.061-21.953l0.884-7.048l-6.065-5.206l0.515-7.563L164.645,2l-3.364,2.038l-1.547,10.583l-7.122,0.713l-3.266-3.708l-2.578,2.21
	l-1.179,5.549l-5.157-0.81l-9.11,19.449l0.294,6.163l-2.48,5.746l1.204,4.298l-4.175,0.589l-2.136,5.133l0.908,11.762l2.677,2.554
	l-2.161,2.996l1.154,6.433l-2.996,4.273l-1.547,9.135l7.072,13.801L127.589,112.307z M146.694,246.433l-6.606,2.039l-4.223-1.449
	l-3.954,3.045l12.941,7.146l3.684,0.786l-0.147-5.059l1.939-5.992L146.694,246.433z M106.544,228.041l1.94,7.71l-0.835,3.659
	l6.974,0.786l1.621-10.436l-3.364-5.624L106.544,228.041z M216.139,186.418l3.757-2.971l-0.614-3.904l-6.655,1.965l-2.505-4.568
	l-2.186-7.367l-7.048-6.925l-8.005,3.88l-11.738,1.94l-4.224-2.701l1.13-5.206l-0.123-3.438l5.501-8.668l-3.315-5.378l-1.4-13.383
	l-2.873-5.402l3.904-0.368l4.224-4.371l2.235-10.559l3.855-1.891l1.645-3.241l-5.697-9.012l0.221-3.413l-3.978-5.402l2.333-5.28
	l-8.374,0.025l-7.735,5.034l1.105,4.788l4.027,4.42l1.228,4.592l-2.333,2.456l-5.452-4.985l-3.241,2.087l-1.694,5.623l0.835,5.672
	l1.866,5.476l6.876,1.94l0.516,3.954l-17.337,2.406l-2.112-3.143l-7.244,2.849l-1.694,2.136l-8.177,3.192l-7.612-3.61l-5.648,3.512
	l-7.539-5.844l0.663-4.568l2.75-3.61l0.074-7.367l-3.978-0.688l-4.813,3.241l1.989,12.327l0.712,7.907l-7.465,4.125l-5.304-1.449
	l-5.697,2.898l-4.224,9.896l1.105,1.744l-0.172-0.025l-4.027-0.393l-4.027,1.743l-4.568,1.13l-2.726,6.434l-4.666,1.13l-2.652,2.996
	l-4.445-1.793l-2.578,4.715l-5.771,0.81l-1.498-2.996l-7.416,0.368l-1.375,1.915l3.34,4.101l8.497,7.858l0.295,4.199l3.241,2.357
	l-3.831,16.305l-3.168,4.297l-1.915,0.417l-26.84-7.711l-3.07-2.259l-9.086,4.125l2.357,5.451l-1.326,2.235l-1.351,7.244
	l-2.873,6.016l-6.385,9.381l3.315,3.659l-3.831,9.528l7.195,1.866l2.529-0.712l5.009,3.045l0.933,5.378l4.592,2.308l0.098,0.025
	l6.409-3.119l13.997,2.407l3.536-4.273l5.353-1.94l2.726-4.322l4.788-2.357l-2.382-6.336l9.061-10.387l6.262-1.031l7.146-4.494
	l0.025-3.512l0.098-5.083l4.789-2.775l9.061,3.266l5.722,0.196l4.666-4.248l3.634-1.105l3.07-3.438l7.391,3.094l3.462,9.061
	l13.285,11.517l3.831-0.368l2.308,3.02l3.831,0.958l1.13,3.217l4.15,0.982l4.15,9.724l-2.849,4.101l2.824,2.014l5.378-7.76
	l-0.049-3.855l-3.954-1.768l2.48-6.557l5.378-1.547l-11.836-4.739l-0.295-3.855l-5.059,0.467l-6.164-4.617l-2.873-6.851
	l-6.974-5.083l0.688-5.402l-1.498-3.634l7.49-1.277l-0.589,0.81l7.244,3.536l1.572,5.599l4.543,3.536l1.203-4.101l-2.898-6.876
	l5.918-1.473l11.615,1.522l-1.866-7.441l6.728-2.235l3.34,4.15l4.199,1.964v2.726l5.992,1.154l1.449,1.793l-1.277,3.438l4.199,3.88
	l-2.136,2.873l-0.172,4.273l3.143,1.719l1.326,4.96l-10.044,5.427l-3.659,10.608l5.451,5.574l4.125,2.431l-1.842,3.831l2.873,1.67
	l2.578,5.427l7.883-1.179l-0.982-9.086l3.806-3.168l-4.199-1.94l-4.224-7.932l-2.038-1.793l7.269-3.782l0.54-2.849l4.789-3.143
	l6.507,0.417l-0.491-7.195l4.469-4.003l2.21-5.329l-0.54-3.315l2.259-5.108L216.139,186.418z M117.055,186.049l-11.075,3.119
	l-4.199-0.246l-1.081-3.659l-3.291-1.547l7.711-6.999l5.132-1.449l5.574,1.915l-0.54,3.266l4.273,1.793L117.055,186.049z"/>
</svg>