<svg width="27" height="31" viewBox="0 0 27 31" fill="none" xmlns="http://www.w3.org/2000/svg">
<path d="M23.625 21.3125C22.8521 21.3125 21.9375 20.2624 21.9375 19.375V9.6875C21.9375 4.3463 18.152 0 13.5 0C8.84798 0 5.0625 4.3463 5.0625 9.6875V19.375C5.0625 20.2435 4.13142 21.3125 3.375 21.3125C2.44223 21.3125 1.6875 22.179 1.6875 23.25C1.6875 24.321 2.44223 25.1875 3.375 25.1875H23.625C24.5578 25.1875 25.3125 24.321 25.3125 23.25C25.3125 22.179 24.5578 21.3125 23.625 21.3125Z" fill="white"/>
<path d="M13.5 31C15.3638 31 16.875 29.265 16.875 27.125H10.125C10.125 29.265 11.6362 31 13.5 31Z" fill="white"/>
</svg>
