<svg width="200" height="200" viewBox="0 0 200 200" fill="none" xmlns="http://www.w3.org/2000/svg">
<path d="M170.096 30.2693C151.401 11.5727 126.539 1.27588 100.094 1.27588C73.6525 1.27588 48.793 11.5727 30.0944 30.2693C11.3958 48.9679 1.09799 73.8284 1.09799 100.276C1.09799 126.717 11.3948 151.579 30.0944 170.277C48.793 188.978 73.6535 199.276 100.094 199.276C126.537 199.276 151.401 188.979 170.096 170.277C188.794 151.579 199.094 126.716 199.094 100.276C199.094 73.8284 188.795 48.9689 170.096 30.2693Z" fill="#002D62"/>
<path d="M100.093 5.81982C47.93 5.81982 5.63788 48.106 5.63788 100.273C5.63788 152.44 47.93 194.728 100.093 194.728C152.26 194.728 194.55 152.44 194.55 100.273C194.55 48.106 152.26 5.81982 100.093 5.81982Z" fill="#EB6E1F"/>
<path d="M100.093 190.986C49.997 190.986 9.38382 150.374 9.38382 100.275C9.38382 50.181 49.998 9.56982 100.093 9.56982C144.709 9.56982 181.804 41.7842 189.39 84.2173C190.315 89.4295 190.802 94.7931 190.802 100.275V100.279C190.802 150.375 150.195 190.986 100.093 190.986Z" fill="#002D62"/>
<path d="M100.09 39.6709C66.6157 39.6709 39.4912 66.7973 39.4912 100.268C39.4912 133.737 66.6157 160.866 100.09 160.866C133.559 160.866 160.689 133.737 160.689 100.268C160.689 66.7973 133.559 39.6709 100.09 39.6709Z" fill="#EB6E1F"/>
<path d="M134.083 145.397L129.997 132.828H114.333H114.327L132.855 146.281C123.612 152.873 112.312 156.766 100.093 156.766C87.8842 156.766 76.5805 152.878 67.3407 146.281L85.8633 132.828H85.8613H76.1265L65.3557 147.721L66.1142 145.397C52.4474 135.088 43.6066 118.728 43.6066 100.275C43.6066 95.1032 44.3004 90.1013 45.6029 85.3403C45.791 84.6648 45.9892 83.9892 46.1996 83.3116L75.814 104.832V101.101V101.094L53.1954 84.6648L43.8854 81.6471H46.7595C54.3645 59.8986 74.88 44.2248 99.1145 43.8109L100.091 40.8032V96.1531V96.1591H111.938V84.3893L104.273 81.6467V71.9342H110.211L101.071 43.8098C125.313 44.2305 145.825 59.8975 153.424 81.646H156.308L147 84.6637H124.393V104.831L153.988 83.3268C154.2 83.9902 154.4 84.6637 154.584 85.3453C155.887 90.1024 156.583 95.1104 156.583 100.274C156.583 118.716 147.742 135.085 134.081 145.396" fill="#002D62"/>
<path d="M100.09 40.8003L99.113 43.8082L89.9752 71.9327H95.9141V71.9367V81.6445L88.2482 84.3874V96.1502H100.09V40.8003ZM43.8821 81.6445L53.194 84.6624L75.8125 101.088V84.3874H75.8095L68.1436 81.6445H46.7591H43.8821ZM132.039 81.6445L124.39 84.3874V84.6624H146.999L156.309 81.6445H153.419H132.039ZM88.2482 108.598V116.038L93.6191 108.598H88.2482ZM70.1936 132.827L66.1097 145.397L65.3547 147.717L76.1235 132.827H76.1195H70.1956H70.1936Z" fill="#F4911E"/>
<path d="M96.92 15.2295L94.6541 17.4954V24.0503L96.92 26.3213H101.98L102.46 26.8003V30.8062L101.98 31.2862H97.648L96.971 29.5132H94.6541V34.3411H103.25L105.52 32.0772V25.5223L103.25 23.2573H98.189L97.719 22.7763V18.7704L98.189 18.2924H102.53L103.21 20.0634H105.52V15.2295H96.92ZM81.1453 17.0975L75.7605 18.7844L76.4824 21.0854L77.8894 21.2574L81.6483 33.2651L81.3343 33.8641L77.6054 35.0261L77.0064 34.7221L73.2405 22.7163L74.3055 21.7674L73.5765 19.4684L68.1936 21.1594L68.9146 23.4523L70.3266 23.6323L74.4675 36.8451L77.3144 38.339L83.4693 36.4031L84.9533 33.5561L80.8144 20.3394L81.8653 19.3924L81.1453 17.0975ZM119.27 17.1925L117.7 22.2264L119.88 22.9073L121.22 21.0074L123.019 21.5674L119.13 34.0321L117.72 34.2101L117 36.5131L122.39 38.192L123.099 35.8941L122.05 34.9381L125.939 22.4763L127.729 23.0343L127.759 25.3743L129.939 26.0503L131.509 21.0054L119.27 17.1925ZM145.849 28.5072L142.689 29.0932L134.389 41.065L134.969 44.2309L140.269 47.9028L143.429 47.3208L151.729 35.3431L151.159 32.1831L145.849 28.5072ZM54.2389 28.5752L48.946 32.2392L48.366 35.4091L56.6808 47.3898L59.8488 47.9578L65.1377 44.2719L65.7137 41.114L57.4028 29.1422L54.2389 28.5752ZM145.149 31.7592L148.369 33.9811L148.479 34.6401L141.629 44.5399L140.969 44.6589L137.759 42.4349L137.639 41.77L144.489 31.8762L145.149 31.7592ZM54.9439 31.8102L55.6049 31.9352L62.4697 41.823L62.3507 42.4849L59.1418 44.7059L58.4758 44.5969L51.6119 34.7121L51.7299 34.0401L54.9439 31.8102ZM162.922 42.5419L161.022 44.0189L161.342 45.3989L150.992 53.4597L149.742 52.8167L147.832 54.2917L151.302 58.7466L153.202 57.2666L152.882 55.8857L159.932 50.3898L153.352 61.3636L155.552 64.1915L168.262 54.2757L169.532 54.9367L171.432 53.4477L167.952 48.9948L166.062 50.4778L166.382 51.8598L159.322 57.3526L165.912 46.3719L162.922 42.5419ZM37.0742 42.7609L33.6153 47.2078L35.5143 48.6998L36.7722 48.0418L40.7382 51.1238L37.8322 54.8717L33.8593 51.7878L34.1843 50.4068L32.2813 48.9288L28.8164 53.3797L30.7174 54.8557L31.9793 54.2037L42.3381 62.2585L42.0141 63.6435L43.9161 65.1155L47.379 60.6606L45.4791 59.1846L44.2151 59.8386L40.2502 56.7507L43.1561 53.0027L47.129 56.0867L46.809 57.4806L48.703 58.9516L52.1699 54.4987L50.27 53.0217L49.006 53.6767L38.6522 45.6199L38.9712 44.2369L37.0742 42.7609ZM68.1516 71.9323V81.6442L70.6086 79.8932H70.6106L78.2784 82.6411L75.8135 84.3871V101.088V101.098V104.828V120.377L68.1516 123.117V132.817L70.5406 130.417L70.6086 130.347H70.6106H93.4391V124.847L95.909 123.117H95.915L88.2552 120.377H88.2532L85.7783 122.107V106.138H114.401L111.941 108.598V120.377L104.271 123.117V123.127V125.517V132.817L106.751 130.347H129.57V124.847L132.04 123.117L124.39 120.377L121.911 122.107V82.6441V82.6411L128.03 80.4432L129.57 79.8932V74.4063L132.04 71.9323H110.211H104.271V81.6442L106.751 79.8932L114.401 82.6411L111.941 84.3871V96.1559H100.091H88.2552L85.7783 98.6248V82.6441V82.6411L93.4391 79.8932V74.4063L95.915 71.9364V71.9323H89.9762H68.1516ZM150.24 143.397L144.12 149.427L144.1 152.647L148.69 157.307L151.91 157.337L155.51 153.787H156.18L158.99 156.637V157.317L155.91 160.357L154.17 159.577L152.52 161.207L155.92 164.656L162.05 158.607L162.07 155.397L157.47 150.737L154.26 150.707L150.66 154.257H149.99L147.17 151.387L147.18 150.727L150.26 147.677L152 148.457L153.64 146.837L150.24 143.397ZM51.6479 145.037L38.4472 154.677L37.1232 154.217L35.4413 155.917L39.4772 159.877L41.1522 158.157L40.6582 156.847L42.3381 155.637L45.8361 159.057L44.6431 160.767L43.3261 160.297L41.6481 162.007L45.6821 165.956L47.359 164.246L46.861 162.927L56.2559 149.567L51.6479 145.037ZM51.348 149.037L52.2519 149.927L47.621 156.517L44.8461 153.797L51.348 149.037ZM132.67 157.677L126.92 160.567L125.91 163.616L132.48 176.636L135.53 177.636L141.29 174.726L142.29 171.686L135.72 158.667L132.67 157.677ZM67.6906 157.767L64.6467 158.787L61.7107 164.636L62.7247 167.686L67.2416 169.956L67.4606 170.596L65.6577 174.176L65.0137 174.386L61.1448 172.446L61.3217 170.556L59.2578 169.506L57.0858 173.836L64.7767 177.696L67.8216 176.686L70.7636 170.836L69.7516 167.786L65.2307 165.516L65.0137 164.866L66.8176 161.287L67.4606 161.077L71.3255 163.017L71.1466 164.916L73.2085 165.946L75.3845 161.627L67.6906 157.767ZM132.92 160.987L133.56 161.187L138.99 171.926L138.78 172.566L135.28 174.336L134.64 174.116L129.21 163.377L129.43 162.737L132.92 160.987ZM83.6103 164.436L82.7983 169.636L85.0563 170.006L86.0992 167.916L87.9562 168.206L85.9462 181.106L84.5893 181.496L84.2123 183.876L89.7942 184.746L90.1612 182.366L88.9812 181.596L90.9871 168.676L92.8411 168.966L93.2081 171.266L95.4661 171.616L96.272 166.396L83.6103 164.436ZM113.601 164.876L103.831 166.426L104.191 168.806L105.561 169.186L107.621 182.136L106.431 182.936L106.811 185.306L112.381 184.426L112.011 182.056L110.641 181.666L109.861 176.696L112.611 176.266L114.791 180.786L113.811 181.456L114.181 183.826L119.751 182.956L119.381 180.576L117.881 180.146L115.621 175.436L117.211 173.236L116.191 166.776L113.601 164.876ZM112.821 168.106L113.361 168.506L113.981 172.456L113.601 173.016L109.371 173.666L108.601 168.776L112.821 168.106Z" fill="white"/>
<path d="M132.039 71.9326L129.569 74.4046V79.8945L128.029 80.4454L121.91 82.6434V122.108L124.389 120.378V104.828V84.6624V84.3874L132.039 81.6444V71.9326ZM95.9141 71.9366L93.4411 74.4066V79.8935L85.7773 82.6444V98.6251L88.2482 96.1561V96.1501V84.3874L95.9141 81.6444V71.9366ZM70.6076 79.8945L68.1506 81.6444H68.1436L75.8095 84.3874H75.8125L78.2754 82.6394L70.6096 79.8945H70.6076ZM106.75 79.8945L104.27 81.6434L111.94 84.3874L114.4 82.6394L106.75 79.8945ZM85.7773 106.138V122.108L88.2482 120.378V116.038V108.598H93.6191H93.6231H111.94L114.4 106.138H85.7773ZM132.039 123.118L129.569 124.858V130.347H106.75L104.27 132.817H114.33H129.989H132.039V123.128V123.118ZM95.9141 123.128L93.4391 124.848V130.347H70.6076L70.5396 130.417L68.1436 132.827H70.1936H70.1956H76.1175H76.1215H85.8573H85.8613H95.9121V125.518H95.9141V123.128Z" fill="#E7E9EA"/>
</svg>
