<svg width="187" height="250" viewBox="0 0 187 250" fill="none" xmlns="http://www.w3.org/2000/svg">
<path d="M103.311 244.824H171.707C165.393 240.533 159.809 233.019 157.32 224.416L138.2 158.812C136.133 151.746 139.494 144.685 144.868 139.908C137.238 137.557 130.471 132.272 128.347 124.957L117.631 88.232C132.859 83.134 142.777 74.116 142.777 63.633C142.777 49.948 125.846 38.74 102.27 35.533L93.313 4.82397H83.294L74.348 35.539C50.761 38.746 33.808 49.948 33.808 63.633C33.808 74.116 43.749 83.134 58.988 88.232L48.283 124.957C46.171 132.272 39.381 137.558 31.751 139.908C37.114 144.685 40.498 151.746 38.43 158.812L19.3 224.416C16.767 233.02 11.227 240.533 4.935 244.824H73.331C67.735 240.533 64.683 233.019 67.193 224.416L68.874 218.71H107.777L109.436 224.416C111.936 233.02 108.884 240.533 103.311 244.824ZM82.421 172.237L88.326 151.939L94.22 172.237H82.421Z" fill="white"/>
<path d="M160.205 240.174C156.933 235.911 154.345 230.946 152.818 225.743L133.82 160.57C130.823 150.23 136.385 142.877 137.115 141.705C130.513 138.133 125.681 132.686 123.845 126.256L112.29 86.59C128.59 82.25 139.703 73.608 139.703 63.633C139.703 51.021 121.844 40.493 98.19 38.165L89.841 9.49097H86.811L78.462 38.165C54.786 40.487 36.916 51.015 36.916 63.633C36.916 73.608 48.041 82.25 64.341 86.59L52.785 126.256C50.916 132.687 46.105 138.133 39.504 141.705C40.245 142.877 45.818 150.23 42.788 160.57L23.8 225.743C22.285 230.946 19.686 235.911 16.413 240.174H63.776C59.961 231.736 61.963 225.588 63.676 219.799L65.357 214.038H111.272L112.963 219.799C114.644 225.588 116.656 231.737 112.842 240.174M76.151 176.903L88.326 135.214L100.457 176.903H76.151Z" fill="#003263"/>
<path d="M100.899 73.8389H100.91L94.817 52.8999L96.011 57.0689C93.523 56.9309 90.946 56.8369 88.325 56.8369V70.4219L124.806 195.481L133.188 224.167L147.609 232.798C146.602 230.609 145.696 228.364 145.01 226.064L126.852 163.917C123.998 154.202 125.569 150.011 127.637 144.149C122.185 139.963 118.558 134.517 116.788 128.38L103.01 81.0439C102.999 81.0439 102.988 81.0499 102.977 81.0499" fill="#CD1141"/>
<path d="M92.595 45.2589L88.326 30.6169V45.1639C89.764 45.1649 91.19 45.2039 92.595 45.2589Z" fill="#CD1141"/>
<path d="M43.219 224.925L54.875 232.798C54.245 228.878 54.842 223.72 55.958 220.059L59.829 206.679L51.823 195.482" fill="#CD1141"/>
<path d="M66.331 184.269L88.326 108.961V70.4219L51.822 195.481H124.808L110.255 184.269" fill="#CD1141"/>
<path d="M88.326 108.961L110.255 184.269L124.808 195.481L88.326 70.4219" fill="#8F0028"/>
<path d="M147.61 232.798L133.189 224.167L124.807 195.481H51.822L88.326 70.422V56.837C90.947 56.837 93.523 56.931 96.012 57.069L94.817 52.9C94.496 52.878 94.165 52.867 93.833 52.856C92.041 52.762 90.206 52.707 88.326 52.707C86.103 52.707 83.936 52.779 81.824 52.9L75.72 73.839L73.641 81.049C73.63 81.049 73.619 81.049 73.619 81.043L59.829 128.379C58.059 134.516 54.466 139.962 48.981 144.148C51.038 150.009 52.619 154.201 49.777 163.916L31.597 226.063C30.911 228.364 30.049 230.608 28.987 232.797H54.875L43.219 224.924L51.823 195.481L59.829 206.678H116.79L120.716 220.058C121.756 223.719 122.353 228.877 121.756 232.797" fill="#8F0028"/>
<path d="M88.326 30.6179L84.057 45.2599C85.461 45.2049 86.888 45.1659 88.326 45.1659" fill="#8F0028"/>
<path d="M75.72 73.8391C62.505 72.2581 53.116 68.2711 53.116 63.6321C53.116 58.2911 65.479 53.8451 81.824 52.9001C83.936 52.7781 86.104 52.7071 88.326 52.7071C90.206 52.7071 92.041 52.7621 93.833 52.8561C94.165 52.8671 94.497 52.8781 94.817 52.9001C111.15 53.8461 123.525 58.2801 123.525 63.6321C123.525 68.2711 114.125 72.2571 100.91 73.8391H100.899L102.978 81.0491C102.989 81.0491 103 81.0431 103.011 81.0431C120.03 78.4891 132.239 71.6821 132.239 63.6321C132.239 54.0501 114.833 46.1601 92.594 45.2581C91.19 45.2031 89.763 45.1641 88.325 45.1641C86.887 45.1641 85.461 45.2031 84.056 45.2581C61.773 46.1591 44.401 54.0501 44.401 63.6321C44.401 71.6821 56.587 78.4941 73.617 81.0431C73.617 81.0491 73.628 81.0491 73.639 81.0491" fill="#C4CDD3"/>
<path d="M173.531 234.385H171.507V239.904H170.136V234.385H168.113V233.186H173.532M182.709 239.903H181.338V234.556H181.305L179.359 239.903H178.032L176.164 234.556H176.131V239.903H174.76V233.185H177.126L178.686 237.57H178.73L180.344 233.185H182.71V239.903H182.709Z" fill="#003263"/>
</svg>
