<svg width="198" height="198" viewBox="0 0 198 198" fill="none" xmlns="http://www.w3.org/2000/svg">
<path d="M115.375 2.72285C102.348 0.471849 89.2385 0.845661 76.4255 3.84266C63.1595 6.94696 50.8785 12.7184 39.9125 20.9977C19.1065 36.7057 5.65551 59.5706 2.04751 85.3946C-1.56299 111.215 5.10772 136.897 20.8135 157.705C35.7985 177.564 57.5515 190.84 82.0605 195.079C95.0915 197.33 108.188 196.954 121.002 193.951C134.274 190.861 146.561 185.091 157.517 176.811C178.325 161.111 191.778 138.241 195.387 112.411C198.995 86.5912 192.321 60.9113 176.621 40.1013C161.632 20.2413 139.879 6.97124 115.374 2.73124" fill="#134A8E"/>
<path d="M191.835 111.913C188.359 136.788 175.406 158.823 155.363 173.945C144.792 181.927 132.955 187.482 120.175 190.473C118.632 190.833 117.083 191.154 115.535 191.435C104.679 193.416 93.6443 193.456 82.6673 191.56C64.9623 188.49 48.7543 180.533 35.6583 168.676C31.2981 164.718 27.2811 160.337 23.6723 155.555C11.3723 139.272 4.82929 119.878 4.66529 99.8371C4.63459 95.2084 4.93757 90.5529 5.59333 85.8921C8.42923 65.5691 17.5903 47.1471 31.7893 32.8291C34.9645 29.6232 38.4006 26.6205 42.0633 23.8537C49.1712 18.483 56.8563 14.2225 65.0163 11.0897C68.9834 9.56921 73.0637 8.30751 77.2433 7.33541C89.5973 4.44581 102.217 4.0834 114.765 6.2521C138.374 10.3305 159.324 23.1121 173.768 42.2481C188.896 62.2951 195.322 87.0291 191.845 111.914" fill="white"/>
<path d="M184.519 133.213C187.241 126.37 189.164 119.158 190.206 111.682C191.268 104.047 191.396 96.4329 190.604 88.9619V88.9408C190.58 88.7913 190.558 88.6321 190.539 88.471C188.722 72.194 182.567 56.649 172.448 43.235C161.221 28.367 145.989 17.398 128.629 11.49C124.054 9.92541 119.326 8.70783 114.48 7.87373C113.7 7.74143 112.916 7.61294 112.129 7.49214C107.416 6.80571 102.665 6.49701 97.9505 6.5392C95.3601 6.5603 92.7754 6.70218 90.1926 6.94185C89.0882 7.04731 87.9702 7.17386 86.8773 7.31383C86.4248 7.37323 85.9647 7.43079 85.5122 7.50557C70.2252 9.71827 55.5532 15.7333 43.0552 25.1666C36.6127 30.0311 30.9201 35.6166 26.0531 41.7966C16.0291 54.4916 9.52115 69.6716 7.22215 86.1176C6.15795 93.7547 6.02956 101.379 6.83675 108.859C7.72644 117.247 9.77614 125.456 12.9264 133.272C15.9444 140.771 19.971 147.929 24.9774 154.553C30.745 162.193 37.5654 168.796 45.1874 174.226C47.9657 176.201 50.8611 178.028 53.8407 179.681C62.8104 184.656 72.6217 188.136 82.9527 189.918V189.929C85.3035 190.338 87.6638 190.641 90.0299 190.861C93.9299 191.229 97.8415 191.348 101.728 191.21C102.737 191.176 103.735 191.128 104.746 191.055C122.58 189.866 139.929 183.537 154.365 172.627C155.793 171.54 157.193 170.42 158.558 169.275C170.155 159.433 178.996 147.102 184.514 133.212" fill="#134A8E"/>
<path d="M152.212 169.783C132.403 184.739 108.021 190.646 83.5555 186.407C61.2665 182.553 41.4685 170.479 27.8355 152.409C13.5415 133.474 7.4835 110.107 10.7575 86.6179C14.0459 63.1199 26.2795 42.3159 45.2075 28.0199C65.0165 13.0739 89.4095 7.16392 113.873 11.4019C133.732 14.8341 151.598 24.7859 164.898 39.6939C164.952 39.7514 164.983 39.784 165.012 39.8185C166.605 41.6036 168.133 43.4673 169.592 45.3982C183.888 64.3252 189.951 87.7042 186.67 111.192C183.384 134.688 171.148 155.492 152.22 169.783" fill="white"/>
<path d="M55.3455 75.7075C52.5231 76.9021 51.0696 78.3093 48.9451 81.6763C25.8131 85.5035 17.8921 89.1996 15.8041 91.4986C15.503 91.9185 15.6337 92.1232 15.9232 92.2076C23.614 91.8855 34.3892 91.4968 53.2512 92.1334C54.8101 92.1545 56.3317 92.1924 57.8254 92.2193C58.7764 90.9615 60.4921 89.8521 63.7805 89.8521H64.1125H64.7453C70.858 89.9307 71.9839 96.2037 78.4743 96.2037C84.8996 96.2037 86.066 90.0401 92.0403 89.856C92.2455 89.856 92.4462 89.8521 92.6341 89.8521H115.019L114.709 86.1392H92.3125C86.0943 86.1392 84.9938 79.7818 78.4646 79.7818C72.0054 79.7818 70.8811 86.108 64.8236 86.108H64.763C58.3857 85.6651 55.8632 80.2725 55.3455 75.7075ZM16.4205 93.0865C15.6477 93.0765 15.4382 93.3919 16.2877 94.0572C19.9615 96.7205 32.4156 101.542 47.6996 104.387C55.0491 105.756 58.3996 107.774 63.6746 111.461C75.1566 119.488 90.8097 142.151 100.357 170.176C118.461 135.016 139.493 118.183 141.136 116.895L130.372 117.776L125.206 118.196L128.522 114.21L130.321 112.038L123.366 106.032C119.585 111.813 115.901 118.077 114.149 122.911L121.797 122.88C117.869 127.752 110.294 135.802 105.19 144.73C100.1 132.21 88.1624 116.11 66.6024 107.26C60.3574 104.7 54.4564 101.3 55.2154 96.3549C44.3884 94.8079 32.5184 93.5499 19.0814 93.1229C18.115 93.1056 17.2227 93.0877 16.4193 93.0838L16.4205 93.0865Z" fill="#1D2D5C"/>
<path d="M75.9923 82.6626C74.6444 83.5676 73.667 85.2511 73.7207 86.879H75.8983C75.7929 86.0775 75.5475 84.4995 75.9923 82.6626Z" fill="white"/>
<path d="M101.001 16.7229L96.6949 16.9827C97.0247 17.3681 97.1317 17.8521 97.1988 18.5999L97.607 25.5315L87.269 17.4514L88.1303 32.0624C88.1629 32.7469 88.1111 33.4482 87.6049 34.0253L92.1518 33.7596C91.7166 33.3071 91.6758 32.7936 91.601 31.8905V31.8612L91.2163 25.1835L101.525 33.2773L100.656 18.4653C100.627 17.8729 100.656 17.2272 101.001 16.7229ZM108.984 17.467L107.55 21.0529C108.4 20.6867 109.055 20.7082 109.958 20.8674L112.363 21.3498L110.101 32.5238C109.927 33.3809 109.618 33.9206 109.039 34.2543L113.966 35.2543C113.623 34.7328 113.43 34.0285 113.593 33.2309L115.857 22.0609L118.521 22.598C119.468 22.7917 120.162 23.3229 120.617 23.7582L120.681 19.8363L108.984 17.467ZM73.4759 21.3732C70.7521 21.2622 68.0158 22.4656 66.265 24.8205C63.456 28.6055 64.2197 33.9426 67.9759 36.7245C71.7245 39.5086 77.0555 38.7029 79.8609 34.9198C82.6642 31.1367 81.9004 25.8017 78.15 23.0268C76.7414 21.9792 75.1102 21.4398 73.4759 21.3732ZM131.544 24.3682C128.819 24.2569 126.08 25.4566 124.325 27.8174C121.524 31.6024 122.289 36.9395 126.04 39.7194C129.786 42.5054 135.127 41.6899 137.931 37.9049C140.732 34.1353 139.961 28.7984 136.218 26.0159C134.809 24.9726 133.179 24.435 131.544 24.3682ZM73.3119 24.835C74.2927 24.8734 75.2667 25.1885 76.0951 25.8018C78.3001 27.4431 78.7737 30.6866 77.14 32.8897C75.5083 35.1062 72.2532 35.5857 70.0482 33.9444C67.847 32.3088 67.3638 29.0634 68.9974 26.8546C70.0244 25.4765 71.6771 24.771 73.3119 24.835ZM131.364 27.831C132.343 27.8699 133.316 28.1852 134.143 28.7978C136.346 30.4295 136.829 33.6864 135.194 35.8876C133.555 38.0907 130.309 38.574 128.098 36.9403C125.895 35.2971 125.418 32.0497 127.053 29.8505C128.08 28.47 129.732 27.7661 131.364 27.831ZM53.4599 32.181C52.7894 32.1974 52.0735 32.3508 51.3544 32.6342C51.1626 32.7051 50.2294 33.1149 49.495 33.6518L49.4422 33.6967L44.9617 36.9526C45.5331 37.083 46.185 37.3137 46.6414 37.9291V37.9311L54.4363 48.7791C54.63 49.1876 54.7569 49.6997 54.6629 50.2615L58.6531 47.367C57.8842 47.298 57.4543 46.8459 56.9539 46.2322L53.5769 41.5818L62.3347 44.6853L66.0808 41.9568C65.4672 41.9242 64.7195 41.7866 63.8835 41.5584L58.1085 39.5844L58.2165 39.3014C58.9135 37.5274 58.5795 36.2324 58.5055 35.9924C58.3325 35.4114 58.0545 34.8574 57.6695 34.3474C57.1633 33.6418 56.5411 33.1006 55.8336 32.7478L55.732 32.6951C55.165 32.4301 54.659 32.2811 54.113 32.2101C53.9012 32.1847 53.6822 32.1753 53.4587 32.1808L53.4599 32.181ZM53.3329 35.6302C53.6635 35.6337 53.983 35.7289 54.3095 35.9115C54.9 36.2413 55.1441 36.9931 55.1767 37.1791C55.1997 37.3095 55.3456 38.4973 53.9267 39.5365L52.7177 40.4174L50.3661 37.2104L51.495 36.3783C52.1996 35.8702 52.782 35.6244 53.3329 35.6302ZM149.729 39.8665C132.723 59.5945 85.2989 59.3495 73.0219 63.3805C64.9611 66.0227 60.8259 70.4106 57.9709 74.7515C57.6891 79.221 60.9348 83.4878 64.7678 83.4878C64.7678 83.4878 63.7624 80.9515 65.0471 78.3726C65.5514 77.3775 66.4764 76.4602 67.7131 75.7085C77.1777 69.2219 97.4571 75.8062 97.4571 75.8062C92.6846 75.3748 88.7606 75.4609 85.4471 75.9039C91.0651 77.643 97.0721 80.0199 101.142 81.0055C106.16 82.2269 109.477 82.8546 114.462 83.1422L114.304 81.1774L117.07 81.6481L124.462 82.9176L125.548 80.1461L126.749 77.0992L129.095 79.3844C129.147 79.4343 132.781 82.9696 134.683 84.8199C134.349 81.3379 133.491 72.4759 133.482 72.3809L133.134 68.8047L136.466 70.1485L140.107 71.6192L145.552 62.6915L147.411 59.6603L149.271 62.6915L153.673 69.8907C155.211 63.6437 156.313 57.0287 159.525 53.9547C156.303 54.0735 154.039 54.9868 150.519 57.4469C152.515 52.0532 155.464 48.0491 159.452 43.4699C155.575 44.0585 151.879 45.1705 148.247 47.2394C149.634 43.9434 149.728 39.8664 149.728 39.8664L149.729 39.8665ZM40.1389 46.4215C37.4127 46.3117 34.6699 47.513 32.9143 49.8727C30.1149 53.6539 30.8922 58.9794 34.637 61.7747C38.3875 64.5569 43.7146 63.7395 46.518 59.9602C49.3213 56.1771 48.5576 50.846 44.8129 48.0692C43.405 47.0259 41.7746 46.4873 40.1389 46.4215ZM39.9592 49.8766C40.939 49.9151 41.9099 50.2306 42.7346 50.8454C44.9492 52.4867 45.421 55.7301 43.7893 57.9313C42.1537 60.144 38.9026 60.6291 36.7014 58.9801C34.4944 57.3541 34.013 54.0992 35.6448 51.8942C36.6718 50.5184 38.3262 49.8125 39.9592 49.8766ZM25.3212 62.2376L20.8092 73.2706L24.0552 75.3686C23.8635 74.4617 24.0026 73.8213 24.3248 72.9565L25.2466 70.6928L35.8036 75.0092C36.6569 75.3563 37.0867 75.8307 37.2899 76.4194L39.2157 71.7241C38.6367 71.9677 37.9145 72.0235 37.1591 71.7124L26.6001 67.3862L27.6353 64.8706C27.9977 63.9809 28.6545 63.3913 29.1607 63.0347L25.3212 62.2376ZM38.6962 118.033C38.6962 119.022 38.2357 119.971 36.9989 120.523L22.0869 127.591C20.691 128.228 19.5877 128.088 18.6865 127.156L22.3271 134.843C25.2684 141.019 30.1155 140.721 32.2822 139.701V139.691C33.9504 138.904 35.1709 137.563 35.5927 135.556C35.5927 135.556 37.1709 136.293 39.4833 135.2H39.4931V135.196C42.8754 133.588 44.0897 129.346 42.2509 125.521L38.6962 118.033ZM38.3954 122.203L40.3974 126.413C41.6706 129.109 40.8445 132.077 38.5263 133.179C37.1496 133.835 35.7421 133.599 34.2197 132.472L34.0557 132.339L34.0791 132.544C34.3687 134.724 33.3282 136.65 31.2881 137.618C28.5539 138.917 25.9066 137.553 24.1943 133.958L22.2509 129.857L38.3954 122.203ZM37.9365 123.48L31.6631 126.457L33.251 129.794C34.3497 132.115 36.356 133.148 38.1162 132.318C39.9665 131.442 40.5867 129.023 39.5244 126.822L37.9365 123.48ZM159.686 124.296L159.175 124.359C157.014 124.648 154.604 126.37 153.427 128.453C152.545 130.04 152.135 131.602 152.222 133.095C152.331 135.103 153.266 136.799 154.931 138.001C155.165 138.163 155.412 138.327 155.681 138.478C159.59 140.677 162.063 138.464 164.05 136.685L164.21 136.537C165.83 135.091 166.973 134.368 168.067 134.988C168.742 135.362 169.064 136.616 168.489 137.732C168.016 138.646 167.325 138.999 167.108 139.099C165.964 139.709 164.137 138.917 164.114 138.917L164.081 138.894L164.878 141.662H164.911C165.638 141.742 166.886 141.441 166.903 141.441H166.911C168.365 141.119 169.492 140.269 170.253 138.906C170.286 138.852 170.31 138.798 170.331 138.759L170.37 138.691C171.557 136.534 171.074 134.122 169.232 133.072C167.782 132.253 166.506 132.231 165.316 133.017C164.294 133.686 163.046 134.748 163.036 134.767C160.981 136.575 159.216 137.865 156.784 136.535C155.615 135.898 154.809 134.942 154.464 133.773C154.09 132.44 154.325 130.926 155.165 129.497C155.614 128.742 157.298 126.274 160.425 126.349H160.444L159.706 124.306V124.296L159.686 124.296ZM36.9765 126.285L37.6542 127.712C38.1604 128.784 38.0225 129.818 37.1366 130.238C36.0418 130.754 35.1929 129.723 34.8593 129.035L34.1835 127.601L36.9765 126.285ZM30.789 126.863L23.5292 130.312L25.0663 133.544C25.9234 135.362 27.8224 138.207 30.8749 136.753C34.3128 135.125 33.0356 131.6 32.328 130.099L30.789 126.863ZM160.779 127.293C159.847 127.272 157.525 127.483 155.947 130.064C154.601 132.264 155.165 134.499 157.31 135.711C159.352 136.857 160.858 135.507 162.191 134.308L162.263 134.252L162.865 133.756C162.982 133.66 163.09 133.564 163.201 133.469C164.434 132.414 165.592 131.417 167.303 131.476C167.431 131.476 168.568 131.545 169.633 132.199C170.716 132.847 171.423 133.735 171.724 134.818C172.135 136.27 171.909 137.871 171.096 139.334C170.223 140.872 168.844 141.923 167.205 142.31C166.505 142.471 166.1 142.51 165.174 142.553H165.154L165.812 144.842H165.832C170.087 144.638 172.156 141.525 172.682 140.57C172.791 140.386 172.844 140.265 172.844 140.265C173.684 138.764 174.078 137.159 173.998 135.625C173.864 133.351 172.663 131.401 170.697 130.299C166.107 127.71 162.889 130.75 161.342 132.213L161.275 132.275C159.768 133.694 159.053 134.048 158.342 133.711C158.183 133.636 158.097 133.577 157.976 133.498C157.196 132.948 157.104 131.963 157.785 130.91C157.931 130.682 159.276 128.74 161.738 129.978L161.779 129.998L160.803 127.293L160.779 127.293ZM30.089 129.525L30.7237 130.851C31.5616 132.638 31.2834 133.647 30.712 134.199C30.4896 134.412 30.0691 134.67 29.7355 134.705C28.8343 134.812 27.9703 134.878 26.9425 132.644L26.3077 131.31L30.089 129.525ZM47.021 134.865C47.3009 135.774 47.126 136.739 46.0522 137.73C46.0522 137.734 46.0116 137.774 45.9311 137.84C45.9043 137.87 34.9791 147.605 33.7011 148.74C32.5833 149.673 31.5846 149.687 30.3613 149.257L39.6425 159.679L41.4101 158.568L34.5273 150.837L49.4273 137.569L47.021 134.865ZM149.651 136.476L146.965 139.054L151.692 153.234L157.588 159.365L157.608 159.354L160.44 156.629C159.217 157.058 158.305 156.842 157.434 156.109H157.43L153.604 152.176L149.436 139.787C149.327 139.334 148.988 138.578 149.651 136.476ZM50.061 138.289L35.893 150.92L42.2328 158.035L45.2367 156.178C45.2367 156.178 43.2816 156.075 41.7055 154.344L41.6391 154.265C41.6391 154.265 39.8892 152.3 38.8461 151.137C40.2631 149.867 48.1185 142.855 49.4241 141.707C49.4279 141.707 49.4282 141.707 49.4377 141.697C49.4627 141.678 49.4911 141.651 49.5256 141.623C49.5256 141.623 51.3205 140.288 52.4748 140.996L50.0803 138.304L50.061 138.289ZM146.194 139.806L142.842 143.031C143.692 142.644 144.216 142.702 144.452 142.769C144.622 142.867 144.948 142.986 145.354 144.113L147.288 149.355L142.153 147.248C141.353 146.839 141.026 146.318 141.026 146.318C140.706 145.747 140.984 145.134 141.141 144.672L137.836 147.842L137.768 147.914L150.541 152.73L146.194 139.806ZM56.915 146.338C57.4959 147.367 57.549 148.109 56.7763 149.355C56.7667 149.357 49.9443 160.125 49.9443 160.125C47.6357 163.822 48.7624 167.673 52.9423 170.342C57.036 172.956 61.3082 172.492 63.6493 168.811L70.4696 158.045C71.2136 156.916 72.1289 156.496 73.1337 156.615L70.0985 154.693L62.0633 167.359C61.9502 167.532 61.7567 167.832 61.7567 167.832C60.3531 170.058 56.949 170.416 54.1669 168.645C53.2062 168.037 52.4481 167.254 51.9208 166.397C51.8997 166.364 51.8756 166.341 51.8622 166.305C50.8996 164.704 50.7403 162.835 51.6395 161.41C51.6395 161.41 51.7023 161.302 51.9305 160.939L59.9676 148.271L56.915 146.338ZM137.009 148.646L134.388 151.16C135.849 150.675 136.397 150.774 137.601 151.131L149.869 155.777L153.365 159.445C154.46 160.526 154.415 161.818 154.06 162.773L156.908 160.025L151.011 153.904L137.009 148.646ZM60.773 148.785L52.6168 161.652C51.3513 163.642 52.2854 166.379 54.6285 167.863C56.9678 169.345 59.8051 169.095 61.1051 167.08L69.2809 154.18L66.2301 152.234C66.9069 153.331 66.7778 154.178 66.0894 155.262C66.0894 155.262 61.7497 162.106 59.4507 165.723C58.7298 166.773 57.0667 166.961 55.7456 166.125C54.436 165.295 53.8961 163.694 54.5308 162.598C55.2691 161.428 61.0079 152.375 61.0386 152.34C61.1153 152.205 61.1558 152.138 61.1558 152.138C61.7924 151.149 62.5968 150.665 63.8355 150.73L60.773 148.785ZM127.115 152.638L128.353 175.054C128.324 177.188 127.995 178.409 127.429 179.185L130.652 177.49L129.265 156.703L145.626 169.609L148.699 167.984C147.433 167.949 146.22 167.189 144.953 166.339L127.113 152.639L127.115 152.638ZM76.469 157.916C77.2436 158.627 77.714 159.68 77.4436 160.847C73.5882 177.07 73.6209 176.929 73.5998 177.023C73.362 177.884 72.6975 179.072 71.1291 179.26L85.6721 182.715L86.5022 180.785L75.4982 178.185L79.6271 160.785L90.0331 163.266L90.1756 161.174L76.469 157.916ZM130.315 158.715L130.987 168.496L138.012 164.802L130.315 158.715ZM118.711 158.789L115.213 159.656L118.834 174.252C118.834 174.252 119.552 176.372 118.438 178.1C117.64 179.325 116.396 180.25 114.699 180.678C113.115 181.067 111.218 180.891 109.803 179.945C109.18 179.52 108.876 179.26 108.211 178.617L106.975 180.686C110.668 184.258 115.225 182.697 115.225 182.697C116.912 182.277 118.375 181.461 119.447 180.33C120.872 178.833 121.434 176.899 121.154 174.922C121.154 174.882 121.032 174.276 120.984 174.107L117.9 161.687C117.548 160.159 118.711 158.789 118.711 158.789ZM114.281 159.894L110.779 160.756C111.539 160.88 112.562 161.697 112.863 162.941L115.914 175.265C116.192 176.419 115.27 177.447 114.129 177.761C112.988 178.087 112.087 177.73 112.059 177.722C110.791 177.287 110.166 175.32 110.166 175.32L108.685 177.822C109.265 178.487 110.517 179.304 110.517 179.304C112.191 180.33 113.967 179.925 114.523 179.787C116.709 179.246 118.59 177.296 117.998 174.867C117.998 174.846 114.281 159.894 114.281 159.894ZM80.3403 161.947L78.7114 168.787L87.0805 170.771L87.7875 167.81C87.7875 167.81 86.8136 168.881 85.0687 168.476L81.1878 167.55L81.9261 164.445L86.598 165.554C89.1424 166.17 89.7542 167.541 89.7542 167.541L89.9807 164.234L80.3403 161.947ZM132.401 162.683L134.702 164.533L132.628 165.619L132.401 162.683ZM138.806 165.466L131.093 169.529L131.573 177.007L131.642 176.972L135.239 175.074C134.392 174.949 133.64 174.195 133.436 173.019L133.259 170.394L138.278 167.754L140.47 169.457C141.024 169.911 141.887 170.798 140.995 172.043L144.63 170.13L144.704 170.099L138.806 165.466ZM78.5846 169.748L76.7487 177.488L86.8967 179.884L88.3088 176.615C87.4919 177.1 86.5692 177.625 84.6076 177.216C84.5673 177.216 79.3029 175.966 79.3029 175.966L80.2501 171.968L83.9747 172.851L84.0314 172.865C85.7801 173.344 86.1642 174.638 86.1642 174.638L86.8653 171.713L78.5846 169.748Z" fill="#134A8E"/>
<path d="M98.1814 40.5477C82.8024 40.6912 67.5044 46.8763 56.1584 58.9797C50.6458 64.8815 46.5783 71.6177 43.9574 78.7377C45.1462 78.5249 46.3555 78.3081 47.5941 78.103C49.153 74.2701 51.1537 70.5694 53.6214 67.085C53.6214 67.0984 53.6312 67.1144 53.6312 67.124C53.6427 67.1432 53.6647 67.1655 53.6781 67.1904C53.7739 67.1041 53.8733 67.0149 53.975 66.9229C54.2491 66.6832 54.5151 66.4359 54.7835 66.1924C54.7586 66.1464 54.7323 66.0938 54.7054 66.042C54.6536 65.9557 54.6126 65.8665 54.5589 65.7803C54.9999 65.2146 55.4384 64.6411 55.889 64.0869C55.9753 64.1885 56.0387 64.29 56.1039 64.3955C56.2113 64.5604 56.3065 64.7205 56.3851 64.8701C56.7801 64.5575 57.1894 64.2452 57.5863 63.9365C57.4061 63.5607 57.1811 63.2037 56.9203 62.8701C57.137 62.6131 57.3737 62.3653 57.6 62.1064C57.8876 61.7881 58.1698 61.4541 58.4594 61.1396H58.4653C58.473 61.1396 58.4731 61.1398 58.4731 61.1318C58.916 61.6438 59.2051 62.1756 59.395 62.6377C59.7516 62.4019 60.1047 62.1628 60.4595 61.9385C60.5342 61.8867 60.5996 61.84 60.6782 61.7959C60.473 61.3166 60.2154 60.8521 59.9048 60.4111C59.7918 60.2711 59.6878 60.1251 59.5748 59.9931C60.0637 59.5003 60.5568 59.0234 61.0611 58.5536C61.1914 58.4386 61.3057 58.317 61.4361 58.1981C62.2337 58.9785 62.6176 59.8183 62.8209 60.5067C63.3175 60.2191 63.8227 59.9509 64.3385 59.6786C64.1851 59.2491 63.9844 58.831 63.7467 58.411C63.5511 58.0927 63.3279 57.7942 63.0767 57.5009C62.9598 57.3609 62.8341 57.2113 62.7037 57.0809C63.2847 56.5652 63.8848 56.0701 64.4869 55.5965C64.6786 55.771 64.8393 55.9397 64.9908 56.1161C65.3379 56.513 65.6055 56.9082 65.7857 57.286C66.012 57.7481 66.1307 58.1777 66.1959 58.5536C66.2036 58.6265 66.2175 58.6936 66.2271 58.7684C66.2482 58.7473 66.2724 58.7429 66.2916 58.7352C66.817 58.484 67.3564 58.2527 67.901 58.036C67.9259 58.026 67.9463 58.0123 67.9674 58.0008C67.9348 57.8148 67.8941 57.628 67.8404 57.4325C67.5509 56.3415 66.9386 55.2569 66.022 54.4266V54.4168C66.4017 54.1464 66.7772 53.8786 67.1587 53.6101C67.5576 53.3244 67.9672 53.0543 68.3775 52.782C68.3008 52.9469 68.2158 53.1044 68.1295 53.2195C69.8168 54.7688 70.117 56.2452 70.0729 57.2058C70.7171 56.9853 71.3627 56.7805 72.0299 56.5984C72.005 55.9733 71.8636 55.3309 71.6393 54.7078C71.3958 54.0616 71.0425 53.4277 70.567 52.8601C70.4596 52.7316 70.3419 52.6018 70.2135 52.4734C70.2863 52.2797 70.3731 52.0203 70.4498 51.7097C70.4709 51.6177 70.5049 51.5301 70.526 51.4284C71.5883 50.7976 72.6754 50.2032 73.778 49.6491C73.4788 50.5062 73.1348 51.2675 72.7916 51.6452C74.4661 53.5473 74.51 54.9749 74.2838 55.8972L74.2662 55.9734V56.0027C74.9431 55.8474 75.6169 55.7153 76.3033 55.5965C76.5085 54.1584 76.081 52.4947 74.942 51.1199C74.9631 51.0873 74.9756 51.043 74.9967 51.0066C75.0197 50.9683 75.0283 50.9355 75.0475 50.8894C75.2949 50.3468 75.601 49.4966 75.8502 48.6453C76.7687 48.2292 77.7033 47.8534 78.6275 47.4891C78.9267 47.3664 79.2386 47.241 79.5397 47.1336C79.1523 48.261 78.6156 49.5273 78.0788 50.2176C78.004 50.3135 77.9251 50.4064 77.8522 50.4754C78.8627 51.5607 79.3138 52.86 79.4538 53.9012V53.9735V53.9813C79.5094 54.4587 79.4979 54.8716 79.4538 55.1708C80.0463 55.1133 80.6547 55.0842 81.2702 55.0517C81.3316 55.0457 81.3905 55.0454 81.4518 55.038C81.5477 54.5126 81.5738 53.9334 81.5143 53.3525C81.4741 52.8597 81.3664 52.3633 81.1862 51.8935C80.935 51.2857 80.5594 50.7329 80.0436 50.2919C80.5057 49.4981 81.2452 47.6709 81.5827 46.4169C92.5197 42.8505 104.388 42.7863 115.401 46.2606C115.451 46.2836 115.497 46.2846 115.549 46.3095C115.645 46.344 115.744 46.3744 115.84 46.4032C118.837 47.3811 121.774 48.6284 124.606 50.1298C125.969 49.6984 127.302 49.2595 128.623 48.7782C119.263 43.1791 108.702 40.4496 98.1804 40.5477L98.1814 40.5477ZM85.9624 46.3641C85.2971 47.737 84.2443 49.652 83.4409 50.2176C84.8464 52.1926 84.8993 54.1136 84.5542 55.0321C85.2023 55.0609 85.8539 55.0994 86.5308 55.1454C86.9737 53.646 86.8772 51.6998 85.7593 50.3231C86.3269 49.6156 87.2709 47.777 87.7886 46.5575C87.175 46.4789 86.5626 46.414 85.9624 46.3641ZM91.9116 47.2411C91.0986 48.4452 89.8166 50.0369 89.0132 50.6063C89.1743 50.8421 89.3223 51.0776 89.4566 51.3211C90.3769 52.9969 90.452 54.7286 90.2066 55.6356C90.8393 55.7411 91.4721 55.8487 92.0953 55.9618C92.5152 54.4183 92.2475 52.3448 91.0875 50.9911C91.6569 50.2797 93.0862 48.7412 93.7496 47.5946C93.1494 47.4795 92.5252 47.3638 91.9116 47.2411ZM97.1362 48.3466C96.4114 49.5296 95.2644 51.0654 94.4936 51.7001C95.5635 52.9982 96.017 54.71 96.1225 55.9755C96.7687 55.8796 97.4357 55.7842 98.101 55.6864C98.0224 54.3653 97.6041 52.9769 96.7221 52.1083C97.2302 51.3548 98.315 49.9153 98.8979 48.7782C98.315 48.6363 97.7344 48.4961 97.1362 48.3466ZM102.58 49.7665C101.951 50.8613 100.884 52.2248 100.132 52.9227C100.732 53.5669 101.106 54.3717 101.353 55.2C101.959 55.1003 102.562 55.0068 103.169 54.909C102.947 54.3836 102.645 53.9005 102.257 53.5496C102.719 52.7653 103.763 51.4091 104.3 50.2605C103.729 50.0994 103.159 49.9256 102.58 49.7665ZM108.056 51.4423C107.585 52.2188 106.874 53.1252 106.199 53.8193C105.976 54.0513 105.746 54.2659 105.545 54.4404C105.545 54.4634 105.574 54.4837 105.588 54.5048C106.544 54.338 107.508 54.1714 108.466 53.995C108.925 53.3719 109.419 52.6758 109.732 52.0009C109.184 51.8092 108.616 51.6283 108.056 51.4423ZM147.41 63.8373L143.131 70.8334L140.982 74.3217L135.643 72.1674C135.662 72.1962 136.816 84.2384 136.977 85.8274C137 86.1399 136.998 86.4199 136.977 86.6692C136.942 87.0738 136.857 87.3962 136.725 87.6321C136.51 88.0041 136.177 88.1828 135.791 88.1828C135.707 88.1828 135.612 88.1689 135.526 88.1497C135.322 88.1171 135.125 88.0305 134.918 87.925C134.684 87.7947 134.461 87.634 134.246 87.425C134.214 87.4039 134.191 87.3756 134.151 87.343C133.096 86.3229 127.572 80.9504 127.572 80.9504L125.836 85.3664L116.699 83.7961L117.531 93.8391L115.49 94.5403L113.973 95.0579L133.364 111.781L130.194 115.607L131.299 115.509L146.01 114.316L147.407 116.994L147.854 116.136L148.803 114.316L151.635 114.544L154.848 114.81L164.626 115.607L161.45 111.781L180.845 95.0577L179.062 94.4464L177.29 93.839H177.294L178.113 83.796L168.99 85.3663L167.247 80.9503C167.247 80.9503 161.716 86.3228 160.663 87.3429C160.635 87.3755 160.602 87.4038 160.577 87.4249C160.067 87.9004 159.506 88.1827 159.023 88.1827C158.927 88.1827 158.838 88.18 158.751 88.1495C158.13 87.9981 157.72 87.2788 157.849 85.8272C157.87 85.5511 157.932 84.9554 158.009 84.1827C158.371 80.4457 159.171 72.1957 159.171 72.1667L153.831 74.321L147.411 63.837L147.41 63.8373ZM40.9302 106.722C42.6636 119.548 48.6569 131.9 58.8362 141.441C67.8481 149.884 78.8212 154.913 90.1642 156.58C89.6561 155.437 89.1209 154.291 88.5802 153.121C80.2164 151.566 72.1162 148.064 65.0332 142.582C65.2595 141.349 65.5617 140.34 65.9355 140.035C66.0333 139.941 66.1329 139.915 66.2402 139.93C65.1358 138.233 65.2104 135.801 65.5 134.633C65.3715 134.576 65.2498 134.515 65.1348 134.463C64.7283 134.275 64.3286 134.092 63.9336 133.904C63.4331 135.402 63.5865 137.576 64.459 139.131C63.9604 139.936 63.7061 140.605 63.5527 141.397C63.3744 141.241 63.198 141.087 63.0273 140.942C62.4463 140.457 61.8842 139.961 61.33 139.446C61.2207 139.348 61.1054 139.25 60.998 139.147C60.9884 139.143 60.9882 139.143 60.9882 139.131C60.9767 139.123 60.9686 139.123 60.9667 139.113C61.147 138.642 61.3512 138.229 61.5468 138.016C61.5641 137.993 61.5882 137.98 61.6093 137.953C61.6246 137.94 61.6429 137.918 61.664 137.906C61.6717 137.9 61.6799 137.896 61.6952 137.887C61.7182 137.873 61.7504 137.867 61.7734 137.856C61.8117 137.846 61.856 137.854 61.8886 137.866C61.7256 137.544 61.5999 137.219 61.5117 136.885C61.1512 135.685 61.2027 134.464 61.3925 133.549C61.4615 133.216 61.5466 132.916 61.6425 132.688C61.1325 132.398 60.6315 132.106 60.1484 131.803C59.4275 133.222 59.2402 135.163 60.1816 136.836C60.1049 136.961 60.0319 137.103 59.9629 137.245C59.9456 137.277 59.9236 137.308 59.914 137.348C59.8258 137.509 59.7505 137.68 59.6738 137.866C59.3018 137.49 58.9348 137.113 58.58 136.731C58.2138 136.353 57.8626 135.966 57.5175 135.577C57.552 135.534 57.5904 135.502 57.6269 135.469C57.7132 135.396 57.7962 135.352 57.871 135.344C57.9113 135.344 57.9441 135.351 57.9882 135.373C57.4111 133.849 57.6158 132.257 57.9667 131.161C58.0434 130.936 58.1304 130.718 58.2128 130.54C57.8926 130.313 57.5799 130.08 57.2597 129.852C57.1044 129.737 56.9385 129.627 56.7851 129.52C56.2156 130.496 55.8779 131.699 56.037 132.946C56.0907 133.366 56.2082 133.776 56.3788 134.19V134.194C56.375 134.194 56.3671 134.204 56.3671 134.206C56.3594 134.216 56.3592 134.216 56.3554 134.227C55.8607 133.638 55.3762 133.032 54.9179 132.428C54.7012 132.15 54.4784 131.862 54.2636 131.573C54.254 130.534 54.5019 129.52 54.8183 128.684C54.8931 128.498 54.9701 128.314 55.0468 128.147C54.6173 127.802 54.1993 127.443 53.7851 127.083C53.3594 127.863 53.037 128.76 52.9296 129.68C52.4886 129.038 52.0687 128.381 51.6698 127.715C51.735 127.443 51.8221 127.177 51.9198 126.92C52.0579 126.522 52.2121 126.147 52.3827 125.805C51.9743 125.428 51.5865 125.046 51.1991 124.663C51.017 124.989 50.8663 125.341 50.7187 125.696C50.6861 125.782 50.6498 125.86 50.621 125.946C50.4772 125.693 50.3508 125.439 50.2108 125.182C50.0498 124.895 49.8916 124.599 49.7401 124.311C49.8724 124.066 50.0103 123.839 50.1483 123.633C49.7936 123.204 49.4526 122.786 49.1171 122.354C49.0865 122.39 49.0523 122.429 49.0293 122.471C48.9871 122.538 48.9466 122.59 48.9121 122.655C46.5997 117.79 45.0356 112.665 44.2187 107.436C43.1028 107.212 42.0059 106.97 40.9302 106.722ZM150.97 116.685C150.449 118.196 149.878 119.691 149.224 121.173C148.419 123.01 147.494 124.81 146.474 126.574C146.022 125.621 145.897 124.678 145.837 123.955C145.324 123.974 144.798 124.002 144.273 124.039C144.38 124.879 144.554 125.654 144.835 126.383C145.046 126.919 145.306 127.443 145.636 127.963C143.746 131 141.534 133.906 138.99 136.619C132.448 143.602 124.518 148.489 116.031 151.285C115.172 152.594 114.304 153.94 113.431 155.33C123.752 152.655 133.463 147.127 141.288 138.766C147.345 132.312 151.637 124.838 154.204 116.94L150.97 116.685ZM142.029 124.24C141.511 124.297 140.984 124.362 140.459 124.437C140.715 126.017 141.328 127.048 142.101 128.381C141.503 129.431 140.811 130.969 140.359 132.17C140.93 132.064 141.488 131.969 142.046 131.894C142.564 130.617 143.219 129.186 143.757 128.174C142.521 126.735 142.178 125.229 142.029 124.24ZM137.214 125.062C136.731 125.53 136.212 126.049 135.656 126.619C136.022 127.585 136.609 128.361 137.537 129.121C137.422 129.357 137.298 129.644 137.162 129.959C136.77 130.894 136.322 132.106 135.997 133.117C136.653 132.956 137.31 132.804 137.954 132.654C138.503 131.231 139.158 129.627 139.589 128.726C137.889 127.645 137.406 126.057 137.214 125.062ZM133.306 129.078C132.984 129.423 132.651 129.796 132.304 130.173C132.415 130.239 132.533 130.301 132.652 130.355C132.245 131.492 131.727 132.933 131.384 134.375C131.996 134.202 132.626 134.02 133.251 133.839C133.7 132.346 134.262 130.69 134.734 129.789C134.166 129.628 133.701 129.381 133.306 129.078ZM68.4211 135.791C67.9609 137.491 68.0576 140.037 69.5168 141.195C68.9147 142.123 68.7027 143.15 68.6145 144.937C69.1744 145.115 69.7404 145.28 70.3118 145.425C70.5265 143.103 70.8402 141.668 71.5266 141.777C70.0348 140.701 69.9784 137.748 70.2219 136.381C69.6121 136.2 69.0155 136.007 68.4211 135.791ZM73.0949 137.134C72.8361 138.661 73.0887 140.844 74.2668 142.045C74.4375 142.215 74.6241 142.364 74.8254 142.496C74.3633 143.42 74.2826 144.687 74.3957 146.33C74.9863 146.428 75.5983 146.517 76.2004 146.578C76.1467 144.568 76.2855 142.768 76.9719 142.787C75.158 141.508 74.8688 138.8 74.9973 137.509C74.3549 137.393 73.7161 137.267 73.0949 137.134ZM78.4347 137.927C78.4098 139.713 79.1179 142.248 80.882 143.011C80.5925 144.179 80.5938 145.515 80.8488 147.052C81.4528 147.041 82.0516 147.029 82.6633 147C82.4505 145.224 82.3866 143 83.05 142.935C81.1383 141.86 80.4589 139.339 80.3898 138.037C79.7341 138.016 79.079 137.985 78.4347 137.927Z" fill="#E8291C"/>
</svg>
