<svg width="127" height="258" viewBox="0 0 127 258" fill="none" xmlns="http://www.w3.org/2000/svg">
<g clip-path="url(#clip0_109_72)">
<path fill-rule="evenodd" clip-rule="evenodd" d="M66.8165 1.09103L63.7968 7.7194C61.2564 13.2806 60.0527 19.1135 59.4571 25.088C58.8797 30.9345 58.8797 37.0889 58.8493 43.5675L58.3728 95.0853C39.7878 102.786 22.4309 113.947 12.1172 122.444C11.8862 122.808 6.89293 130.522 4.05498 134.922C7.97497 133.955 17.9953 131.484 17.9953 131.484L14.7571 135.567C-4.86107 160.206 1.90247 175.921 2.73484 177.635L2.78233 177.73L2.82031 177.825C4.85628 183.519 9.54058 187.881 16.7607 190.768C21.5072 192.658 27.3754 193.413 34.699 193.066C42.065 192.726 49.8 191.104 57.5184 188.612L57.4805 193.665C50.8623 197.275 45.5296 203.588 42.6854 211.185C41.6036 214.163 40.9218 217.345 40.7577 220.615C40.7334 221.149 40.7432 222.958 40.5488 225.42C40.3604 227.741 39.9786 230.673 39.1338 233.615L38.6685 235.276L36.9212 239.369C37.0914 240.062 41.8211 238.473 43.9483 237.707C44.2704 237.592 44.744 237.389 45.3822 237.043C46.5126 236.411 47.9833 235.372 49.7884 233.634C50.8823 232.576 51.8677 231.359 52.6942 230.253C53.4964 229.183 54.2375 228.121 54.8878 227.233C55.8176 225.951 56.6837 224.66 57.5467 223.444L57.6132 234.403L57.6511 241.686V243.642C57.3229 244.11 56.9283 244.721 56.5211 245.475C55.5426 247.274 53.1454 253.123 52.8841 256.405C52.8233 257.189 55.1388 257.074 58.5055 256.88C58.9674 256.862 59.631 256.799 60.4332 256.69C61.9769 256.483 64.0565 256.102 66.1592 255.446C69.9272 254.273 75.9659 251.571 76.8046 245.494L77.1084 243.338L77.2414 242.236C84.6987 235.363 86.7315 227.972 86.4335 221.791C86.3301 219.609 85.9286 217.605 85.4364 215.904L88.3327 216.398L91.7323 216.986L92.3306 213.577C94.3483 201.921 87.7382 192.249 74.611 190.34V183.665L74.6207 181.718C87.5235 175.507 99.4952 167.5 108.484 159.697L111.37 144.712C109.31 145.854 106.803 147.143 106.803 147.143L106.727 147.181C94.3408 152.608 83.062 156.914 74.6205 159.934L74.6395 112.187C76.7788 110.978 78.8755 109.921 80.8687 109.082C87.0619 106.469 91.8855 105.034 93.7452 105.502C95.605 105.964 95.0462 108.076 95.0462 108.076C94.4749 109.869 93.7745 111.703 92.5772 114.049C91.9087 115.367 87.5529 124.824 84.7144 130.391C93.466 125.396 112.25 113.33 125.937 105.35V97.6583C125.317 97.0323 124.133 95.8256 124.133 95.8256C111.996 84.2841 93.54 84.22 74.6375 89.4345L74.6472 42.6945C74.6773 36.2222 74.7459 30.0509 74.2293 24.3195C73.7091 18.4506 72.5568 12.7752 70.0237 7.6156L66.8148 1.08203L66.8165 1.09103ZM58.1087 124.187L57.7384 165.581C45.8566 169.173 39.1397 170.122 34.1498 168.962L34.0929 168.952L33.4281 168.752L33.3711 168.724C31.3899 167.952 30.8091 166.162 30.7787 165.22C30.4992 153.539 53.0025 129.226 53.2276 128.983C54.7287 127.372 56.3706 125.761 58.1087 124.187Z" fill="#FFB81C"/>
<path fill-rule="evenodd" clip-rule="evenodd" d="M94.9821 87.8199C88.4694 88.0125 81.5858 89.2496 74.6414 91.2005V102.073C88.8628 95.2607 105.046 93.2994 94.0705 114.807L123.005 97.0592C115.659 90.07 105.837 87.499 94.9821 87.8199ZM58.3556 96.9458C39.9466 104.664 22.8737 115.715 13.1919 123.725C19.3968 121.993 25.7349 120.629 32.0133 119.195C-37.0175 185.202 33.1509 211.471 107.476 148.681C81.2032 160.216 60.0529 166.619 60.0529 166.619C5.63734 183.558 23.0443 148.192 47.8892 121.728C49.6395 119.862 53.5743 116.11 58.2112 112.403L58.3556 96.9458Z" fill="#6F2633"/>
<path fill-rule="evenodd" clip-rule="evenodd" d="M106.963 158.499C87.9955 174.969 58.8538 190.23 34.6228 191.36C28.9464 191.627 22.7108 191.293 17.3869 189.172C10.1122 186.261 6.08279 182.055 4.36285 177.133C6.60546 180.086 10.0271 182.627 14.9134 184.584C20.2373 186.711 26.4789 187.039 32.1492 186.772C58.3007 185.55 90.1591 167.883 108.793 149.99L106.963 158.499ZM19.2224 129.423C15.4482 130.341 11.6255 131.289 8.20994 132.127C8.69006 131.495 12.2028 126.682 12.999 125.625C17.1682 124.658 21.4467 123.692 25.3302 122.792C23.4644 124.67 21.3738 126.913 19.2224 129.423ZM124.552 98.4302L124.631 104.508L88.901 126.125C89.29 125.736 93.3255 117.939 93.5564 117.392L124.552 98.4302ZM77.7415 102.911C76.7265 103.336 75.6812 103.823 74.6359 104.345V110.222C76.526 109.183 78.3918 108.265 80.2151 107.5C86.639 104.795 92.1391 103.075 95.1657 104.054C95.6155 96.8639 87.818 98.6629 77.7415 102.911ZM58.1914 115.179C54.9764 117.811 52.0044 120.558 49.5309 123.214C42.5357 130.738 26.3938 150.331 26.6369 160.633C26.7038 163.325 27.6579 165.209 29.2138 166.485C29.153 166.084 29.1226 165.665 29.1044 165.215C28.8613 154.92 45.0092 135.32 52.0044 127.802C53.8155 125.857 55.888 123.864 58.1306 121.901L58.1914 115.179ZM71.1607 193.421L71.1547 183.29C69.5441 184.019 67.9154 184.718 66.2866 185.38L66.2623 195.803C66.2562 197.833 62.9683 198.174 63.102 196.666L63.1628 186.602C62.4274 186.882 61.6859 187.155 60.9505 187.416L60.908 195.682L60.4947 195.967C54.0526 198.982 48.6983 204.932 46.0181 212.085C45.9877 212.17 45.9512 212.261 45.9209 212.352C44.9484 215.014 44.3468 217.846 44.2009 220.752C44.1462 221.845 44.2799 228.154 42.4567 234.529C42.4627 234.505 44.1462 234.25 47.3977 231.114C49.1967 229.382 50.8133 226.926 52.0956 225.158C55.0675 221.08 57.4439 216.917 60.9567 215.13L60.9809 218.782C61.0235 225.753 61.1207 244.673 61.1086 244.758C61.0842 244.861 58.1063 248.003 57.6869 253.394C57.6687 253.619 72.3398 252.579 73.3912 244.983C73.3912 244.983 70.5652 243.129 70.6563 243.062C91.3138 228.731 79.8273 211.532 79.8273 211.532C84.8291 212.249 87.6065 212.729 88.9314 212.96C90.7304 202.568 84.5556 194.017 71.1607 193.421ZM63.2053 247.681C63.2296 247.845 61.3456 248.988 59.65 251.595C60.3975 249.65 61.2788 247.693 62.5733 246.01C64.6822 246.472 67.0159 245.165 68.9668 244.314C66.396 247.559 64.8401 247.292 63.2053 247.681ZM62.9318 243.664L63.0473 213.969C63.2782 213.738 65.0711 212.912 65.7883 212.857L65.5391 243.378C65.533 244.642 62.9257 244.63 62.9318 243.664ZM69.0336 240.26C75.4636 224.787 70.7779 213.288 70.8387 213.088C78.782 214.255 81.4135 231.515 69.0336 240.26ZM77.3173 234.323C80.3499 227.893 81.2494 216.582 74.2299 211.532L76.6244 211.556C83.6683 217.196 80.5444 231.758 77.3173 234.323ZM86.4396 209.964C74.8863 206.804 61.376 209.636 55.2256 217.081C52.6791 220.132 50.4 224.635 45.9148 229.272C46.875 223.693 46.8264 221.882 46.9905 219.87C47.7137 210.948 52.363 203.437 61.6616 198.982H61.6798C61.6798 199.079 61.6738 199.17 61.6859 199.261C61.8682 200.726 63.9225 201.68 66.2866 201.389C68.1889 201.152 69.6839 200.179 70.1033 199.043C70.1094 199.03 70.1215 199.012 70.1337 198.994C73.4641 199.717 76.3996 201.462 77.682 203.473C71.6956 203.212 62.944 205.175 55.7482 213.501C65.6363 205.649 77.0013 205.606 84.2943 207.442C84.5434 203.072 78.5875 198.441 75.2874 196.624C81.2312 198.563 87.5883 203.753 86.4396 209.964ZM63.2806 163.801L63.858 60.0276L63.9857 33.0191C64.4901 33.9733 66.3741 37.7292 66.5443 51.0146L66.362 162.774C67.772 162.3 69.3764 161.753 71.1511 161.133L71.1997 42.6459C71.2665 29.9317 71.4975 18.3966 66.9333 9.11629C62.2718 19.3326 62.3569 30.8373 62.29 43.5575L61.2751 164.445C61.8221 164.275 62.4906 164.056 63.2806 163.801Z" fill="#041E42"/>
</g>
<defs>
<clipPath id="clip0_109_72">
<rect width="127" height="257.93" fill="white"/>
</clipPath>
</defs>
</svg>
