<svg width="263" height="263" viewBox="0 0 263 263" fill="none" xmlns="http://www.w3.org/2000/svg">
<g clip-path="url(#clip0_109_43)">
<path d="M262.68 131.304C262.687 157.284 254.989 182.682 240.56 204.286C226.131 225.891 205.619 242.73 181.618 252.675C157.618 262.621 131.206 265.225 105.726 260.158C80.2449 255.091 56.839 242.582 38.4687 224.211C20.0983 205.841 7.58862 182.435 2.52198 156.954C-2.54467 131.474 0.0593195 105.063 10.0046 81.0618C19.9498 57.0611 36.7895 36.549 58.3938 22.1199C79.998 7.69077 105.396 -0.00707358 131.376 4.87729e-06C166.199 0.00138656 199.596 13.8356 224.22 38.4596C248.844 63.0837 262.679 96.4806 262.68 131.304Z" fill="#BEC0C2"/>
<path d="M255.163 131.304C255.148 164.115 242.102 195.577 218.893 218.77C195.685 241.963 164.214 254.989 131.403 254.981C98.5923 254.974 67.1277 241.935 43.9294 218.731C20.7311 195.528 7.69885 164.06 7.69885 131.249C7.69885 98.4385 20.7311 66.9709 43.9294 43.7675C67.1277 20.5641 98.5923 7.52486 131.403 7.51758C164.214 7.5103 195.685 20.5355 218.893 43.7287C242.102 66.9218 255.148 98.3835 255.163 131.195C255.163 131.231 255.163 131.268 255.163 131.304Z" fill="#002D62"/>
<path d="M131.376 13.3164C108.037 13.3023 85.2182 20.2101 65.8059 33.1661C46.3935 46.1221 31.2595 64.5443 22.3183 86.1025C13.3771 107.661 11.0304 131.386 15.5749 154.278C20.1193 177.17 31.3509 198.201 47.8489 214.709C64.347 231.217 85.3702 242.461 108.26 247.019C131.149 251.578 154.876 249.245 176.44 240.317C198.003 231.389 216.434 216.266 229.402 196.862C242.37 177.457 249.292 154.643 249.292 131.304C249.3 100.022 236.882 70.0172 214.768 47.8906C192.655 25.7639 162.658 13.3273 131.376 13.3164Z" fill="#FDBB30"/>
<path d="M212.134 131.304C212.134 176.838 175.908 213.781 131.376 213.781C86.7009 213.781 50.6172 176.838 50.6172 131.304C50.6172 85.77 86.7009 48.8989 131.376 48.8989C175.979 48.8989 212.134 85.7701 212.134 131.304Z" fill="#002D62"/>
<path d="M206.98 131.304C206.98 173.903 173.187 208.411 131.376 208.411C89.6362 208.411 55.7721 173.903 55.7721 131.304C55.7721 88.7053 89.5646 54.1968 131.376 54.1968C173.187 54.1968 206.98 88.7053 206.98 131.304Z" fill="white"/>
<path d="M48.469 108.251L47.682 111.258L23.555 105.315L24.342 102.237L48.469 108.251Z" fill="#002D62"/>
<path d="M51.834 71.1648L62.216 79.1118L60.426 81.4738L40.737 66.3678L41.74 65.0078L55.987 68.7308L45.248 60.4968L47.038 58.1348L66.726 73.1698L65.795 74.6008L51.834 71.1648Z" fill="#002D62"/>
<path d="M77.2504 33.0049L82.1188 30.4991C84.1951 29.4252 86.7725 29.4968 88.1328 32.0742C91.2113 38.2313 92.6432 40.8803 95.7934 46.8942C96.0442 47.3979 96.1875 47.9483 96.2141 48.5103C96.2408 49.0724 96.1503 49.6338 95.9483 50.159C95.7463 50.6842 95.4372 51.1616 95.0408 51.5609C94.6444 51.9603 94.1692 52.2728 93.6455 52.4786L88.5623 55.056L77.2504 33.0049ZM90.209 51.1899L91.4977 50.474C92.0064 50.2727 92.4142 49.8776 92.6315 49.3756C92.8489 48.8736 92.8579 48.3058 92.6566 47.7971C92.6314 47.7334 92.603 47.6711 92.5716 47.6102C89.9942 42.5986 88.1327 39.0189 85.5553 33.9357C85.3325 33.4685 84.9332 33.1091 84.4453 32.9364C83.9574 32.7637 83.4209 32.7918 82.9538 33.0147C82.9134 33.0339 82.8737 33.0546 82.8348 33.0766L81.3313 33.8641L90.209 51.1899Z" fill="#002D62"/>
<path d="M128.226 43.6008L125.147 43.8158L123.715 18.9728L127.009 18.7578L128.226 43.6008Z" fill="#002D62"/>
<path d="M164.452 50.1875L165.526 45.3907L161.374 43.8156L158.868 48.0397L155.933 46.8942L169.178 25.3442L172.256 26.4897L167.531 51.3331L164.452 50.1875ZM167.889 33.2196L167.746 33.148L162.663 41.5246L166.028 42.7417L167.889 33.2196Z" fill="#002D62"/>
<path d="M201.395 59.853L191.802 68.874L189.725 66.726L207.839 49.687L208.913 50.832L202.97 64.435L212.922 55.056L214.926 57.204L196.813 74.243L195.668 73.026L201.395 59.853Z" fill="#002D62"/>
<path d="M213.781 106.103L218.148 103.884L216.716 99.6596L211.848 100.447L210.846 97.4401L235.975 94.0752L237.049 97.1538L214.855 109.253L213.781 106.103ZM229.174 98.1561L229.031 97.9413L219.365 99.3016L220.511 102.667L229.174 98.1561Z" fill="#002D62"/>
<path d="M32.5039 183.138L31.0004 180.275L52.9799 168.891L56.6312 175.836C57.3471 177.268 56.9892 178.342 55.9153 178.914C51.9776 180.919 49.9729 181.993 46.0353 184.069C45.7858 184.213 45.5082 184.302 45.2214 184.329C44.9346 184.356 44.6453 184.32 44.3734 184.225C44.1015 184.13 43.8534 183.977 43.6459 183.777C43.4385 183.577 43.2767 183.335 43.1715 183.067L40.952 178.771L32.5039 183.138ZM43.3146 177.482L45.1045 180.847L53.9106 176.194L52.1208 172.829L43.3146 177.482Z" fill="#002D62"/>
<path d="M65.2941 222.659L67.7283 218.363L64.1486 215.571L60.4973 218.792L58.0631 216.859L77.1072 200.25L79.6846 202.326L67.8715 224.663L65.2941 222.659ZM73.8139 207.481L73.6707 207.266L66.368 213.709L69.1602 215.929L73.8139 207.481Z" fill="#002D62"/>
<path d="M109.396 233.756L112.546 234.543L110.971 240.915C110.918 241.169 110.814 241.41 110.667 241.624C110.52 241.838 110.333 242.021 110.115 242.163C109.897 242.305 109.654 242.402 109.399 242.449C109.143 242.497 108.881 242.494 108.627 242.44C108.597 242.434 108.567 242.426 108.537 242.419C106.318 241.917 104.814 241.488 102.523 240.915C102.265 240.857 102.02 240.749 101.803 240.596C101.587 240.444 101.402 240.25 101.26 240.026C101.119 239.802 101.022 239.553 100.977 239.292C100.931 239.031 100.938 238.763 100.996 238.505C101.003 238.473 101.011 238.441 101.02 238.409C102.953 230.534 104.027 226.167 105.96 218.291C106.068 217.778 106.376 217.329 106.816 217.043C107.256 216.758 107.791 216.658 108.304 216.767C108.334 216.773 108.364 216.78 108.394 216.788C110.613 217.289 112.188 217.79 114.479 218.291C114.999 218.43 115.443 218.769 115.713 219.234C115.982 219.7 116.056 220.253 115.918 220.773L115.911 220.797L114.694 225.809L111.544 225.093L112.618 220.654L108.895 219.795L104.313 238.696L108.036 239.555L109.396 233.756Z" fill="#002D62"/>
<path d="M155.145 242.276L147.127 243.779L142.831 219.294L150.706 217.862L151.136 220.511L146.339 221.298L147.771 229.317L152.281 228.529L152.711 231.178L148.272 231.966L149.847 240.486L154.572 239.698L155.145 242.276Z" fill="#002D62"/>
<path d="M191.73 226.668L189.009 228.386L175.048 207.838L181.85 203.185C182.068 202.996 182.326 202.86 182.604 202.786C182.883 202.712 183.174 202.702 183.457 202.757C183.74 202.812 184.006 202.931 184.236 203.104C184.467 203.278 184.654 203.501 184.785 203.758C186.718 206.55 188.007 208.411 189.94 211.275C190.119 211.497 190.247 211.755 190.315 212.032C190.384 212.308 190.391 212.596 190.336 212.876C190.282 213.155 190.167 213.42 189.999 213.65C189.832 213.881 189.616 214.072 189.367 214.21L189.009 214.497L198.102 222.301L195.166 224.305L184.928 215.284L184.857 214.139L187.005 212.707L182.494 206.12L179.129 208.411L191.73 226.668Z" fill="#002D62"/>
<path d="M217.003 189.153L221.943 192.303L223.375 190.012L218.578 186.933L209.342 187.434C208.769 187.504 208.188 187.378 207.695 187.076C205.906 185.931 205.118 185.358 203.113 184.213C202.898 184.076 202.712 183.898 202.565 183.689C202.419 183.48 202.315 183.244 202.259 182.995C202.204 182.746 202.198 182.488 202.242 182.237C202.286 181.986 202.379 181.745 202.516 181.53L202.541 181.492C203.471 179.845 204.331 178.628 205.333 177.053C205.465 176.817 205.646 176.612 205.864 176.452C206.083 176.292 206.333 176.182 206.598 176.127C206.863 176.073 207.136 176.076 207.4 176.137C207.663 176.198 207.911 176.315 208.125 176.48L212.492 179.273L210.774 181.922L206.98 179.487L205.548 181.85L209.271 184.141L218.077 183.568C218.852 183.468 219.639 183.646 220.296 184.069C222.587 185.573 223.375 186.002 225.809 187.506C226.26 187.776 226.587 188.212 226.721 188.72C226.855 189.229 226.784 189.769 226.525 190.227C225.523 191.873 224.735 193.09 223.661 194.665C223.527 194.899 223.345 195.102 223.126 195.26C222.908 195.418 222.658 195.528 222.394 195.582C222.13 195.637 221.858 195.634 221.595 195.575C221.332 195.515 221.084 195.401 220.869 195.238L215.428 191.73L217.003 189.153Z" fill="#002D62"/>
<path d="M107.248 84.4816L86.7725 177.268H127.295C127.295 177.268 131.805 158.797 132.163 157.15H149.704C162.877 157.222 173.617 152.783 180.848 144.263C194.093 129.873 191.802 108.895 181.85 96.8675C178.347 92.621 173.937 89.2139 168.944 86.8969C163.951 84.58 158.502 83.4121 152.997 83.4793H107.463L107.248 84.4816Z" fill="#BEC0C2"/>
<path d="M129.228 153.499L124.36 173.617H91.3545L110.399 87.2738H152.926C157.9 87.1987 162.827 88.2478 167.34 90.3429C171.852 92.4379 175.833 95.5248 178.986 99.3733C188.437 110.757 189.367 129.729 178.055 141.972C171.111 150.062 160.873 153.713 149.704 153.57L129.228 153.499Z" fill="#002D62"/>
<path d="M105.96 107.034H124.574C126.722 107.034 129.013 108.752 128.082 111.544C127.437 113.329 126.981 115.177 126.722 117.057C126.579 118.417 128.154 119.348 129.013 119.348H167.03C167.746 119.348 168.104 119.133 168.104 118.775C168.119 117.959 168.047 117.142 167.889 116.341C167.746 115.554 167.674 115.339 166.958 115.339C162.233 115.339 160.3 113.191 155.288 110.041C150.348 106.819 143.046 104.958 136.745 104.958H106.246L105.96 107.034Z" fill="#FDBB30"/>
<path d="M129.013 131.591C128.347 130.083 127.797 128.528 127.367 126.937C126.937 125.004 125.219 123.429 122.283 123.429H102.308L102.881 121.209L167.674 121.281C168.247 121.281 168.175 121.567 168.104 122.283C168.104 122.999 167.889 124.288 167.817 125.076C167.746 125.935 167.101 125.72 166.529 125.72C164.483 125.666 162.467 126.214 160.73 127.295C158.081 129.371 152.281 132.951 149.131 133.882C145.623 134.884 132.808 138.893 129.013 131.591Z" fill="#FDBB30"/>
<path d="M98.8003 139.752H132.593C133.95 139.703 135.285 140.106 136.387 140.898C139.528 143.298 143.101 145.072 146.912 146.124C148.63 146.697 151.709 145.981 154.429 144.477C161.159 140.611 165.526 133.38 167.03 128.655C167.388 127.438 166.672 127.51 165.813 127.581C162.949 127.796 159.942 130.373 156.004 132.951C151.995 135.385 144.048 137.819 136.387 137.819H99.3015L98.8003 139.752Z" fill="#FDBB30"/>
<path d="M148.487 94.4332C149.51 94.2373 150.565 94.2863 151.565 94.5764C158.081 97.1538 164.094 103.812 166.672 110.9C167.173 112.332 167.316 113.119 166.672 113.191C163.736 113.549 162.448 112.045 158.868 109.754C155.483 107.439 151.766 105.652 147.843 104.456C143.475 103.096 135.6 102.81 134.669 102.81C133.667 102.81 133.738 102.38 134.168 101.951C138.042 98.0149 143.048 95.3868 148.487 94.4332Z" fill="#FDBB30"/>
<path d="M179.272 118.775C179.261 118.942 179.19 119.1 179.071 119.218C178.953 119.337 178.795 119.408 178.628 119.419H171.182C170.252 119.419 170.252 118.99 170.252 118.417C170.099 117.663 170.027 116.895 170.037 116.126C170.037 115.553 169.75 114.837 170.61 114.479C172.651 113.435 174.343 111.818 175.478 109.826C175.693 109.253 176.194 108.322 176.695 109.11C178.557 111.902 179.129 115.338 179.272 118.775Z" fill="#FDBB30"/>
<path d="M176.623 132.092C176.552 132.378 175.979 132.593 175.907 132.092C174.849 129.568 172.917 127.51 170.466 126.293C169.965 126.006 169.965 125.648 169.965 125.076C170.037 124.574 170.252 122.856 170.323 122.212C170.323 121.639 170.61 121.209 171.039 121.209H178.771C178.986 121.209 179.344 121.496 179.344 121.639C179.231 125.283 178.302 128.855 176.623 132.092Z" fill="#FDBB30"/>
<path d="M156.577 146.554C156.004 146.697 154.787 146.482 156.649 145.408C162.233 142.115 167.316 134.526 168.605 130.087C169.178 128.369 169.178 128.297 169.894 128.512C171.232 129.115 172.373 130.083 173.187 131.304C174.189 132.736 174.69 135.6 174.046 136.316C171.95 139.087 169.328 141.418 166.331 143.174C163.333 144.931 160.019 146.079 156.577 146.554Z" fill="#FDBB30"/>
<path d="M170.824 111.974C169.536 112.69 169.249 112.475 168.963 111.544C166.529 103.024 159.298 96.6524 156.362 94.7193C155.861 94.4329 155.933 94.1466 156.362 94.2182C163.378 95.2205 170.323 99.015 173.76 104.241C175.836 107.248 172.113 111.258 170.824 111.974Z" fill="#FDBB30"/>
</g>
<defs>
<clipPath id="clip0_109_43">
<rect width="262.68" height="262.68" fill="white"/>
</clipPath>
</defs>
</svg>
