<svg width="273" height="222" viewBox="0 0 273 222" fill="none" xmlns="http://www.w3.org/2000/svg">
<g clip-path="url(#clip0_110_79)">
<path d="M136.08 221.28L117.96 197.76C106.715 194.066 96.8374 187.081 89.6061 177.71C82.3748 168.34 78.1227 157.014 77.4 145.2L66.12 130.68C58.6934 134.062 51.5504 138.034 44.76 142.56L11.16 108.84L25.32 77.6399L0 44.6399H40.32L48.12 27.5999L68.16 19.5599L70.32 13.5599L86.52 20.8799L90.36 7.4399L93 6.5999C106.796 2.13063 121.219 -0.0976489 135.72 -0.000104834H141.12C141.6 -0.000104834 143.88 0.239895 143.88 0.239895C156.028 0.690753 168.058 2.78995 179.64 6.4799L182.28 7.3199L185.76 20.1599L191.64 15.8399L224.52 27.3599L232.32 44.6399H272.88L247.32 77.6399L261.24 108.36L227.04 143.52C227.04 143.52 214.56 134.4 205.92 131.04L195.6 144.24C194.989 156.397 190.671 168.076 183.227 177.708C175.784 187.34 165.57 194.463 153.96 198.12L136.08 221.28Z" fill="white"/>
<path d="M136.08 204.96L252.72 54.6001H20.16L136.08 204.96Z" fill="#B3B2B1"/>
<path d="M252.72 54.5999L136.08 204.96L20.16 54.5999H252.72ZM10.68 49.9199L136.08 212.76L262.32 49.9199H10.68Z" fill="#006BB6"/>
<path d="M235.92 65.0399L235.68 64.9199L228.24 59.8799L231 54.5999L231.12 54.3599L231 54.2399L220.68 31.6799V31.5599L220.56 31.4399L192.96 21.5999H192.72L192.6 21.7199L185.28 27.3599H185.16V27.4799L183.96 30.5999C174.577 28.5279 165.081 27.0054 155.52 26.0399C153.84 25.9199 149.28 25.5599 141.96 24.9599L141.24 24.8399H140.28L134.64 30.3599V24.8399C134.64 24.8399 119.16 25.5599 108.96 26.9999C98.88 28.4399 88.92 30.9599 88.92 30.9599L87 26.9999L86.88 26.8799L86.76 26.7599L73.68 20.7599L73.32 20.6399L73.2 20.9999L71.76 25.1999L71.4 24.3599L71.28 23.9999L70.92 24.2399L52.2 31.6799L52.08 31.7999H51.96L17.52 107.64L45.72 135.96L47.16 135.24C47.88 134.76 49.08 134.04 50.52 133.2C54 131.16 58.68 128.4 60.96 127.32L61.32 127.08C64.2 125.64 65.76 125.04 79.44 119.04L80.64 118.56C80.64 118.56 82.2 117.96 84.96 117C92.52 114.6 112.2 108.72 131.28 108.72H133.68C146.76 109.08 161.76 111.84 172.2 114C182.16 116.16 189.72 118.2 191.88 118.8L193.32 119.28C204.359 123.831 214.962 129.374 225 135.84L226.44 136.56L255.12 107.16L235.92 65.0399Z" fill="#006BB6"/>
<path d="M232.68 67.6799L205.2 49.3199L200.52 35.8799L208.92 38.9999L212.4 47.3999L225.36 51.4799L217.8 34.7999L193.32 26.1599L188.76 29.6399L196.92 56.1599L223.08 74.6399L229.68 91.3199L218.76 86.3999L215.04 75.9599L201.72 71.9999L208.92 95.6399C211.08 96.3599 213.24 97.1999 215.4 98.0399C221.28 100.44 227.16 103.2 232.92 105.96C236.88 108 240.72 110.16 244.56 112.44L250.2 106.56L232.68 67.6799Z" fill="#FF671B"/>
<path d="M47.04 80.1601L56.16 72L58.32 74.52L49.32 100.56C54.36 98.4 59.28 96.36 64.44 94.56L70.92 73.0801L65.28 63.7201L76.92 52.5601L83.88 29.64L75.48 25.8L67.92 47.4001L55.68 57.84L66.72 30L54.84 34.8L22.08 106.68L27.24 111.84C30.36 110.04 33.36 108.36 36.48 106.8L47.04 80.1601Z" fill="#FF671B"/>
<path d="M130.08 28.8L120.12 29.4L115.32 83.4001C119.64 83.0401 123.96 82.68 128.28 82.56L130.08 28.8Z" fill="#FF671B"/>
<path d="M159.96 72.1201L148.2 71.4001L146.28 38.4001L156.24 38.76L155.04 29.64L141.72 28.8L135.84 34.68V75.96L142.08 82.4401C148.462 82.5527 154.833 83.0335 161.16 83.88L159.96 72.1201Z" fill="#FF671B"/>
<path d="M93.72 50.16L97.92 70.68L95.28 86.16C99.36 85.44 103.44 84.72 107.52 84.24L114 30L104.64 31.44L101.52 49.08L98.16 32.64L87.12 35.28L72 92.04C76.32 90.6 80.88 89.4 85.32 88.32L93.72 50.16Z" fill="#FF671B"/>
<path d="M174.96 69.24L178.2 64.8L183 68.76L187.44 88.8C192 90 196.68 91.32 201.12 92.76L192.96 63.36L184.44 56.4L189.24 49.92L185.16 34.92L174.96 32.64L179.04 47.76L172.68 56.16L167.88 31.44L158.4 30.24C158.4 30.24 163.08 66.6 165.48 84.48C169.68 85.08 174 85.8 178.32 86.64L174.96 69.24Z" fill="#FF671B"/>
<path d="M116.76 93.6001C116.76 93.6001 120.72 91.2001 128.64 90.3601L128.4 84.1201C124.08 84.2401 119.76 84.4801 115.44 84.9601C115.8 87.3601 116.4 91.0801 116.76 93.6001Z" fill="#B3B2B1"/>
<path d="M141.96 90C145.238 90.5352 148.484 91.2563 151.68 92.16C154.444 92.8671 157.136 93.8313 159.72 95.04L161.16 85.44C154.68 84.72 148.68 84.24 142.2 84C142.08 86.04 142.08 88.68 141.96 90Z" fill="#B3B2B1"/>
<path d="M100.32 105.24C103.92 102.48 106.2 99.5998 110.04 97.1998C109.32 93.7198 108.36 89.1598 107.64 85.7998C103.44 86.2798 99.24 86.9998 95.16 87.8398C96.72 93.1198 98.76 99.9598 100.32 105.24Z" fill="#B3B2B1"/>
<path d="M162.96 97.2C166.478 99.2881 169.705 101.83 172.56 104.76L173.16 105.24L178.32 88.44C173.88 87.48 169.68 86.64 165.24 86.04L162.96 97.2Z" fill="#B3B2B1"/>
<path d="M178.92 111.72L191.04 114.48L201.12 94.44C196.56 92.88 191.88 91.68 187.2 90.48L178.92 111.72Z" fill="#B3B2B1"/>
<path d="M81.84 114.48C84.96 113.28 89.4 111.84 93.48 110.64L85.68 89.8799C80.88 91.0799 76.68 92.1599 72.12 93.7199C75.12 100.68 78.36 107.88 81.84 114.48Z" fill="#B3B2B1"/>
<path d="M63.72 122.04C64.32 121.44 71.28 118.44 75.96 116.4C72.36 110.04 68.04 102.84 64.56 96.3599C59.28 98.1599 54.72 100.08 49.68 102.24L63.72 122.04Z" fill="#B3B2B1"/>
<path d="M46.56 131.04C48.72 129.6 51.12 128.4 53.64 126.84L37.68 108C34.56 109.56 31.56 111.24 28.56 113.04L46.56 131.04Z" fill="#B3B2B1"/>
<path d="M197.28 117C207.167 121.093 216.682 126.031 225.72 131.76C228.24 129.48 241.56 115.44 243.48 113.52C232.345 106.992 220.661 101.451 208.56 96.96L197.28 117Z" fill="#B3B2B1"/>
<path d="M140.16 89.6399L135.48 89.5199L135.36 78.3599L140.16 83.3999V89.6399Z" fill="#B3B2B1"/>
<path d="M136.56 87.48C125.88 87.48 115.439 90.647 106.559 96.5806C97.6789 102.514 90.7576 110.948 86.6705 120.815C82.5834 130.682 81.514 141.54 83.5976 152.015C85.6812 162.49 90.8242 172.112 98.3762 179.664C105.928 187.216 115.55 192.359 126.025 194.442C136.5 196.526 147.358 195.457 157.225 191.369C167.092 187.282 175.526 180.361 181.459 171.481C187.393 162.601 190.56 152.16 190.56 141.48C190.559 127.159 184.869 113.424 174.743 103.297C164.616 93.1708 150.881 87.4811 136.56 87.48Z" fill="#006BB6"/>
<path d="M139.92 91.5598C135.775 93.1133 131.727 94.9166 127.8 96.9598C125.16 95.2798 123.6 94.9198 121.68 93.7198C127.32 91.5598 133.56 91.3198 139.92 91.5598Z" fill="#FF671B"/>
<path d="M178.56 114.48C165.84 101.64 146.76 102.6 130.56 98.0403C130.56 98.0403 140.16 93.6002 144.96 92.2803C158.28 94.5602 171.12 102.36 178.56 114.48Z" fill="#FF671B"/>
<path d="M107.04 116.4C100.993 125.481 97.4333 135.989 96.7173 146.875C96.0014 157.762 98.1539 168.646 102.96 178.44C90.36 168 82.92 147.36 88.56 127.56C93.12 121.08 99.12 115.44 107.04 116.4Z" fill="#FF671B"/>
<path d="M120.12 129.84C126.72 149.4 128.16 171 145.32 190.8C131.88 193.44 118.8 189.36 108.36 182.76C95.28 163.8 96.48 135.48 109.56 117C115.8 118.92 119.28 127.2 120.12 129.84Z" fill="#FF671B"/>
<path d="M111 114.96C112.973 112.142 115.224 109.529 117.72 107.16C145.32 114.96 171.72 143.64 176.28 171.84C174.96 173.88 171.84 176.88 169.68 179.04C163.468 184.49 156.008 188.323 147.96 190.2C135 176.76 130.8 159.36 126.24 142.2C122.76 129 120.36 119.04 111 114.96Z" fill="#FF671B"/>
<path d="M175.56 114.84C162.24 103.08 143.64 104.64 128.04 99.1201C125.042 100.976 122.194 103.062 119.52 105.36C147.24 114 172.32 141.12 178.32 169.08C182.619 162.724 185.372 155.45 186.36 147.84C186.96 135.96 186.96 125.16 175.56 114.84Z" fill="#FF671B"/>
<path d="M115.44 106.2C112.969 108.678 110.72 111.368 108.72 114.24H108.6C101.28 112.56 95.52 116.4 90.96 121.2C93.602 114.876 97.6192 109.219 102.72 104.64C107.16 104.76 110.52 104.76 115.44 106.2Z" fill="#FF671B"/>
<path d="M117.36 104.52C119.942 102.213 122.711 100.126 125.64 98.2798L118.56 94.7998C113.76 96.7198 108.72 99.2398 105.24 102.36C109.341 102.682 113.4 103.405 117.36 104.52Z" fill="#FF671B"/>
<path d="M128.88 21.2401L126.72 23.4001L123 23.6401L121.56 22.4401L119.76 23.8801L115.68 24.2401L113.88 22.5601L116.28 6.60006L119.4 6.24006L117.72 20.4001L119.88 20.1601L121.68 6.00006L124.68 5.76006L123.48 19.8001L125.64 19.5601L126.72 5.64006C127.789 5.44938 128.875 5.36896 129.96 5.40006L128.88 21.2401Z" fill="#006BB6"/>
<path d="M138.96 5.16004V15.24H140.88L140.76 5.16004C140.76 5.16004 142.8 5.28004 143.76 5.40004L144.12 16.56L142.2 18.48H141.6L141.72 23.28L138.36 23.16V18.36H137.64L135.6 16.2L135.72 5.04004C136.92 5.16004 138.96 5.16004 138.96 5.16004Z" fill="#006BB6"/>
<path d="M114 6.95996L113.52 10.32L109.68 11.04L109.08 14.76C110.52 14.64 111.24 14.4 112.92 14.16C112.68 15.6 112.56 16.2 112.32 17.52L108.6 18L107.88 21.72L111.72 21.24C111.72 21.24 111.36 23.64 111.24 24.84C108.575 25.0546 105.929 25.4556 103.32 26.04C103.32 26.04 106.08 12.6 106.92 8.39996L114 6.95996Z" fill="#006BB6"/>
<path d="M99.96 26.64L96.12 27.36L97.92 20.04L96.72 17.4L93.48 27.84L89.76 28.68C91.32 23.04 92.88 17.28 94.44 11.64C95.76 11.16 96.72 10.92 97.92 10.44C98.3488 11.4248 98.8295 12.3861 99.36 13.32L100.32 9.72001C100.32 9.72001 102.72 9.12001 103.92 8.76001L99.96 26.64Z" fill="#006BB6"/>
<path d="M149.64 8.99989L150.72 20.0399L152.64 20.1599L151.56 9.23989L149.64 8.99989ZM154.68 8.27989C155.04 12.8399 155.88 17.2799 156.36 21.4799L154.56 23.9999L149.16 23.6399L147.12 21.4799C146.88 16.7999 146.52 12.1199 146.28 7.43989C146.76 6.83989 147.6 6.23989 148.2 5.63989L152.76 5.99989L154.68 8.27989Z" fill="#006BB6"/>
<path d="M172.44 9.84C173.16 12.48 174.48 17.88 174.48 17.88L175.8 18.12L176.4 17.28L174.72 10.56C174.72 10.56 176.4 11.04 178.08 11.52L179.88 18L179.16 19.2L180.6 20.76L182.88 28.68L179.16 27.84L177.6 22.32L175.32 21.84L176.52 27.36L172.68 26.64C171.36 20.64 168.96 9 168.96 9C170.136 9.2102 171.298 9.4907 172.44 9.84Z" fill="#006BB6"/>
<path d="M161.28 10.8001L161.88 15.2401L163.92 15.4801L163.08 11.0401L161.28 10.8001ZM166.56 10.5601L167.76 17.0401L167.16 18.1201L168.36 19.6801L169.56 26.1601L165.84 25.5601L164.76 20.1601L162.6 19.9201L163.32 25.2001L159.72 24.7201L157.32 6.84009L164.28 8.04009L166.56 10.5601Z" fill="#006BB6"/>
</g>
<defs>
<clipPath id="clip0_110_79">
<rect width="272.88" height="221.28" fill="white"/>
</clipPath>
</defs>
</svg>
